M48
; DRILL file {KiCad 9.0.0} date 2025-03-07T07:18:13+0700
; FORMAT={-:-/ absolute / inch / decimal}
; #@! TF.CreationDate,2025-03-07T07:18:13+07:00
; #@! TF.GenerationSoftware,Kicad,Pcbnew,9.0.0
; #@! TF.FileFunction,Plated,1,4,PTH
FMAT,2
INCH
; #@! TA.AperFunction,Plated,PTH,ViaDrill
T1C0.0118
; #@! TA.AperFunction,Plated,PTH,ComponentDrill
T2C0.0374
; #@! TA.AperFunction,Plated,PTH,ComponentDrill
T3C0.0394
%
G90
G05
T1
X4.565Y-3.6112
X4.5669Y-3.7333
X4.5679Y-3.9823
X4.6398Y-3.2904
X4.6703Y-3.565
X4.7077Y-4.0443
X4.7303Y-3.9941
X4.7402Y-3.7913
X4.811Y-4.0787
X4.8268Y-4.2343
X4.8465Y-4.0866
X4.8533Y-3.6614
X4.8612Y-3.3533
X4.8632Y-3.8967
X4.8976Y-3.0915
X4.9222Y-3.3563
X4.9236Y-4.2563
X4.9685Y-4.1693
X4.998Y-3.0138
X5.0Y-3.9213
X5.0008Y-3.6339
X5.0039Y-3.8937
X5.0254Y-3.6598
X5.0512Y-3.8937
X5.052Y-3.6413
X5.0581Y-3.4646
X5.0679Y-2.9783
X5.0807Y-3.6004
X5.0846Y-3.3888
X5.0866Y-3.9134
X5.1063Y-3.8898
X5.1102Y-4.2441
X5.1996Y-3.4843
X5.3268Y-3.5492
X5.3374Y-3.9146
X5.3531Y-3.7799
X5.3681Y-3.6407
X5.4252Y-3.2677
X5.4567Y-3.7323
X5.4733Y-3.9001
X5.4961Y-4.0394
X5.5433Y-3.8425
X5.5472Y-3.5236
X5.5965Y-3.0472
X5.8839Y-3.0443
T2
X5.4606Y-2.7193
X5.5591Y-2.7193
X5.6575Y-2.7193
X5.7559Y-2.7193
X5.8543Y-2.7193
X5.9528Y-2.7193
T3
X4.2449Y-3.2902
X4.2449Y-3.3902
X4.2449Y-3.4902
X4.2449Y-3.5902
X4.2449Y-3.6902
X4.2449Y-3.7902
X4.2449Y-3.8902
X4.2449Y-3.9902
X4.3193Y-2.7646
X4.3193Y-2.8646
X4.3449Y-3.2902
X4.3449Y-3.3902
X4.3449Y-3.4902
X4.3449Y-3.5902
X4.3449Y-3.6902
X4.3449Y-3.7902
X4.3449Y-3.8902
X4.3449Y-3.9902
X4.4193Y-2.7646
X4.4193Y-2.8646
X4.4236Y-4.4252
X4.4236Y-4.5252
X4.5193Y-2.7646
X4.5193Y-2.8646
X4.5236Y-4.4252
X4.5236Y-4.5252
X4.6236Y-4.4252
X4.6236Y-4.5252
X4.7236Y-4.4252
X4.7236Y-4.5252
X4.8236Y-4.4252
X4.8236Y-4.5252
X4.9236Y-4.4252
X4.9236Y-4.5252
X5.0236Y-4.4252
X5.0236Y-4.5252
X5.1236Y-4.4252
X5.1236Y-4.5252
X5.2126Y-4.185
X5.2236Y-4.4252
X5.2236Y-4.5252
X5.3236Y-4.4252
X5.3236Y-4.5252
X5.3602Y-4.187
X5.4236Y-4.4252
X5.4236Y-4.5252
X5.5079Y-4.187
X5.5236Y-4.4252
X5.5236Y-4.5252
X5.6236Y-4.4252
X5.6236Y-4.5252
X5.6309Y-3.9636
X5.6309Y-4.0636
X5.7309Y-3.9636
X5.7309Y-4.0636
X5.761Y-3.3661
X5.761Y-3.4661
X5.761Y-3.5661
X5.761Y-3.6661
X5.8309Y-3.9636
X5.8309Y-4.0636
X5.861Y-3.3661
X5.861Y-3.4661
X5.861Y-3.5661
X5.861Y-3.6661
X5.9309Y-3.9636
X5.9309Y-4.0636
M30
