%TF.GenerationSoftware,KiCad,Pcbnew,9.0.0*%
%TF.CreationDate,2025-03-07T07:18:05+07:00*%
%TF.ProjectId,MCU,4d43552e-6b69-4636-9164-5f7063625858,rev?*%
%TF.SameCoordinates,Original*%
%TF.FileFunction,Copper,L3,Inr*%
%TF.FilePolarity,Positive*%
%FSLAX46Y46*%
G04 Gerber Fmt 4.6, Leading zero omitted, Abs format (unit mm)*
G04 Created by KiCad (PCBNEW 9.0.0) date 2025-03-07 07:18:05*
%MOMM*%
%LPD*%
G01*
G04 APERTURE LIST*
G04 Aperture macros list*
%AMRoundRect*
0 Rectangle with rounded corners*
0 $1 Rounding radius*
0 $2 $3 $4 $5 $6 $7 $8 $9 X,Y pos of 4 corners*
0 Add a 4 corners polygon primitive as box body*
4,1,4,$2,$3,$4,$5,$6,$7,$8,$9,$2,$3,0*
0 Add four circle primitives for the rounded corners*
1,1,$1+$1,$2,$3*
1,1,$1+$1,$4,$5*
1,1,$1+$1,$6,$7*
1,1,$1+$1,$8,$9*
0 Add four rect primitives between the rounded corners*
20,1,$1+$1,$2,$3,$4,$5,0*
20,1,$1+$1,$4,$5,$6,$7,0*
20,1,$1+$1,$6,$7,$8,$9,0*
20,1,$1+$1,$8,$9,$2,$3,0*%
G04 Aperture macros list end*
%TA.AperFunction,ComponentPad*%
%ADD10RoundRect,0.250000X-0.600000X-0.600000X0.600000X-0.600000X0.600000X0.600000X-0.600000X0.600000X0*%
%TD*%
%TA.AperFunction,ComponentPad*%
%ADD11C,1.700000*%
%TD*%
%TA.AperFunction,ComponentPad*%
%ADD12RoundRect,0.250000X0.600000X0.600000X-0.600000X0.600000X-0.600000X-0.600000X0.600000X-0.600000X0*%
%TD*%
%TA.AperFunction,ComponentPad*%
%ADD13R,1.700000X1.700000*%
%TD*%
%TA.AperFunction,ComponentPad*%
%ADD14O,1.700000X1.700000*%
%TD*%
%TA.AperFunction,ComponentPad*%
%ADD15RoundRect,0.250000X-0.600000X-0.725000X0.600000X-0.725000X0.600000X0.725000X-0.600000X0.725000X0*%
%TD*%
%TA.AperFunction,ComponentPad*%
%ADD16O,1.700000X1.950000*%
%TD*%
%TA.AperFunction,ComponentPad*%
%ADD17RoundRect,0.250000X-0.600000X0.600000X-0.600000X-0.600000X0.600000X-0.600000X0.600000X0.600000X0*%
%TD*%
%TA.AperFunction,ComponentPad*%
%ADD18RoundRect,0.250000X0.600000X-0.600000X0.600000X0.600000X-0.600000X0.600000X-0.600000X-0.600000X0*%
%TD*%
%TA.AperFunction,ComponentPad*%
%ADD19C,2.000000*%
%TD*%
%TA.AperFunction,ViaPad*%
%ADD20C,0.450000*%
%TD*%
%TA.AperFunction,ViaPad*%
%ADD21C,0.600000*%
%TD*%
%TA.AperFunction,Conductor*%
%ADD22C,0.250000*%
%TD*%
G04 APERTURE END LIST*
D10*
%TO.N,VDD*%
%TO.C,J4*%
X146330000Y-85500000D03*
D11*
%TO.N,GND*%
X148870000Y-85500000D03*
%TO.N,Net-(J4-Pin_3)*%
X146330000Y-88040000D03*
%TO.N,GND*%
X148870000Y-88040000D03*
%TO.N,Net-(J4-Pin_5)*%
X146330000Y-90580000D03*
%TO.N,GND*%
X148870000Y-90580000D03*
%TO.N,Net-(J4-Pin_7)*%
X146330000Y-93120000D03*
%TO.N,GND*%
X148870000Y-93120000D03*
%TD*%
D12*
%TO.N,VDD*%
%TO.C,J7*%
X110360000Y-101350000D03*
D11*
%TO.N,GND*%
X107820000Y-101350000D03*
%TO.N,/Connector and Sensor/IMU_CS*%
X110360000Y-98810000D03*
%TO.N,GND*%
X107820000Y-98810000D03*
%TO.N,/Connector and Sensor/IMU_INT2*%
X110360000Y-96270000D03*
%TO.N,GND*%
X107820000Y-96270000D03*
%TO.N,/Connector and Sensor/IMU_INT1*%
X110360000Y-93730000D03*
%TO.N,GND*%
X107820000Y-93730000D03*
%TO.N,/Connector and Sensor/IMU_SCLK*%
X110360000Y-91190000D03*
%TO.N,GND*%
X107820000Y-91190000D03*
%TO.N,/Connector and Sensor/IMU_MISO*%
X110360000Y-88650000D03*
%TO.N,GND*%
X107820000Y-88650000D03*
%TO.N,/Connector and Sensor/IMU_MOSI*%
X110360000Y-86110000D03*
%TO.N,GND*%
X107820000Y-86110000D03*
%TO.N,unconnected-(J7-Pin_15-Pad15)*%
X110360000Y-83570000D03*
%TO.N,GND*%
X107820000Y-83570000D03*
%TD*%
D13*
%TO.N,/Connector and Sensor/TIM1_CH3*%
%TO.C,J1*%
X143025000Y-103215000D03*
D14*
%TO.N,/Connector and Sensor/TIM1_CH2*%
X143025000Y-100675000D03*
%TO.N,/Connector and Sensor/TIM1_CH3N*%
X145565000Y-103215000D03*
%TO.N,/Connector and Sensor/TIM1_CH2N*%
X145565000Y-100675000D03*
%TO.N,/Connector and Sensor/TIM1_CH1*%
X148105000Y-103215000D03*
%TO.N,unconnected-(J1-Pin_6-Pad6)*%
X148105000Y-100675000D03*
%TO.N,/Connector and Sensor/NFAULT*%
X150645000Y-103215000D03*
%TO.N,GND*%
X150645000Y-100675000D03*
%TD*%
D15*
%TO.N,SWO*%
%TO.C,J2*%
X138700000Y-69070000D03*
D16*
%TO.N,NRST*%
X141200000Y-69070000D03*
%TO.N,SWDIO*%
X143700000Y-69070000D03*
%TO.N,GND*%
X146200000Y-69070000D03*
%TO.N,SWCLK*%
X148700000Y-69070000D03*
%TO.N,VDD*%
X151200000Y-69070000D03*
%TD*%
D17*
%TO.N,VDD*%
%TO.C,J5*%
X142840000Y-112400000D03*
D11*
%TO.N,GND*%
X142840000Y-114940000D03*
%TO.N,+5V*%
X140300000Y-112400000D03*
%TO.N,GND*%
X140300000Y-114940000D03*
%TO.N,/Connector and Sensor/Vcurrfdbk_A*%
X137760000Y-112400000D03*
%TO.N,GND*%
X137760000Y-114940000D03*
%TO.N,/Connector and Sensor/Vcurrfdbk_B*%
X135220000Y-112400000D03*
%TO.N,GND*%
X135220000Y-114940000D03*
%TO.N,/Connector and Sensor/Vcurrfdbk_C*%
X132680000Y-112400000D03*
%TO.N,GND*%
X132680000Y-114940000D03*
%TO.N,/Connector and Sensor/NSLEEP*%
X130140000Y-112400000D03*
%TO.N,GND*%
X130140000Y-114940000D03*
%TO.N,/Connector and Sensor/NFAULT*%
X127600000Y-112400000D03*
%TO.N,GND*%
X127600000Y-114940000D03*
%TO.N,/Connector and Sensor/TIM1_CH3N*%
X125060000Y-112400000D03*
%TO.N,GND*%
X125060000Y-114940000D03*
%TO.N,/Connector and Sensor/TIM1_CH3*%
X122520000Y-112400000D03*
%TO.N,GND*%
X122520000Y-114940000D03*
%TO.N,/Connector and Sensor/TIM1_CH2N*%
X119980000Y-112400000D03*
%TO.N,GND*%
X119980000Y-114940000D03*
%TO.N,/Connector and Sensor/TIM1_CH2*%
X117440000Y-112400000D03*
%TO.N,GND*%
X117440000Y-114940000D03*
%TO.N,/Connector and Sensor/TIM1_CH1N*%
X114900000Y-112400000D03*
%TO.N,GND*%
X114900000Y-114940000D03*
%TO.N,/Connector and Sensor/TIM1_CH1*%
X112360000Y-112400000D03*
%TO.N,GND*%
X112360000Y-114940000D03*
%TD*%
D18*
%TO.N,+5V*%
%TO.C,J3*%
X109710000Y-72760000D03*
D11*
%TO.N,GND*%
X109710000Y-70220000D03*
%TO.N,Net-(J3-Pin_3)*%
X112250000Y-72760000D03*
%TO.N,GND*%
X112250000Y-70220000D03*
%TO.N,Net-(J3-Pin_5)*%
X114790000Y-72760000D03*
%TO.N,GND*%
X114790000Y-70220000D03*
%TD*%
D19*
%TO.N,/Connector and Sensor/Vcurrfdbk_A*%
%TO.C,TP1*%
X139900000Y-106350000D03*
%TD*%
%TO.N,/Connector and Sensor/Vcurrfdbk_B*%
%TO.C,TP2*%
X136150000Y-106350000D03*
%TD*%
%TO.N,/Connector and Sensor/Vcurrfdbk_C*%
%TO.C,TP3*%
X132400000Y-106300000D03*
%TD*%
D20*
%TO.N,GND*%
X136350000Y-92475000D03*
X142150000Y-77400000D03*
X140800000Y-97600000D03*
X119575000Y-102725000D03*
X129150000Y-86075000D03*
X117850000Y-83575000D03*
X120400000Y-96300000D03*
X149450000Y-77325000D03*
X123525000Y-98975000D03*
X125025000Y-85250000D03*
X140900000Y-89500000D03*
X138600000Y-94800000D03*
X118625000Y-90550000D03*
X116000000Y-94825000D03*
%TO.N,VDD*%
X115950000Y-91725000D03*
X120150000Y-101450000D03*
X135300000Y-90150000D03*
X124400000Y-78525000D03*
X139600000Y-102600000D03*
X116025000Y-101150000D03*
X132070000Y-88500000D03*
X123475000Y-85175000D03*
%TO.N,USER*%
X128475000Y-88000000D03*
X129050000Y-91450000D03*
%TO.N,NRST*%
X128725000Y-75650000D03*
X126950000Y-76550000D03*
%TO.N,/Connector and Sensor/TIM1_CH3*%
X127000000Y-99600000D03*
X122600000Y-107550000D03*
%TO.N,/Connector and Sensor/NFAULT*%
X129800000Y-107800000D03*
D21*
%TO.N,SWCLK*%
X139021942Y-99061942D03*
%TO.N,/Connector and Sensor/Vcurrfdbk_B*%
X127645000Y-92960000D03*
D20*
%TO.N,LED*%
X123275000Y-93000000D03*
X137800000Y-83000000D03*
D21*
%TO.N,/Connector and Sensor/Vcurrfdbk_C*%
X127020000Y-92300000D03*
D20*
%TO.N,/Connector and Sensor/IMU_INT1*%
X123100000Y-103800000D03*
D21*
%TO.N,SWDIO*%
X135570000Y-99430000D03*
D20*
%TO.N,/Connector and Sensor/NSLEEP*%
X126200000Y-105900000D03*
%TO.N,/Connector and Sensor/TIM1_CH2*%
X129200000Y-99400000D03*
%TO.N,/Connector and Sensor/TIM1_CH3N*%
X125060000Y-108110000D03*
X127100000Y-98900000D03*
%TO.N,/Connector and Sensor/TIM1_CH2N*%
X129700000Y-98800000D03*
%TO.N,/Connector and Sensor/IMU_INT2*%
X122200000Y-103600000D03*
%TO.N,/Connector and Sensor/TIM1_CH1*%
X128300000Y-98900000D03*
D21*
%TO.N,/Connector and Sensor/Vcurrfdbk_A*%
X128320000Y-92490000D03*
%TO.N,SWO*%
X135970000Y-96010000D03*
%TD*%
D22*
%TO.N,/Connector and Sensor/TIM1_CH3*%
X127500000Y-102800000D02*
X127500000Y-100100000D01*
X127915000Y-103215000D02*
X127500000Y-102800000D01*
X143025000Y-103215000D02*
X127915000Y-103215000D01*
X127500000Y-100100000D02*
X127000000Y-99600000D01*
%TO.N,/Connector and Sensor/NFAULT*%
X129800000Y-107800000D02*
X129900000Y-107900000D01*
X129900000Y-107900000D02*
X144325000Y-107900000D01*
X150650000Y-104850000D02*
X150645000Y-104845000D01*
X149700000Y-106025000D02*
X150650000Y-105075000D01*
X144325000Y-107900000D02*
X146200000Y-106025000D01*
X150650000Y-105075000D02*
X150650000Y-104850000D01*
X150645000Y-104845000D02*
X150645000Y-103215000D01*
X146200000Y-106025000D02*
X149700000Y-106025000D01*
%TO.N,/Connector and Sensor/TIM1_CH2*%
X129500000Y-100400000D02*
X130400000Y-101300000D01*
X142400000Y-101300000D02*
X143025000Y-100675000D01*
X129500000Y-99700000D02*
X129500000Y-100400000D01*
X130400000Y-101300000D02*
X142400000Y-101300000D01*
X129200000Y-99400000D02*
X129500000Y-99700000D01*
%TO.N,/Connector and Sensor/TIM1_CH3N*%
X128000000Y-99800000D02*
X127100000Y-98900000D01*
X128300000Y-101900000D02*
X128000000Y-101600000D01*
X144250000Y-101900000D02*
X128300000Y-101900000D01*
X145565000Y-103215000D02*
X144250000Y-101900000D01*
X128000000Y-101600000D02*
X128000000Y-99800000D01*
%TO.N,/Connector and Sensor/TIM1_CH2N*%
X139800000Y-100700000D02*
X141100000Y-99400000D01*
X145000000Y-99400000D02*
X145565000Y-99965000D01*
X145565000Y-99965000D02*
X145565000Y-100675000D01*
X130700000Y-100700000D02*
X139800000Y-100700000D01*
X129700000Y-98800000D02*
X130000000Y-99100000D01*
X130000000Y-100000000D02*
X130700000Y-100700000D01*
X130000000Y-99100000D02*
X130000000Y-100000000D01*
X141100000Y-99400000D02*
X145000000Y-99400000D01*
%TO.N,/Connector and Sensor/TIM1_CH1*%
X146500000Y-104500000D02*
X128300000Y-104500000D01*
X148105000Y-103215000D02*
X146820000Y-104500000D01*
X127600000Y-98200000D02*
X127800000Y-98400000D01*
X126600000Y-98200000D02*
X127600000Y-98200000D01*
X127800000Y-98400000D02*
X128300000Y-98900000D01*
X126100000Y-98700000D02*
X126600000Y-98200000D01*
X126100000Y-102300000D02*
X126100000Y-99500000D01*
X128300000Y-104500000D02*
X127000000Y-103200000D01*
X127000000Y-103200000D02*
X126100000Y-102300000D01*
X146820000Y-104500000D02*
X146500000Y-104500000D01*
X126100000Y-99500000D02*
X126100000Y-98700000D01*
%TD*%
%TA.AperFunction,Conductor*%
%TO.N,GND*%
G36*
X103838405Y-59118235D02*
G01*
X103851313Y-59119592D01*
X104179587Y-59171585D01*
X104192270Y-59174280D01*
X104513332Y-59260309D01*
X104525665Y-59264316D01*
X104835971Y-59383432D01*
X104847807Y-59388701D01*
X105143977Y-59539607D01*
X105155191Y-59546083D01*
X105433943Y-59727106D01*
X105444444Y-59734735D01*
X105702749Y-59943907D01*
X105712394Y-59952592D01*
X105947407Y-60187605D01*
X105956092Y-60197250D01*
X106165264Y-60455555D01*
X106172893Y-60466056D01*
X106353913Y-60744802D01*
X106360399Y-60756035D01*
X106511293Y-61052182D01*
X106516572Y-61064039D01*
X106635681Y-61374329D01*
X106639692Y-61386673D01*
X106725717Y-61707723D01*
X106728415Y-61720419D01*
X106780407Y-62048686D01*
X106781764Y-62061594D01*
X106799330Y-62396756D01*
X106799500Y-62403246D01*
X106799500Y-65073071D01*
X106799500Y-65100000D01*
X106799500Y-65152727D01*
X106826793Y-65254587D01*
X106879520Y-65345913D01*
X106954087Y-65420480D01*
X107045413Y-65473207D01*
X107147273Y-65500500D01*
X107180009Y-65500500D01*
X120473071Y-65500500D01*
X120490244Y-65500500D01*
X120509630Y-65502025D01*
X120542253Y-65507192D01*
X120579146Y-65519179D01*
X120599765Y-65529685D01*
X120631151Y-65552489D01*
X120647510Y-65568848D01*
X120670314Y-65600234D01*
X120680820Y-65620853D01*
X120692808Y-65657748D01*
X120697973Y-65690359D01*
X120699500Y-65709755D01*
X120699500Y-69573071D01*
X120699500Y-69600000D01*
X120699500Y-69652727D01*
X120726793Y-69754587D01*
X120779520Y-69845913D01*
X120854087Y-69920480D01*
X120945413Y-69973207D01*
X121047273Y-70000500D01*
X121047275Y-70000500D01*
X135152725Y-70000500D01*
X135152727Y-70000500D01*
X135254587Y-69973207D01*
X135345913Y-69920480D01*
X135420480Y-69845913D01*
X135473207Y-69754587D01*
X135500500Y-69652727D01*
X135500500Y-69600000D01*
X135500500Y-69573071D01*
X135500500Y-68294983D01*
X137349500Y-68294983D01*
X137349500Y-69845001D01*
X137349501Y-69845018D01*
X137360000Y-69947796D01*
X137360001Y-69947799D01*
X137405894Y-70086294D01*
X137415186Y-70114334D01*
X137507288Y-70263656D01*
X137631344Y-70387712D01*
X137780666Y-70479814D01*
X137947203Y-70534999D01*
X138049991Y-70545500D01*
X139350008Y-70545499D01*
X139452797Y-70534999D01*
X139619334Y-70479814D01*
X139768656Y-70387712D01*
X139892712Y-70263656D01*
X139984814Y-70114334D01*
X139984814Y-70114331D01*
X139988178Y-70108879D01*
X140040126Y-70062154D01*
X140109088Y-70050931D01*
X140173170Y-70078774D01*
X140181398Y-70086294D01*
X140320213Y-70225109D01*
X140492179Y-70350048D01*
X140492181Y-70350049D01*
X140492184Y-70350051D01*
X140681588Y-70446557D01*
X140883757Y-70512246D01*
X141093713Y-70545500D01*
X141093714Y-70545500D01*
X141306286Y-70545500D01*
X141306287Y-70545500D01*
X141516243Y-70512246D01*
X141718412Y-70446557D01*
X141907816Y-70350051D01*
X141929789Y-70334086D01*
X142079786Y-70225109D01*
X142079788Y-70225106D01*
X142079792Y-70225104D01*
X142230104Y-70074792D01*
X142349683Y-69910204D01*
X142405011Y-69867540D01*
X142474624Y-69861561D01*
X142536420Y-69894166D01*
X142550313Y-69910199D01*
X142615920Y-70000500D01*
X142669896Y-70074792D01*
X142820213Y-70225109D01*
X142992179Y-70350048D01*
X142992181Y-70350049D01*
X142992184Y-70350051D01*
X143181588Y-70446557D01*
X143383757Y-70512246D01*
X143593713Y-70545500D01*
X143593714Y-70545500D01*
X143806286Y-70545500D01*
X143806287Y-70545500D01*
X144016243Y-70512246D01*
X144218412Y-70446557D01*
X144407816Y-70350051D01*
X144429789Y-70334086D01*
X144579786Y-70225109D01*
X144579788Y-70225106D01*
X144579792Y-70225104D01*
X144730104Y-70074792D01*
X144730106Y-70074788D01*
X144730109Y-70074786D01*
X144855048Y-69902820D01*
X144855047Y-69902820D01*
X144855051Y-69902816D01*
X144951557Y-69713412D01*
X145017246Y-69511243D01*
X145050500Y-69301287D01*
X145050500Y-68838713D01*
X147349500Y-68838713D01*
X147349500Y-69301287D01*
X147382754Y-69511243D01*
X147402843Y-69573071D01*
X147448444Y-69713414D01*
X147544951Y-69902820D01*
X147669890Y-70074786D01*
X147820213Y-70225109D01*
X147992179Y-70350048D01*
X147992181Y-70350049D01*
X147992184Y-70350051D01*
X148181588Y-70446557D01*
X148383757Y-70512246D01*
X148593713Y-70545500D01*
X148593714Y-70545500D01*
X148806286Y-70545500D01*
X148806287Y-70545500D01*
X149016243Y-70512246D01*
X149218412Y-70446557D01*
X149407816Y-70350051D01*
X149429789Y-70334086D01*
X149579786Y-70225109D01*
X149579788Y-70225106D01*
X149579792Y-70225104D01*
X149730104Y-70074792D01*
X149849683Y-69910204D01*
X149905011Y-69867540D01*
X149974624Y-69861561D01*
X150036420Y-69894166D01*
X150050313Y-69910199D01*
X150115920Y-70000500D01*
X150169896Y-70074792D01*
X150320213Y-70225109D01*
X150492179Y-70350048D01*
X150492181Y-70350049D01*
X150492184Y-70350051D01*
X150681588Y-70446557D01*
X150883757Y-70512246D01*
X151093713Y-70545500D01*
X151093714Y-70545500D01*
X151306286Y-70545500D01*
X151306287Y-70545500D01*
X151516243Y-70512246D01*
X151718412Y-70446557D01*
X151907816Y-70350051D01*
X151929789Y-70334086D01*
X152079786Y-70225109D01*
X152079788Y-70225106D01*
X152079792Y-70225104D01*
X152230104Y-70074792D01*
X152230106Y-70074788D01*
X152230109Y-70074786D01*
X152355048Y-69902820D01*
X152355047Y-69902820D01*
X152355051Y-69902816D01*
X152451557Y-69713412D01*
X152517246Y-69511243D01*
X152550500Y-69301287D01*
X152550500Y-68838713D01*
X152517246Y-68628757D01*
X152451557Y-68426588D01*
X152355051Y-68237184D01*
X152355049Y-68237181D01*
X152355048Y-68237179D01*
X152230109Y-68065213D01*
X152079786Y-67914890D01*
X151907820Y-67789951D01*
X151718414Y-67693444D01*
X151718413Y-67693443D01*
X151718412Y-67693443D01*
X151516243Y-67627754D01*
X151516241Y-67627753D01*
X151516240Y-67627753D01*
X151354957Y-67602208D01*
X151306287Y-67594500D01*
X151093713Y-67594500D01*
X151045042Y-67602208D01*
X150883760Y-67627753D01*
X150681585Y-67693444D01*
X150492179Y-67789951D01*
X150320213Y-67914890D01*
X150169894Y-68065209D01*
X150169890Y-68065214D01*
X150050318Y-68229793D01*
X149994989Y-68272459D01*
X149925375Y-68278438D01*
X149863580Y-68245833D01*
X149849682Y-68229793D01*
X149730109Y-68065214D01*
X149730105Y-68065209D01*
X149579786Y-67914890D01*
X149407820Y-67789951D01*
X149218414Y-67693444D01*
X149218413Y-67693443D01*
X149218412Y-67693443D01*
X149016243Y-67627754D01*
X149016241Y-67627753D01*
X149016240Y-67627753D01*
X148854957Y-67602208D01*
X148806287Y-67594500D01*
X148593713Y-67594500D01*
X148545042Y-67602208D01*
X148383760Y-67627753D01*
X148181585Y-67693444D01*
X147992179Y-67789951D01*
X147820213Y-67914890D01*
X147669890Y-68065213D01*
X147544951Y-68237179D01*
X147448444Y-68426585D01*
X147382753Y-68628760D01*
X147349500Y-68838713D01*
X145050500Y-68838713D01*
X145017246Y-68628757D01*
X144951557Y-68426588D01*
X144855051Y-68237184D01*
X144855049Y-68237181D01*
X144855048Y-68237179D01*
X144730109Y-68065213D01*
X144579786Y-67914890D01*
X144407820Y-67789951D01*
X144218414Y-67693444D01*
X144218413Y-67693443D01*
X144218412Y-67693443D01*
X144016243Y-67627754D01*
X144016241Y-67627753D01*
X144016240Y-67627753D01*
X143854957Y-67602208D01*
X143806287Y-67594500D01*
X143593713Y-67594500D01*
X143545042Y-67602208D01*
X143383760Y-67627753D01*
X143181585Y-67693444D01*
X142992179Y-67789951D01*
X142820213Y-67914890D01*
X142669894Y-68065209D01*
X142669890Y-68065214D01*
X142550318Y-68229793D01*
X142494989Y-68272459D01*
X142425375Y-68278438D01*
X142363580Y-68245833D01*
X142349682Y-68229793D01*
X142230109Y-68065214D01*
X142230105Y-68065209D01*
X142079786Y-67914890D01*
X141907820Y-67789951D01*
X141718414Y-67693444D01*
X141718413Y-67693443D01*
X141718412Y-67693443D01*
X141516243Y-67627754D01*
X141516241Y-67627753D01*
X141516240Y-67627753D01*
X141354957Y-67602208D01*
X141306287Y-67594500D01*
X141093713Y-67594500D01*
X141045042Y-67602208D01*
X140883760Y-67627753D01*
X140681585Y-67693444D01*
X140492179Y-67789951D01*
X140320215Y-67914889D01*
X140181398Y-68053706D01*
X140120075Y-68087190D01*
X140050383Y-68082206D01*
X139994450Y-68040334D01*
X139988178Y-68031120D01*
X139892712Y-67876344D01*
X139768657Y-67752289D01*
X139768656Y-67752288D01*
X139619334Y-67660186D01*
X139452797Y-67605001D01*
X139452795Y-67605000D01*
X139350010Y-67594500D01*
X138049998Y-67594500D01*
X138049981Y-67594501D01*
X137947203Y-67605000D01*
X137947200Y-67605001D01*
X137780668Y-67660185D01*
X137780663Y-67660187D01*
X137631342Y-67752289D01*
X137507289Y-67876342D01*
X137415187Y-68025663D01*
X137415185Y-68025668D01*
X137410325Y-68040334D01*
X137360001Y-68192203D01*
X137360001Y-68192204D01*
X137360000Y-68192204D01*
X137349500Y-68294983D01*
X135500500Y-68294983D01*
X135500500Y-65709755D01*
X135502025Y-65690370D01*
X135507192Y-65657744D01*
X135519177Y-65620857D01*
X135529687Y-65600230D01*
X135552486Y-65568851D01*
X135568851Y-65552486D01*
X135600230Y-65529687D01*
X135620857Y-65519177D01*
X135657744Y-65507192D01*
X135690369Y-65502025D01*
X135709756Y-65500500D01*
X148052725Y-65500500D01*
X148052727Y-65500500D01*
X148154587Y-65473207D01*
X148245913Y-65420480D01*
X148320480Y-65345913D01*
X148373207Y-65254587D01*
X148400500Y-65152727D01*
X148400500Y-65100000D01*
X148400500Y-65073071D01*
X148400500Y-62403246D01*
X148400670Y-62396756D01*
X148406071Y-62293713D01*
X150345300Y-62293713D01*
X150345300Y-62506286D01*
X150378553Y-62716239D01*
X150444244Y-62918414D01*
X150540751Y-63107820D01*
X150665690Y-63279786D01*
X150816013Y-63430109D01*
X150987979Y-63555048D01*
X150987981Y-63555049D01*
X150987984Y-63555051D01*
X151177388Y-63651557D01*
X151379557Y-63717246D01*
X151589513Y-63750500D01*
X151589514Y-63750500D01*
X151802086Y-63750500D01*
X151802087Y-63750500D01*
X152012043Y-63717246D01*
X152214212Y-63651557D01*
X152403616Y-63555051D01*
X152425589Y-63539086D01*
X152575586Y-63430109D01*
X152575588Y-63430106D01*
X152575592Y-63430104D01*
X152725904Y-63279792D01*
X152725906Y-63279788D01*
X152725909Y-63279786D01*
X152850848Y-63107820D01*
X152850847Y-63107820D01*
X152850851Y-63107816D01*
X152947357Y-62918412D01*
X153013046Y-62716243D01*
X153046300Y-62506287D01*
X153046300Y-62293713D01*
X153013046Y-62083757D01*
X152947357Y-61881588D01*
X152850851Y-61692184D01*
X152850849Y-61692181D01*
X152850848Y-61692179D01*
X152725909Y-61520213D01*
X152575586Y-61369890D01*
X152403620Y-61244951D01*
X152214214Y-61148444D01*
X152214213Y-61148443D01*
X152214212Y-61148443D01*
X152012043Y-61082754D01*
X152012041Y-61082753D01*
X152012040Y-61082753D01*
X151819020Y-61052182D01*
X151802087Y-61049500D01*
X151589513Y-61049500D01*
X151572580Y-61052182D01*
X151379560Y-61082753D01*
X151177385Y-61148444D01*
X150987979Y-61244951D01*
X150816013Y-61369890D01*
X150665690Y-61520213D01*
X150540751Y-61692179D01*
X150444244Y-61881585D01*
X150378553Y-62083760D01*
X150345300Y-62293713D01*
X148406071Y-62293713D01*
X148406666Y-62282351D01*
X148406666Y-62282350D01*
X148418235Y-62061595D01*
X148419592Y-62048686D01*
X148471586Y-61720409D01*
X148474279Y-61707733D01*
X148560310Y-61386662D01*
X148564314Y-61374340D01*
X148683434Y-61064021D01*
X148688698Y-61052199D01*
X148839611Y-60756014D01*
X148846077Y-60744816D01*
X149027113Y-60466045D01*
X149034727Y-60455564D01*
X149243915Y-60197241D01*
X149252582Y-60187615D01*
X149487615Y-59952582D01*
X149497241Y-59943915D01*
X149755564Y-59734727D01*
X149766045Y-59727113D01*
X150044816Y-59546077D01*
X150056014Y-59539611D01*
X150352199Y-59388698D01*
X150364021Y-59383434D01*
X150674340Y-59264314D01*
X150686662Y-59260310D01*
X151007733Y-59174279D01*
X151020409Y-59171586D01*
X151348688Y-59119591D01*
X151361592Y-59118235D01*
X151693512Y-59100840D01*
X151706488Y-59100840D01*
X152038405Y-59118235D01*
X152051313Y-59119592D01*
X152379587Y-59171585D01*
X152392270Y-59174280D01*
X152713332Y-59260309D01*
X152725665Y-59264316D01*
X153035971Y-59383432D01*
X153047807Y-59388701D01*
X153343977Y-59539607D01*
X153355191Y-59546083D01*
X153633943Y-59727106D01*
X153644444Y-59734735D01*
X153902749Y-59943907D01*
X153912394Y-59952592D01*
X154147407Y-60187605D01*
X154156092Y-60197250D01*
X154365264Y-60455555D01*
X154372893Y-60466056D01*
X154553913Y-60744802D01*
X154560399Y-60756035D01*
X154711293Y-61052182D01*
X154716572Y-61064039D01*
X154835681Y-61374329D01*
X154839692Y-61386673D01*
X154925717Y-61707723D01*
X154928415Y-61720419D01*
X154980407Y-62048686D01*
X154981764Y-62061594D01*
X154999330Y-62396756D01*
X154999500Y-62403246D01*
X154999500Y-117596753D01*
X154999330Y-117603243D01*
X154981764Y-117938405D01*
X154980407Y-117951313D01*
X154928415Y-118279580D01*
X154925717Y-118292276D01*
X154839692Y-118613326D01*
X154835681Y-118625670D01*
X154716572Y-118935960D01*
X154711293Y-118947817D01*
X154560399Y-119243964D01*
X154553909Y-119255204D01*
X154372893Y-119533943D01*
X154365264Y-119544444D01*
X154156092Y-119802749D01*
X154147407Y-119812394D01*
X153912394Y-120047407D01*
X153902749Y-120056092D01*
X153644444Y-120265264D01*
X153633943Y-120272893D01*
X153355204Y-120453909D01*
X153343964Y-120460399D01*
X153047817Y-120611293D01*
X153035960Y-120616572D01*
X152725670Y-120735681D01*
X152713326Y-120739692D01*
X152392276Y-120825717D01*
X152379580Y-120828415D01*
X152051313Y-120880407D01*
X152038405Y-120881764D01*
X151703244Y-120899330D01*
X151696754Y-120899500D01*
X103503246Y-120899500D01*
X103496756Y-120899330D01*
X103161594Y-120881764D01*
X103148686Y-120880407D01*
X102820419Y-120828415D01*
X102807723Y-120825717D01*
X102486673Y-120739692D01*
X102474329Y-120735681D01*
X102164039Y-120616572D01*
X102152182Y-120611293D01*
X102141990Y-120606100D01*
X101856029Y-120460395D01*
X101844802Y-120453913D01*
X101566056Y-120272893D01*
X101555555Y-120265264D01*
X101297250Y-120056092D01*
X101287605Y-120047407D01*
X101052592Y-119812394D01*
X101043907Y-119802749D01*
X100834735Y-119544444D01*
X100827106Y-119533943D01*
X100741283Y-119401787D01*
X100646083Y-119255191D01*
X100639607Y-119243977D01*
X100488701Y-118947807D01*
X100483432Y-118935971D01*
X100364316Y-118625665D01*
X100360307Y-118613326D01*
X100274282Y-118292276D01*
X100271584Y-118279580D01*
X100245398Y-118114250D01*
X100219592Y-117951313D01*
X100218235Y-117938405D01*
X100200670Y-117603243D01*
X100200500Y-117596753D01*
X100200500Y-117493713D01*
X102149500Y-117493713D01*
X102149500Y-117706286D01*
X102182753Y-117916239D01*
X102248444Y-118118414D01*
X102344951Y-118307820D01*
X102469890Y-118479786D01*
X102620213Y-118630109D01*
X102792179Y-118755048D01*
X102792181Y-118755049D01*
X102792184Y-118755051D01*
X102981588Y-118851557D01*
X103183757Y-118917246D01*
X103393713Y-118950500D01*
X103393714Y-118950500D01*
X103606286Y-118950500D01*
X103606287Y-118950500D01*
X103816243Y-118917246D01*
X104018412Y-118851557D01*
X104207816Y-118755051D01*
X104229789Y-118739086D01*
X104379786Y-118630109D01*
X104379788Y-118630106D01*
X104379792Y-118630104D01*
X104530104Y-118479792D01*
X104530106Y-118479788D01*
X104530109Y-118479786D01*
X104655048Y-118307820D01*
X104655047Y-118307820D01*
X104655051Y-118307816D01*
X104751557Y-118118412D01*
X104817246Y-117916243D01*
X104850500Y-117706287D01*
X104850500Y-117493713D01*
X150349500Y-117493713D01*
X150349500Y-117706286D01*
X150382753Y-117916239D01*
X150448444Y-118118414D01*
X150544951Y-118307820D01*
X150669890Y-118479786D01*
X150820213Y-118630109D01*
X150992179Y-118755048D01*
X150992181Y-118755049D01*
X150992184Y-118755051D01*
X151181588Y-118851557D01*
X151383757Y-118917246D01*
X151593713Y-118950500D01*
X151593714Y-118950500D01*
X151806286Y-118950500D01*
X151806287Y-118950500D01*
X152016243Y-118917246D01*
X152218412Y-118851557D01*
X152407816Y-118755051D01*
X152429789Y-118739086D01*
X152579786Y-118630109D01*
X152579788Y-118630106D01*
X152579792Y-118630104D01*
X152730104Y-118479792D01*
X152730106Y-118479788D01*
X152730109Y-118479786D01*
X152855048Y-118307820D01*
X152855047Y-118307820D01*
X152855051Y-118307816D01*
X152951557Y-118118412D01*
X153017246Y-117916243D01*
X153050500Y-117706287D01*
X153050500Y-117493713D01*
X153017246Y-117283757D01*
X152951557Y-117081588D01*
X152855051Y-116892184D01*
X152855049Y-116892181D01*
X152855048Y-116892179D01*
X152730109Y-116720213D01*
X152579786Y-116569890D01*
X152407820Y-116444951D01*
X152218414Y-116348444D01*
X152218413Y-116348443D01*
X152218412Y-116348443D01*
X152016243Y-116282754D01*
X152016241Y-116282753D01*
X152016240Y-116282753D01*
X151854957Y-116257208D01*
X151806287Y-116249500D01*
X151593713Y-116249500D01*
X151545042Y-116257208D01*
X151383760Y-116282753D01*
X151181585Y-116348444D01*
X150992179Y-116444951D01*
X150820213Y-116569890D01*
X150669890Y-116720213D01*
X150544951Y-116892179D01*
X150448444Y-117081585D01*
X150382753Y-117283760D01*
X150349500Y-117493713D01*
X104850500Y-117493713D01*
X104817246Y-117283757D01*
X104751557Y-117081588D01*
X104655051Y-116892184D01*
X104655049Y-116892181D01*
X104655048Y-116892179D01*
X104530109Y-116720213D01*
X104379786Y-116569890D01*
X104207820Y-116444951D01*
X104018414Y-116348444D01*
X104018413Y-116348443D01*
X104018412Y-116348443D01*
X103816243Y-116282754D01*
X103816241Y-116282753D01*
X103816240Y-116282753D01*
X103654957Y-116257208D01*
X103606287Y-116249500D01*
X103393713Y-116249500D01*
X103345042Y-116257208D01*
X103183760Y-116282753D01*
X102981585Y-116348444D01*
X102792179Y-116444951D01*
X102620213Y-116569890D01*
X102469890Y-116720213D01*
X102344951Y-116892179D01*
X102248444Y-117081585D01*
X102182753Y-117283760D01*
X102149500Y-117493713D01*
X100200500Y-117493713D01*
X100200500Y-112293713D01*
X111009500Y-112293713D01*
X111009500Y-112506286D01*
X111042753Y-112716239D01*
X111108444Y-112918414D01*
X111204951Y-113107820D01*
X111329890Y-113279786D01*
X111480213Y-113430109D01*
X111652179Y-113555048D01*
X111652181Y-113555049D01*
X111652184Y-113555051D01*
X111841588Y-113651557D01*
X112043757Y-113717246D01*
X112253713Y-113750500D01*
X112253714Y-113750500D01*
X112466286Y-113750500D01*
X112466287Y-113750500D01*
X112676243Y-113717246D01*
X112878412Y-113651557D01*
X113067816Y-113555051D01*
X113089789Y-113539086D01*
X113239786Y-113430109D01*
X113239788Y-113430106D01*
X113239792Y-113430104D01*
X113390104Y-113279792D01*
X113390106Y-113279788D01*
X113390109Y-113279786D01*
X113515048Y-113107820D01*
X113515047Y-113107820D01*
X113515051Y-113107816D01*
X113519514Y-113099054D01*
X113567488Y-113048259D01*
X113635308Y-113031463D01*
X113701444Y-113053999D01*
X113740486Y-113099056D01*
X113744951Y-113107820D01*
X113869890Y-113279786D01*
X114020213Y-113430109D01*
X114192179Y-113555048D01*
X114192181Y-113555049D01*
X114192184Y-113555051D01*
X114381588Y-113651557D01*
X114583757Y-113717246D01*
X114793713Y-113750500D01*
X114793714Y-113750500D01*
X115006286Y-113750500D01*
X115006287Y-113750500D01*
X115216243Y-113717246D01*
X115418412Y-113651557D01*
X115607816Y-113555051D01*
X115629789Y-113539086D01*
X115779786Y-113430109D01*
X115779788Y-113430106D01*
X115779792Y-113430104D01*
X115930104Y-113279792D01*
X115930106Y-113279788D01*
X115930109Y-113279786D01*
X116055048Y-113107820D01*
X116055047Y-113107820D01*
X116055051Y-113107816D01*
X116059514Y-113099054D01*
X116107488Y-113048259D01*
X116175308Y-113031463D01*
X116241444Y-113053999D01*
X116280486Y-113099056D01*
X116284951Y-113107820D01*
X116409890Y-113279786D01*
X116560213Y-113430109D01*
X116732179Y-113555048D01*
X116732181Y-113555049D01*
X116732184Y-113555051D01*
X116921588Y-113651557D01*
X117123757Y-113717246D01*
X117333713Y-113750500D01*
X117333714Y-113750500D01*
X117546286Y-113750500D01*
X117546287Y-113750500D01*
X117756243Y-113717246D01*
X117958412Y-113651557D01*
X118147816Y-113555051D01*
X118169789Y-113539086D01*
X118319786Y-113430109D01*
X118319788Y-113430106D01*
X118319792Y-113430104D01*
X118470104Y-113279792D01*
X118470106Y-113279788D01*
X118470109Y-113279786D01*
X118595048Y-113107820D01*
X118595047Y-113107820D01*
X118595051Y-113107816D01*
X118599514Y-113099054D01*
X118647488Y-113048259D01*
X118715308Y-113031463D01*
X118781444Y-113053999D01*
X118820486Y-113099056D01*
X118824951Y-113107820D01*
X118949890Y-113279786D01*
X119100213Y-113430109D01*
X119272179Y-113555048D01*
X119272181Y-113555049D01*
X119272184Y-113555051D01*
X119461588Y-113651557D01*
X119663757Y-113717246D01*
X119873713Y-113750500D01*
X119873714Y-113750500D01*
X120086286Y-113750500D01*
X120086287Y-113750500D01*
X120296243Y-113717246D01*
X120498412Y-113651557D01*
X120687816Y-113555051D01*
X120709789Y-113539086D01*
X120859786Y-113430109D01*
X120859788Y-113430106D01*
X120859792Y-113430104D01*
X121010104Y-113279792D01*
X121010106Y-113279788D01*
X121010109Y-113279786D01*
X121135048Y-113107820D01*
X121135047Y-113107820D01*
X121135051Y-113107816D01*
X121139514Y-113099054D01*
X121187488Y-113048259D01*
X121255308Y-113031463D01*
X121321444Y-113053999D01*
X121360486Y-113099056D01*
X121364951Y-113107820D01*
X121489890Y-113279786D01*
X121640213Y-113430109D01*
X121812179Y-113555048D01*
X121812181Y-113555049D01*
X121812184Y-113555051D01*
X122001588Y-113651557D01*
X122203757Y-113717246D01*
X122413713Y-113750500D01*
X122413714Y-113750500D01*
X122626286Y-113750500D01*
X122626287Y-113750500D01*
X122836243Y-113717246D01*
X123038412Y-113651557D01*
X123227816Y-113555051D01*
X123249789Y-113539086D01*
X123399786Y-113430109D01*
X123399788Y-113430106D01*
X123399792Y-113430104D01*
X123550104Y-113279792D01*
X123550106Y-113279788D01*
X123550109Y-113279786D01*
X123675048Y-113107820D01*
X123675047Y-113107820D01*
X123675051Y-113107816D01*
X123679514Y-113099054D01*
X123727488Y-113048259D01*
X123795308Y-113031463D01*
X123861444Y-113053999D01*
X123900486Y-113099056D01*
X123904951Y-113107820D01*
X124029890Y-113279786D01*
X124180213Y-113430109D01*
X124352179Y-113555048D01*
X124352181Y-113555049D01*
X124352184Y-113555051D01*
X124541588Y-113651557D01*
X124743757Y-113717246D01*
X124953713Y-113750500D01*
X124953714Y-113750500D01*
X125166286Y-113750500D01*
X125166287Y-113750500D01*
X125376243Y-113717246D01*
X125578412Y-113651557D01*
X125767816Y-113555051D01*
X125789789Y-113539086D01*
X125939786Y-113430109D01*
X125939788Y-113430106D01*
X125939792Y-113430104D01*
X126090104Y-113279792D01*
X126090106Y-113279788D01*
X126090109Y-113279786D01*
X126215048Y-113107820D01*
X126215047Y-113107820D01*
X126215051Y-113107816D01*
X126219514Y-113099054D01*
X126267488Y-113048259D01*
X126335308Y-113031463D01*
X126401444Y-113053999D01*
X126440486Y-113099056D01*
X126444951Y-113107820D01*
X126569890Y-113279786D01*
X126720213Y-113430109D01*
X126892179Y-113555048D01*
X126892181Y-113555049D01*
X126892184Y-113555051D01*
X127081588Y-113651557D01*
X127283757Y-113717246D01*
X127493713Y-113750500D01*
X127493714Y-113750500D01*
X127706286Y-113750500D01*
X127706287Y-113750500D01*
X127916243Y-113717246D01*
X128118412Y-113651557D01*
X128307816Y-113555051D01*
X128329789Y-113539086D01*
X128479786Y-113430109D01*
X128479788Y-113430106D01*
X128479792Y-113430104D01*
X128630104Y-113279792D01*
X128630106Y-113279788D01*
X128630109Y-113279786D01*
X128755048Y-113107820D01*
X128755047Y-113107820D01*
X128755051Y-113107816D01*
X128759514Y-113099054D01*
X128807488Y-113048259D01*
X128875308Y-113031463D01*
X128941444Y-113053999D01*
X128980486Y-113099056D01*
X128984951Y-113107820D01*
X129109890Y-113279786D01*
X129260213Y-113430109D01*
X129432179Y-113555048D01*
X129432181Y-113555049D01*
X129432184Y-113555051D01*
X129621588Y-113651557D01*
X129823757Y-113717246D01*
X130033713Y-113750500D01*
X130033714Y-113750500D01*
X130246286Y-113750500D01*
X130246287Y-113750500D01*
X130456243Y-113717246D01*
X130658412Y-113651557D01*
X130847816Y-113555051D01*
X130869789Y-113539086D01*
X131019786Y-113430109D01*
X131019788Y-113430106D01*
X131019792Y-113430104D01*
X131170104Y-113279792D01*
X131170106Y-113279788D01*
X131170109Y-113279786D01*
X131295048Y-113107820D01*
X131295047Y-113107820D01*
X131295051Y-113107816D01*
X131299514Y-113099054D01*
X131347488Y-113048259D01*
X131415308Y-113031463D01*
X131481444Y-113053999D01*
X131520486Y-113099056D01*
X131524951Y-113107820D01*
X131649890Y-113279786D01*
X131800213Y-113430109D01*
X131972179Y-113555048D01*
X131972181Y-113555049D01*
X131972184Y-113555051D01*
X132161588Y-113651557D01*
X132363757Y-113717246D01*
X132573713Y-113750500D01*
X132573714Y-113750500D01*
X132786286Y-113750500D01*
X132786287Y-113750500D01*
X132996243Y-113717246D01*
X133198412Y-113651557D01*
X133387816Y-113555051D01*
X133409789Y-113539086D01*
X133559786Y-113430109D01*
X133559788Y-113430106D01*
X133559792Y-113430104D01*
X133710104Y-113279792D01*
X133710106Y-113279788D01*
X133710109Y-113279786D01*
X133835048Y-113107820D01*
X133835047Y-113107820D01*
X133835051Y-113107816D01*
X133839514Y-113099054D01*
X133887488Y-113048259D01*
X133955308Y-113031463D01*
X134021444Y-113053999D01*
X134060486Y-113099056D01*
X134064951Y-113107820D01*
X134189890Y-113279786D01*
X134340213Y-113430109D01*
X134512179Y-113555048D01*
X134512181Y-113555049D01*
X134512184Y-113555051D01*
X134701588Y-113651557D01*
X134903757Y-113717246D01*
X135113713Y-113750500D01*
X135113714Y-113750500D01*
X135326286Y-113750500D01*
X135326287Y-113750500D01*
X135536243Y-113717246D01*
X135738412Y-113651557D01*
X135927816Y-113555051D01*
X135949789Y-113539086D01*
X136099786Y-113430109D01*
X136099788Y-113430106D01*
X136099792Y-113430104D01*
X136250104Y-113279792D01*
X136250106Y-113279788D01*
X136250109Y-113279786D01*
X136375048Y-113107820D01*
X136375047Y-113107820D01*
X136375051Y-113107816D01*
X136379514Y-113099054D01*
X136427488Y-113048259D01*
X136495308Y-113031463D01*
X136561444Y-113053999D01*
X136600486Y-113099056D01*
X136604951Y-113107820D01*
X136729890Y-113279786D01*
X136880213Y-113430109D01*
X137052179Y-113555048D01*
X137052181Y-113555049D01*
X137052184Y-113555051D01*
X137241588Y-113651557D01*
X137443757Y-113717246D01*
X137653713Y-113750500D01*
X137653714Y-113750500D01*
X137866286Y-113750500D01*
X137866287Y-113750500D01*
X138076243Y-113717246D01*
X138278412Y-113651557D01*
X138467816Y-113555051D01*
X138489789Y-113539086D01*
X138639786Y-113430109D01*
X138639788Y-113430106D01*
X138639792Y-113430104D01*
X138790104Y-113279792D01*
X138790106Y-113279788D01*
X138790109Y-113279786D01*
X138915048Y-113107820D01*
X138915047Y-113107820D01*
X138915051Y-113107816D01*
X138919514Y-113099054D01*
X138967488Y-113048259D01*
X139035308Y-113031463D01*
X139101444Y-113053999D01*
X139140486Y-113099056D01*
X139144951Y-113107820D01*
X139269890Y-113279786D01*
X139420213Y-113430109D01*
X139592179Y-113555048D01*
X139592181Y-113555049D01*
X139592184Y-113555051D01*
X139781588Y-113651557D01*
X139983757Y-113717246D01*
X140193713Y-113750500D01*
X140193714Y-113750500D01*
X140406286Y-113750500D01*
X140406287Y-113750500D01*
X140616243Y-113717246D01*
X140818412Y-113651557D01*
X141007816Y-113555051D01*
X141029789Y-113539086D01*
X141179786Y-113430109D01*
X141179788Y-113430106D01*
X141179792Y-113430104D01*
X141330104Y-113279792D01*
X141333660Y-113274896D01*
X141388987Y-113232230D01*
X141458600Y-113226248D01*
X141520397Y-113258851D01*
X141551686Y-113308772D01*
X141555186Y-113319334D01*
X141647288Y-113468656D01*
X141771344Y-113592712D01*
X141920666Y-113684814D01*
X142087203Y-113739999D01*
X142189991Y-113750500D01*
X143490008Y-113750499D01*
X143592797Y-113739999D01*
X143759334Y-113684814D01*
X143908656Y-113592712D01*
X144032712Y-113468656D01*
X144124814Y-113319334D01*
X144179999Y-113152797D01*
X144190500Y-113050009D01*
X144190499Y-111749992D01*
X144179999Y-111647203D01*
X144124814Y-111480666D01*
X144032712Y-111331344D01*
X143908656Y-111207288D01*
X143759334Y-111115186D01*
X143592797Y-111060001D01*
X143592795Y-111060000D01*
X143490010Y-111049500D01*
X142189998Y-111049500D01*
X142189981Y-111049501D01*
X142087203Y-111060000D01*
X142087200Y-111060001D01*
X141920668Y-111115185D01*
X141920663Y-111115187D01*
X141771342Y-111207289D01*
X141647289Y-111331342D01*
X141555187Y-111480663D01*
X141555183Y-111480673D01*
X141551685Y-111491229D01*
X141511910Y-111548672D01*
X141447393Y-111575493D01*
X141378618Y-111563174D01*
X141333663Y-111525106D01*
X141330105Y-111520209D01*
X141179786Y-111369890D01*
X141007820Y-111244951D01*
X140818414Y-111148444D01*
X140818413Y-111148443D01*
X140818412Y-111148443D01*
X140616243Y-111082754D01*
X140616241Y-111082753D01*
X140616240Y-111082753D01*
X140454957Y-111057208D01*
X140406287Y-111049500D01*
X140193713Y-111049500D01*
X140145042Y-111057208D01*
X139983760Y-111082753D01*
X139781585Y-111148444D01*
X139592179Y-111244951D01*
X139420213Y-111369890D01*
X139269890Y-111520213D01*
X139144949Y-111692182D01*
X139140484Y-111700946D01*
X139092509Y-111751742D01*
X139024688Y-111768536D01*
X138958553Y-111745998D01*
X138919516Y-111700946D01*
X138915050Y-111692182D01*
X138790109Y-111520213D01*
X138639786Y-111369890D01*
X138467820Y-111244951D01*
X138278414Y-111148444D01*
X138278413Y-111148443D01*
X138278412Y-111148443D01*
X138076243Y-111082754D01*
X138076241Y-111082753D01*
X138076240Y-111082753D01*
X137914957Y-111057208D01*
X137866287Y-111049500D01*
X137653713Y-111049500D01*
X137605042Y-111057208D01*
X137443760Y-111082753D01*
X137241585Y-111148444D01*
X137052179Y-111244951D01*
X136880213Y-111369890D01*
X136729890Y-111520213D01*
X136604949Y-111692182D01*
X136600484Y-111700946D01*
X136552509Y-111751742D01*
X136484688Y-111768536D01*
X136418553Y-111745998D01*
X136379516Y-111700946D01*
X136375050Y-111692182D01*
X136250109Y-111520213D01*
X136099786Y-111369890D01*
X135927820Y-111244951D01*
X135738414Y-111148444D01*
X135738413Y-111148443D01*
X135738412Y-111148443D01*
X135536243Y-111082754D01*
X135536241Y-111082753D01*
X135536240Y-111082753D01*
X135374957Y-111057208D01*
X135326287Y-111049500D01*
X135113713Y-111049500D01*
X135065042Y-111057208D01*
X134903760Y-111082753D01*
X134701585Y-111148444D01*
X134512179Y-111244951D01*
X134340213Y-111369890D01*
X134189890Y-111520213D01*
X134064949Y-111692182D01*
X134060484Y-111700946D01*
X134012509Y-111751742D01*
X133944688Y-111768536D01*
X133878553Y-111745998D01*
X133839516Y-111700946D01*
X133835050Y-111692182D01*
X133710109Y-111520213D01*
X133559786Y-111369890D01*
X133387820Y-111244951D01*
X133198414Y-111148444D01*
X133198413Y-111148443D01*
X133198412Y-111148443D01*
X132996243Y-111082754D01*
X132996241Y-111082753D01*
X132996240Y-111082753D01*
X132834957Y-111057208D01*
X132786287Y-111049500D01*
X132573713Y-111049500D01*
X132525042Y-111057208D01*
X132363760Y-111082753D01*
X132161585Y-111148444D01*
X131972179Y-111244951D01*
X131800213Y-111369890D01*
X131649890Y-111520213D01*
X131524949Y-111692182D01*
X131520484Y-111700946D01*
X131472509Y-111751742D01*
X131404688Y-111768536D01*
X131338553Y-111745998D01*
X131299516Y-111700946D01*
X131295050Y-111692182D01*
X131170109Y-111520213D01*
X131019786Y-111369890D01*
X130847820Y-111244951D01*
X130658414Y-111148444D01*
X130658413Y-111148443D01*
X130658412Y-111148443D01*
X130456243Y-111082754D01*
X130456241Y-111082753D01*
X130456240Y-111082753D01*
X130294957Y-111057208D01*
X130246287Y-111049500D01*
X130033713Y-111049500D01*
X129985042Y-111057208D01*
X129823760Y-111082753D01*
X129621585Y-111148444D01*
X129432179Y-111244951D01*
X129260213Y-111369890D01*
X129109890Y-111520213D01*
X128984949Y-111692182D01*
X128980484Y-111700946D01*
X128932509Y-111751742D01*
X128864688Y-111768536D01*
X128798553Y-111745998D01*
X128759516Y-111700946D01*
X128755050Y-111692182D01*
X128630109Y-111520213D01*
X128479786Y-111369890D01*
X128307820Y-111244951D01*
X128118414Y-111148444D01*
X128118413Y-111148443D01*
X128118412Y-111148443D01*
X127916243Y-111082754D01*
X127916241Y-111082753D01*
X127916240Y-111082753D01*
X127754957Y-111057208D01*
X127706287Y-111049500D01*
X127493713Y-111049500D01*
X127445042Y-111057208D01*
X127283760Y-111082753D01*
X127081585Y-111148444D01*
X126892179Y-111244951D01*
X126720213Y-111369890D01*
X126569890Y-111520213D01*
X126444949Y-111692182D01*
X126440484Y-111700946D01*
X126392509Y-111751742D01*
X126324688Y-111768536D01*
X126258553Y-111745998D01*
X126219516Y-111700946D01*
X126215050Y-111692182D01*
X126090109Y-111520213D01*
X125939786Y-111369890D01*
X125767820Y-111244951D01*
X125578414Y-111148444D01*
X125578413Y-111148443D01*
X125578412Y-111148443D01*
X125376243Y-111082754D01*
X125376241Y-111082753D01*
X125376240Y-111082753D01*
X125214957Y-111057208D01*
X125166287Y-111049500D01*
X124953713Y-111049500D01*
X124905042Y-111057208D01*
X124743760Y-111082753D01*
X124541585Y-111148444D01*
X124352179Y-111244951D01*
X124180213Y-111369890D01*
X124029890Y-111520213D01*
X123904949Y-111692182D01*
X123900484Y-111700946D01*
X123852509Y-111751742D01*
X123784688Y-111768536D01*
X123718553Y-111745998D01*
X123679516Y-111700946D01*
X123675050Y-111692182D01*
X123550109Y-111520213D01*
X123399786Y-111369890D01*
X123227820Y-111244951D01*
X123038414Y-111148444D01*
X123038413Y-111148443D01*
X123038412Y-111148443D01*
X122836243Y-111082754D01*
X122836241Y-111082753D01*
X122836240Y-111082753D01*
X122674957Y-111057208D01*
X122626287Y-111049500D01*
X122413713Y-111049500D01*
X122365042Y-111057208D01*
X122203760Y-111082753D01*
X122001585Y-111148444D01*
X121812179Y-111244951D01*
X121640213Y-111369890D01*
X121489890Y-111520213D01*
X121364949Y-111692182D01*
X121360484Y-111700946D01*
X121312509Y-111751742D01*
X121244688Y-111768536D01*
X121178553Y-111745998D01*
X121139516Y-111700946D01*
X121135050Y-111692182D01*
X121010109Y-111520213D01*
X120859786Y-111369890D01*
X120687820Y-111244951D01*
X120498414Y-111148444D01*
X120498413Y-111148443D01*
X120498412Y-111148443D01*
X120296243Y-111082754D01*
X120296241Y-111082753D01*
X120296240Y-111082753D01*
X120134957Y-111057208D01*
X120086287Y-111049500D01*
X119873713Y-111049500D01*
X119825042Y-111057208D01*
X119663760Y-111082753D01*
X119461585Y-111148444D01*
X119272179Y-111244951D01*
X119100213Y-111369890D01*
X118949890Y-111520213D01*
X118824949Y-111692182D01*
X118820484Y-111700946D01*
X118772509Y-111751742D01*
X118704688Y-111768536D01*
X118638553Y-111745998D01*
X118599516Y-111700946D01*
X118595050Y-111692182D01*
X118470109Y-111520213D01*
X118319786Y-111369890D01*
X118147820Y-111244951D01*
X117958414Y-111148444D01*
X117958413Y-111148443D01*
X117958412Y-111148443D01*
X117756243Y-111082754D01*
X117756241Y-111082753D01*
X117756240Y-111082753D01*
X117594957Y-111057208D01*
X117546287Y-111049500D01*
X117333713Y-111049500D01*
X117285042Y-111057208D01*
X117123760Y-111082753D01*
X116921585Y-111148444D01*
X116732179Y-111244951D01*
X116560213Y-111369890D01*
X116409890Y-111520213D01*
X116284949Y-111692182D01*
X116280484Y-111700946D01*
X116232509Y-111751742D01*
X116164688Y-111768536D01*
X116098553Y-111745998D01*
X116059516Y-111700946D01*
X116055050Y-111692182D01*
X115930109Y-111520213D01*
X115779786Y-111369890D01*
X115607820Y-111244951D01*
X115418414Y-111148444D01*
X115418413Y-111148443D01*
X115418412Y-111148443D01*
X115216243Y-111082754D01*
X115216241Y-111082753D01*
X115216240Y-111082753D01*
X115054957Y-111057208D01*
X115006287Y-111049500D01*
X114793713Y-111049500D01*
X114745042Y-111057208D01*
X114583760Y-111082753D01*
X114381585Y-111148444D01*
X114192179Y-111244951D01*
X114020213Y-111369890D01*
X113869890Y-111520213D01*
X113744949Y-111692182D01*
X113740484Y-111700946D01*
X113692509Y-111751742D01*
X113624688Y-111768536D01*
X113558553Y-111745998D01*
X113519516Y-111700946D01*
X113515050Y-111692182D01*
X113390109Y-111520213D01*
X113239786Y-111369890D01*
X113067820Y-111244951D01*
X112878414Y-111148444D01*
X112878413Y-111148443D01*
X112878412Y-111148443D01*
X112676243Y-111082754D01*
X112676241Y-111082753D01*
X112676240Y-111082753D01*
X112514957Y-111057208D01*
X112466287Y-111049500D01*
X112253713Y-111049500D01*
X112205042Y-111057208D01*
X112043760Y-111082753D01*
X111841585Y-111148444D01*
X111652179Y-111244951D01*
X111480213Y-111369890D01*
X111329890Y-111520213D01*
X111204951Y-111692179D01*
X111108444Y-111881585D01*
X111042753Y-112083760D01*
X111009500Y-112293713D01*
X100200500Y-112293713D01*
X100200500Y-107621457D01*
X121874499Y-107621457D01*
X121902379Y-107761614D01*
X121902381Y-107761620D01*
X121957069Y-107893650D01*
X121957074Y-107893659D01*
X122036467Y-108012478D01*
X122036470Y-108012482D01*
X122137517Y-108113529D01*
X122137521Y-108113532D01*
X122256340Y-108192925D01*
X122256346Y-108192928D01*
X122256347Y-108192929D01*
X122388380Y-108247619D01*
X122388384Y-108247619D01*
X122388385Y-108247620D01*
X122528542Y-108275500D01*
X122528545Y-108275500D01*
X122671457Y-108275500D01*
X122765751Y-108256742D01*
X122811620Y-108247619D01*
X122943653Y-108192929D01*
X122960822Y-108181457D01*
X124334499Y-108181457D01*
X124362379Y-108321614D01*
X124362381Y-108321620D01*
X124417069Y-108453650D01*
X124417074Y-108453659D01*
X124496467Y-108572478D01*
X124496470Y-108572482D01*
X124597517Y-108673529D01*
X124597521Y-108673532D01*
X124716340Y-108752925D01*
X124716346Y-108752928D01*
X124716347Y-108752929D01*
X124848380Y-108807619D01*
X124848384Y-108807619D01*
X124848385Y-108807620D01*
X124988542Y-108835500D01*
X124988545Y-108835500D01*
X125131457Y-108835500D01*
X125225751Y-108816742D01*
X125271620Y-108807619D01*
X125403653Y-108752929D01*
X125522479Y-108673532D01*
X125623532Y-108572479D01*
X125702929Y-108453653D01*
X125757619Y-108321620D01*
X125766793Y-108275500D01*
X125785500Y-108181457D01*
X125785500Y-108038542D01*
X125757620Y-107898385D01*
X125757619Y-107898384D01*
X125757619Y-107898380D01*
X125702929Y-107766347D01*
X125702928Y-107766346D01*
X125702925Y-107766340D01*
X125623532Y-107647521D01*
X125623529Y-107647517D01*
X125522482Y-107546470D01*
X125522478Y-107546467D01*
X125403659Y-107467074D01*
X125403650Y-107467069D01*
X125271620Y-107412381D01*
X125271614Y-107412379D01*
X125131457Y-107384500D01*
X125131455Y-107384500D01*
X124988545Y-107384500D01*
X124988543Y-107384500D01*
X124848385Y-107412379D01*
X124848379Y-107412381D01*
X124716349Y-107467069D01*
X124716340Y-107467074D01*
X124597521Y-107546467D01*
X124597517Y-107546470D01*
X124496470Y-107647517D01*
X124496467Y-107647521D01*
X124417074Y-107766340D01*
X124417069Y-107766349D01*
X124362381Y-107898379D01*
X124362379Y-107898385D01*
X124334500Y-108038542D01*
X124334500Y-108038545D01*
X124334500Y-108181455D01*
X124334500Y-108181457D01*
X124334499Y-108181457D01*
X122960822Y-108181457D01*
X123062479Y-108113532D01*
X123163532Y-108012479D01*
X123179454Y-107988648D01*
X123196218Y-107963562D01*
X123242925Y-107893659D01*
X123242925Y-107893658D01*
X123242929Y-107893653D01*
X123297619Y-107761620D01*
X123325500Y-107621455D01*
X123325500Y-107478545D01*
X123325500Y-107478542D01*
X123297620Y-107338385D01*
X123297619Y-107338384D01*
X123297619Y-107338380D01*
X123242929Y-107206347D01*
X123242928Y-107206346D01*
X123242925Y-107206340D01*
X123163532Y-107087521D01*
X123163529Y-107087517D01*
X123062482Y-106986470D01*
X123062478Y-106986467D01*
X122943659Y-106907074D01*
X122943650Y-106907069D01*
X122811620Y-106852381D01*
X122811614Y-106852379D01*
X122671457Y-106824500D01*
X122671455Y-106824500D01*
X122528545Y-106824500D01*
X122528543Y-106824500D01*
X122388385Y-106852379D01*
X122388379Y-106852381D01*
X122256349Y-106907069D01*
X122256340Y-106907074D01*
X122137521Y-106986467D01*
X122137517Y-106986470D01*
X122036470Y-107087517D01*
X122036467Y-107087521D01*
X121957074Y-107206340D01*
X121957069Y-107206349D01*
X121902381Y-107338379D01*
X121902379Y-107338385D01*
X121874500Y-107478542D01*
X121874500Y-107478545D01*
X121874500Y-107621455D01*
X121874500Y-107621457D01*
X121874499Y-107621457D01*
X100200500Y-107621457D01*
X100200500Y-105971457D01*
X125474499Y-105971457D01*
X125502379Y-106111614D01*
X125502381Y-106111620D01*
X125557069Y-106243650D01*
X125557074Y-106243659D01*
X125636467Y-106362478D01*
X125636470Y-106362482D01*
X125737517Y-106463529D01*
X125737521Y-106463532D01*
X125856340Y-106542925D01*
X125856347Y-106542929D01*
X125988380Y-106597619D01*
X125988384Y-106597619D01*
X125988385Y-106597620D01*
X126128542Y-106625500D01*
X126128545Y-106625500D01*
X126271457Y-106625500D01*
X126365751Y-106606742D01*
X126411620Y-106597619D01*
X126543653Y-106542929D01*
X126662479Y-106463532D01*
X126763532Y-106362479D01*
X126842929Y-106243653D01*
X126897619Y-106111620D01*
X126920094Y-105998632D01*
X126925500Y-105971457D01*
X126925500Y-105828542D01*
X126897620Y-105688385D01*
X126897619Y-105688384D01*
X126897619Y-105688380D01*
X126842929Y-105556347D01*
X126842928Y-105556346D01*
X126842925Y-105556340D01*
X126763532Y-105437521D01*
X126763529Y-105437517D01*
X126662482Y-105336470D01*
X126662478Y-105336467D01*
X126543659Y-105257074D01*
X126543650Y-105257069D01*
X126411620Y-105202381D01*
X126411614Y-105202379D01*
X126271457Y-105174500D01*
X126271455Y-105174500D01*
X126128545Y-105174500D01*
X126128543Y-105174500D01*
X125988385Y-105202379D01*
X125988379Y-105202381D01*
X125856349Y-105257069D01*
X125856340Y-105257074D01*
X125737521Y-105336467D01*
X125737517Y-105336470D01*
X125636470Y-105437517D01*
X125636467Y-105437521D01*
X125557074Y-105556340D01*
X125557069Y-105556349D01*
X125502381Y-105688379D01*
X125502379Y-105688385D01*
X125474500Y-105828542D01*
X125474500Y-105828545D01*
X125474500Y-105971455D01*
X125474500Y-105971457D01*
X125474499Y-105971457D01*
X100200500Y-105971457D01*
X100200500Y-103671457D01*
X121474499Y-103671457D01*
X121502379Y-103811614D01*
X121502381Y-103811620D01*
X121557069Y-103943650D01*
X121557074Y-103943659D01*
X121636467Y-104062478D01*
X121636470Y-104062482D01*
X121737517Y-104163529D01*
X121737521Y-104163532D01*
X121856340Y-104242925D01*
X121856349Y-104242930D01*
X121886258Y-104255318D01*
X121988380Y-104297619D01*
X121988384Y-104297619D01*
X121988385Y-104297620D01*
X122128542Y-104325500D01*
X122128545Y-104325500D01*
X122271457Y-104325500D01*
X122368124Y-104306271D01*
X122411620Y-104297619D01*
X122448199Y-104282466D01*
X122517668Y-104274997D01*
X122580148Y-104306271D01*
X122583336Y-104309347D01*
X122637517Y-104363529D01*
X122637521Y-104363532D01*
X122756340Y-104442925D01*
X122756346Y-104442928D01*
X122756347Y-104442929D01*
X122888380Y-104497619D01*
X122888384Y-104497619D01*
X122888385Y-104497620D01*
X123028542Y-104525500D01*
X123028545Y-104525500D01*
X123171457Y-104525500D01*
X123265751Y-104506742D01*
X123311620Y-104497619D01*
X123443653Y-104442929D01*
X123562479Y-104363532D01*
X123663532Y-104262479D01*
X123742929Y-104143653D01*
X123797619Y-104011620D01*
X123811139Y-103943650D01*
X123825500Y-103871457D01*
X123825500Y-103728542D01*
X123797620Y-103588385D01*
X123797619Y-103588384D01*
X123797619Y-103588380D01*
X123742929Y-103456347D01*
X123742928Y-103456346D01*
X123742925Y-103456340D01*
X123663532Y-103337521D01*
X123663529Y-103337517D01*
X123562482Y-103236470D01*
X123562478Y-103236467D01*
X123443659Y-103157074D01*
X123443650Y-103157069D01*
X123311620Y-103102381D01*
X123311614Y-103102379D01*
X123171457Y-103074500D01*
X123171455Y-103074500D01*
X123028545Y-103074500D01*
X123028543Y-103074500D01*
X122888385Y-103102379D01*
X122888379Y-103102381D01*
X122851796Y-103117534D01*
X122782326Y-103125001D01*
X122719847Y-103093725D01*
X122716663Y-103090652D01*
X122662482Y-103036470D01*
X122662478Y-103036467D01*
X122543659Y-102957074D01*
X122543650Y-102957069D01*
X122411620Y-102902381D01*
X122411614Y-102902379D01*
X122271457Y-102874500D01*
X122271455Y-102874500D01*
X122128545Y-102874500D01*
X122128543Y-102874500D01*
X121988385Y-102902379D01*
X121988379Y-102902381D01*
X121856349Y-102957069D01*
X121856340Y-102957074D01*
X121737521Y-103036467D01*
X121737517Y-103036470D01*
X121636470Y-103137517D01*
X121636467Y-103137521D01*
X121557074Y-103256340D01*
X121557069Y-103256349D01*
X121502381Y-103388379D01*
X121502379Y-103388385D01*
X121474500Y-103528542D01*
X121474500Y-103528545D01*
X121474500Y-103671455D01*
X121474500Y-103671457D01*
X121474499Y-103671457D01*
X100200500Y-103671457D01*
X100200500Y-98916284D01*
X109009499Y-98916284D01*
X109028839Y-99038389D01*
X109042754Y-99126243D01*
X109097729Y-99295439D01*
X109108444Y-99328414D01*
X109204951Y-99517820D01*
X109329890Y-99689786D01*
X109480209Y-99840105D01*
X109485106Y-99843663D01*
X109527771Y-99898994D01*
X109533750Y-99968607D01*
X109501144Y-100030402D01*
X109451229Y-100061685D01*
X109440673Y-100065183D01*
X109440663Y-100065187D01*
X109291342Y-100157289D01*
X109167289Y-100281342D01*
X109075187Y-100430663D01*
X109075185Y-100430668D01*
X109049868Y-100507071D01*
X109020001Y-100597203D01*
X109020001Y-100597204D01*
X109020000Y-100597204D01*
X109009500Y-100699983D01*
X109009500Y-102000001D01*
X109009501Y-102000018D01*
X109020000Y-102102796D01*
X109020001Y-102102799D01*
X109044092Y-102175500D01*
X109075186Y-102269334D01*
X109167288Y-102418656D01*
X109291344Y-102542712D01*
X109440666Y-102634814D01*
X109607203Y-102689999D01*
X109709991Y-102700500D01*
X111010008Y-102700499D01*
X111112797Y-102689999D01*
X111279334Y-102634814D01*
X111428656Y-102542712D01*
X111552712Y-102418656D01*
X111587899Y-102361609D01*
X125474499Y-102361609D01*
X125481588Y-102397245D01*
X125481591Y-102397258D01*
X125482389Y-102401267D01*
X125498537Y-102482452D01*
X125512347Y-102515792D01*
X125515439Y-102523257D01*
X125515441Y-102523264D01*
X125545685Y-102596280D01*
X125545686Y-102596282D01*
X125545688Y-102596286D01*
X125562248Y-102621070D01*
X125578696Y-102645686D01*
X125578698Y-102645688D01*
X125614141Y-102698732D01*
X125614144Y-102698736D01*
X125705586Y-102790178D01*
X125705608Y-102790198D01*
X126514143Y-103598733D01*
X127901263Y-104985855D01*
X127901267Y-104985858D01*
X128003710Y-105054309D01*
X128003711Y-105054309D01*
X128003715Y-105054312D01*
X128070397Y-105081932D01*
X128117548Y-105101463D01*
X128137597Y-105105451D01*
X128202624Y-105118385D01*
X128238392Y-105125501D01*
X128238394Y-105125501D01*
X128367721Y-105125501D01*
X128367741Y-105125500D01*
X131155241Y-105125500D01*
X131222280Y-105145185D01*
X131268035Y-105197989D01*
X131277979Y-105267147D01*
X131255559Y-105322386D01*
X131255484Y-105322488D01*
X131255483Y-105322490D01*
X131225919Y-105363181D01*
X131116657Y-105513566D01*
X131009433Y-105724003D01*
X130936446Y-105948631D01*
X130899500Y-106181902D01*
X130899500Y-106418097D01*
X130936446Y-106651368D01*
X131009433Y-106875996D01*
X131118869Y-107090774D01*
X131117742Y-107091348D01*
X131134457Y-107153170D01*
X131113334Y-107219770D01*
X131059557Y-107264377D01*
X131010486Y-107274500D01*
X130391997Y-107274500D01*
X130377783Y-107270908D01*
X130366219Y-107271791D01*
X130333723Y-107259774D01*
X130333091Y-107259615D01*
X130332912Y-107259518D01*
X130176233Y-107174140D01*
X130152378Y-107162057D01*
X130150940Y-107161281D01*
X130150506Y-107160851D01*
X130148160Y-107159480D01*
X130143651Y-107157070D01*
X130011620Y-107102381D01*
X130011614Y-107102379D01*
X129871457Y-107074500D01*
X129871455Y-107074500D01*
X129728545Y-107074500D01*
X129728543Y-107074500D01*
X129588385Y-107102379D01*
X129588379Y-107102381D01*
X129456349Y-107157069D01*
X129456340Y-107157074D01*
X129337521Y-107236467D01*
X129337517Y-107236470D01*
X129236470Y-107337517D01*
X129236467Y-107337521D01*
X129157074Y-107456340D01*
X129157069Y-107456349D01*
X129102381Y-107588379D01*
X129102379Y-107588385D01*
X129074500Y-107728542D01*
X129074500Y-107728545D01*
X129074500Y-107871455D01*
X129074500Y-107871457D01*
X129074499Y-107871457D01*
X129102379Y-108011614D01*
X129102381Y-108011620D01*
X129157069Y-108143650D01*
X129157074Y-108143659D01*
X129236467Y-108262478D01*
X129236470Y-108262482D01*
X129337517Y-108363529D01*
X129337521Y-108363532D01*
X129456340Y-108442925D01*
X129456349Y-108442930D01*
X129483828Y-108454312D01*
X129588380Y-108497619D01*
X129588384Y-108497619D01*
X129588385Y-108497620D01*
X129728542Y-108525500D01*
X129728545Y-108525500D01*
X129750908Y-108525500D01*
X129761038Y-108526272D01*
X129761066Y-108525928D01*
X129765474Y-108526284D01*
X129765478Y-108526285D01*
X130206052Y-108530369D01*
X130264784Y-108527493D01*
X130264792Y-108527490D01*
X130268843Y-108526882D01*
X130287305Y-108525500D01*
X144386607Y-108525500D01*
X144447029Y-108513481D01*
X144507452Y-108501463D01*
X144553184Y-108482520D01*
X144621286Y-108454312D01*
X144621289Y-108454309D01*
X144621291Y-108454309D01*
X144675438Y-108418128D01*
X144675440Y-108418126D01*
X144723733Y-108385858D01*
X144810858Y-108298733D01*
X144810858Y-108298731D01*
X144821066Y-108288524D01*
X144821067Y-108288521D01*
X146422772Y-106686819D01*
X146484095Y-106653334D01*
X146510453Y-106650500D01*
X149761607Y-106650500D01*
X149822029Y-106638481D01*
X149882452Y-106626463D01*
X149915792Y-106612652D01*
X149996286Y-106579312D01*
X150050735Y-106542929D01*
X150098733Y-106510858D01*
X150185858Y-106423733D01*
X150185859Y-106423731D01*
X150192925Y-106416665D01*
X150192928Y-106416661D01*
X151048729Y-105560860D01*
X151048733Y-105560858D01*
X151135858Y-105473733D01*
X151204311Y-105371286D01*
X151204312Y-105371285D01*
X151236392Y-105293836D01*
X151251463Y-105257452D01*
X151258931Y-105219906D01*
X151264304Y-105192898D01*
X151264304Y-105192892D01*
X151267825Y-105175190D01*
X151275500Y-105136607D01*
X151275500Y-105055885D01*
X151287456Y-105002761D01*
X151315946Y-104942672D01*
X151794740Y-103932837D01*
X151798175Y-103926495D01*
X151800048Y-103922820D01*
X151800051Y-103922816D01*
X151896557Y-103733412D01*
X151962246Y-103531243D01*
X151995500Y-103321287D01*
X151995500Y-103108713D01*
X151962246Y-102898757D01*
X151896557Y-102696588D01*
X151800051Y-102507184D01*
X151800049Y-102507181D01*
X151800048Y-102507179D01*
X151675109Y-102335213D01*
X151524786Y-102184890D01*
X151352820Y-102059951D01*
X151163414Y-101963444D01*
X151163413Y-101963443D01*
X151163412Y-101963443D01*
X150961243Y-101897754D01*
X150961241Y-101897753D01*
X150961240Y-101897753D01*
X150799957Y-101872208D01*
X150751287Y-101864500D01*
X150538713Y-101864500D01*
X150490042Y-101872208D01*
X150328760Y-101897753D01*
X150126585Y-101963444D01*
X149937179Y-102059951D01*
X149765213Y-102184890D01*
X149614890Y-102335213D01*
X149489949Y-102507182D01*
X149485484Y-102515946D01*
X149437509Y-102566742D01*
X149369688Y-102583536D01*
X149303553Y-102560998D01*
X149264516Y-102515946D01*
X149260050Y-102507182D01*
X149135109Y-102335213D01*
X148984786Y-102184890D01*
X148812820Y-102059951D01*
X148812115Y-102059591D01*
X148804054Y-102055485D01*
X148753259Y-102007512D01*
X148736463Y-101939692D01*
X148758999Y-101873556D01*
X148804054Y-101834515D01*
X148812816Y-101830051D01*
X148863909Y-101792930D01*
X148984786Y-101705109D01*
X148984788Y-101705106D01*
X148984792Y-101705104D01*
X149135104Y-101554792D01*
X149135106Y-101554788D01*
X149135109Y-101554786D01*
X149260048Y-101382820D01*
X149260047Y-101382820D01*
X149260051Y-101382816D01*
X149356557Y-101193412D01*
X149422246Y-100991243D01*
X149455500Y-100781287D01*
X149455500Y-100568713D01*
X149422246Y-100358757D01*
X149356557Y-100156588D01*
X149260051Y-99967184D01*
X149260049Y-99967181D01*
X149260048Y-99967179D01*
X149135109Y-99795213D01*
X148984786Y-99644890D01*
X148812820Y-99519951D01*
X148623414Y-99423444D01*
X148623413Y-99423443D01*
X148623412Y-99423443D01*
X148421243Y-99357754D01*
X148421241Y-99357753D01*
X148421240Y-99357753D01*
X148259957Y-99332208D01*
X148211287Y-99324500D01*
X147998713Y-99324500D01*
X147950042Y-99332208D01*
X147788760Y-99357753D01*
X147586585Y-99423444D01*
X147397179Y-99519951D01*
X147225213Y-99644890D01*
X147074890Y-99795213D01*
X146949949Y-99967182D01*
X146945484Y-99975946D01*
X146897509Y-100026742D01*
X146829688Y-100043536D01*
X146763553Y-100020998D01*
X146724516Y-99975946D01*
X146720050Y-99967182D01*
X146595109Y-99795213D01*
X146444786Y-99644890D01*
X146272818Y-99519950D01*
X146249872Y-99508257D01*
X146246510Y-99506478D01*
X145695819Y-99204231D01*
X145667800Y-99183209D01*
X145492928Y-99008338D01*
X145492926Y-99008335D01*
X145492925Y-99008334D01*
X145492925Y-99008335D01*
X145485858Y-99001268D01*
X145485858Y-99001267D01*
X145398733Y-98914142D01*
X145398732Y-98914141D01*
X145398731Y-98914140D01*
X145346051Y-98878941D01*
X145346052Y-98878941D01*
X145339405Y-98874500D01*
X145296286Y-98845688D01*
X145194950Y-98803714D01*
X145191085Y-98802113D01*
X145191077Y-98802109D01*
X145182456Y-98798538D01*
X145182444Y-98798535D01*
X145117400Y-98785597D01*
X145117399Y-98785597D01*
X145061611Y-98774500D01*
X145061607Y-98774500D01*
X145061606Y-98774500D01*
X141161612Y-98774500D01*
X141161607Y-98774499D01*
X141038394Y-98774499D01*
X140943369Y-98793401D01*
X140936617Y-98794743D01*
X140936617Y-98794744D01*
X140917547Y-98798537D01*
X140875266Y-98816051D01*
X140803711Y-98845689D01*
X140701267Y-98914141D01*
X140701263Y-98914144D01*
X139577229Y-100038181D01*
X139515906Y-100071666D01*
X139489548Y-100074500D01*
X139290905Y-100074500D01*
X139223866Y-100054815D01*
X139178111Y-100002011D01*
X139168167Y-99932853D01*
X139197192Y-99869297D01*
X139250183Y-99834906D01*
X139249812Y-99834010D01*
X139254654Y-99832004D01*
X139254909Y-99831839D01*
X139255427Y-99831681D01*
X139255439Y-99831679D01*
X139361816Y-99787616D01*
X139401114Y-99771339D01*
X139401114Y-99771338D01*
X139401121Y-99771336D01*
X139532231Y-99683731D01*
X139643731Y-99572231D01*
X139731336Y-99441121D01*
X139791679Y-99295439D01*
X139822442Y-99140784D01*
X139822442Y-98983100D01*
X139822442Y-98983097D01*
X139822441Y-98983095D01*
X139791680Y-98828452D01*
X139791679Y-98828445D01*
X139783298Y-98808211D01*
X139731339Y-98682769D01*
X139731332Y-98682756D01*
X139643731Y-98551653D01*
X139643728Y-98551649D01*
X139532234Y-98440155D01*
X139532230Y-98440152D01*
X139401127Y-98352551D01*
X139401114Y-98352544D01*
X139255443Y-98292206D01*
X139255431Y-98292203D01*
X139100787Y-98261442D01*
X139100784Y-98261442D01*
X138943100Y-98261442D01*
X138943097Y-98261442D01*
X138788452Y-98292203D01*
X138788440Y-98292206D01*
X138642769Y-98352544D01*
X138642756Y-98352551D01*
X138511653Y-98440152D01*
X138511649Y-98440155D01*
X138400155Y-98551649D01*
X138400152Y-98551653D01*
X138312551Y-98682756D01*
X138312544Y-98682769D01*
X138252206Y-98828440D01*
X138252203Y-98828452D01*
X138221442Y-98983095D01*
X138221442Y-99140788D01*
X138252203Y-99295431D01*
X138252206Y-99295443D01*
X138312544Y-99441114D01*
X138312551Y-99441127D01*
X138400152Y-99572230D01*
X138400155Y-99572234D01*
X138511649Y-99683728D01*
X138511653Y-99683731D01*
X138642756Y-99771332D01*
X138642769Y-99771339D01*
X138734139Y-99809185D01*
X138788445Y-99831679D01*
X138788454Y-99831680D01*
X138788975Y-99831839D01*
X138789222Y-99832001D01*
X138794072Y-99834010D01*
X138793691Y-99834929D01*
X138847413Y-99870137D01*
X138875870Y-99933949D01*
X138865309Y-100003016D01*
X138819085Y-100055410D01*
X138752979Y-100074500D01*
X136334100Y-100074500D01*
X136267061Y-100054815D01*
X136221306Y-100002011D01*
X136211362Y-99932853D01*
X136230998Y-99881609D01*
X136279390Y-99809185D01*
X136279390Y-99809184D01*
X136279394Y-99809179D01*
X136339737Y-99663497D01*
X136370500Y-99508842D01*
X136370500Y-99351158D01*
X136370500Y-99351155D01*
X136370499Y-99351153D01*
X136365976Y-99328414D01*
X136339737Y-99196503D01*
X136339412Y-99195719D01*
X136279397Y-99050827D01*
X136279390Y-99050814D01*
X136191789Y-98919711D01*
X136191786Y-98919707D01*
X136080292Y-98808213D01*
X136080288Y-98808210D01*
X135949185Y-98720609D01*
X135949172Y-98720602D01*
X135803501Y-98660264D01*
X135803489Y-98660261D01*
X135648845Y-98629500D01*
X135648842Y-98629500D01*
X135491158Y-98629500D01*
X135491155Y-98629500D01*
X135336510Y-98660261D01*
X135336498Y-98660264D01*
X135190827Y-98720602D01*
X135190814Y-98720609D01*
X135059711Y-98808210D01*
X135059707Y-98808213D01*
X134948213Y-98919707D01*
X134948210Y-98919711D01*
X134860609Y-99050814D01*
X134860602Y-99050827D01*
X134800264Y-99196498D01*
X134800261Y-99196510D01*
X134769500Y-99351153D01*
X134769500Y-99508846D01*
X134800261Y-99663489D01*
X134800264Y-99663501D01*
X134860602Y-99809172D01*
X134860609Y-99809185D01*
X134909002Y-99881609D01*
X134929880Y-99948286D01*
X134911396Y-100015666D01*
X134859417Y-100062357D01*
X134805900Y-100074500D01*
X131010453Y-100074500D01*
X130943414Y-100054815D01*
X130922772Y-100038181D01*
X130661819Y-99777228D01*
X130628334Y-99715905D01*
X130625500Y-99689547D01*
X130625500Y-99038389D01*
X130622787Y-99024756D01*
X130622785Y-99024751D01*
X130622544Y-99023535D01*
X130601463Y-98917549D01*
X130600940Y-98916287D01*
X130582678Y-98872198D01*
X130564553Y-98828440D01*
X130554314Y-98803719D01*
X130554312Y-98803714D01*
X130510665Y-98738393D01*
X130485858Y-98701267D01*
X130427004Y-98642413D01*
X130423946Y-98638854D01*
X130417062Y-98623613D01*
X130399337Y-98594042D01*
X130397620Y-98588383D01*
X130342930Y-98456349D01*
X130342925Y-98456340D01*
X130263532Y-98337521D01*
X130263529Y-98337517D01*
X130162482Y-98236470D01*
X130162478Y-98236467D01*
X130043659Y-98157074D01*
X130043650Y-98157069D01*
X129911620Y-98102381D01*
X129911614Y-98102379D01*
X129771457Y-98074500D01*
X129771455Y-98074500D01*
X129628545Y-98074500D01*
X129628543Y-98074500D01*
X129488385Y-98102379D01*
X129488379Y-98102381D01*
X129356349Y-98157069D01*
X129356340Y-98157074D01*
X129237521Y-98236467D01*
X129237517Y-98236470D01*
X129136470Y-98337517D01*
X129069692Y-98437457D01*
X129016079Y-98482261D01*
X128946754Y-98490968D01*
X128883727Y-98460813D01*
X128867530Y-98442118D01*
X128867396Y-98442229D01*
X128863529Y-98437517D01*
X128762482Y-98336470D01*
X128762478Y-98336467D01*
X128643659Y-98257074D01*
X128643650Y-98257069D01*
X128511613Y-98202378D01*
X128505947Y-98200659D01*
X128493561Y-98193234D01*
X128482527Y-98190834D01*
X128454273Y-98169683D01*
X128290198Y-98005608D01*
X128290189Y-98005598D01*
X128285858Y-98001267D01*
X128085859Y-97801269D01*
X128085858Y-97801267D01*
X127998733Y-97714142D01*
X127998732Y-97714141D01*
X127998731Y-97714140D01*
X127953325Y-97683801D01*
X127953324Y-97683800D01*
X127947509Y-97679915D01*
X127896286Y-97645688D01*
X127815792Y-97612347D01*
X127800457Y-97605995D01*
X127782453Y-97598537D01*
X127772427Y-97596543D01*
X127722029Y-97586518D01*
X127661610Y-97574500D01*
X127661607Y-97574500D01*
X127661606Y-97574500D01*
X126661607Y-97574500D01*
X126538393Y-97574500D01*
X126538389Y-97574500D01*
X126487535Y-97584615D01*
X126487530Y-97584616D01*
X126477971Y-97586518D01*
X126417548Y-97598537D01*
X126370397Y-97618067D01*
X126303715Y-97645688D01*
X126303714Y-97645689D01*
X126281347Y-97660633D01*
X126281344Y-97660635D01*
X126201268Y-97714140D01*
X126157705Y-97757703D01*
X126114142Y-97801267D01*
X125704082Y-98211326D01*
X125704074Y-98211334D01*
X125701270Y-98214139D01*
X125701267Y-98214142D01*
X125614142Y-98301267D01*
X125584461Y-98345688D01*
X125579895Y-98352520D01*
X125579895Y-98352521D01*
X125545687Y-98403715D01*
X125545685Y-98403718D01*
X125516368Y-98474497D01*
X125516368Y-98474500D01*
X125508391Y-98493760D01*
X125498537Y-98517549D01*
X125498535Y-98517556D01*
X125474500Y-98638389D01*
X125474500Y-98638394D01*
X125474500Y-99438394D01*
X125474500Y-102238393D01*
X125474500Y-102361607D01*
X125474500Y-102361609D01*
X125474499Y-102361609D01*
X111587899Y-102361609D01*
X111644814Y-102269334D01*
X111699999Y-102102797D01*
X111710500Y-102000009D01*
X111710499Y-101221457D01*
X115299499Y-101221457D01*
X115327379Y-101361614D01*
X115327381Y-101361620D01*
X115382069Y-101493650D01*
X115382074Y-101493659D01*
X115461467Y-101612478D01*
X115461470Y-101612482D01*
X115562517Y-101713529D01*
X115562521Y-101713532D01*
X115681340Y-101792925D01*
X115681349Y-101792930D01*
X115683109Y-101793659D01*
X115813380Y-101847619D01*
X115813384Y-101847619D01*
X115813385Y-101847620D01*
X115953542Y-101875500D01*
X115953545Y-101875500D01*
X116096457Y-101875500D01*
X116190751Y-101856742D01*
X116236620Y-101847619D01*
X116368653Y-101792929D01*
X116487479Y-101713532D01*
X116588532Y-101612479D01*
X116649351Y-101521457D01*
X119424499Y-101521457D01*
X119452379Y-101661614D01*
X119452381Y-101661620D01*
X119507069Y-101793650D01*
X119507074Y-101793659D01*
X119586467Y-101912478D01*
X119586470Y-101912482D01*
X119687517Y-102013529D01*
X119687521Y-102013532D01*
X119806340Y-102092925D01*
X119806349Y-102092930D01*
X119830168Y-102102796D01*
X119938380Y-102147619D01*
X119938384Y-102147619D01*
X119938385Y-102147620D01*
X120078542Y-102175500D01*
X120078545Y-102175500D01*
X120221457Y-102175500D01*
X120315751Y-102156742D01*
X120361620Y-102147619D01*
X120493653Y-102092929D01*
X120612479Y-102013532D01*
X120713532Y-101912479D01*
X120792929Y-101793653D01*
X120847619Y-101661620D01*
X120875500Y-101521455D01*
X120875500Y-101378545D01*
X120875500Y-101378542D01*
X120847620Y-101238385D01*
X120847619Y-101238384D01*
X120847619Y-101238380D01*
X120792929Y-101106347D01*
X120792928Y-101106346D01*
X120792925Y-101106340D01*
X120713532Y-100987521D01*
X120713529Y-100987517D01*
X120612482Y-100886470D01*
X120612478Y-100886467D01*
X120493659Y-100807074D01*
X120493650Y-100807069D01*
X120361620Y-100752381D01*
X120361614Y-100752379D01*
X120221457Y-100724500D01*
X120221455Y-100724500D01*
X120078545Y-100724500D01*
X120078543Y-100724500D01*
X119938385Y-100752379D01*
X119938379Y-100752381D01*
X119806349Y-100807069D01*
X119806340Y-100807074D01*
X119687521Y-100886467D01*
X119687517Y-100886470D01*
X119586470Y-100987517D01*
X119586467Y-100987521D01*
X119507074Y-101106340D01*
X119507069Y-101106349D01*
X119452381Y-101238379D01*
X119452379Y-101238385D01*
X119424500Y-101378542D01*
X119424500Y-101378545D01*
X119424500Y-101521455D01*
X119424500Y-101521457D01*
X119424499Y-101521457D01*
X116649351Y-101521457D01*
X116667929Y-101493653D01*
X116722619Y-101361620D01*
X116750500Y-101221455D01*
X116750500Y-101078545D01*
X116750500Y-101078542D01*
X116722620Y-100938385D01*
X116722619Y-100938384D01*
X116722619Y-100938380D01*
X116667929Y-100806347D01*
X116667928Y-100806346D01*
X116667925Y-100806340D01*
X116588532Y-100687521D01*
X116588529Y-100687517D01*
X116487482Y-100586470D01*
X116487478Y-100586467D01*
X116368659Y-100507074D01*
X116368650Y-100507069D01*
X116236620Y-100452381D01*
X116236614Y-100452379D01*
X116096457Y-100424500D01*
X116096455Y-100424500D01*
X115953545Y-100424500D01*
X115953543Y-100424500D01*
X115813385Y-100452379D01*
X115813379Y-100452381D01*
X115681349Y-100507069D01*
X115681340Y-100507074D01*
X115562521Y-100586467D01*
X115562517Y-100586470D01*
X115461470Y-100687517D01*
X115461467Y-100687521D01*
X115382074Y-100806340D01*
X115382069Y-100806349D01*
X115327381Y-100938379D01*
X115327379Y-100938385D01*
X115299500Y-101078542D01*
X115299500Y-101078545D01*
X115299500Y-101221455D01*
X115299500Y-101221457D01*
X115299499Y-101221457D01*
X111710499Y-101221457D01*
X111710499Y-100699992D01*
X111710120Y-100696286D01*
X111699999Y-100597203D01*
X111699998Y-100597200D01*
X111655468Y-100462819D01*
X111644814Y-100430666D01*
X111552712Y-100281344D01*
X111428656Y-100157288D01*
X111322371Y-100091731D01*
X111279336Y-100065187D01*
X111279325Y-100065182D01*
X111268773Y-100061686D01*
X111211328Y-100021913D01*
X111184506Y-99957397D01*
X111196822Y-99888621D01*
X111234903Y-99843656D01*
X111239788Y-99840107D01*
X111239788Y-99840106D01*
X111239792Y-99840104D01*
X111390104Y-99689792D01*
X111390106Y-99689788D01*
X111390109Y-99689786D01*
X111513500Y-99519951D01*
X111515051Y-99517816D01*
X111611557Y-99328412D01*
X111677246Y-99126243D01*
X111710500Y-98916287D01*
X111710500Y-98703713D01*
X111704163Y-98663704D01*
X111702262Y-98651699D01*
X111677246Y-98493760D01*
X111677246Y-98493757D01*
X111611557Y-98291588D01*
X111515051Y-98102184D01*
X111515049Y-98102181D01*
X111515048Y-98102179D01*
X111390109Y-97930213D01*
X111239786Y-97779890D01*
X111067820Y-97654951D01*
X111067115Y-97654591D01*
X111059054Y-97650485D01*
X111008259Y-97602512D01*
X110991463Y-97534692D01*
X111013999Y-97468556D01*
X111059054Y-97429515D01*
X111067816Y-97425051D01*
X111089789Y-97409086D01*
X111239786Y-97300109D01*
X111239788Y-97300106D01*
X111239792Y-97300104D01*
X111390104Y-97149792D01*
X111390106Y-97149788D01*
X111390109Y-97149786D01*
X111515048Y-96977820D01*
X111515047Y-96977820D01*
X111515051Y-96977816D01*
X111611557Y-96788412D01*
X111677246Y-96586243D01*
X111710500Y-96376287D01*
X111710500Y-96163713D01*
X111677246Y-95953757D01*
X111669901Y-95931153D01*
X135169500Y-95931153D01*
X135169500Y-96088846D01*
X135200261Y-96243489D01*
X135200264Y-96243501D01*
X135260602Y-96389172D01*
X135260609Y-96389185D01*
X135348210Y-96520288D01*
X135348213Y-96520292D01*
X135459707Y-96631786D01*
X135459711Y-96631789D01*
X135590814Y-96719390D01*
X135590827Y-96719397D01*
X135736498Y-96779735D01*
X135736503Y-96779737D01*
X135891153Y-96810499D01*
X135891156Y-96810500D01*
X135891158Y-96810500D01*
X136048844Y-96810500D01*
X136048845Y-96810499D01*
X136203497Y-96779737D01*
X136349179Y-96719394D01*
X136480289Y-96631789D01*
X136591789Y-96520289D01*
X136679394Y-96389179D01*
X136739737Y-96243497D01*
X136770500Y-96088842D01*
X136770500Y-95931158D01*
X136770500Y-95931155D01*
X136770499Y-95931153D01*
X136739738Y-95776510D01*
X136739737Y-95776503D01*
X136729416Y-95751585D01*
X136679397Y-95630827D01*
X136679390Y-95630814D01*
X136591789Y-95499711D01*
X136591786Y-95499707D01*
X136480292Y-95388213D01*
X136480288Y-95388210D01*
X136349185Y-95300609D01*
X136349172Y-95300602D01*
X136203501Y-95240264D01*
X136203489Y-95240261D01*
X136048845Y-95209500D01*
X136048842Y-95209500D01*
X135891158Y-95209500D01*
X135891155Y-95209500D01*
X135736510Y-95240261D01*
X135736498Y-95240264D01*
X135590827Y-95300602D01*
X135590814Y-95300609D01*
X135459711Y-95388210D01*
X135459707Y-95388213D01*
X135348213Y-95499707D01*
X135348210Y-95499711D01*
X135260609Y-95630814D01*
X135260602Y-95630827D01*
X135200264Y-95776498D01*
X135200261Y-95776510D01*
X135169500Y-95931153D01*
X111669901Y-95931153D01*
X111611557Y-95751588D01*
X111515051Y-95562184D01*
X111515049Y-95562181D01*
X111515048Y-95562179D01*
X111390109Y-95390213D01*
X111239786Y-95239890D01*
X111067820Y-95114951D01*
X111067115Y-95114591D01*
X111059054Y-95110485D01*
X111008259Y-95062512D01*
X110991463Y-94994692D01*
X111013999Y-94928556D01*
X111059054Y-94889515D01*
X111067816Y-94885051D01*
X111089789Y-94869086D01*
X111239786Y-94760109D01*
X111239788Y-94760106D01*
X111239792Y-94760104D01*
X111390104Y-94609792D01*
X111390106Y-94609788D01*
X111390109Y-94609786D01*
X111515048Y-94437820D01*
X111515047Y-94437820D01*
X111515051Y-94437816D01*
X111611557Y-94248412D01*
X111677246Y-94046243D01*
X111710500Y-93836287D01*
X111710500Y-93623713D01*
X111677246Y-93413757D01*
X111611557Y-93211588D01*
X111540157Y-93071457D01*
X122549499Y-93071457D01*
X122577379Y-93211614D01*
X122577381Y-93211620D01*
X122632069Y-93343650D01*
X122632074Y-93343659D01*
X122711467Y-93462478D01*
X122711470Y-93462482D01*
X122812517Y-93563529D01*
X122812521Y-93563532D01*
X122931340Y-93642925D01*
X122931346Y-93642928D01*
X122931347Y-93642929D01*
X123063380Y-93697619D01*
X123063384Y-93697619D01*
X123063385Y-93697620D01*
X123203542Y-93725500D01*
X123203545Y-93725500D01*
X123346457Y-93725500D01*
X123440751Y-93706742D01*
X123486620Y-93697619D01*
X123618653Y-93642929D01*
X123737479Y-93563532D01*
X123838532Y-93462479D01*
X123917929Y-93343653D01*
X123972619Y-93211620D01*
X123993397Y-93107165D01*
X124000500Y-93071457D01*
X124000500Y-92928542D01*
X123972620Y-92788385D01*
X123972619Y-92788384D01*
X123972619Y-92788380D01*
X123917929Y-92656347D01*
X123917928Y-92656346D01*
X123917925Y-92656340D01*
X123838532Y-92537521D01*
X123838529Y-92537517D01*
X123737482Y-92436470D01*
X123737478Y-92436467D01*
X123618659Y-92357074D01*
X123618646Y-92357067D01*
X123552398Y-92329627D01*
X123552397Y-92329627D01*
X123486620Y-92302381D01*
X123486614Y-92302379D01*
X123346457Y-92274500D01*
X123346455Y-92274500D01*
X123203545Y-92274500D01*
X123203543Y-92274500D01*
X123063385Y-92302379D01*
X123063379Y-92302381D01*
X122931349Y-92357069D01*
X122931340Y-92357074D01*
X122812521Y-92436467D01*
X122812517Y-92436470D01*
X122711470Y-92537517D01*
X122711467Y-92537521D01*
X122632074Y-92656340D01*
X122632069Y-92656349D01*
X122577381Y-92788379D01*
X122577379Y-92788385D01*
X122549500Y-92928542D01*
X122549500Y-92928545D01*
X122549500Y-93071455D01*
X122549500Y-93071457D01*
X122549499Y-93071457D01*
X111540157Y-93071457D01*
X111515051Y-93022184D01*
X111499146Y-93000292D01*
X111495547Y-92995338D01*
X111390109Y-92850213D01*
X111239786Y-92699890D01*
X111067820Y-92574951D01*
X111067115Y-92574591D01*
X111059054Y-92570485D01*
X111008259Y-92522512D01*
X110991463Y-92454692D01*
X111013999Y-92388556D01*
X111059054Y-92349515D01*
X111067816Y-92345051D01*
X111126547Y-92302381D01*
X111239786Y-92220109D01*
X111239788Y-92220106D01*
X111239792Y-92220104D01*
X111390104Y-92069792D01*
X111390106Y-92069788D01*
X111390109Y-92069786D01*
X111504398Y-91912479D01*
X111515051Y-91897816D01*
X111566696Y-91796457D01*
X115224499Y-91796457D01*
X115252379Y-91936614D01*
X115252381Y-91936620D01*
X115307069Y-92068650D01*
X115307074Y-92068659D01*
X115386467Y-92187478D01*
X115386470Y-92187482D01*
X115487517Y-92288529D01*
X115487521Y-92288532D01*
X115606340Y-92367925D01*
X115606346Y-92367928D01*
X115606347Y-92367929D01*
X115738380Y-92422619D01*
X115738384Y-92422619D01*
X115738385Y-92422620D01*
X115878542Y-92450500D01*
X115878545Y-92450500D01*
X116021457Y-92450500D01*
X116115751Y-92431742D01*
X116161620Y-92422619D01*
X116293653Y-92367929D01*
X116412479Y-92288532D01*
X116479858Y-92221153D01*
X126219500Y-92221153D01*
X126219500Y-92378846D01*
X126250261Y-92533489D01*
X126250264Y-92533501D01*
X126310602Y-92679172D01*
X126310609Y-92679185D01*
X126398210Y-92810288D01*
X126398213Y-92810292D01*
X126509707Y-92921786D01*
X126509711Y-92921789D01*
X126640814Y-93009390D01*
X126640827Y-93009397D01*
X126792131Y-93072068D01*
X126791360Y-93073927D01*
X126842079Y-93107165D01*
X126869263Y-93163337D01*
X126875261Y-93193491D01*
X126875263Y-93193499D01*
X126935602Y-93339172D01*
X126935609Y-93339185D01*
X127023210Y-93470288D01*
X127023213Y-93470292D01*
X127134707Y-93581786D01*
X127134711Y-93581789D01*
X127265814Y-93669390D01*
X127265827Y-93669397D01*
X127401274Y-93725500D01*
X127411503Y-93729737D01*
X127566153Y-93760499D01*
X127566156Y-93760500D01*
X127566158Y-93760500D01*
X127723844Y-93760500D01*
X127723845Y-93760499D01*
X127878497Y-93729737D01*
X128024179Y-93669394D01*
X128155289Y-93581789D01*
X128266789Y-93470289D01*
X128354394Y-93339179D01*
X128354395Y-93339175D01*
X128356556Y-93335942D01*
X128410169Y-93291136D01*
X128435468Y-93283215D01*
X128484041Y-93273552D01*
X128553497Y-93259737D01*
X128699179Y-93199394D01*
X128830289Y-93111789D01*
X128941789Y-93000289D01*
X129029394Y-92869179D01*
X129089737Y-92723497D01*
X129120500Y-92568842D01*
X129120500Y-92411158D01*
X129120500Y-92411155D01*
X129099636Y-92306270D01*
X129105863Y-92236679D01*
X129148725Y-92181501D01*
X129197062Y-92160461D01*
X129223455Y-92155210D01*
X129261620Y-92147619D01*
X129393653Y-92092929D01*
X129512479Y-92013532D01*
X129613532Y-91912479D01*
X129692929Y-91793653D01*
X129747619Y-91661620D01*
X129773748Y-91530263D01*
X129775500Y-91521457D01*
X129775500Y-91378542D01*
X129747620Y-91238385D01*
X129747619Y-91238384D01*
X129747619Y-91238380D01*
X129692929Y-91106347D01*
X129692928Y-91106346D01*
X129692925Y-91106340D01*
X129613532Y-90987521D01*
X129613529Y-90987517D01*
X129512482Y-90886470D01*
X129512478Y-90886467D01*
X129393659Y-90807074D01*
X129393650Y-90807069D01*
X129261620Y-90752381D01*
X129261614Y-90752379D01*
X129121457Y-90724500D01*
X129121455Y-90724500D01*
X128978545Y-90724500D01*
X128978543Y-90724500D01*
X128838385Y-90752379D01*
X128838379Y-90752381D01*
X128706349Y-90807069D01*
X128706340Y-90807074D01*
X128587521Y-90886467D01*
X128587517Y-90886470D01*
X128486470Y-90987517D01*
X128486467Y-90987521D01*
X128407074Y-91106340D01*
X128407069Y-91106349D01*
X128352381Y-91238379D01*
X128352379Y-91238385D01*
X128324500Y-91378542D01*
X128324500Y-91378545D01*
X128324500Y-91521455D01*
X128324500Y-91521457D01*
X128324499Y-91521457D01*
X128329290Y-91545538D01*
X128323063Y-91615130D01*
X128280200Y-91670307D01*
X128231865Y-91691347D01*
X128086508Y-91720261D01*
X128086498Y-91720264D01*
X127940827Y-91780602D01*
X127940816Y-91780608D01*
X127832983Y-91852660D01*
X127766306Y-91873537D01*
X127698926Y-91855052D01*
X127660991Y-91818448D01*
X127641789Y-91789711D01*
X127641786Y-91789707D01*
X127530292Y-91678213D01*
X127530288Y-91678210D01*
X127399185Y-91590609D01*
X127399172Y-91590602D01*
X127253501Y-91530264D01*
X127253489Y-91530261D01*
X127098845Y-91499500D01*
X127098842Y-91499500D01*
X126941158Y-91499500D01*
X126941155Y-91499500D01*
X126786510Y-91530261D01*
X126786498Y-91530264D01*
X126640827Y-91590602D01*
X126640814Y-91590609D01*
X126509711Y-91678210D01*
X126509707Y-91678213D01*
X126398213Y-91789707D01*
X126398210Y-91789711D01*
X126310609Y-91920814D01*
X126310602Y-91920827D01*
X126250264Y-92066498D01*
X126250261Y-92066510D01*
X126219500Y-92221153D01*
X116479858Y-92221153D01*
X116513532Y-92187479D01*
X116592929Y-92068653D01*
X116647619Y-91936620D01*
X116660167Y-91873537D01*
X116675500Y-91796457D01*
X116675500Y-91653542D01*
X116647620Y-91513385D01*
X116647619Y-91513384D01*
X116647619Y-91513380D01*
X116592929Y-91381347D01*
X116592928Y-91381346D01*
X116592925Y-91381340D01*
X116513532Y-91262521D01*
X116513529Y-91262517D01*
X116412482Y-91161470D01*
X116412478Y-91161467D01*
X116293659Y-91082074D01*
X116293650Y-91082069D01*
X116161620Y-91027381D01*
X116161614Y-91027379D01*
X116021457Y-90999500D01*
X116021455Y-90999500D01*
X115878545Y-90999500D01*
X115878543Y-90999500D01*
X115738385Y-91027379D01*
X115738379Y-91027381D01*
X115606349Y-91082069D01*
X115606340Y-91082074D01*
X115487521Y-91161467D01*
X115487517Y-91161470D01*
X115386470Y-91262517D01*
X115386467Y-91262521D01*
X115307074Y-91381340D01*
X115307069Y-91381349D01*
X115252381Y-91513379D01*
X115252379Y-91513385D01*
X115224500Y-91653542D01*
X115224500Y-91653545D01*
X115224500Y-91796455D01*
X115224500Y-91796457D01*
X115224499Y-91796457D01*
X111566696Y-91796457D01*
X111611557Y-91708412D01*
X111677246Y-91506243D01*
X111710500Y-91296287D01*
X111710500Y-91083713D01*
X111677246Y-90873757D01*
X111611557Y-90671588D01*
X111515051Y-90482184D01*
X111515049Y-90482181D01*
X111515048Y-90482179D01*
X111390109Y-90310213D01*
X111301353Y-90221457D01*
X134574499Y-90221457D01*
X134602379Y-90361614D01*
X134602381Y-90361620D01*
X134657069Y-90493650D01*
X134657074Y-90493659D01*
X134736467Y-90612478D01*
X134736470Y-90612482D01*
X134837517Y-90713529D01*
X134837521Y-90713532D01*
X134956340Y-90792925D01*
X134956346Y-90792928D01*
X134956347Y-90792929D01*
X135088380Y-90847619D01*
X135088384Y-90847619D01*
X135088385Y-90847620D01*
X135228542Y-90875500D01*
X135228545Y-90875500D01*
X135371457Y-90875500D01*
X135465751Y-90856742D01*
X135511620Y-90847619D01*
X135643653Y-90792929D01*
X135762479Y-90713532D01*
X135863532Y-90612479D01*
X135942929Y-90493653D01*
X135997619Y-90361620D01*
X136017085Y-90263760D01*
X136025500Y-90221457D01*
X136025500Y-90078542D01*
X135997620Y-89938385D01*
X135997619Y-89938384D01*
X135997619Y-89938380D01*
X135942929Y-89806347D01*
X135942928Y-89806346D01*
X135942925Y-89806340D01*
X135863532Y-89687521D01*
X135863529Y-89687517D01*
X135762482Y-89586470D01*
X135762478Y-89586467D01*
X135643659Y-89507074D01*
X135643650Y-89507069D01*
X135511620Y-89452381D01*
X135511614Y-89452379D01*
X135371457Y-89424500D01*
X135371455Y-89424500D01*
X135228545Y-89424500D01*
X135228543Y-89424500D01*
X135088385Y-89452379D01*
X135088379Y-89452381D01*
X134956349Y-89507069D01*
X134956340Y-89507074D01*
X134837521Y-89586467D01*
X134837517Y-89586470D01*
X134736470Y-89687517D01*
X134736467Y-89687521D01*
X134657074Y-89806340D01*
X134657069Y-89806349D01*
X134602381Y-89938379D01*
X134602379Y-89938385D01*
X134574500Y-90078542D01*
X134574500Y-90078545D01*
X134574500Y-90221455D01*
X134574500Y-90221457D01*
X134574499Y-90221457D01*
X111301353Y-90221457D01*
X111239786Y-90159890D01*
X111067820Y-90034951D01*
X111067115Y-90034591D01*
X111059054Y-90030485D01*
X111008259Y-89982512D01*
X110991463Y-89914692D01*
X111013999Y-89848556D01*
X111059054Y-89809515D01*
X111067816Y-89805051D01*
X111089789Y-89789086D01*
X111239786Y-89680109D01*
X111239788Y-89680106D01*
X111239792Y-89680104D01*
X111390104Y-89529792D01*
X111390106Y-89529788D01*
X111390109Y-89529786D01*
X111515048Y-89357820D01*
X111515047Y-89357820D01*
X111515051Y-89357816D01*
X111611557Y-89168412D01*
X111677246Y-88966243D01*
X111710500Y-88756287D01*
X111710500Y-88543713D01*
X111677246Y-88333757D01*
X111611557Y-88131588D01*
X111580919Y-88071457D01*
X127749499Y-88071457D01*
X127777379Y-88211614D01*
X127777381Y-88211620D01*
X127832069Y-88343650D01*
X127832074Y-88343659D01*
X127911467Y-88462478D01*
X127911470Y-88462482D01*
X128012517Y-88563529D01*
X128012521Y-88563532D01*
X128131340Y-88642925D01*
X128131346Y-88642928D01*
X128131347Y-88642929D01*
X128263380Y-88697619D01*
X128263384Y-88697619D01*
X128263385Y-88697620D01*
X128403542Y-88725500D01*
X128403545Y-88725500D01*
X128546457Y-88725500D01*
X128640751Y-88706742D01*
X128686620Y-88697619D01*
X128818653Y-88642929D01*
X128925618Y-88571457D01*
X131344499Y-88571457D01*
X131372379Y-88711614D01*
X131372381Y-88711620D01*
X131427069Y-88843650D01*
X131427074Y-88843659D01*
X131506467Y-88962478D01*
X131506470Y-88962482D01*
X131607517Y-89063529D01*
X131607521Y-89063532D01*
X131726340Y-89142925D01*
X131726346Y-89142928D01*
X131726347Y-89142929D01*
X131858380Y-89197619D01*
X131858384Y-89197619D01*
X131858385Y-89197620D01*
X131998542Y-89225500D01*
X131998545Y-89225500D01*
X132141457Y-89225500D01*
X132272093Y-89199514D01*
X132281620Y-89197619D01*
X132413653Y-89142929D01*
X132532479Y-89063532D01*
X132633532Y-88962479D01*
X132712929Y-88843653D01*
X132767619Y-88711620D01*
X132795500Y-88571455D01*
X132795500Y-88428545D01*
X132795500Y-88428542D01*
X132767620Y-88288385D01*
X132767619Y-88288384D01*
X132767619Y-88288380D01*
X132712929Y-88156347D01*
X132712928Y-88156346D01*
X132712925Y-88156340D01*
X132633532Y-88037521D01*
X132633529Y-88037517D01*
X132532482Y-87936470D01*
X132532478Y-87936467D01*
X132413659Y-87857074D01*
X132413650Y-87857069D01*
X132281620Y-87802381D01*
X132281614Y-87802379D01*
X132141457Y-87774500D01*
X132141455Y-87774500D01*
X131998545Y-87774500D01*
X131998543Y-87774500D01*
X131858385Y-87802379D01*
X131858379Y-87802381D01*
X131726349Y-87857069D01*
X131726340Y-87857074D01*
X131607521Y-87936467D01*
X131607517Y-87936470D01*
X131506470Y-88037517D01*
X131506467Y-88037521D01*
X131427074Y-88156340D01*
X131427069Y-88156349D01*
X131372381Y-88288379D01*
X131372379Y-88288385D01*
X131344500Y-88428542D01*
X131344500Y-88428545D01*
X131344500Y-88571455D01*
X131344500Y-88571457D01*
X131344499Y-88571457D01*
X128925618Y-88571457D01*
X128937479Y-88563532D01*
X129038532Y-88462479D01*
X129067990Y-88418391D01*
X129111309Y-88353562D01*
X129111309Y-88353561D01*
X129117923Y-88343662D01*
X129117925Y-88343659D01*
X129117929Y-88343653D01*
X129172619Y-88211620D01*
X129200500Y-88071455D01*
X129200500Y-87928545D01*
X129200500Y-87928542D01*
X129172620Y-87788385D01*
X129172619Y-87788384D01*
X129172619Y-87788380D01*
X129117929Y-87656347D01*
X129117928Y-87656346D01*
X129117925Y-87656340D01*
X129038532Y-87537521D01*
X129038529Y-87537517D01*
X128937482Y-87436470D01*
X128937478Y-87436467D01*
X128818659Y-87357074D01*
X128818650Y-87357069D01*
X128686620Y-87302381D01*
X128686614Y-87302379D01*
X128546457Y-87274500D01*
X128546455Y-87274500D01*
X128403545Y-87274500D01*
X128403543Y-87274500D01*
X128263385Y-87302379D01*
X128263379Y-87302381D01*
X128131349Y-87357069D01*
X128131340Y-87357074D01*
X128012521Y-87436467D01*
X128012517Y-87436470D01*
X127911470Y-87537517D01*
X127911467Y-87537521D01*
X127832074Y-87656340D01*
X127832069Y-87656349D01*
X127777381Y-87788379D01*
X127777379Y-87788385D01*
X127749500Y-87928542D01*
X127749500Y-87928545D01*
X127749500Y-88071455D01*
X127749500Y-88071457D01*
X127749499Y-88071457D01*
X111580919Y-88071457D01*
X111515051Y-87942184D01*
X111515049Y-87942181D01*
X111515048Y-87942179D01*
X111390109Y-87770213D01*
X111239786Y-87619890D01*
X111067820Y-87494951D01*
X111067115Y-87494591D01*
X111059054Y-87490485D01*
X111008259Y-87442512D01*
X110991463Y-87374692D01*
X111013999Y-87308556D01*
X111059054Y-87269515D01*
X111067816Y-87265051D01*
X111089789Y-87249086D01*
X111239786Y-87140109D01*
X111239788Y-87140106D01*
X111239792Y-87140104D01*
X111390104Y-86989792D01*
X111390106Y-86989788D01*
X111390109Y-86989786D01*
X111515048Y-86817820D01*
X111515047Y-86817820D01*
X111515051Y-86817816D01*
X111611557Y-86628412D01*
X111677246Y-86426243D01*
X111710500Y-86216287D01*
X111710500Y-86003713D01*
X111677246Y-85793757D01*
X111611557Y-85591588D01*
X111515051Y-85402184D01*
X111515049Y-85402181D01*
X111515048Y-85402179D01*
X111401911Y-85246457D01*
X122749499Y-85246457D01*
X122777379Y-85386614D01*
X122777381Y-85386620D01*
X122832069Y-85518650D01*
X122832074Y-85518659D01*
X122911467Y-85637478D01*
X122911470Y-85637482D01*
X123012517Y-85738529D01*
X123012521Y-85738532D01*
X123131340Y-85817925D01*
X123131346Y-85817928D01*
X123131347Y-85817929D01*
X123263380Y-85872619D01*
X123263384Y-85872619D01*
X123263385Y-85872620D01*
X123403542Y-85900500D01*
X123403545Y-85900500D01*
X123546457Y-85900500D01*
X123640751Y-85881742D01*
X123686620Y-85872619D01*
X123818653Y-85817929D01*
X123937479Y-85738532D01*
X124038532Y-85637479D01*
X124117929Y-85518653D01*
X124172619Y-85386620D01*
X124200500Y-85246455D01*
X124200500Y-85103545D01*
X124200500Y-85103542D01*
X124172620Y-84963385D01*
X124172619Y-84963384D01*
X124172619Y-84963380D01*
X124147407Y-84902512D01*
X124144000Y-84894286D01*
X124125648Y-84849983D01*
X144979500Y-84849983D01*
X144979500Y-86150001D01*
X144979501Y-86150018D01*
X144990000Y-86252796D01*
X144990001Y-86252799D01*
X145045185Y-86419331D01*
X145045186Y-86419334D01*
X145137288Y-86568656D01*
X145261344Y-86692712D01*
X145410666Y-86784814D01*
X145421223Y-86788312D01*
X145478668Y-86828084D01*
X145505492Y-86892600D01*
X145493177Y-86961376D01*
X145455113Y-87006330D01*
X145450219Y-87009885D01*
X145450209Y-87009894D01*
X145299890Y-87160213D01*
X145174951Y-87332179D01*
X145078444Y-87521585D01*
X145012753Y-87723760D01*
X144979500Y-87933713D01*
X144979500Y-88146286D01*
X145009192Y-88333757D01*
X145012754Y-88356243D01*
X145047273Y-88462482D01*
X145078444Y-88558414D01*
X145174951Y-88747820D01*
X145299890Y-88919786D01*
X145450213Y-89070109D01*
X145622182Y-89195050D01*
X145630946Y-89199516D01*
X145681742Y-89247491D01*
X145698536Y-89315312D01*
X145675998Y-89381447D01*
X145630946Y-89420484D01*
X145622182Y-89424949D01*
X145450213Y-89549890D01*
X145299890Y-89700213D01*
X145174951Y-89872179D01*
X145078444Y-90061585D01*
X145012753Y-90263760D01*
X144979500Y-90473713D01*
X144979500Y-90686286D01*
X145011205Y-90886468D01*
X145012754Y-90896243D01*
X145073134Y-91082074D01*
X145078444Y-91098414D01*
X145174951Y-91287820D01*
X145299890Y-91459786D01*
X145450213Y-91610109D01*
X145622182Y-91735050D01*
X145630946Y-91739516D01*
X145681742Y-91787491D01*
X145698536Y-91855312D01*
X145675998Y-91921447D01*
X145630946Y-91960484D01*
X145622182Y-91964949D01*
X145450213Y-92089890D01*
X145299890Y-92240213D01*
X145174951Y-92412179D01*
X145078444Y-92601585D01*
X145012753Y-92803760D01*
X144979500Y-93013713D01*
X144979500Y-93226286D01*
X145009192Y-93413757D01*
X145012754Y-93436243D01*
X145023817Y-93470292D01*
X145078444Y-93638414D01*
X145174951Y-93827820D01*
X145299890Y-93999786D01*
X145450213Y-94150109D01*
X145622179Y-94275048D01*
X145622181Y-94275049D01*
X145622184Y-94275051D01*
X145811588Y-94371557D01*
X146013757Y-94437246D01*
X146223713Y-94470500D01*
X146223714Y-94470500D01*
X146436286Y-94470500D01*
X146436287Y-94470500D01*
X146646243Y-94437246D01*
X146848412Y-94371557D01*
X147037816Y-94275051D01*
X147074482Y-94248412D01*
X147209786Y-94150109D01*
X147209788Y-94150106D01*
X147209792Y-94150104D01*
X147360104Y-93999792D01*
X147360106Y-93999788D01*
X147360109Y-93999786D01*
X147469086Y-93849789D01*
X147485051Y-93827816D01*
X147581557Y-93638412D01*
X147647246Y-93436243D01*
X147680500Y-93226287D01*
X147680500Y-93013713D01*
X147647246Y-92803757D01*
X147581557Y-92601588D01*
X147485051Y-92412184D01*
X147485049Y-92412181D01*
X147485048Y-92412179D01*
X147360109Y-92240213D01*
X147209786Y-92089890D01*
X147037820Y-91964951D01*
X147037115Y-91964591D01*
X147029054Y-91960485D01*
X146978259Y-91912512D01*
X146961463Y-91844692D01*
X146983999Y-91778556D01*
X147029054Y-91739515D01*
X147037816Y-91735051D01*
X147100512Y-91689500D01*
X147209786Y-91610109D01*
X147209788Y-91610106D01*
X147209792Y-91610104D01*
X147360104Y-91459792D01*
X147360106Y-91459788D01*
X147360109Y-91459786D01*
X147469086Y-91309789D01*
X147485051Y-91287816D01*
X147581557Y-91098412D01*
X147647246Y-90896243D01*
X147680500Y-90686287D01*
X147680500Y-90473713D01*
X147647246Y-90263757D01*
X147581557Y-90061588D01*
X147485051Y-89872184D01*
X147485049Y-89872181D01*
X147485048Y-89872179D01*
X147360109Y-89700213D01*
X147209786Y-89549890D01*
X147037820Y-89424951D01*
X147036935Y-89424500D01*
X147029054Y-89420485D01*
X146978259Y-89372512D01*
X146961463Y-89304692D01*
X146983999Y-89238556D01*
X147029054Y-89199515D01*
X147037816Y-89195051D01*
X147109555Y-89142930D01*
X147209786Y-89070109D01*
X147209788Y-89070106D01*
X147209792Y-89070104D01*
X147360104Y-88919792D01*
X147360106Y-88919788D01*
X147360109Y-88919786D01*
X147469086Y-88769789D01*
X147485051Y-88747816D01*
X147581557Y-88558412D01*
X147647246Y-88356243D01*
X147680500Y-88146287D01*
X147680500Y-87933713D01*
X147647246Y-87723757D01*
X147581557Y-87521588D01*
X147485051Y-87332184D01*
X147485049Y-87332181D01*
X147485048Y-87332179D01*
X147360109Y-87160213D01*
X147209790Y-87009894D01*
X147209785Y-87009890D01*
X147204891Y-87006334D01*
X147162227Y-86951003D01*
X147156249Y-86881390D01*
X147188857Y-86819595D01*
X147238774Y-86788312D01*
X147249334Y-86784814D01*
X147398656Y-86692712D01*
X147522712Y-86568656D01*
X147614814Y-86419334D01*
X147669999Y-86252797D01*
X147680500Y-86150009D01*
X147680499Y-84849992D01*
X147669999Y-84747203D01*
X147614814Y-84580666D01*
X147522712Y-84431344D01*
X147398656Y-84307288D01*
X147249334Y-84215186D01*
X147082797Y-84160001D01*
X147082795Y-84160000D01*
X146980010Y-84149500D01*
X145679998Y-84149500D01*
X145679981Y-84149501D01*
X145577203Y-84160000D01*
X145577200Y-84160001D01*
X145410668Y-84215185D01*
X145410663Y-84215187D01*
X145261342Y-84307289D01*
X145137289Y-84431342D01*
X145045187Y-84580663D01*
X145045185Y-84580668D01*
X145017349Y-84664670D01*
X144990001Y-84747203D01*
X144990001Y-84747204D01*
X144990000Y-84747204D01*
X144979500Y-84849983D01*
X124125648Y-84849983D01*
X124124331Y-84846803D01*
X124117929Y-84831347D01*
X124117927Y-84831344D01*
X124117925Y-84831340D01*
X124038532Y-84712521D01*
X124038529Y-84712517D01*
X123937482Y-84611470D01*
X123937478Y-84611467D01*
X123818659Y-84532074D01*
X123818650Y-84532069D01*
X123686620Y-84477381D01*
X123686614Y-84477379D01*
X123546457Y-84449500D01*
X123546455Y-84449500D01*
X123403545Y-84449500D01*
X123403543Y-84449500D01*
X123263385Y-84477379D01*
X123263379Y-84477381D01*
X123131349Y-84532069D01*
X123131340Y-84532074D01*
X123012521Y-84611467D01*
X123012517Y-84611470D01*
X122911470Y-84712517D01*
X122911467Y-84712521D01*
X122832074Y-84831340D01*
X122832069Y-84831349D01*
X122777381Y-84963379D01*
X122777379Y-84963385D01*
X122749500Y-85103542D01*
X122749500Y-85103545D01*
X122749500Y-85246455D01*
X122749500Y-85246457D01*
X122749499Y-85246457D01*
X111401911Y-85246457D01*
X111390109Y-85230213D01*
X111239786Y-85079890D01*
X111067820Y-84954951D01*
X111067115Y-84954591D01*
X111059054Y-84950485D01*
X111008259Y-84902512D01*
X110991463Y-84834692D01*
X111013999Y-84768556D01*
X111059054Y-84729515D01*
X111067816Y-84725051D01*
X111089789Y-84709086D01*
X111239786Y-84600109D01*
X111239788Y-84600106D01*
X111239792Y-84600104D01*
X111390104Y-84449792D01*
X111390106Y-84449788D01*
X111390109Y-84449786D01*
X111515048Y-84277820D01*
X111515047Y-84277820D01*
X111515051Y-84277816D01*
X111611557Y-84088412D01*
X111677246Y-83886243D01*
X111710500Y-83676287D01*
X111710500Y-83463713D01*
X111677246Y-83253757D01*
X111618013Y-83071457D01*
X137074499Y-83071457D01*
X137102379Y-83211614D01*
X137102381Y-83211620D01*
X137157069Y-83343650D01*
X137157074Y-83343659D01*
X137236467Y-83462478D01*
X137236470Y-83462482D01*
X137337517Y-83563529D01*
X137337521Y-83563532D01*
X137456340Y-83642925D01*
X137456346Y-83642928D01*
X137456347Y-83642929D01*
X137588380Y-83697619D01*
X137588384Y-83697619D01*
X137588385Y-83697620D01*
X137728542Y-83725500D01*
X137728545Y-83725500D01*
X137871457Y-83725500D01*
X137965751Y-83706742D01*
X138011620Y-83697619D01*
X138143653Y-83642929D01*
X138262479Y-83563532D01*
X138363532Y-83462479D01*
X138442929Y-83343653D01*
X138497619Y-83211620D01*
X138525500Y-83071455D01*
X138525500Y-82928545D01*
X138525500Y-82928542D01*
X138497620Y-82788385D01*
X138497619Y-82788384D01*
X138497619Y-82788380D01*
X138442929Y-82656347D01*
X138442928Y-82656346D01*
X138442925Y-82656340D01*
X138363532Y-82537521D01*
X138363529Y-82537517D01*
X138262482Y-82436470D01*
X138262478Y-82436467D01*
X138143659Y-82357074D01*
X138143650Y-82357069D01*
X138011620Y-82302381D01*
X138011614Y-82302379D01*
X137871457Y-82274500D01*
X137871455Y-82274500D01*
X137728545Y-82274500D01*
X137728543Y-82274500D01*
X137588385Y-82302379D01*
X137588379Y-82302381D01*
X137456349Y-82357069D01*
X137456340Y-82357074D01*
X137337521Y-82436467D01*
X137337517Y-82436470D01*
X137236470Y-82537517D01*
X137236467Y-82537521D01*
X137157074Y-82656340D01*
X137157069Y-82656349D01*
X137102381Y-82788379D01*
X137102379Y-82788385D01*
X137074500Y-82928542D01*
X137074500Y-82928545D01*
X137074500Y-83071455D01*
X137074500Y-83071457D01*
X137074499Y-83071457D01*
X111618013Y-83071457D01*
X111611557Y-83051588D01*
X111515051Y-82862184D01*
X111515049Y-82862181D01*
X111515048Y-82862179D01*
X111390109Y-82690213D01*
X111239786Y-82539890D01*
X111067820Y-82414951D01*
X110878414Y-82318444D01*
X110878413Y-82318443D01*
X110878412Y-82318443D01*
X110676243Y-82252754D01*
X110676241Y-82252753D01*
X110676240Y-82252753D01*
X110514957Y-82227208D01*
X110466287Y-82219500D01*
X110253713Y-82219500D01*
X110205042Y-82227208D01*
X110043760Y-82252753D01*
X109841585Y-82318444D01*
X109652179Y-82414951D01*
X109480213Y-82539890D01*
X109329890Y-82690213D01*
X109204951Y-82862179D01*
X109108444Y-83051585D01*
X109042753Y-83253760D01*
X109009500Y-83463713D01*
X109009500Y-83676286D01*
X109042753Y-83886239D01*
X109108444Y-84088414D01*
X109204951Y-84277820D01*
X109329890Y-84449786D01*
X109480213Y-84600109D01*
X109652182Y-84725050D01*
X109660946Y-84729516D01*
X109711742Y-84777491D01*
X109728536Y-84845312D01*
X109705998Y-84911447D01*
X109660946Y-84950484D01*
X109652182Y-84954949D01*
X109480213Y-85079890D01*
X109329890Y-85230213D01*
X109204951Y-85402179D01*
X109108444Y-85591585D01*
X109042753Y-85793760D01*
X109030263Y-85872619D01*
X109009500Y-86003713D01*
X109009500Y-86216287D01*
X109015283Y-86252797D01*
X109041659Y-86419334D01*
X109042754Y-86426243D01*
X109089027Y-86568657D01*
X109108444Y-86628414D01*
X109204951Y-86817820D01*
X109329890Y-86989786D01*
X109480213Y-87140109D01*
X109652182Y-87265050D01*
X109660946Y-87269516D01*
X109711742Y-87317491D01*
X109728536Y-87385312D01*
X109705998Y-87451447D01*
X109660946Y-87490484D01*
X109652182Y-87494949D01*
X109480213Y-87619890D01*
X109329890Y-87770213D01*
X109204951Y-87942179D01*
X109108444Y-88131585D01*
X109042753Y-88333760D01*
X109009500Y-88543713D01*
X109009500Y-88756286D01*
X109042157Y-88962479D01*
X109042754Y-88966243D01*
X109100163Y-89142930D01*
X109108444Y-89168414D01*
X109204951Y-89357820D01*
X109329890Y-89529786D01*
X109480213Y-89680109D01*
X109652182Y-89805050D01*
X109660946Y-89809516D01*
X109711742Y-89857491D01*
X109728536Y-89925312D01*
X109705998Y-89991447D01*
X109660946Y-90030484D01*
X109652182Y-90034949D01*
X109480213Y-90159890D01*
X109329890Y-90310213D01*
X109204951Y-90482179D01*
X109108444Y-90671585D01*
X109042753Y-90873760D01*
X109009500Y-91083713D01*
X109009500Y-91296286D01*
X109042753Y-91506239D01*
X109042753Y-91506241D01*
X109042754Y-91506243D01*
X109102898Y-91691347D01*
X109108444Y-91708414D01*
X109204951Y-91897820D01*
X109329890Y-92069786D01*
X109480213Y-92220109D01*
X109652182Y-92345050D01*
X109660946Y-92349516D01*
X109711742Y-92397491D01*
X109728536Y-92465312D01*
X109705998Y-92531447D01*
X109660946Y-92570484D01*
X109652182Y-92574949D01*
X109480213Y-92699890D01*
X109329890Y-92850213D01*
X109204951Y-93022179D01*
X109108444Y-93211585D01*
X109042753Y-93413760D01*
X109019032Y-93563529D01*
X109009500Y-93623713D01*
X109009500Y-93836287D01*
X109042754Y-94046243D01*
X109076502Y-94150109D01*
X109108444Y-94248414D01*
X109204951Y-94437820D01*
X109329890Y-94609786D01*
X109480213Y-94760109D01*
X109652182Y-94885050D01*
X109660946Y-94889516D01*
X109711742Y-94937491D01*
X109728536Y-95005312D01*
X109705998Y-95071447D01*
X109660946Y-95110484D01*
X109652182Y-95114949D01*
X109480213Y-95239890D01*
X109329890Y-95390213D01*
X109204951Y-95562179D01*
X109108444Y-95751585D01*
X109042753Y-95953760D01*
X109009500Y-96163713D01*
X109009500Y-96376286D01*
X109032307Y-96520288D01*
X109042754Y-96586243D01*
X109105624Y-96779737D01*
X109108444Y-96788414D01*
X109204951Y-96977820D01*
X109329890Y-97149786D01*
X109480213Y-97300109D01*
X109652182Y-97425050D01*
X109660946Y-97429516D01*
X109711742Y-97477491D01*
X109728536Y-97545312D01*
X109705998Y-97611447D01*
X109660946Y-97650484D01*
X109652182Y-97654949D01*
X109480213Y-97779890D01*
X109329890Y-97930213D01*
X109204951Y-98102179D01*
X109108444Y-98291585D01*
X109042753Y-98493760D01*
X109009500Y-98703713D01*
X109009500Y-98916281D01*
X109009499Y-98916284D01*
X100200500Y-98916284D01*
X100200500Y-78596457D01*
X123674499Y-78596457D01*
X123702379Y-78736614D01*
X123702381Y-78736620D01*
X123757069Y-78868650D01*
X123757074Y-78868659D01*
X123836467Y-78987478D01*
X123836470Y-78987482D01*
X123937517Y-79088529D01*
X123937521Y-79088532D01*
X124056340Y-79167925D01*
X124056346Y-79167928D01*
X124056347Y-79167929D01*
X124188380Y-79222619D01*
X124188384Y-79222619D01*
X124188385Y-79222620D01*
X124328542Y-79250500D01*
X124328545Y-79250500D01*
X124471457Y-79250500D01*
X124565751Y-79231742D01*
X124611620Y-79222619D01*
X124743653Y-79167929D01*
X124862479Y-79088532D01*
X124963532Y-78987479D01*
X125042929Y-78868653D01*
X125097619Y-78736620D01*
X125125500Y-78596455D01*
X125125500Y-78453545D01*
X125125500Y-78453542D01*
X125097620Y-78313385D01*
X125097619Y-78313384D01*
X125097619Y-78313380D01*
X125042929Y-78181347D01*
X125042928Y-78181346D01*
X125042925Y-78181340D01*
X124963532Y-78062521D01*
X124963529Y-78062517D01*
X124862482Y-77961470D01*
X124862478Y-77961467D01*
X124743659Y-77882074D01*
X124743650Y-77882069D01*
X124611620Y-77827381D01*
X124611614Y-77827379D01*
X124471457Y-77799500D01*
X124471455Y-77799500D01*
X124328545Y-77799500D01*
X124328543Y-77799500D01*
X124188385Y-77827379D01*
X124188379Y-77827381D01*
X124056349Y-77882069D01*
X124056340Y-77882074D01*
X123937521Y-77961467D01*
X123937517Y-77961470D01*
X123836470Y-78062517D01*
X123836467Y-78062521D01*
X123757074Y-78181340D01*
X123757069Y-78181349D01*
X123702381Y-78313379D01*
X123702379Y-78313385D01*
X123674500Y-78453542D01*
X123674500Y-78453545D01*
X123674500Y-78596455D01*
X123674500Y-78596457D01*
X123674499Y-78596457D01*
X100200500Y-78596457D01*
X100200500Y-76621457D01*
X126224499Y-76621457D01*
X126252379Y-76761614D01*
X126252381Y-76761620D01*
X126307069Y-76893650D01*
X126307074Y-76893659D01*
X126386467Y-77012478D01*
X126386470Y-77012482D01*
X126487517Y-77113529D01*
X126487521Y-77113532D01*
X126606340Y-77192925D01*
X126606346Y-77192928D01*
X126606347Y-77192929D01*
X126738380Y-77247619D01*
X126738384Y-77247619D01*
X126738385Y-77247620D01*
X126878542Y-77275500D01*
X126878545Y-77275500D01*
X127021457Y-77275500D01*
X127115751Y-77256742D01*
X127161620Y-77247619D01*
X127293653Y-77192929D01*
X127412479Y-77113532D01*
X127513532Y-77012479D01*
X127592929Y-76893653D01*
X127647619Y-76761620D01*
X127675500Y-76621455D01*
X127675500Y-76478545D01*
X127675500Y-76478542D01*
X127647620Y-76338385D01*
X127647619Y-76338384D01*
X127647619Y-76338380D01*
X127592929Y-76206347D01*
X127592928Y-76206346D01*
X127592925Y-76206340D01*
X127513532Y-76087521D01*
X127513529Y-76087517D01*
X127412482Y-75986470D01*
X127412478Y-75986467D01*
X127293659Y-75907074D01*
X127293650Y-75907069D01*
X127161620Y-75852381D01*
X127161614Y-75852379D01*
X127021457Y-75824500D01*
X127021455Y-75824500D01*
X126878545Y-75824500D01*
X126878543Y-75824500D01*
X126738385Y-75852379D01*
X126738379Y-75852381D01*
X126606349Y-75907069D01*
X126606340Y-75907074D01*
X126487521Y-75986467D01*
X126487517Y-75986470D01*
X126386470Y-76087517D01*
X126386467Y-76087521D01*
X126307074Y-76206340D01*
X126307069Y-76206349D01*
X126252381Y-76338379D01*
X126252379Y-76338385D01*
X126224500Y-76478542D01*
X126224500Y-76478545D01*
X126224500Y-76621455D01*
X126224500Y-76621457D01*
X126224499Y-76621457D01*
X100200500Y-76621457D01*
X100200500Y-75721457D01*
X127999499Y-75721457D01*
X128027379Y-75861614D01*
X128027381Y-75861620D01*
X128082069Y-75993650D01*
X128082074Y-75993659D01*
X128161467Y-76112478D01*
X128161470Y-76112482D01*
X128262517Y-76213529D01*
X128262521Y-76213532D01*
X128381340Y-76292925D01*
X128381346Y-76292928D01*
X128381347Y-76292929D01*
X128513380Y-76347619D01*
X128513384Y-76347619D01*
X128513385Y-76347620D01*
X128653542Y-76375500D01*
X128653545Y-76375500D01*
X128796457Y-76375500D01*
X128890751Y-76356742D01*
X128936620Y-76347619D01*
X129068653Y-76292929D01*
X129187479Y-76213532D01*
X129288532Y-76112479D01*
X129367929Y-75993653D01*
X129422619Y-75861620D01*
X129450500Y-75721455D01*
X129450500Y-75578545D01*
X129450500Y-75578542D01*
X129422620Y-75438385D01*
X129422619Y-75438384D01*
X129422619Y-75438380D01*
X129367929Y-75306347D01*
X129367928Y-75306346D01*
X129367925Y-75306340D01*
X129288532Y-75187521D01*
X129288529Y-75187517D01*
X129187482Y-75086470D01*
X129187478Y-75086467D01*
X129068659Y-75007074D01*
X129068650Y-75007069D01*
X128936620Y-74952381D01*
X128936614Y-74952379D01*
X128796457Y-74924500D01*
X128796455Y-74924500D01*
X128653545Y-74924500D01*
X128653543Y-74924500D01*
X128513385Y-74952379D01*
X128513379Y-74952381D01*
X128381349Y-75007069D01*
X128381340Y-75007074D01*
X128262521Y-75086467D01*
X128262517Y-75086470D01*
X128161470Y-75187517D01*
X128161467Y-75187521D01*
X128082074Y-75306340D01*
X128082069Y-75306349D01*
X128027381Y-75438379D01*
X128027379Y-75438385D01*
X127999500Y-75578542D01*
X127999500Y-75578545D01*
X127999500Y-75721455D01*
X127999500Y-75721457D01*
X127999499Y-75721457D01*
X100200500Y-75721457D01*
X100200500Y-72109983D01*
X108359500Y-72109983D01*
X108359500Y-73410001D01*
X108359501Y-73410018D01*
X108370000Y-73512796D01*
X108370001Y-73512799D01*
X108393763Y-73584507D01*
X108425186Y-73679334D01*
X108517288Y-73828656D01*
X108641344Y-73952712D01*
X108790666Y-74044814D01*
X108957203Y-74099999D01*
X109059991Y-74110500D01*
X110360008Y-74110499D01*
X110462797Y-74099999D01*
X110629334Y-74044814D01*
X110778656Y-73952712D01*
X110902712Y-73828656D01*
X110994814Y-73679334D01*
X110998312Y-73668775D01*
X111038082Y-73611332D01*
X111102598Y-73584507D01*
X111171374Y-73596821D01*
X111216334Y-73634891D01*
X111219890Y-73639785D01*
X111219894Y-73639790D01*
X111370213Y-73790109D01*
X111542179Y-73915048D01*
X111542181Y-73915049D01*
X111542184Y-73915051D01*
X111731588Y-74011557D01*
X111933757Y-74077246D01*
X112143713Y-74110500D01*
X112143714Y-74110500D01*
X112356286Y-74110500D01*
X112356287Y-74110500D01*
X112566243Y-74077246D01*
X112768412Y-74011557D01*
X112957816Y-73915051D01*
X112979789Y-73899086D01*
X113129786Y-73790109D01*
X113129788Y-73790106D01*
X113129792Y-73790104D01*
X113280104Y-73639792D01*
X113280106Y-73639788D01*
X113280109Y-73639786D01*
X113405048Y-73467820D01*
X113405047Y-73467820D01*
X113405051Y-73467816D01*
X113409514Y-73459054D01*
X113457488Y-73408259D01*
X113525308Y-73391463D01*
X113591444Y-73413999D01*
X113630486Y-73459056D01*
X113634951Y-73467820D01*
X113759890Y-73639786D01*
X113910213Y-73790109D01*
X114082179Y-73915048D01*
X114082181Y-73915049D01*
X114082184Y-73915051D01*
X114271588Y-74011557D01*
X114473757Y-74077246D01*
X114683713Y-74110500D01*
X114683714Y-74110500D01*
X114896286Y-74110500D01*
X114896287Y-74110500D01*
X115106243Y-74077246D01*
X115308412Y-74011557D01*
X115497816Y-73915051D01*
X115519789Y-73899086D01*
X115669786Y-73790109D01*
X115669788Y-73790106D01*
X115669792Y-73790104D01*
X115820104Y-73639792D01*
X115820106Y-73639788D01*
X115820109Y-73639786D01*
X115945048Y-73467820D01*
X115945047Y-73467820D01*
X115945051Y-73467816D01*
X116041557Y-73278412D01*
X116107246Y-73076243D01*
X116140500Y-72866287D01*
X116140500Y-72653713D01*
X116107246Y-72443757D01*
X116041557Y-72241588D01*
X115945051Y-72052184D01*
X115945049Y-72052181D01*
X115945048Y-72052179D01*
X115820109Y-71880213D01*
X115669786Y-71729890D01*
X115497820Y-71604951D01*
X115308414Y-71508444D01*
X115308413Y-71508443D01*
X115308412Y-71508443D01*
X115106243Y-71442754D01*
X115106241Y-71442753D01*
X115106240Y-71442753D01*
X114944957Y-71417208D01*
X114896287Y-71409500D01*
X114683713Y-71409500D01*
X114635042Y-71417208D01*
X114473760Y-71442753D01*
X114271585Y-71508444D01*
X114082179Y-71604951D01*
X113910213Y-71729890D01*
X113759890Y-71880213D01*
X113634949Y-72052182D01*
X113630484Y-72060946D01*
X113582509Y-72111742D01*
X113514688Y-72128536D01*
X113448553Y-72105998D01*
X113409516Y-72060946D01*
X113405050Y-72052182D01*
X113280109Y-71880213D01*
X113129786Y-71729890D01*
X112957820Y-71604951D01*
X112768414Y-71508444D01*
X112768413Y-71508443D01*
X112768412Y-71508443D01*
X112566243Y-71442754D01*
X112566241Y-71442753D01*
X112566240Y-71442753D01*
X112404957Y-71417208D01*
X112356287Y-71409500D01*
X112143713Y-71409500D01*
X112095042Y-71417208D01*
X111933760Y-71442753D01*
X111731585Y-71508444D01*
X111542179Y-71604951D01*
X111370213Y-71729890D01*
X111219894Y-71880209D01*
X111219885Y-71880219D01*
X111216330Y-71885113D01*
X111160997Y-71927775D01*
X111091383Y-71933748D01*
X111029591Y-71901137D01*
X110998312Y-71851223D01*
X110994815Y-71840670D01*
X110994814Y-71840666D01*
X110902712Y-71691344D01*
X110778656Y-71567288D01*
X110629334Y-71475186D01*
X110462797Y-71420001D01*
X110462795Y-71420000D01*
X110360010Y-71409500D01*
X109059998Y-71409500D01*
X109059981Y-71409501D01*
X108957203Y-71420000D01*
X108957200Y-71420001D01*
X108790668Y-71475185D01*
X108790663Y-71475187D01*
X108641342Y-71567289D01*
X108517289Y-71691342D01*
X108425187Y-71840663D01*
X108425185Y-71840668D01*
X108412083Y-71880208D01*
X108370001Y-72007203D01*
X108370001Y-72007204D01*
X108370000Y-72007204D01*
X108359500Y-72109983D01*
X100200500Y-72109983D01*
X100200500Y-62403246D01*
X100200670Y-62396756D01*
X100206071Y-62293713D01*
X102149500Y-62293713D01*
X102149500Y-62506286D01*
X102182753Y-62716239D01*
X102248444Y-62918414D01*
X102344951Y-63107820D01*
X102469890Y-63279786D01*
X102620213Y-63430109D01*
X102792179Y-63555048D01*
X102792181Y-63555049D01*
X102792184Y-63555051D01*
X102981588Y-63651557D01*
X103183757Y-63717246D01*
X103393713Y-63750500D01*
X103393714Y-63750500D01*
X103606286Y-63750500D01*
X103606287Y-63750500D01*
X103816243Y-63717246D01*
X104018412Y-63651557D01*
X104207816Y-63555051D01*
X104229789Y-63539086D01*
X104379786Y-63430109D01*
X104379788Y-63430106D01*
X104379792Y-63430104D01*
X104530104Y-63279792D01*
X104530106Y-63279788D01*
X104530109Y-63279786D01*
X104655048Y-63107820D01*
X104655047Y-63107820D01*
X104655051Y-63107816D01*
X104751557Y-62918412D01*
X104817246Y-62716243D01*
X104850500Y-62506287D01*
X104850500Y-62293713D01*
X104817246Y-62083757D01*
X104751557Y-61881588D01*
X104655051Y-61692184D01*
X104655049Y-61692181D01*
X104655048Y-61692179D01*
X104530109Y-61520213D01*
X104379786Y-61369890D01*
X104207820Y-61244951D01*
X104018414Y-61148444D01*
X104018413Y-61148443D01*
X104018412Y-61148443D01*
X103816243Y-61082754D01*
X103816241Y-61082753D01*
X103816240Y-61082753D01*
X103623220Y-61052182D01*
X103606287Y-61049500D01*
X103393713Y-61049500D01*
X103376780Y-61052182D01*
X103183760Y-61082753D01*
X102981585Y-61148444D01*
X102792179Y-61244951D01*
X102620213Y-61369890D01*
X102469890Y-61520213D01*
X102344951Y-61692179D01*
X102248444Y-61881585D01*
X102182753Y-62083760D01*
X102149500Y-62293713D01*
X100206071Y-62293713D01*
X100206666Y-62282351D01*
X100206666Y-62282350D01*
X100218235Y-62061595D01*
X100219592Y-62048686D01*
X100271586Y-61720409D01*
X100274279Y-61707733D01*
X100360310Y-61386662D01*
X100364314Y-61374340D01*
X100483434Y-61064021D01*
X100488698Y-61052199D01*
X100639611Y-60756014D01*
X100646077Y-60744816D01*
X100827113Y-60466045D01*
X100834727Y-60455564D01*
X101043915Y-60197241D01*
X101052582Y-60187615D01*
X101287615Y-59952582D01*
X101297241Y-59943915D01*
X101555564Y-59734727D01*
X101566045Y-59727113D01*
X101844816Y-59546077D01*
X101856014Y-59539611D01*
X102152199Y-59388698D01*
X102164021Y-59383434D01*
X102474340Y-59264314D01*
X102486662Y-59260310D01*
X102807733Y-59174279D01*
X102820409Y-59171586D01*
X103148688Y-59119591D01*
X103161592Y-59118235D01*
X103493512Y-59100840D01*
X103506488Y-59100840D01*
X103838405Y-59118235D01*
G37*
%TD.AperFunction*%
%TD*%
%TA.AperFunction,Conductor*%
%TO.N,/Connector and Sensor/TIM1_CH3*%
G36*
X142182642Y-102372633D02*
G01*
X143017712Y-103206722D01*
X143021144Y-103214993D01*
X143017722Y-103223268D01*
X143017712Y-103223278D01*
X142182642Y-104057366D01*
X142174367Y-104060788D01*
X142166781Y-104057990D01*
X142166049Y-104057366D01*
X141329107Y-103343503D01*
X141325037Y-103335527D01*
X141325000Y-103334601D01*
X141325000Y-103095398D01*
X141328427Y-103087125D01*
X141329093Y-103086508D01*
X142166783Y-102372008D01*
X142175300Y-102369248D01*
X142182642Y-102372633D01*
G37*
%TD.AperFunction*%
%TD*%
%TA.AperFunction,Conductor*%
%TO.N,/Connector and Sensor/NFAULT*%
G36*
X129934354Y-107618015D02*
G01*
X129941214Y-107621753D01*
X130216337Y-107771675D01*
X130221961Y-107778642D01*
X130222438Y-107781948D01*
X130222438Y-108013191D01*
X130219011Y-108021464D01*
X130210738Y-108024891D01*
X130210630Y-108024890D01*
X129770164Y-108020807D01*
X129761923Y-108017304D01*
X129758573Y-108009000D01*
X129758786Y-108006882D01*
X129798547Y-107802328D01*
X129800325Y-107798032D01*
X129919054Y-107621751D01*
X129926516Y-107616805D01*
X129934354Y-107618015D01*
G37*
%TD.AperFunction*%
%TD*%
%TA.AperFunction,Conductor*%
%TO.N,/Connector and Sensor/NFAULT*%
G36*
X150651510Y-103218359D02*
G01*
X151343363Y-103681620D01*
X151348330Y-103689071D01*
X151347425Y-103696354D01*
X150778171Y-104896979D01*
X150771530Y-104902987D01*
X150767599Y-104903667D01*
X150532346Y-104903667D01*
X150524073Y-104900240D01*
X150521808Y-104897050D01*
X149942665Y-103696386D01*
X149942157Y-103687446D01*
X149946690Y-103681583D01*
X150638490Y-103218358D01*
X150647271Y-103216604D01*
X150651510Y-103218359D01*
G37*
%TD.AperFunction*%
%TD*%
%TA.AperFunction,Conductor*%
%TO.N,/Connector and Sensor/TIM1_CH2*%
G36*
X142327530Y-100208956D02*
G01*
X143019484Y-100670652D01*
X143024464Y-100678094D01*
X143024463Y-100682680D01*
X142861185Y-101498608D01*
X142856201Y-101506048D01*
X142848936Y-101507986D01*
X141611140Y-101425725D01*
X141603112Y-101421757D01*
X141600216Y-101414051D01*
X141600216Y-101178852D01*
X141602503Y-101171902D01*
X142311625Y-100211736D01*
X142319296Y-100207118D01*
X142327530Y-100208956D01*
G37*
%TD.AperFunction*%
%TD*%
%TA.AperFunction,Conductor*%
%TO.N,/Connector and Sensor/TIM1_CH3N*%
G36*
X144469797Y-101938516D02*
G01*
X145721257Y-102377972D01*
X145727928Y-102383946D01*
X145728858Y-102391282D01*
X145567227Y-103208021D01*
X145562260Y-103215472D01*
X145558021Y-103217227D01*
X144741282Y-103378858D01*
X144732501Y-103377103D01*
X144727972Y-103371257D01*
X144673267Y-103215472D01*
X144288517Y-102119798D01*
X144289009Y-102110859D01*
X144291280Y-102107654D01*
X144457652Y-101941282D01*
X144465924Y-101937856D01*
X144469797Y-101938516D01*
G37*
%TD.AperFunction*%
%TD*%
%TA.AperFunction,Conductor*%
%TO.N,/Connector and Sensor/TIM1_CH2N*%
G36*
X144791468Y-99284511D02*
G01*
X146026053Y-99962114D01*
X146031657Y-99969099D01*
X146030681Y-99978000D01*
X146030159Y-99978862D01*
X145570340Y-100668490D01*
X145562899Y-100673472D01*
X145558325Y-100673475D01*
X144741178Y-100511128D01*
X144733731Y-100506154D01*
X144731769Y-100499144D01*
X144754399Y-99978862D01*
X144774139Y-99525000D01*
X144774139Y-99294768D01*
X144777566Y-99286495D01*
X144785839Y-99283068D01*
X144791468Y-99284511D01*
G37*
%TD.AperFunction*%
%TD*%
%TA.AperFunction,Conductor*%
%TO.N,/Connector and Sensor/TIM1_CH1*%
G36*
X148066368Y-103206507D02*
G01*
X148098021Y-103212772D01*
X148105472Y-103217739D01*
X148107227Y-103221978D01*
X148268858Y-104038717D01*
X148267103Y-104047498D01*
X148261257Y-104052027D01*
X147009800Y-104491482D01*
X147000859Y-104490990D01*
X146997651Y-104488716D01*
X146831283Y-104322348D01*
X146827856Y-104314075D01*
X146828516Y-104310203D01*
X147267973Y-103058740D01*
X147273946Y-103052071D01*
X147281279Y-103051141D01*
X148066368Y-103206507D01*
G37*
%TD.AperFunction*%
%TD*%
M02*
