%TF.GenerationSoftware,KiCad,Pcbnew,9.0.0*%
%TF.CreationDate,2025-03-07T07:18:05+07:00*%
%TF.ProjectId,MCU,4d43552e-6b69-4636-9164-5f7063625858,rev?*%
%TF.SameCoordinates,Original*%
%TF.FileFunction,Soldermask,Top*%
%TF.FilePolarity,Negative*%
%FSLAX46Y46*%
G04 Gerber Fmt 4.6, Leading zero omitted, Abs format (unit mm)*
G04 Created by KiCad (PCBNEW 9.0.0) date 2025-03-07 07:18:05*
%MOMM*%
%LPD*%
G01*
G04 APERTURE LIST*
G04 Aperture macros list*
%AMRoundRect*
0 Rectangle with rounded corners*
0 $1 Rounding radius*
0 $2 $3 $4 $5 $6 $7 $8 $9 X,Y pos of 4 corners*
0 Add a 4 corners polygon primitive as box body*
4,1,4,$2,$3,$4,$5,$6,$7,$8,$9,$2,$3,0*
0 Add four circle primitives for the rounded corners*
1,1,$1+$1,$2,$3*
1,1,$1+$1,$4,$5*
1,1,$1+$1,$6,$7*
1,1,$1+$1,$8,$9*
0 Add four rect primitives between the rounded corners*
20,1,$1+$1,$2,$3,$4,$5,0*
20,1,$1+$1,$4,$5,$6,$7,0*
20,1,$1+$1,$6,$7,$8,$9,0*
20,1,$1+$1,$8,$9,$2,$3,0*%
G04 Aperture macros list end*
%ADD10RoundRect,0.250000X-0.600000X-0.600000X0.600000X-0.600000X0.600000X0.600000X-0.600000X0.600000X0*%
%ADD11C,1.700000*%
%ADD12RoundRect,0.200000X0.275000X-0.200000X0.275000X0.200000X-0.275000X0.200000X-0.275000X-0.200000X0*%
%ADD13RoundRect,0.225000X0.250000X-0.225000X0.250000X0.225000X-0.250000X0.225000X-0.250000X-0.225000X0*%
%ADD14RoundRect,0.200000X-0.200000X0.300000X-0.200000X-0.300000X0.200000X-0.300000X0.200000X0.300000X0*%
%ADD15C,2.500000*%
%ADD16R,1.000000X1.250000*%
%ADD17RoundRect,0.225000X-0.250000X0.225000X-0.250000X-0.225000X0.250000X-0.225000X0.250000X0.225000X0*%
%ADD18RoundRect,0.250000X-0.262500X-0.450000X0.262500X-0.450000X0.262500X0.450000X-0.262500X0.450000X0*%
%ADD19RoundRect,0.225000X0.225000X0.250000X-0.225000X0.250000X-0.225000X-0.250000X0.225000X-0.250000X0*%
%ADD20RoundRect,0.225000X-0.225000X-0.250000X0.225000X-0.250000X0.225000X0.250000X-0.225000X0.250000X0*%
%ADD21RoundRect,0.250000X0.600000X0.600000X-0.600000X0.600000X-0.600000X-0.600000X0.600000X-0.600000X0*%
%ADD22RoundRect,0.200000X-0.200000X-0.275000X0.200000X-0.275000X0.200000X0.275000X-0.200000X0.275000X0*%
%ADD23R,1.700000X1.700000*%
%ADD24O,1.700000X1.700000*%
%ADD25RoundRect,0.250000X-0.600000X-0.725000X0.600000X-0.725000X0.600000X0.725000X-0.600000X0.725000X0*%
%ADD26O,1.700000X1.950000*%
%ADD27RoundRect,0.243750X-0.243750X-0.456250X0.243750X-0.456250X0.243750X0.456250X-0.243750X0.456250X0*%
%ADD28RoundRect,0.250000X-0.600000X0.600000X-0.600000X-0.600000X0.600000X-0.600000X0.600000X0.600000X0*%
%ADD29R,0.300000X1.475000*%
%ADD30R,1.475000X0.300000*%
%ADD31RoundRect,0.250000X0.600000X-0.600000X0.600000X0.600000X-0.600000X0.600000X-0.600000X-0.600000X0*%
%ADD32C,2.000000*%
%ADD33R,0.600000X1.350000*%
G04 APERTURE END LIST*
D10*
%TO.C,J4*%
X146330000Y-85500000D03*
D11*
X148870000Y-85500000D03*
X146330000Y-88040000D03*
X148870000Y-88040000D03*
X146330000Y-90580000D03*
X148870000Y-90580000D03*
X146330000Y-93120000D03*
X148870000Y-93120000D03*
%TD*%
D12*
%TO.C,R37*%
X141350000Y-92210000D03*
X141350000Y-90560000D03*
%TD*%
D13*
%TO.C,C40*%
X116120000Y-82425000D03*
X116120000Y-80875000D03*
%TD*%
D14*
%TO.C,Y2*%
X132070000Y-86080000D03*
X129970000Y-86080000D03*
X129970000Y-87480000D03*
X132070000Y-87480000D03*
%TD*%
D15*
%TO.C,H2*%
X151700000Y-117600000D03*
%TD*%
D16*
%TO.C,SW1*%
X133130000Y-80185000D03*
X133130000Y-72435000D03*
%TD*%
D17*
%TO.C,C9*%
X120170000Y-99100000D03*
X120170000Y-100650000D03*
%TD*%
D13*
%TO.C,C7*%
X135290000Y-92500000D03*
X135290000Y-90950000D03*
%TD*%
%TO.C,C37*%
X139670000Y-97610000D03*
X139670000Y-96060000D03*
%TD*%
D18*
%TO.C,R30*%
X140097500Y-75510000D03*
X141922500Y-75510000D03*
%TD*%
D19*
%TO.C,C8*%
X125005000Y-88080000D03*
X123455000Y-88080000D03*
%TD*%
D15*
%TO.C,H1*%
X103500000Y-117600000D03*
%TD*%
D20*
%TO.C,C19*%
X127905000Y-82510000D03*
X129455000Y-82510000D03*
%TD*%
D21*
%TO.C,J7*%
X110360000Y-101350000D03*
D11*
X107820000Y-101350000D03*
X110360000Y-98810000D03*
X107820000Y-98810000D03*
X110360000Y-96270000D03*
X107820000Y-96270000D03*
X110360000Y-93730000D03*
X107820000Y-93730000D03*
X110360000Y-91190000D03*
X107820000Y-91190000D03*
X110360000Y-88650000D03*
X107820000Y-88650000D03*
X110360000Y-86110000D03*
X107820000Y-86110000D03*
X110360000Y-83570000D03*
X107820000Y-83570000D03*
%TD*%
D13*
%TO.C,C36*%
X139650000Y-93820000D03*
X139650000Y-92270000D03*
%TD*%
D19*
%TO.C,C10*%
X131835000Y-84230000D03*
X130285000Y-84230000D03*
%TD*%
%TO.C,C29*%
X125005000Y-86290000D03*
X123455000Y-86290000D03*
%TD*%
D15*
%TO.C,H4*%
X103500000Y-62400000D03*
%TD*%
D22*
%TO.C,L3*%
X116995000Y-93290000D03*
X118645000Y-93290000D03*
%TD*%
D20*
%TO.C,C16*%
X117055000Y-91730000D03*
X118605000Y-91730000D03*
%TD*%
D18*
%TO.C,R35*%
X150900000Y-75500000D03*
X152725000Y-75500000D03*
%TD*%
D20*
%TO.C,C6*%
X131415000Y-103340000D03*
X132965000Y-103340000D03*
%TD*%
D23*
%TO.C,J1*%
X143025000Y-103215000D03*
D24*
X143025000Y-100675000D03*
X145565000Y-103215000D03*
X145565000Y-100675000D03*
X148105000Y-103215000D03*
X148105000Y-100675000D03*
X150645000Y-103215000D03*
X150645000Y-100675000D03*
%TD*%
D17*
%TO.C,C30*%
X136280000Y-75565000D03*
X136280000Y-77115000D03*
%TD*%
D25*
%TO.C,J2*%
X138700000Y-69070000D03*
D26*
X141200000Y-69070000D03*
X143700000Y-69070000D03*
X146200000Y-69070000D03*
X148700000Y-69070000D03*
X151200000Y-69070000D03*
%TD*%
D27*
%TO.C,D5*%
X150550000Y-77550000D03*
X152425000Y-77550000D03*
%TD*%
%TO.C,D4*%
X143300000Y-77550000D03*
X145175000Y-77550000D03*
%TD*%
D28*
%TO.C,J5*%
X142840000Y-112400000D03*
D11*
X142840000Y-114940000D03*
X140300000Y-112400000D03*
X140300000Y-114940000D03*
X137760000Y-112400000D03*
X137760000Y-114940000D03*
X135220000Y-112400000D03*
X135220000Y-114940000D03*
X132680000Y-112400000D03*
X132680000Y-114940000D03*
X130140000Y-112400000D03*
X130140000Y-114940000D03*
X127600000Y-112400000D03*
X127600000Y-114940000D03*
X125060000Y-112400000D03*
X125060000Y-114940000D03*
X122520000Y-112400000D03*
X122520000Y-114940000D03*
X119980000Y-112400000D03*
X119980000Y-114940000D03*
X117440000Y-112400000D03*
X117440000Y-114940000D03*
X114900000Y-112400000D03*
X114900000Y-114940000D03*
X112360000Y-112400000D03*
X112360000Y-114940000D03*
%TD*%
D19*
%TO.C,C17*%
X118585000Y-94830000D03*
X117035000Y-94830000D03*
%TD*%
D29*
%TO.C,IC1*%
X131488000Y-90000000D03*
X130988000Y-90000000D03*
X130488000Y-90000000D03*
X129988000Y-90000000D03*
X129488000Y-90000000D03*
X128988000Y-90000000D03*
X128488000Y-90000000D03*
X127988000Y-90000000D03*
X127488000Y-90000000D03*
X126988000Y-90000000D03*
X126488000Y-90000000D03*
X125988000Y-90000000D03*
X125488000Y-90000000D03*
X124988000Y-90000000D03*
X124488000Y-90000000D03*
X123988000Y-90000000D03*
D30*
X122000000Y-91988000D03*
X122000000Y-92488000D03*
X122000000Y-92988000D03*
X122000000Y-93488000D03*
X122000000Y-93988000D03*
X122000000Y-94488000D03*
X122000000Y-94988000D03*
X122000000Y-95488000D03*
X122000000Y-95988000D03*
X122000000Y-96488000D03*
X122000000Y-96988000D03*
X122000000Y-97488000D03*
X122000000Y-97988000D03*
X122000000Y-98488000D03*
X122000000Y-98988000D03*
X122000000Y-99488000D03*
D29*
X123988000Y-101476000D03*
X124488000Y-101476000D03*
X124988000Y-101476000D03*
X125488000Y-101476000D03*
X125988000Y-101476000D03*
X126488000Y-101476000D03*
X126988000Y-101476000D03*
X127488000Y-101476000D03*
X127988000Y-101476000D03*
X128488000Y-101476000D03*
X128988000Y-101476000D03*
X129488000Y-101476000D03*
X129988000Y-101476000D03*
X130488000Y-101476000D03*
X130988000Y-101476000D03*
X131488000Y-101476000D03*
D30*
X133476000Y-99488000D03*
X133476000Y-98988000D03*
X133476000Y-98488000D03*
X133476000Y-97988000D03*
X133476000Y-97488000D03*
X133476000Y-96988000D03*
X133476000Y-96488000D03*
X133476000Y-95988000D03*
X133476000Y-95488000D03*
X133476000Y-94988000D03*
X133476000Y-94488000D03*
X133476000Y-93988000D03*
X133476000Y-93488000D03*
X133476000Y-92988000D03*
X133476000Y-92488000D03*
X133476000Y-91988000D03*
%TD*%
D31*
%TO.C,J3*%
X109710000Y-72760000D03*
D11*
X109710000Y-70220000D03*
X112250000Y-72760000D03*
X112250000Y-70220000D03*
X114790000Y-72760000D03*
X114790000Y-70220000D03*
%TD*%
D12*
%TO.C,R38*%
X141360000Y-96040000D03*
X141360000Y-94390000D03*
%TD*%
D18*
%TO.C,R34*%
X147397500Y-75510000D03*
X149222500Y-75510000D03*
%TD*%
D32*
%TO.C,TP1*%
X139900000Y-106350000D03*
%TD*%
D12*
%TO.C,R32*%
X116120000Y-79260000D03*
X116120000Y-77610000D03*
%TD*%
%TO.C,R28*%
X127620000Y-80910000D03*
X127620000Y-79260000D03*
%TD*%
%TO.C,R36*%
X141350000Y-88400000D03*
X141350000Y-86750000D03*
%TD*%
D19*
%TO.C,C14*%
X118585000Y-99580000D03*
X117035000Y-99580000D03*
%TD*%
D13*
%TO.C,C35*%
X139620000Y-89945000D03*
X139620000Y-88395000D03*
%TD*%
D33*
%TO.C,IC2*%
X129820000Y-75405000D03*
X127720000Y-75405000D03*
X128770000Y-77505000D03*
%TD*%
D18*
%TO.C,R31*%
X143650000Y-75510000D03*
X145475000Y-75510000D03*
%TD*%
D32*
%TO.C,TP2*%
X136150000Y-106350000D03*
%TD*%
D12*
%TO.C,R29*%
X129780000Y-80905000D03*
X129780000Y-79255000D03*
%TD*%
D32*
%TO.C,TP3*%
X132400000Y-106300000D03*
%TD*%
D16*
%TO.C,SW2*%
X124400000Y-72360000D03*
X124400000Y-80110000D03*
%TD*%
D19*
%TO.C,C18*%
X118585000Y-96390000D03*
X117035000Y-96390000D03*
%TD*%
D20*
%TO.C,C13*%
X117035000Y-102730000D03*
X118585000Y-102730000D03*
%TD*%
D19*
%TO.C,C15*%
X118575000Y-98000000D03*
X117025000Y-98000000D03*
%TD*%
D12*
%TO.C,R33*%
X117870000Y-79275000D03*
X117870000Y-77625000D03*
%TD*%
D22*
%TO.C,L4*%
X116995000Y-101140000D03*
X118645000Y-101140000D03*
%TD*%
D15*
%TO.C,H3*%
X151695800Y-62400000D03*
%TD*%
D13*
%TO.C,C34*%
X117820000Y-82425000D03*
X117820000Y-80875000D03*
%TD*%
M02*
