%TF.GenerationSoftware,KiCad,Pcbnew,9.0.0*%
%TF.CreationDate,2025-03-07T07:18:05+07:00*%
%TF.ProjectId,MCU,4d43552e-6b69-4636-9164-5f7063625858,rev?*%
%TF.SameCoordinates,Original*%
%TF.FileFunction,Legend,Top*%
%TF.FilePolarity,Positive*%
%FSLAX46Y46*%
G04 Gerber Fmt 4.6, Leading zero omitted, Abs format (unit mm)*
G04 Created by KiCad (PCBNEW 9.0.0) date 2025-03-07 07:18:05*
%MOMM*%
%LPD*%
G01*
G04 APERTURE LIST*
%ADD10C,0.150000*%
%ADD11C,0.254000*%
%ADD12C,0.120000*%
%ADD13C,0.200000*%
%ADD14C,0.250000*%
G04 APERTURE END LIST*
D10*
X142093922Y-106153152D02*
X142474874Y-106153152D01*
X142236779Y-106819819D02*
X142236779Y-105962676D01*
X142236779Y-105962676D02*
X142284398Y-105867438D01*
X142284398Y-105867438D02*
X142379636Y-105819819D01*
X142379636Y-105819819D02*
X142474874Y-105819819D01*
X142808208Y-106819819D02*
X142808208Y-105819819D01*
X142808208Y-106200771D02*
X142903446Y-106153152D01*
X142903446Y-106153152D02*
X143093922Y-106153152D01*
X143093922Y-106153152D02*
X143189160Y-106200771D01*
X143189160Y-106200771D02*
X143236779Y-106248390D01*
X143236779Y-106248390D02*
X143284398Y-106343628D01*
X143284398Y-106343628D02*
X143284398Y-106629342D01*
X143284398Y-106629342D02*
X143236779Y-106724580D01*
X143236779Y-106724580D02*
X143189160Y-106772200D01*
X143189160Y-106772200D02*
X143093922Y-106819819D01*
X143093922Y-106819819D02*
X142903446Y-106819819D01*
X142903446Y-106819819D02*
X142808208Y-106772200D01*
X144284398Y-106724580D02*
X144236779Y-106772200D01*
X144236779Y-106772200D02*
X144093922Y-106819819D01*
X144093922Y-106819819D02*
X143998684Y-106819819D01*
X143998684Y-106819819D02*
X143855827Y-106772200D01*
X143855827Y-106772200D02*
X143760589Y-106676961D01*
X143760589Y-106676961D02*
X143712970Y-106581723D01*
X143712970Y-106581723D02*
X143665351Y-106391247D01*
X143665351Y-106391247D02*
X143665351Y-106248390D01*
X143665351Y-106248390D02*
X143712970Y-106057914D01*
X143712970Y-106057914D02*
X143760589Y-105962676D01*
X143760589Y-105962676D02*
X143855827Y-105867438D01*
X143855827Y-105867438D02*
X143998684Y-105819819D01*
X143998684Y-105819819D02*
X144093922Y-105819819D01*
X144093922Y-105819819D02*
X144236779Y-105867438D01*
X144236779Y-105867438D02*
X144284398Y-105915057D01*
X131747618Y-71269819D02*
X131414285Y-70793628D01*
X131176190Y-71269819D02*
X131176190Y-70269819D01*
X131176190Y-70269819D02*
X131557142Y-70269819D01*
X131557142Y-70269819D02*
X131652380Y-70317438D01*
X131652380Y-70317438D02*
X131699999Y-70365057D01*
X131699999Y-70365057D02*
X131747618Y-70460295D01*
X131747618Y-70460295D02*
X131747618Y-70603152D01*
X131747618Y-70603152D02*
X131699999Y-70698390D01*
X131699999Y-70698390D02*
X131652380Y-70746009D01*
X131652380Y-70746009D02*
X131557142Y-70793628D01*
X131557142Y-70793628D02*
X131176190Y-70793628D01*
X132176190Y-70746009D02*
X132509523Y-70746009D01*
X132652380Y-71269819D02*
X132176190Y-71269819D01*
X132176190Y-71269819D02*
X132176190Y-70269819D01*
X132176190Y-70269819D02*
X132652380Y-70269819D01*
X133033333Y-71222200D02*
X133176190Y-71269819D01*
X133176190Y-71269819D02*
X133414285Y-71269819D01*
X133414285Y-71269819D02*
X133509523Y-71222200D01*
X133509523Y-71222200D02*
X133557142Y-71174580D01*
X133557142Y-71174580D02*
X133604761Y-71079342D01*
X133604761Y-71079342D02*
X133604761Y-70984104D01*
X133604761Y-70984104D02*
X133557142Y-70888866D01*
X133557142Y-70888866D02*
X133509523Y-70841247D01*
X133509523Y-70841247D02*
X133414285Y-70793628D01*
X133414285Y-70793628D02*
X133223809Y-70746009D01*
X133223809Y-70746009D02*
X133128571Y-70698390D01*
X133128571Y-70698390D02*
X133080952Y-70650771D01*
X133080952Y-70650771D02*
X133033333Y-70555533D01*
X133033333Y-70555533D02*
X133033333Y-70460295D01*
X133033333Y-70460295D02*
X133080952Y-70365057D01*
X133080952Y-70365057D02*
X133128571Y-70317438D01*
X133128571Y-70317438D02*
X133223809Y-70269819D01*
X133223809Y-70269819D02*
X133461904Y-70269819D01*
X133461904Y-70269819D02*
X133604761Y-70317438D01*
X134033333Y-70746009D02*
X134366666Y-70746009D01*
X134509523Y-71269819D02*
X134033333Y-71269819D01*
X134033333Y-71269819D02*
X134033333Y-70269819D01*
X134033333Y-70269819D02*
X134509523Y-70269819D01*
X134795238Y-70269819D02*
X135366666Y-70269819D01*
X135080952Y-71269819D02*
X135080952Y-70269819D01*
X153346009Y-94463220D02*
X153346009Y-94129887D01*
X153869819Y-93987030D02*
X153869819Y-94463220D01*
X153869819Y-94463220D02*
X152869819Y-94463220D01*
X152869819Y-94463220D02*
X152869819Y-93987030D01*
X153203152Y-93558458D02*
X153869819Y-93558458D01*
X153298390Y-93558458D02*
X153250771Y-93510839D01*
X153250771Y-93510839D02*
X153203152Y-93415601D01*
X153203152Y-93415601D02*
X153203152Y-93272744D01*
X153203152Y-93272744D02*
X153250771Y-93177506D01*
X153250771Y-93177506D02*
X153346009Y-93129887D01*
X153346009Y-93129887D02*
X153869819Y-93129887D01*
X153822200Y-92225125D02*
X153869819Y-92320363D01*
X153869819Y-92320363D02*
X153869819Y-92510839D01*
X153869819Y-92510839D02*
X153822200Y-92606077D01*
X153822200Y-92606077D02*
X153774580Y-92653696D01*
X153774580Y-92653696D02*
X153679342Y-92701315D01*
X153679342Y-92701315D02*
X153393628Y-92701315D01*
X153393628Y-92701315D02*
X153298390Y-92653696D01*
X153298390Y-92653696D02*
X153250771Y-92606077D01*
X153250771Y-92606077D02*
X153203152Y-92510839D01*
X153203152Y-92510839D02*
X153203152Y-92320363D01*
X153203152Y-92320363D02*
X153250771Y-92225125D01*
X153869819Y-91653696D02*
X153822200Y-91748934D01*
X153822200Y-91748934D02*
X153774580Y-91796553D01*
X153774580Y-91796553D02*
X153679342Y-91844172D01*
X153679342Y-91844172D02*
X153393628Y-91844172D01*
X153393628Y-91844172D02*
X153298390Y-91796553D01*
X153298390Y-91796553D02*
X153250771Y-91748934D01*
X153250771Y-91748934D02*
X153203152Y-91653696D01*
X153203152Y-91653696D02*
X153203152Y-91510839D01*
X153203152Y-91510839D02*
X153250771Y-91415601D01*
X153250771Y-91415601D02*
X153298390Y-91367982D01*
X153298390Y-91367982D02*
X153393628Y-91320363D01*
X153393628Y-91320363D02*
X153679342Y-91320363D01*
X153679342Y-91320363D02*
X153774580Y-91367982D01*
X153774580Y-91367982D02*
X153822200Y-91415601D01*
X153822200Y-91415601D02*
X153869819Y-91510839D01*
X153869819Y-91510839D02*
X153869819Y-91653696D01*
X153869819Y-90463220D02*
X152869819Y-90463220D01*
X153822200Y-90463220D02*
X153869819Y-90558458D01*
X153869819Y-90558458D02*
X153869819Y-90748934D01*
X153869819Y-90748934D02*
X153822200Y-90844172D01*
X153822200Y-90844172D02*
X153774580Y-90891791D01*
X153774580Y-90891791D02*
X153679342Y-90939410D01*
X153679342Y-90939410D02*
X153393628Y-90939410D01*
X153393628Y-90939410D02*
X153298390Y-90891791D01*
X153298390Y-90891791D02*
X153250771Y-90844172D01*
X153250771Y-90844172D02*
X153203152Y-90748934D01*
X153203152Y-90748934D02*
X153203152Y-90558458D01*
X153203152Y-90558458D02*
X153250771Y-90463220D01*
X153822200Y-89606077D02*
X153869819Y-89701315D01*
X153869819Y-89701315D02*
X153869819Y-89891791D01*
X153869819Y-89891791D02*
X153822200Y-89987029D01*
X153822200Y-89987029D02*
X153726961Y-90034648D01*
X153726961Y-90034648D02*
X153346009Y-90034648D01*
X153346009Y-90034648D02*
X153250771Y-89987029D01*
X153250771Y-89987029D02*
X153203152Y-89891791D01*
X153203152Y-89891791D02*
X153203152Y-89701315D01*
X153203152Y-89701315D02*
X153250771Y-89606077D01*
X153250771Y-89606077D02*
X153346009Y-89558458D01*
X153346009Y-89558458D02*
X153441247Y-89558458D01*
X153441247Y-89558458D02*
X153536485Y-90034648D01*
X153869819Y-89129886D02*
X153203152Y-89129886D01*
X153393628Y-89129886D02*
X153298390Y-89082267D01*
X153298390Y-89082267D02*
X153250771Y-89034648D01*
X153250771Y-89034648D02*
X153203152Y-88939410D01*
X153203152Y-88939410D02*
X153203152Y-88844172D01*
X153869819Y-87748933D02*
X152869819Y-87748933D01*
X153869819Y-87177505D02*
X153298390Y-87606076D01*
X152869819Y-87177505D02*
X153441247Y-87748933D01*
X153203152Y-86748933D02*
X153869819Y-86748933D01*
X153298390Y-86748933D02*
X153250771Y-86701314D01*
X153250771Y-86701314D02*
X153203152Y-86606076D01*
X153203152Y-86606076D02*
X153203152Y-86463219D01*
X153203152Y-86463219D02*
X153250771Y-86367981D01*
X153250771Y-86367981D02*
X153346009Y-86320362D01*
X153346009Y-86320362D02*
X153869819Y-86320362D01*
X153869819Y-85701314D02*
X153822200Y-85796552D01*
X153822200Y-85796552D02*
X153774580Y-85844171D01*
X153774580Y-85844171D02*
X153679342Y-85891790D01*
X153679342Y-85891790D02*
X153393628Y-85891790D01*
X153393628Y-85891790D02*
X153298390Y-85844171D01*
X153298390Y-85844171D02*
X153250771Y-85796552D01*
X153250771Y-85796552D02*
X153203152Y-85701314D01*
X153203152Y-85701314D02*
X153203152Y-85558457D01*
X153203152Y-85558457D02*
X153250771Y-85463219D01*
X153250771Y-85463219D02*
X153298390Y-85415600D01*
X153298390Y-85415600D02*
X153393628Y-85367981D01*
X153393628Y-85367981D02*
X153679342Y-85367981D01*
X153679342Y-85367981D02*
X153774580Y-85415600D01*
X153774580Y-85415600D02*
X153822200Y-85463219D01*
X153822200Y-85463219D02*
X153869819Y-85558457D01*
X153869819Y-85558457D02*
X153869819Y-85701314D01*
X153869819Y-84939409D02*
X152869819Y-84939409D01*
X153250771Y-84939409D02*
X153203152Y-84844171D01*
X153203152Y-84844171D02*
X153203152Y-84653695D01*
X153203152Y-84653695D02*
X153250771Y-84558457D01*
X153250771Y-84558457D02*
X153298390Y-84510838D01*
X153298390Y-84510838D02*
X153393628Y-84463219D01*
X153393628Y-84463219D02*
X153679342Y-84463219D01*
X153679342Y-84463219D02*
X153774580Y-84510838D01*
X153774580Y-84510838D02*
X153822200Y-84558457D01*
X153822200Y-84558457D02*
X153869819Y-84653695D01*
X153869819Y-84653695D02*
X153869819Y-84844171D01*
X153869819Y-84844171D02*
X153822200Y-84939409D01*
X102930180Y-91404762D02*
X103930180Y-91404762D01*
X102930180Y-91880952D02*
X103930180Y-91880952D01*
X103930180Y-91880952D02*
X103215895Y-92214285D01*
X103215895Y-92214285D02*
X103930180Y-92547618D01*
X103930180Y-92547618D02*
X102930180Y-92547618D01*
X103930180Y-93023809D02*
X103120657Y-93023809D01*
X103120657Y-93023809D02*
X103025419Y-93071428D01*
X103025419Y-93071428D02*
X102977800Y-93119047D01*
X102977800Y-93119047D02*
X102930180Y-93214285D01*
X102930180Y-93214285D02*
X102930180Y-93404761D01*
X102930180Y-93404761D02*
X102977800Y-93499999D01*
X102977800Y-93499999D02*
X103025419Y-93547618D01*
X103025419Y-93547618D02*
X103120657Y-93595237D01*
X103120657Y-93595237D02*
X103930180Y-93595237D01*
X150016667Y-79819819D02*
X150016667Y-78819819D01*
X150016667Y-78819819D02*
X150397619Y-78819819D01*
X150397619Y-78819819D02*
X150492857Y-78867438D01*
X150492857Y-78867438D02*
X150540476Y-78915057D01*
X150540476Y-78915057D02*
X150588095Y-79010295D01*
X150588095Y-79010295D02*
X150588095Y-79153152D01*
X150588095Y-79153152D02*
X150540476Y-79248390D01*
X150540476Y-79248390D02*
X150492857Y-79296009D01*
X150492857Y-79296009D02*
X150397619Y-79343628D01*
X150397619Y-79343628D02*
X150016667Y-79343628D01*
X150921429Y-78819819D02*
X151159524Y-79819819D01*
X151159524Y-79819819D02*
X151350000Y-79105533D01*
X151350000Y-79105533D02*
X151540476Y-79819819D01*
X151540476Y-79819819D02*
X151778572Y-78819819D01*
X152730952Y-79819819D02*
X152397619Y-79343628D01*
X152159524Y-79819819D02*
X152159524Y-78819819D01*
X152159524Y-78819819D02*
X152540476Y-78819819D01*
X152540476Y-78819819D02*
X152635714Y-78867438D01*
X152635714Y-78867438D02*
X152683333Y-78915057D01*
X152683333Y-78915057D02*
X152730952Y-79010295D01*
X152730952Y-79010295D02*
X152730952Y-79153152D01*
X152730952Y-79153152D02*
X152683333Y-79248390D01*
X152683333Y-79248390D02*
X152635714Y-79296009D01*
X152635714Y-79296009D02*
X152540476Y-79343628D01*
X152540476Y-79343628D02*
X152159524Y-79343628D01*
X142389160Y-66822200D02*
X142532017Y-66869819D01*
X142532017Y-66869819D02*
X142770112Y-66869819D01*
X142770112Y-66869819D02*
X142865350Y-66822200D01*
X142865350Y-66822200D02*
X142912969Y-66774580D01*
X142912969Y-66774580D02*
X142960588Y-66679342D01*
X142960588Y-66679342D02*
X142960588Y-66584104D01*
X142960588Y-66584104D02*
X142912969Y-66488866D01*
X142912969Y-66488866D02*
X142865350Y-66441247D01*
X142865350Y-66441247D02*
X142770112Y-66393628D01*
X142770112Y-66393628D02*
X142579636Y-66346009D01*
X142579636Y-66346009D02*
X142484398Y-66298390D01*
X142484398Y-66298390D02*
X142436779Y-66250771D01*
X142436779Y-66250771D02*
X142389160Y-66155533D01*
X142389160Y-66155533D02*
X142389160Y-66060295D01*
X142389160Y-66060295D02*
X142436779Y-65965057D01*
X142436779Y-65965057D02*
X142484398Y-65917438D01*
X142484398Y-65917438D02*
X142579636Y-65869819D01*
X142579636Y-65869819D02*
X142817731Y-65869819D01*
X142817731Y-65869819D02*
X142960588Y-65917438D01*
X143246303Y-65869819D02*
X143817731Y-65869819D01*
X143532017Y-66869819D02*
X143532017Y-65869819D01*
X144151065Y-66488866D02*
X144912970Y-66488866D01*
X145865350Y-66869819D02*
X145389160Y-66869819D01*
X145389160Y-66869819D02*
X145389160Y-65869819D01*
X146198684Y-66869819D02*
X146198684Y-65869819D01*
X146674874Y-66869819D02*
X146674874Y-65869819D01*
X146674874Y-65869819D02*
X147246302Y-66869819D01*
X147246302Y-66869819D02*
X147246302Y-65869819D01*
X147722493Y-66869819D02*
X147722493Y-65869819D01*
X148293921Y-66869819D02*
X147865350Y-66298390D01*
X148293921Y-65869819D02*
X147722493Y-66441247D01*
X128193922Y-105853152D02*
X128574874Y-105853152D01*
X128336779Y-106519819D02*
X128336779Y-105662676D01*
X128336779Y-105662676D02*
X128384398Y-105567438D01*
X128384398Y-105567438D02*
X128479636Y-105519819D01*
X128479636Y-105519819D02*
X128574874Y-105519819D01*
X128908208Y-106519819D02*
X128908208Y-105519819D01*
X128908208Y-105900771D02*
X129003446Y-105853152D01*
X129003446Y-105853152D02*
X129193922Y-105853152D01*
X129193922Y-105853152D02*
X129289160Y-105900771D01*
X129289160Y-105900771D02*
X129336779Y-105948390D01*
X129336779Y-105948390D02*
X129384398Y-106043628D01*
X129384398Y-106043628D02*
X129384398Y-106329342D01*
X129384398Y-106329342D02*
X129336779Y-106424580D01*
X129336779Y-106424580D02*
X129289160Y-106472200D01*
X129289160Y-106472200D02*
X129193922Y-106519819D01*
X129193922Y-106519819D02*
X129003446Y-106519819D01*
X129003446Y-106519819D02*
X128908208Y-106472200D01*
X129765351Y-106234104D02*
X130241541Y-106234104D01*
X129670113Y-106519819D02*
X130003446Y-105519819D01*
X130003446Y-105519819D02*
X130336779Y-106519819D01*
X146886779Y-105719819D02*
X146886779Y-104719819D01*
X146886779Y-104719819D02*
X147124874Y-104719819D01*
X147124874Y-104719819D02*
X147267731Y-104767438D01*
X147267731Y-104767438D02*
X147362969Y-104862676D01*
X147362969Y-104862676D02*
X147410588Y-104957914D01*
X147410588Y-104957914D02*
X147458207Y-105148390D01*
X147458207Y-105148390D02*
X147458207Y-105291247D01*
X147458207Y-105291247D02*
X147410588Y-105481723D01*
X147410588Y-105481723D02*
X147362969Y-105576961D01*
X147362969Y-105576961D02*
X147267731Y-105672200D01*
X147267731Y-105672200D02*
X147124874Y-105719819D01*
X147124874Y-105719819D02*
X146886779Y-105719819D01*
X148267731Y-105672200D02*
X148172493Y-105719819D01*
X148172493Y-105719819D02*
X147982017Y-105719819D01*
X147982017Y-105719819D02*
X147886779Y-105672200D01*
X147886779Y-105672200D02*
X147839160Y-105576961D01*
X147839160Y-105576961D02*
X147839160Y-105196009D01*
X147839160Y-105196009D02*
X147886779Y-105100771D01*
X147886779Y-105100771D02*
X147982017Y-105053152D01*
X147982017Y-105053152D02*
X148172493Y-105053152D01*
X148172493Y-105053152D02*
X148267731Y-105100771D01*
X148267731Y-105100771D02*
X148315350Y-105196009D01*
X148315350Y-105196009D02*
X148315350Y-105291247D01*
X148315350Y-105291247D02*
X147839160Y-105386485D01*
X148743922Y-105719819D02*
X148743922Y-104719819D01*
X148743922Y-105100771D02*
X148839160Y-105053152D01*
X148839160Y-105053152D02*
X149029636Y-105053152D01*
X149029636Y-105053152D02*
X149124874Y-105100771D01*
X149124874Y-105100771D02*
X149172493Y-105148390D01*
X149172493Y-105148390D02*
X149220112Y-105243628D01*
X149220112Y-105243628D02*
X149220112Y-105529342D01*
X149220112Y-105529342D02*
X149172493Y-105624580D01*
X149172493Y-105624580D02*
X149124874Y-105672200D01*
X149124874Y-105672200D02*
X149029636Y-105719819D01*
X149029636Y-105719819D02*
X148839160Y-105719819D01*
X148839160Y-105719819D02*
X148743922Y-105672200D01*
X150077255Y-105053152D02*
X150077255Y-105719819D01*
X149648684Y-105053152D02*
X149648684Y-105576961D01*
X149648684Y-105576961D02*
X149696303Y-105672200D01*
X149696303Y-105672200D02*
X149791541Y-105719819D01*
X149791541Y-105719819D02*
X149934398Y-105719819D01*
X149934398Y-105719819D02*
X150029636Y-105672200D01*
X150029636Y-105672200D02*
X150077255Y-105624580D01*
X150982017Y-105053152D02*
X150982017Y-105862676D01*
X150982017Y-105862676D02*
X150934398Y-105957914D01*
X150934398Y-105957914D02*
X150886779Y-106005533D01*
X150886779Y-106005533D02*
X150791541Y-106053152D01*
X150791541Y-106053152D02*
X150648684Y-106053152D01*
X150648684Y-106053152D02*
X150553446Y-106005533D01*
X150982017Y-105672200D02*
X150886779Y-105719819D01*
X150886779Y-105719819D02*
X150696303Y-105719819D01*
X150696303Y-105719819D02*
X150601065Y-105672200D01*
X150601065Y-105672200D02*
X150553446Y-105624580D01*
X150553446Y-105624580D02*
X150505827Y-105529342D01*
X150505827Y-105529342D02*
X150505827Y-105243628D01*
X150505827Y-105243628D02*
X150553446Y-105148390D01*
X150553446Y-105148390D02*
X150601065Y-105100771D01*
X150601065Y-105100771D02*
X150696303Y-105053152D01*
X150696303Y-105053152D02*
X150886779Y-105053152D01*
X150886779Y-105053152D02*
X150982017Y-105100771D01*
X142485714Y-78719819D02*
X142485714Y-79529342D01*
X142485714Y-79529342D02*
X142533333Y-79624580D01*
X142533333Y-79624580D02*
X142580952Y-79672200D01*
X142580952Y-79672200D02*
X142676190Y-79719819D01*
X142676190Y-79719819D02*
X142866666Y-79719819D01*
X142866666Y-79719819D02*
X142961904Y-79672200D01*
X142961904Y-79672200D02*
X143009523Y-79624580D01*
X143009523Y-79624580D02*
X143057142Y-79529342D01*
X143057142Y-79529342D02*
X143057142Y-78719819D01*
X143485714Y-79672200D02*
X143628571Y-79719819D01*
X143628571Y-79719819D02*
X143866666Y-79719819D01*
X143866666Y-79719819D02*
X143961904Y-79672200D01*
X143961904Y-79672200D02*
X144009523Y-79624580D01*
X144009523Y-79624580D02*
X144057142Y-79529342D01*
X144057142Y-79529342D02*
X144057142Y-79434104D01*
X144057142Y-79434104D02*
X144009523Y-79338866D01*
X144009523Y-79338866D02*
X143961904Y-79291247D01*
X143961904Y-79291247D02*
X143866666Y-79243628D01*
X143866666Y-79243628D02*
X143676190Y-79196009D01*
X143676190Y-79196009D02*
X143580952Y-79148390D01*
X143580952Y-79148390D02*
X143533333Y-79100771D01*
X143533333Y-79100771D02*
X143485714Y-79005533D01*
X143485714Y-79005533D02*
X143485714Y-78910295D01*
X143485714Y-78910295D02*
X143533333Y-78815057D01*
X143533333Y-78815057D02*
X143580952Y-78767438D01*
X143580952Y-78767438D02*
X143676190Y-78719819D01*
X143676190Y-78719819D02*
X143914285Y-78719819D01*
X143914285Y-78719819D02*
X144057142Y-78767438D01*
X144485714Y-79196009D02*
X144819047Y-79196009D01*
X144961904Y-79719819D02*
X144485714Y-79719819D01*
X144485714Y-79719819D02*
X144485714Y-78719819D01*
X144485714Y-78719819D02*
X144961904Y-78719819D01*
X145961904Y-79719819D02*
X145628571Y-79243628D01*
X145390476Y-79719819D02*
X145390476Y-78719819D01*
X145390476Y-78719819D02*
X145771428Y-78719819D01*
X145771428Y-78719819D02*
X145866666Y-78767438D01*
X145866666Y-78767438D02*
X145914285Y-78815057D01*
X145914285Y-78815057D02*
X145961904Y-78910295D01*
X145961904Y-78910295D02*
X145961904Y-79053152D01*
X145961904Y-79053152D02*
X145914285Y-79148390D01*
X145914285Y-79148390D02*
X145866666Y-79196009D01*
X145866666Y-79196009D02*
X145771428Y-79243628D01*
X145771428Y-79243628D02*
X145390476Y-79243628D01*
X118719047Y-119669819D02*
X118719047Y-118669819D01*
X118719047Y-118669819D02*
X119052380Y-119384104D01*
X119052380Y-119384104D02*
X119385713Y-118669819D01*
X119385713Y-118669819D02*
X119385713Y-119669819D01*
X120052380Y-118669819D02*
X120242856Y-118669819D01*
X120242856Y-118669819D02*
X120338094Y-118717438D01*
X120338094Y-118717438D02*
X120433332Y-118812676D01*
X120433332Y-118812676D02*
X120480951Y-119003152D01*
X120480951Y-119003152D02*
X120480951Y-119336485D01*
X120480951Y-119336485D02*
X120433332Y-119526961D01*
X120433332Y-119526961D02*
X120338094Y-119622200D01*
X120338094Y-119622200D02*
X120242856Y-119669819D01*
X120242856Y-119669819D02*
X120052380Y-119669819D01*
X120052380Y-119669819D02*
X119957142Y-119622200D01*
X119957142Y-119622200D02*
X119861904Y-119526961D01*
X119861904Y-119526961D02*
X119814285Y-119336485D01*
X119814285Y-119336485D02*
X119814285Y-119003152D01*
X119814285Y-119003152D02*
X119861904Y-118812676D01*
X119861904Y-118812676D02*
X119957142Y-118717438D01*
X119957142Y-118717438D02*
X120052380Y-118669819D01*
X120766666Y-118669819D02*
X121338094Y-118669819D01*
X121052380Y-119669819D02*
X121052380Y-118669819D01*
X121861904Y-118669819D02*
X122052380Y-118669819D01*
X122052380Y-118669819D02*
X122147618Y-118717438D01*
X122147618Y-118717438D02*
X122242856Y-118812676D01*
X122242856Y-118812676D02*
X122290475Y-119003152D01*
X122290475Y-119003152D02*
X122290475Y-119336485D01*
X122290475Y-119336485D02*
X122242856Y-119526961D01*
X122242856Y-119526961D02*
X122147618Y-119622200D01*
X122147618Y-119622200D02*
X122052380Y-119669819D01*
X122052380Y-119669819D02*
X121861904Y-119669819D01*
X121861904Y-119669819D02*
X121766666Y-119622200D01*
X121766666Y-119622200D02*
X121671428Y-119526961D01*
X121671428Y-119526961D02*
X121623809Y-119336485D01*
X121623809Y-119336485D02*
X121623809Y-119003152D01*
X121623809Y-119003152D02*
X121671428Y-118812676D01*
X121671428Y-118812676D02*
X121766666Y-118717438D01*
X121766666Y-118717438D02*
X121861904Y-118669819D01*
X123290475Y-119669819D02*
X122957142Y-119193628D01*
X122719047Y-119669819D02*
X122719047Y-118669819D01*
X122719047Y-118669819D02*
X123099999Y-118669819D01*
X123099999Y-118669819D02*
X123195237Y-118717438D01*
X123195237Y-118717438D02*
X123242856Y-118765057D01*
X123242856Y-118765057D02*
X123290475Y-118860295D01*
X123290475Y-118860295D02*
X123290475Y-119003152D01*
X123290475Y-119003152D02*
X123242856Y-119098390D01*
X123242856Y-119098390D02*
X123195237Y-119146009D01*
X123195237Y-119146009D02*
X123099999Y-119193628D01*
X123099999Y-119193628D02*
X122719047Y-119193628D01*
X124480952Y-119669819D02*
X124480952Y-118669819D01*
X124480952Y-118669819D02*
X124719047Y-118669819D01*
X124719047Y-118669819D02*
X124861904Y-118717438D01*
X124861904Y-118717438D02*
X124957142Y-118812676D01*
X124957142Y-118812676D02*
X125004761Y-118907914D01*
X125004761Y-118907914D02*
X125052380Y-119098390D01*
X125052380Y-119098390D02*
X125052380Y-119241247D01*
X125052380Y-119241247D02*
X125004761Y-119431723D01*
X125004761Y-119431723D02*
X124957142Y-119526961D01*
X124957142Y-119526961D02*
X124861904Y-119622200D01*
X124861904Y-119622200D02*
X124719047Y-119669819D01*
X124719047Y-119669819D02*
X124480952Y-119669819D01*
X126052380Y-119669819D02*
X125719047Y-119193628D01*
X125480952Y-119669819D02*
X125480952Y-118669819D01*
X125480952Y-118669819D02*
X125861904Y-118669819D01*
X125861904Y-118669819D02*
X125957142Y-118717438D01*
X125957142Y-118717438D02*
X126004761Y-118765057D01*
X126004761Y-118765057D02*
X126052380Y-118860295D01*
X126052380Y-118860295D02*
X126052380Y-119003152D01*
X126052380Y-119003152D02*
X126004761Y-119098390D01*
X126004761Y-119098390D02*
X125957142Y-119146009D01*
X125957142Y-119146009D02*
X125861904Y-119193628D01*
X125861904Y-119193628D02*
X125480952Y-119193628D01*
X126480952Y-119669819D02*
X126480952Y-118669819D01*
X126814285Y-118669819D02*
X127147618Y-119669819D01*
X127147618Y-119669819D02*
X127480951Y-118669819D01*
X127814285Y-119146009D02*
X128147618Y-119146009D01*
X128290475Y-119669819D02*
X127814285Y-119669819D01*
X127814285Y-119669819D02*
X127814285Y-118669819D01*
X127814285Y-118669819D02*
X128290475Y-118669819D01*
X129290475Y-119669819D02*
X128957142Y-119193628D01*
X128719047Y-119669819D02*
X128719047Y-118669819D01*
X128719047Y-118669819D02*
X129099999Y-118669819D01*
X129099999Y-118669819D02*
X129195237Y-118717438D01*
X129195237Y-118717438D02*
X129242856Y-118765057D01*
X129242856Y-118765057D02*
X129290475Y-118860295D01*
X129290475Y-118860295D02*
X129290475Y-119003152D01*
X129290475Y-119003152D02*
X129242856Y-119098390D01*
X129242856Y-119098390D02*
X129195237Y-119146009D01*
X129195237Y-119146009D02*
X129099999Y-119193628D01*
X129099999Y-119193628D02*
X128719047Y-119193628D01*
X130909523Y-119669819D02*
X130909523Y-119146009D01*
X130909523Y-119146009D02*
X130861904Y-119050771D01*
X130861904Y-119050771D02*
X130766666Y-119003152D01*
X130766666Y-119003152D02*
X130576190Y-119003152D01*
X130576190Y-119003152D02*
X130480952Y-119050771D01*
X130909523Y-119622200D02*
X130814285Y-119669819D01*
X130814285Y-119669819D02*
X130576190Y-119669819D01*
X130576190Y-119669819D02*
X130480952Y-119622200D01*
X130480952Y-119622200D02*
X130433333Y-119526961D01*
X130433333Y-119526961D02*
X130433333Y-119431723D01*
X130433333Y-119431723D02*
X130480952Y-119336485D01*
X130480952Y-119336485D02*
X130576190Y-119288866D01*
X130576190Y-119288866D02*
X130814285Y-119288866D01*
X130814285Y-119288866D02*
X130909523Y-119241247D01*
X131385714Y-119003152D02*
X131385714Y-119669819D01*
X131385714Y-119098390D02*
X131433333Y-119050771D01*
X131433333Y-119050771D02*
X131528571Y-119003152D01*
X131528571Y-119003152D02*
X131671428Y-119003152D01*
X131671428Y-119003152D02*
X131766666Y-119050771D01*
X131766666Y-119050771D02*
X131814285Y-119146009D01*
X131814285Y-119146009D02*
X131814285Y-119669819D01*
X132719047Y-119669819D02*
X132719047Y-118669819D01*
X132719047Y-119622200D02*
X132623809Y-119669819D01*
X132623809Y-119669819D02*
X132433333Y-119669819D01*
X132433333Y-119669819D02*
X132338095Y-119622200D01*
X132338095Y-119622200D02*
X132290476Y-119574580D01*
X132290476Y-119574580D02*
X132242857Y-119479342D01*
X132242857Y-119479342D02*
X132242857Y-119193628D01*
X132242857Y-119193628D02*
X132290476Y-119098390D01*
X132290476Y-119098390D02*
X132338095Y-119050771D01*
X132338095Y-119050771D02*
X132433333Y-119003152D01*
X132433333Y-119003152D02*
X132623809Y-119003152D01*
X132623809Y-119003152D02*
X132719047Y-119050771D01*
X133957143Y-119669819D02*
X133957143Y-118669819D01*
X133957143Y-118669819D02*
X134338095Y-118669819D01*
X134338095Y-118669819D02*
X134433333Y-118717438D01*
X134433333Y-118717438D02*
X134480952Y-118765057D01*
X134480952Y-118765057D02*
X134528571Y-118860295D01*
X134528571Y-118860295D02*
X134528571Y-119003152D01*
X134528571Y-119003152D02*
X134480952Y-119098390D01*
X134480952Y-119098390D02*
X134433333Y-119146009D01*
X134433333Y-119146009D02*
X134338095Y-119193628D01*
X134338095Y-119193628D02*
X133957143Y-119193628D01*
X134909524Y-119622200D02*
X135052381Y-119669819D01*
X135052381Y-119669819D02*
X135290476Y-119669819D01*
X135290476Y-119669819D02*
X135385714Y-119622200D01*
X135385714Y-119622200D02*
X135433333Y-119574580D01*
X135433333Y-119574580D02*
X135480952Y-119479342D01*
X135480952Y-119479342D02*
X135480952Y-119384104D01*
X135480952Y-119384104D02*
X135433333Y-119288866D01*
X135433333Y-119288866D02*
X135385714Y-119241247D01*
X135385714Y-119241247D02*
X135290476Y-119193628D01*
X135290476Y-119193628D02*
X135100000Y-119146009D01*
X135100000Y-119146009D02*
X135004762Y-119098390D01*
X135004762Y-119098390D02*
X134957143Y-119050771D01*
X134957143Y-119050771D02*
X134909524Y-118955533D01*
X134909524Y-118955533D02*
X134909524Y-118860295D01*
X134909524Y-118860295D02*
X134957143Y-118765057D01*
X134957143Y-118765057D02*
X135004762Y-118717438D01*
X135004762Y-118717438D02*
X135100000Y-118669819D01*
X135100000Y-118669819D02*
X135338095Y-118669819D01*
X135338095Y-118669819D02*
X135480952Y-118717438D01*
X135909524Y-118669819D02*
X135909524Y-119479342D01*
X135909524Y-119479342D02*
X135957143Y-119574580D01*
X135957143Y-119574580D02*
X136004762Y-119622200D01*
X136004762Y-119622200D02*
X136100000Y-119669819D01*
X136100000Y-119669819D02*
X136290476Y-119669819D01*
X136290476Y-119669819D02*
X136385714Y-119622200D01*
X136385714Y-119622200D02*
X136433333Y-119574580D01*
X136433333Y-119574580D02*
X136480952Y-119479342D01*
X136480952Y-119479342D02*
X136480952Y-118669819D01*
X135243922Y-103503152D02*
X135624874Y-103503152D01*
X135386779Y-104169819D02*
X135386779Y-103312676D01*
X135386779Y-103312676D02*
X135434398Y-103217438D01*
X135434398Y-103217438D02*
X135529636Y-103169819D01*
X135529636Y-103169819D02*
X135624874Y-103169819D01*
X135958208Y-104169819D02*
X135958208Y-103169819D01*
X135958208Y-103550771D02*
X136053446Y-103503152D01*
X136053446Y-103503152D02*
X136243922Y-103503152D01*
X136243922Y-103503152D02*
X136339160Y-103550771D01*
X136339160Y-103550771D02*
X136386779Y-103598390D01*
X136386779Y-103598390D02*
X136434398Y-103693628D01*
X136434398Y-103693628D02*
X136434398Y-103979342D01*
X136434398Y-103979342D02*
X136386779Y-104074580D01*
X136386779Y-104074580D02*
X136339160Y-104122200D01*
X136339160Y-104122200D02*
X136243922Y-104169819D01*
X136243922Y-104169819D02*
X136053446Y-104169819D01*
X136053446Y-104169819D02*
X135958208Y-104122200D01*
X137196303Y-103646009D02*
X137339160Y-103693628D01*
X137339160Y-103693628D02*
X137386779Y-103741247D01*
X137386779Y-103741247D02*
X137434398Y-103836485D01*
X137434398Y-103836485D02*
X137434398Y-103979342D01*
X137434398Y-103979342D02*
X137386779Y-104074580D01*
X137386779Y-104074580D02*
X137339160Y-104122200D01*
X137339160Y-104122200D02*
X137243922Y-104169819D01*
X137243922Y-104169819D02*
X136862970Y-104169819D01*
X136862970Y-104169819D02*
X136862970Y-103169819D01*
X136862970Y-103169819D02*
X137196303Y-103169819D01*
X137196303Y-103169819D02*
X137291541Y-103217438D01*
X137291541Y-103217438D02*
X137339160Y-103265057D01*
X137339160Y-103265057D02*
X137386779Y-103360295D01*
X137386779Y-103360295D02*
X137386779Y-103455533D01*
X137386779Y-103455533D02*
X137339160Y-103550771D01*
X137339160Y-103550771D02*
X137291541Y-103598390D01*
X137291541Y-103598390D02*
X137196303Y-103646009D01*
X137196303Y-103646009D02*
X136862970Y-103646009D01*
X122685714Y-70269819D02*
X122685714Y-71079342D01*
X122685714Y-71079342D02*
X122733333Y-71174580D01*
X122733333Y-71174580D02*
X122780952Y-71222200D01*
X122780952Y-71222200D02*
X122876190Y-71269819D01*
X122876190Y-71269819D02*
X123066666Y-71269819D01*
X123066666Y-71269819D02*
X123161904Y-71222200D01*
X123161904Y-71222200D02*
X123209523Y-71174580D01*
X123209523Y-71174580D02*
X123257142Y-71079342D01*
X123257142Y-71079342D02*
X123257142Y-70269819D01*
X123685714Y-71222200D02*
X123828571Y-71269819D01*
X123828571Y-71269819D02*
X124066666Y-71269819D01*
X124066666Y-71269819D02*
X124161904Y-71222200D01*
X124161904Y-71222200D02*
X124209523Y-71174580D01*
X124209523Y-71174580D02*
X124257142Y-71079342D01*
X124257142Y-71079342D02*
X124257142Y-70984104D01*
X124257142Y-70984104D02*
X124209523Y-70888866D01*
X124209523Y-70888866D02*
X124161904Y-70841247D01*
X124161904Y-70841247D02*
X124066666Y-70793628D01*
X124066666Y-70793628D02*
X123876190Y-70746009D01*
X123876190Y-70746009D02*
X123780952Y-70698390D01*
X123780952Y-70698390D02*
X123733333Y-70650771D01*
X123733333Y-70650771D02*
X123685714Y-70555533D01*
X123685714Y-70555533D02*
X123685714Y-70460295D01*
X123685714Y-70460295D02*
X123733333Y-70365057D01*
X123733333Y-70365057D02*
X123780952Y-70317438D01*
X123780952Y-70317438D02*
X123876190Y-70269819D01*
X123876190Y-70269819D02*
X124114285Y-70269819D01*
X124114285Y-70269819D02*
X124257142Y-70317438D01*
X124685714Y-70746009D02*
X125019047Y-70746009D01*
X125161904Y-71269819D02*
X124685714Y-71269819D01*
X124685714Y-71269819D02*
X124685714Y-70269819D01*
X124685714Y-70269819D02*
X125161904Y-70269819D01*
X126161904Y-71269819D02*
X125828571Y-70793628D01*
X125590476Y-71269819D02*
X125590476Y-70269819D01*
X125590476Y-70269819D02*
X125971428Y-70269819D01*
X125971428Y-70269819D02*
X126066666Y-70317438D01*
X126066666Y-70317438D02*
X126114285Y-70365057D01*
X126114285Y-70365057D02*
X126161904Y-70460295D01*
X126161904Y-70460295D02*
X126161904Y-70603152D01*
X126161904Y-70603152D02*
X126114285Y-70698390D01*
X126114285Y-70698390D02*
X126066666Y-70746009D01*
X126066666Y-70746009D02*
X125971428Y-70793628D01*
X125971428Y-70793628D02*
X125590476Y-70793628D01*
X103246009Y-74163220D02*
X103246009Y-73829887D01*
X103769819Y-73687030D02*
X103769819Y-74163220D01*
X103769819Y-74163220D02*
X102769819Y-74163220D01*
X102769819Y-74163220D02*
X102769819Y-73687030D01*
X103103152Y-73258458D02*
X103769819Y-73258458D01*
X103198390Y-73258458D02*
X103150771Y-73210839D01*
X103150771Y-73210839D02*
X103103152Y-73115601D01*
X103103152Y-73115601D02*
X103103152Y-72972744D01*
X103103152Y-72972744D02*
X103150771Y-72877506D01*
X103150771Y-72877506D02*
X103246009Y-72829887D01*
X103246009Y-72829887D02*
X103769819Y-72829887D01*
X103722200Y-71925125D02*
X103769819Y-72020363D01*
X103769819Y-72020363D02*
X103769819Y-72210839D01*
X103769819Y-72210839D02*
X103722200Y-72306077D01*
X103722200Y-72306077D02*
X103674580Y-72353696D01*
X103674580Y-72353696D02*
X103579342Y-72401315D01*
X103579342Y-72401315D02*
X103293628Y-72401315D01*
X103293628Y-72401315D02*
X103198390Y-72353696D01*
X103198390Y-72353696D02*
X103150771Y-72306077D01*
X103150771Y-72306077D02*
X103103152Y-72210839D01*
X103103152Y-72210839D02*
X103103152Y-72020363D01*
X103103152Y-72020363D02*
X103150771Y-71925125D01*
X103769819Y-71353696D02*
X103722200Y-71448934D01*
X103722200Y-71448934D02*
X103674580Y-71496553D01*
X103674580Y-71496553D02*
X103579342Y-71544172D01*
X103579342Y-71544172D02*
X103293628Y-71544172D01*
X103293628Y-71544172D02*
X103198390Y-71496553D01*
X103198390Y-71496553D02*
X103150771Y-71448934D01*
X103150771Y-71448934D02*
X103103152Y-71353696D01*
X103103152Y-71353696D02*
X103103152Y-71210839D01*
X103103152Y-71210839D02*
X103150771Y-71115601D01*
X103150771Y-71115601D02*
X103198390Y-71067982D01*
X103198390Y-71067982D02*
X103293628Y-71020363D01*
X103293628Y-71020363D02*
X103579342Y-71020363D01*
X103579342Y-71020363D02*
X103674580Y-71067982D01*
X103674580Y-71067982D02*
X103722200Y-71115601D01*
X103722200Y-71115601D02*
X103769819Y-71210839D01*
X103769819Y-71210839D02*
X103769819Y-71353696D01*
X103769819Y-70163220D02*
X102769819Y-70163220D01*
X103722200Y-70163220D02*
X103769819Y-70258458D01*
X103769819Y-70258458D02*
X103769819Y-70448934D01*
X103769819Y-70448934D02*
X103722200Y-70544172D01*
X103722200Y-70544172D02*
X103674580Y-70591791D01*
X103674580Y-70591791D02*
X103579342Y-70639410D01*
X103579342Y-70639410D02*
X103293628Y-70639410D01*
X103293628Y-70639410D02*
X103198390Y-70591791D01*
X103198390Y-70591791D02*
X103150771Y-70544172D01*
X103150771Y-70544172D02*
X103103152Y-70448934D01*
X103103152Y-70448934D02*
X103103152Y-70258458D01*
X103103152Y-70258458D02*
X103150771Y-70163220D01*
X103722200Y-69306077D02*
X103769819Y-69401315D01*
X103769819Y-69401315D02*
X103769819Y-69591791D01*
X103769819Y-69591791D02*
X103722200Y-69687029D01*
X103722200Y-69687029D02*
X103626961Y-69734648D01*
X103626961Y-69734648D02*
X103246009Y-69734648D01*
X103246009Y-69734648D02*
X103150771Y-69687029D01*
X103150771Y-69687029D02*
X103103152Y-69591791D01*
X103103152Y-69591791D02*
X103103152Y-69401315D01*
X103103152Y-69401315D02*
X103150771Y-69306077D01*
X103150771Y-69306077D02*
X103246009Y-69258458D01*
X103246009Y-69258458D02*
X103341247Y-69258458D01*
X103341247Y-69258458D02*
X103436485Y-69734648D01*
X103769819Y-68829886D02*
X103103152Y-68829886D01*
X103293628Y-68829886D02*
X103198390Y-68782267D01*
X103198390Y-68782267D02*
X103150771Y-68734648D01*
X103150771Y-68734648D02*
X103103152Y-68639410D01*
X103103152Y-68639410D02*
X103103152Y-68544172D01*
X147266666Y-78854819D02*
X147266666Y-79569104D01*
X147266666Y-79569104D02*
X147219047Y-79711961D01*
X147219047Y-79711961D02*
X147123809Y-79807200D01*
X147123809Y-79807200D02*
X146980952Y-79854819D01*
X146980952Y-79854819D02*
X146885714Y-79854819D01*
X148171428Y-79188152D02*
X148171428Y-79854819D01*
X147933333Y-78807200D02*
X147695238Y-79521485D01*
X147695238Y-79521485D02*
X148314285Y-79521485D01*
X115049580Y-82292857D02*
X115097200Y-82340476D01*
X115097200Y-82340476D02*
X115144819Y-82483333D01*
X115144819Y-82483333D02*
X115144819Y-82578571D01*
X115144819Y-82578571D02*
X115097200Y-82721428D01*
X115097200Y-82721428D02*
X115001961Y-82816666D01*
X115001961Y-82816666D02*
X114906723Y-82864285D01*
X114906723Y-82864285D02*
X114716247Y-82911904D01*
X114716247Y-82911904D02*
X114573390Y-82911904D01*
X114573390Y-82911904D02*
X114382914Y-82864285D01*
X114382914Y-82864285D02*
X114287676Y-82816666D01*
X114287676Y-82816666D02*
X114192438Y-82721428D01*
X114192438Y-82721428D02*
X114144819Y-82578571D01*
X114144819Y-82578571D02*
X114144819Y-82483333D01*
X114144819Y-82483333D02*
X114192438Y-82340476D01*
X114192438Y-82340476D02*
X114240057Y-82292857D01*
X114478152Y-81435714D02*
X115144819Y-81435714D01*
X114097200Y-81673809D02*
X114811485Y-81911904D01*
X114811485Y-81911904D02*
X114811485Y-81292857D01*
X114144819Y-80721428D02*
X114144819Y-80626190D01*
X114144819Y-80626190D02*
X114192438Y-80530952D01*
X114192438Y-80530952D02*
X114240057Y-80483333D01*
X114240057Y-80483333D02*
X114335295Y-80435714D01*
X114335295Y-80435714D02*
X114525771Y-80388095D01*
X114525771Y-80388095D02*
X114763866Y-80388095D01*
X114763866Y-80388095D02*
X114954342Y-80435714D01*
X114954342Y-80435714D02*
X115049580Y-80483333D01*
X115049580Y-80483333D02*
X115097200Y-80530952D01*
X115097200Y-80530952D02*
X115144819Y-80626190D01*
X115144819Y-80626190D02*
X115144819Y-80721428D01*
X115144819Y-80721428D02*
X115097200Y-80816666D01*
X115097200Y-80816666D02*
X115049580Y-80864285D01*
X115049580Y-80864285D02*
X114954342Y-80911904D01*
X114954342Y-80911904D02*
X114763866Y-80959523D01*
X114763866Y-80959523D02*
X114525771Y-80959523D01*
X114525771Y-80959523D02*
X114335295Y-80911904D01*
X114335295Y-80911904D02*
X114240057Y-80864285D01*
X114240057Y-80864285D02*
X114192438Y-80816666D01*
X114192438Y-80816666D02*
X114144819Y-80721428D01*
X133623809Y-86758628D02*
X133623809Y-87234819D01*
X133290476Y-86234819D02*
X133623809Y-86758628D01*
X133623809Y-86758628D02*
X133957142Y-86234819D01*
X134242857Y-86330057D02*
X134290476Y-86282438D01*
X134290476Y-86282438D02*
X134385714Y-86234819D01*
X134385714Y-86234819D02*
X134623809Y-86234819D01*
X134623809Y-86234819D02*
X134719047Y-86282438D01*
X134719047Y-86282438D02*
X134766666Y-86330057D01*
X134766666Y-86330057D02*
X134814285Y-86425295D01*
X134814285Y-86425295D02*
X134814285Y-86520533D01*
X134814285Y-86520533D02*
X134766666Y-86663390D01*
X134766666Y-86663390D02*
X134195238Y-87234819D01*
X134195238Y-87234819D02*
X134814285Y-87234819D01*
X131866667Y-76707200D02*
X132009524Y-76754819D01*
X132009524Y-76754819D02*
X132247619Y-76754819D01*
X132247619Y-76754819D02*
X132342857Y-76707200D01*
X132342857Y-76707200D02*
X132390476Y-76659580D01*
X132390476Y-76659580D02*
X132438095Y-76564342D01*
X132438095Y-76564342D02*
X132438095Y-76469104D01*
X132438095Y-76469104D02*
X132390476Y-76373866D01*
X132390476Y-76373866D02*
X132342857Y-76326247D01*
X132342857Y-76326247D02*
X132247619Y-76278628D01*
X132247619Y-76278628D02*
X132057143Y-76231009D01*
X132057143Y-76231009D02*
X131961905Y-76183390D01*
X131961905Y-76183390D02*
X131914286Y-76135771D01*
X131914286Y-76135771D02*
X131866667Y-76040533D01*
X131866667Y-76040533D02*
X131866667Y-75945295D01*
X131866667Y-75945295D02*
X131914286Y-75850057D01*
X131914286Y-75850057D02*
X131961905Y-75802438D01*
X131961905Y-75802438D02*
X132057143Y-75754819D01*
X132057143Y-75754819D02*
X132295238Y-75754819D01*
X132295238Y-75754819D02*
X132438095Y-75802438D01*
X132771429Y-75754819D02*
X133009524Y-76754819D01*
X133009524Y-76754819D02*
X133200000Y-76040533D01*
X133200000Y-76040533D02*
X133390476Y-76754819D01*
X133390476Y-76754819D02*
X133628572Y-75754819D01*
X134533333Y-76754819D02*
X133961905Y-76754819D01*
X134247619Y-76754819D02*
X134247619Y-75754819D01*
X134247619Y-75754819D02*
X134152381Y-75897676D01*
X134152381Y-75897676D02*
X134057143Y-75992914D01*
X134057143Y-75992914D02*
X133961905Y-76040533D01*
X122359580Y-101566666D02*
X122407200Y-101614285D01*
X122407200Y-101614285D02*
X122454819Y-101757142D01*
X122454819Y-101757142D02*
X122454819Y-101852380D01*
X122454819Y-101852380D02*
X122407200Y-101995237D01*
X122407200Y-101995237D02*
X122311961Y-102090475D01*
X122311961Y-102090475D02*
X122216723Y-102138094D01*
X122216723Y-102138094D02*
X122026247Y-102185713D01*
X122026247Y-102185713D02*
X121883390Y-102185713D01*
X121883390Y-102185713D02*
X121692914Y-102138094D01*
X121692914Y-102138094D02*
X121597676Y-102090475D01*
X121597676Y-102090475D02*
X121502438Y-101995237D01*
X121502438Y-101995237D02*
X121454819Y-101852380D01*
X121454819Y-101852380D02*
X121454819Y-101757142D01*
X121454819Y-101757142D02*
X121502438Y-101614285D01*
X121502438Y-101614285D02*
X121550057Y-101566666D01*
X122454819Y-101090475D02*
X122454819Y-100899999D01*
X122454819Y-100899999D02*
X122407200Y-100804761D01*
X122407200Y-100804761D02*
X122359580Y-100757142D01*
X122359580Y-100757142D02*
X122216723Y-100661904D01*
X122216723Y-100661904D02*
X122026247Y-100614285D01*
X122026247Y-100614285D02*
X121645295Y-100614285D01*
X121645295Y-100614285D02*
X121550057Y-100661904D01*
X121550057Y-100661904D02*
X121502438Y-100709523D01*
X121502438Y-100709523D02*
X121454819Y-100804761D01*
X121454819Y-100804761D02*
X121454819Y-100995237D01*
X121454819Y-100995237D02*
X121502438Y-101090475D01*
X121502438Y-101090475D02*
X121550057Y-101138094D01*
X121550057Y-101138094D02*
X121645295Y-101185713D01*
X121645295Y-101185713D02*
X121883390Y-101185713D01*
X121883390Y-101185713D02*
X121978628Y-101138094D01*
X121978628Y-101138094D02*
X122026247Y-101090475D01*
X122026247Y-101090475D02*
X122073866Y-100995237D01*
X122073866Y-100995237D02*
X122073866Y-100804761D01*
X122073866Y-100804761D02*
X122026247Y-100709523D01*
X122026247Y-100709523D02*
X121978628Y-100661904D01*
X121978628Y-100661904D02*
X121883390Y-100614285D01*
X137359580Y-91166666D02*
X137407200Y-91214285D01*
X137407200Y-91214285D02*
X137454819Y-91357142D01*
X137454819Y-91357142D02*
X137454819Y-91452380D01*
X137454819Y-91452380D02*
X137407200Y-91595237D01*
X137407200Y-91595237D02*
X137311961Y-91690475D01*
X137311961Y-91690475D02*
X137216723Y-91738094D01*
X137216723Y-91738094D02*
X137026247Y-91785713D01*
X137026247Y-91785713D02*
X136883390Y-91785713D01*
X136883390Y-91785713D02*
X136692914Y-91738094D01*
X136692914Y-91738094D02*
X136597676Y-91690475D01*
X136597676Y-91690475D02*
X136502438Y-91595237D01*
X136502438Y-91595237D02*
X136454819Y-91452380D01*
X136454819Y-91452380D02*
X136454819Y-91357142D01*
X136454819Y-91357142D02*
X136502438Y-91214285D01*
X136502438Y-91214285D02*
X136550057Y-91166666D01*
X136454819Y-90833332D02*
X136454819Y-90166666D01*
X136454819Y-90166666D02*
X137454819Y-90595237D01*
X140367142Y-74314819D02*
X140033809Y-73838628D01*
X139795714Y-74314819D02*
X139795714Y-73314819D01*
X139795714Y-73314819D02*
X140176666Y-73314819D01*
X140176666Y-73314819D02*
X140271904Y-73362438D01*
X140271904Y-73362438D02*
X140319523Y-73410057D01*
X140319523Y-73410057D02*
X140367142Y-73505295D01*
X140367142Y-73505295D02*
X140367142Y-73648152D01*
X140367142Y-73648152D02*
X140319523Y-73743390D01*
X140319523Y-73743390D02*
X140271904Y-73791009D01*
X140271904Y-73791009D02*
X140176666Y-73838628D01*
X140176666Y-73838628D02*
X139795714Y-73838628D01*
X140700476Y-73314819D02*
X141319523Y-73314819D01*
X141319523Y-73314819D02*
X140986190Y-73695771D01*
X140986190Y-73695771D02*
X141129047Y-73695771D01*
X141129047Y-73695771D02*
X141224285Y-73743390D01*
X141224285Y-73743390D02*
X141271904Y-73791009D01*
X141271904Y-73791009D02*
X141319523Y-73886247D01*
X141319523Y-73886247D02*
X141319523Y-74124342D01*
X141319523Y-74124342D02*
X141271904Y-74219580D01*
X141271904Y-74219580D02*
X141224285Y-74267200D01*
X141224285Y-74267200D02*
X141129047Y-74314819D01*
X141129047Y-74314819D02*
X140843333Y-74314819D01*
X140843333Y-74314819D02*
X140748095Y-74267200D01*
X140748095Y-74267200D02*
X140700476Y-74219580D01*
X141938571Y-73314819D02*
X142033809Y-73314819D01*
X142033809Y-73314819D02*
X142129047Y-73362438D01*
X142129047Y-73362438D02*
X142176666Y-73410057D01*
X142176666Y-73410057D02*
X142224285Y-73505295D01*
X142224285Y-73505295D02*
X142271904Y-73695771D01*
X142271904Y-73695771D02*
X142271904Y-73933866D01*
X142271904Y-73933866D02*
X142224285Y-74124342D01*
X142224285Y-74124342D02*
X142176666Y-74219580D01*
X142176666Y-74219580D02*
X142129047Y-74267200D01*
X142129047Y-74267200D02*
X142033809Y-74314819D01*
X142033809Y-74314819D02*
X141938571Y-74314819D01*
X141938571Y-74314819D02*
X141843333Y-74267200D01*
X141843333Y-74267200D02*
X141795714Y-74219580D01*
X141795714Y-74219580D02*
X141748095Y-74124342D01*
X141748095Y-74124342D02*
X141700476Y-73933866D01*
X141700476Y-73933866D02*
X141700476Y-73695771D01*
X141700476Y-73695771D02*
X141748095Y-73505295D01*
X141748095Y-73505295D02*
X141795714Y-73410057D01*
X141795714Y-73410057D02*
X141843333Y-73362438D01*
X141843333Y-73362438D02*
X141938571Y-73314819D01*
X126693333Y-88399580D02*
X126645714Y-88447200D01*
X126645714Y-88447200D02*
X126502857Y-88494819D01*
X126502857Y-88494819D02*
X126407619Y-88494819D01*
X126407619Y-88494819D02*
X126264762Y-88447200D01*
X126264762Y-88447200D02*
X126169524Y-88351961D01*
X126169524Y-88351961D02*
X126121905Y-88256723D01*
X126121905Y-88256723D02*
X126074286Y-88066247D01*
X126074286Y-88066247D02*
X126074286Y-87923390D01*
X126074286Y-87923390D02*
X126121905Y-87732914D01*
X126121905Y-87732914D02*
X126169524Y-87637676D01*
X126169524Y-87637676D02*
X126264762Y-87542438D01*
X126264762Y-87542438D02*
X126407619Y-87494819D01*
X126407619Y-87494819D02*
X126502857Y-87494819D01*
X126502857Y-87494819D02*
X126645714Y-87542438D01*
X126645714Y-87542438D02*
X126693333Y-87590057D01*
X127264762Y-87923390D02*
X127169524Y-87875771D01*
X127169524Y-87875771D02*
X127121905Y-87828152D01*
X127121905Y-87828152D02*
X127074286Y-87732914D01*
X127074286Y-87732914D02*
X127074286Y-87685295D01*
X127074286Y-87685295D02*
X127121905Y-87590057D01*
X127121905Y-87590057D02*
X127169524Y-87542438D01*
X127169524Y-87542438D02*
X127264762Y-87494819D01*
X127264762Y-87494819D02*
X127455238Y-87494819D01*
X127455238Y-87494819D02*
X127550476Y-87542438D01*
X127550476Y-87542438D02*
X127598095Y-87590057D01*
X127598095Y-87590057D02*
X127645714Y-87685295D01*
X127645714Y-87685295D02*
X127645714Y-87732914D01*
X127645714Y-87732914D02*
X127598095Y-87828152D01*
X127598095Y-87828152D02*
X127550476Y-87875771D01*
X127550476Y-87875771D02*
X127455238Y-87923390D01*
X127455238Y-87923390D02*
X127264762Y-87923390D01*
X127264762Y-87923390D02*
X127169524Y-87971009D01*
X127169524Y-87971009D02*
X127121905Y-88018628D01*
X127121905Y-88018628D02*
X127074286Y-88113866D01*
X127074286Y-88113866D02*
X127074286Y-88304342D01*
X127074286Y-88304342D02*
X127121905Y-88399580D01*
X127121905Y-88399580D02*
X127169524Y-88447200D01*
X127169524Y-88447200D02*
X127264762Y-88494819D01*
X127264762Y-88494819D02*
X127455238Y-88494819D01*
X127455238Y-88494819D02*
X127550476Y-88447200D01*
X127550476Y-88447200D02*
X127598095Y-88399580D01*
X127598095Y-88399580D02*
X127645714Y-88304342D01*
X127645714Y-88304342D02*
X127645714Y-88113866D01*
X127645714Y-88113866D02*
X127598095Y-88018628D01*
X127598095Y-88018628D02*
X127550476Y-87971009D01*
X127550476Y-87971009D02*
X127455238Y-87923390D01*
X127257142Y-84459580D02*
X127209523Y-84507200D01*
X127209523Y-84507200D02*
X127066666Y-84554819D01*
X127066666Y-84554819D02*
X126971428Y-84554819D01*
X126971428Y-84554819D02*
X126828571Y-84507200D01*
X126828571Y-84507200D02*
X126733333Y-84411961D01*
X126733333Y-84411961D02*
X126685714Y-84316723D01*
X126685714Y-84316723D02*
X126638095Y-84126247D01*
X126638095Y-84126247D02*
X126638095Y-83983390D01*
X126638095Y-83983390D02*
X126685714Y-83792914D01*
X126685714Y-83792914D02*
X126733333Y-83697676D01*
X126733333Y-83697676D02*
X126828571Y-83602438D01*
X126828571Y-83602438D02*
X126971428Y-83554819D01*
X126971428Y-83554819D02*
X127066666Y-83554819D01*
X127066666Y-83554819D02*
X127209523Y-83602438D01*
X127209523Y-83602438D02*
X127257142Y-83650057D01*
X128209523Y-84554819D02*
X127638095Y-84554819D01*
X127923809Y-84554819D02*
X127923809Y-83554819D01*
X127923809Y-83554819D02*
X127828571Y-83697676D01*
X127828571Y-83697676D02*
X127733333Y-83792914D01*
X127733333Y-83792914D02*
X127638095Y-83840533D01*
X128685714Y-84554819D02*
X128876190Y-84554819D01*
X128876190Y-84554819D02*
X128971428Y-84507200D01*
X128971428Y-84507200D02*
X129019047Y-84459580D01*
X129019047Y-84459580D02*
X129114285Y-84316723D01*
X129114285Y-84316723D02*
X129161904Y-84126247D01*
X129161904Y-84126247D02*
X129161904Y-83745295D01*
X129161904Y-83745295D02*
X129114285Y-83650057D01*
X129114285Y-83650057D02*
X129066666Y-83602438D01*
X129066666Y-83602438D02*
X128971428Y-83554819D01*
X128971428Y-83554819D02*
X128780952Y-83554819D01*
X128780952Y-83554819D02*
X128685714Y-83602438D01*
X128685714Y-83602438D02*
X128638095Y-83650057D01*
X128638095Y-83650057D02*
X128590476Y-83745295D01*
X128590476Y-83745295D02*
X128590476Y-83983390D01*
X128590476Y-83983390D02*
X128638095Y-84078628D01*
X128638095Y-84078628D02*
X128685714Y-84126247D01*
X128685714Y-84126247D02*
X128780952Y-84173866D01*
X128780952Y-84173866D02*
X128971428Y-84173866D01*
X128971428Y-84173866D02*
X129066666Y-84126247D01*
X129066666Y-84126247D02*
X129114285Y-84078628D01*
X129114285Y-84078628D02*
X129161904Y-83983390D01*
X108756666Y-106904819D02*
X108756666Y-107619104D01*
X108756666Y-107619104D02*
X108709047Y-107761961D01*
X108709047Y-107761961D02*
X108613809Y-107857200D01*
X108613809Y-107857200D02*
X108470952Y-107904819D01*
X108470952Y-107904819D02*
X108375714Y-107904819D01*
X109137619Y-106904819D02*
X109804285Y-106904819D01*
X109804285Y-106904819D02*
X109375714Y-107904819D01*
X133857142Y-84559580D02*
X133809523Y-84607200D01*
X133809523Y-84607200D02*
X133666666Y-84654819D01*
X133666666Y-84654819D02*
X133571428Y-84654819D01*
X133571428Y-84654819D02*
X133428571Y-84607200D01*
X133428571Y-84607200D02*
X133333333Y-84511961D01*
X133333333Y-84511961D02*
X133285714Y-84416723D01*
X133285714Y-84416723D02*
X133238095Y-84226247D01*
X133238095Y-84226247D02*
X133238095Y-84083390D01*
X133238095Y-84083390D02*
X133285714Y-83892914D01*
X133285714Y-83892914D02*
X133333333Y-83797676D01*
X133333333Y-83797676D02*
X133428571Y-83702438D01*
X133428571Y-83702438D02*
X133571428Y-83654819D01*
X133571428Y-83654819D02*
X133666666Y-83654819D01*
X133666666Y-83654819D02*
X133809523Y-83702438D01*
X133809523Y-83702438D02*
X133857142Y-83750057D01*
X134809523Y-84654819D02*
X134238095Y-84654819D01*
X134523809Y-84654819D02*
X134523809Y-83654819D01*
X134523809Y-83654819D02*
X134428571Y-83797676D01*
X134428571Y-83797676D02*
X134333333Y-83892914D01*
X134333333Y-83892914D02*
X134238095Y-83940533D01*
X135428571Y-83654819D02*
X135523809Y-83654819D01*
X135523809Y-83654819D02*
X135619047Y-83702438D01*
X135619047Y-83702438D02*
X135666666Y-83750057D01*
X135666666Y-83750057D02*
X135714285Y-83845295D01*
X135714285Y-83845295D02*
X135761904Y-84035771D01*
X135761904Y-84035771D02*
X135761904Y-84273866D01*
X135761904Y-84273866D02*
X135714285Y-84464342D01*
X135714285Y-84464342D02*
X135666666Y-84559580D01*
X135666666Y-84559580D02*
X135619047Y-84607200D01*
X135619047Y-84607200D02*
X135523809Y-84654819D01*
X135523809Y-84654819D02*
X135428571Y-84654819D01*
X135428571Y-84654819D02*
X135333333Y-84607200D01*
X135333333Y-84607200D02*
X135285714Y-84559580D01*
X135285714Y-84559580D02*
X135238095Y-84464342D01*
X135238095Y-84464342D02*
X135190476Y-84273866D01*
X135190476Y-84273866D02*
X135190476Y-84035771D01*
X135190476Y-84035771D02*
X135238095Y-83845295D01*
X135238095Y-83845295D02*
X135285714Y-83750057D01*
X135285714Y-83750057D02*
X135333333Y-83702438D01*
X135333333Y-83702438D02*
X135428571Y-83654819D01*
X126647142Y-86719580D02*
X126599523Y-86767200D01*
X126599523Y-86767200D02*
X126456666Y-86814819D01*
X126456666Y-86814819D02*
X126361428Y-86814819D01*
X126361428Y-86814819D02*
X126218571Y-86767200D01*
X126218571Y-86767200D02*
X126123333Y-86671961D01*
X126123333Y-86671961D02*
X126075714Y-86576723D01*
X126075714Y-86576723D02*
X126028095Y-86386247D01*
X126028095Y-86386247D02*
X126028095Y-86243390D01*
X126028095Y-86243390D02*
X126075714Y-86052914D01*
X126075714Y-86052914D02*
X126123333Y-85957676D01*
X126123333Y-85957676D02*
X126218571Y-85862438D01*
X126218571Y-85862438D02*
X126361428Y-85814819D01*
X126361428Y-85814819D02*
X126456666Y-85814819D01*
X126456666Y-85814819D02*
X126599523Y-85862438D01*
X126599523Y-85862438D02*
X126647142Y-85910057D01*
X127028095Y-85910057D02*
X127075714Y-85862438D01*
X127075714Y-85862438D02*
X127170952Y-85814819D01*
X127170952Y-85814819D02*
X127409047Y-85814819D01*
X127409047Y-85814819D02*
X127504285Y-85862438D01*
X127504285Y-85862438D02*
X127551904Y-85910057D01*
X127551904Y-85910057D02*
X127599523Y-86005295D01*
X127599523Y-86005295D02*
X127599523Y-86100533D01*
X127599523Y-86100533D02*
X127551904Y-86243390D01*
X127551904Y-86243390D02*
X126980476Y-86814819D01*
X126980476Y-86814819D02*
X127599523Y-86814819D01*
X128075714Y-86814819D02*
X128266190Y-86814819D01*
X128266190Y-86814819D02*
X128361428Y-86767200D01*
X128361428Y-86767200D02*
X128409047Y-86719580D01*
X128409047Y-86719580D02*
X128504285Y-86576723D01*
X128504285Y-86576723D02*
X128551904Y-86386247D01*
X128551904Y-86386247D02*
X128551904Y-86005295D01*
X128551904Y-86005295D02*
X128504285Y-85910057D01*
X128504285Y-85910057D02*
X128456666Y-85862438D01*
X128456666Y-85862438D02*
X128361428Y-85814819D01*
X128361428Y-85814819D02*
X128170952Y-85814819D01*
X128170952Y-85814819D02*
X128075714Y-85862438D01*
X128075714Y-85862438D02*
X128028095Y-85910057D01*
X128028095Y-85910057D02*
X127980476Y-86005295D01*
X127980476Y-86005295D02*
X127980476Y-86243390D01*
X127980476Y-86243390D02*
X128028095Y-86338628D01*
X128028095Y-86338628D02*
X128075714Y-86386247D01*
X128075714Y-86386247D02*
X128170952Y-86433866D01*
X128170952Y-86433866D02*
X128361428Y-86433866D01*
X128361428Y-86433866D02*
X128456666Y-86386247D01*
X128456666Y-86386247D02*
X128504285Y-86338628D01*
X128504285Y-86338628D02*
X128551904Y-86243390D01*
X151169642Y-74304819D02*
X150836309Y-73828628D01*
X150598214Y-74304819D02*
X150598214Y-73304819D01*
X150598214Y-73304819D02*
X150979166Y-73304819D01*
X150979166Y-73304819D02*
X151074404Y-73352438D01*
X151074404Y-73352438D02*
X151122023Y-73400057D01*
X151122023Y-73400057D02*
X151169642Y-73495295D01*
X151169642Y-73495295D02*
X151169642Y-73638152D01*
X151169642Y-73638152D02*
X151122023Y-73733390D01*
X151122023Y-73733390D02*
X151074404Y-73781009D01*
X151074404Y-73781009D02*
X150979166Y-73828628D01*
X150979166Y-73828628D02*
X150598214Y-73828628D01*
X151502976Y-73304819D02*
X152122023Y-73304819D01*
X152122023Y-73304819D02*
X151788690Y-73685771D01*
X151788690Y-73685771D02*
X151931547Y-73685771D01*
X151931547Y-73685771D02*
X152026785Y-73733390D01*
X152026785Y-73733390D02*
X152074404Y-73781009D01*
X152074404Y-73781009D02*
X152122023Y-73876247D01*
X152122023Y-73876247D02*
X152122023Y-74114342D01*
X152122023Y-74114342D02*
X152074404Y-74209580D01*
X152074404Y-74209580D02*
X152026785Y-74257200D01*
X152026785Y-74257200D02*
X151931547Y-74304819D01*
X151931547Y-74304819D02*
X151645833Y-74304819D01*
X151645833Y-74304819D02*
X151550595Y-74257200D01*
X151550595Y-74257200D02*
X151502976Y-74209580D01*
X153026785Y-73304819D02*
X152550595Y-73304819D01*
X152550595Y-73304819D02*
X152502976Y-73781009D01*
X152502976Y-73781009D02*
X152550595Y-73733390D01*
X152550595Y-73733390D02*
X152645833Y-73685771D01*
X152645833Y-73685771D02*
X152883928Y-73685771D01*
X152883928Y-73685771D02*
X152979166Y-73733390D01*
X152979166Y-73733390D02*
X153026785Y-73781009D01*
X153026785Y-73781009D02*
X153074404Y-73876247D01*
X153074404Y-73876247D02*
X153074404Y-74114342D01*
X153074404Y-74114342D02*
X153026785Y-74209580D01*
X153026785Y-74209580D02*
X152979166Y-74257200D01*
X152979166Y-74257200D02*
X152883928Y-74304819D01*
X152883928Y-74304819D02*
X152645833Y-74304819D01*
X152645833Y-74304819D02*
X152550595Y-74257200D01*
X152550595Y-74257200D02*
X152502976Y-74209580D01*
X132933333Y-102159580D02*
X132885714Y-102207200D01*
X132885714Y-102207200D02*
X132742857Y-102254819D01*
X132742857Y-102254819D02*
X132647619Y-102254819D01*
X132647619Y-102254819D02*
X132504762Y-102207200D01*
X132504762Y-102207200D02*
X132409524Y-102111961D01*
X132409524Y-102111961D02*
X132361905Y-102016723D01*
X132361905Y-102016723D02*
X132314286Y-101826247D01*
X132314286Y-101826247D02*
X132314286Y-101683390D01*
X132314286Y-101683390D02*
X132361905Y-101492914D01*
X132361905Y-101492914D02*
X132409524Y-101397676D01*
X132409524Y-101397676D02*
X132504762Y-101302438D01*
X132504762Y-101302438D02*
X132647619Y-101254819D01*
X132647619Y-101254819D02*
X132742857Y-101254819D01*
X132742857Y-101254819D02*
X132885714Y-101302438D01*
X132885714Y-101302438D02*
X132933333Y-101350057D01*
X133790476Y-101254819D02*
X133600000Y-101254819D01*
X133600000Y-101254819D02*
X133504762Y-101302438D01*
X133504762Y-101302438D02*
X133457143Y-101350057D01*
X133457143Y-101350057D02*
X133361905Y-101492914D01*
X133361905Y-101492914D02*
X133314286Y-101683390D01*
X133314286Y-101683390D02*
X133314286Y-102064342D01*
X133314286Y-102064342D02*
X133361905Y-102159580D01*
X133361905Y-102159580D02*
X133409524Y-102207200D01*
X133409524Y-102207200D02*
X133504762Y-102254819D01*
X133504762Y-102254819D02*
X133695238Y-102254819D01*
X133695238Y-102254819D02*
X133790476Y-102207200D01*
X133790476Y-102207200D02*
X133838095Y-102159580D01*
X133838095Y-102159580D02*
X133885714Y-102064342D01*
X133885714Y-102064342D02*
X133885714Y-101826247D01*
X133885714Y-101826247D02*
X133838095Y-101731009D01*
X133838095Y-101731009D02*
X133790476Y-101683390D01*
X133790476Y-101683390D02*
X133695238Y-101635771D01*
X133695238Y-101635771D02*
X133504762Y-101635771D01*
X133504762Y-101635771D02*
X133409524Y-101683390D01*
X133409524Y-101683390D02*
X133361905Y-101731009D01*
X133361905Y-101731009D02*
X133314286Y-101826247D01*
X138069580Y-76982857D02*
X138117200Y-77030476D01*
X138117200Y-77030476D02*
X138164819Y-77173333D01*
X138164819Y-77173333D02*
X138164819Y-77268571D01*
X138164819Y-77268571D02*
X138117200Y-77411428D01*
X138117200Y-77411428D02*
X138021961Y-77506666D01*
X138021961Y-77506666D02*
X137926723Y-77554285D01*
X137926723Y-77554285D02*
X137736247Y-77601904D01*
X137736247Y-77601904D02*
X137593390Y-77601904D01*
X137593390Y-77601904D02*
X137402914Y-77554285D01*
X137402914Y-77554285D02*
X137307676Y-77506666D01*
X137307676Y-77506666D02*
X137212438Y-77411428D01*
X137212438Y-77411428D02*
X137164819Y-77268571D01*
X137164819Y-77268571D02*
X137164819Y-77173333D01*
X137164819Y-77173333D02*
X137212438Y-77030476D01*
X137212438Y-77030476D02*
X137260057Y-76982857D01*
X137164819Y-76649523D02*
X137164819Y-76030476D01*
X137164819Y-76030476D02*
X137545771Y-76363809D01*
X137545771Y-76363809D02*
X137545771Y-76220952D01*
X137545771Y-76220952D02*
X137593390Y-76125714D01*
X137593390Y-76125714D02*
X137641009Y-76078095D01*
X137641009Y-76078095D02*
X137736247Y-76030476D01*
X137736247Y-76030476D02*
X137974342Y-76030476D01*
X137974342Y-76030476D02*
X138069580Y-76078095D01*
X138069580Y-76078095D02*
X138117200Y-76125714D01*
X138117200Y-76125714D02*
X138164819Y-76220952D01*
X138164819Y-76220952D02*
X138164819Y-76506666D01*
X138164819Y-76506666D02*
X138117200Y-76601904D01*
X138117200Y-76601904D02*
X138069580Y-76649523D01*
X137164819Y-75411428D02*
X137164819Y-75316190D01*
X137164819Y-75316190D02*
X137212438Y-75220952D01*
X137212438Y-75220952D02*
X137260057Y-75173333D01*
X137260057Y-75173333D02*
X137355295Y-75125714D01*
X137355295Y-75125714D02*
X137545771Y-75078095D01*
X137545771Y-75078095D02*
X137783866Y-75078095D01*
X137783866Y-75078095D02*
X137974342Y-75125714D01*
X137974342Y-75125714D02*
X138069580Y-75173333D01*
X138069580Y-75173333D02*
X138117200Y-75220952D01*
X138117200Y-75220952D02*
X138164819Y-75316190D01*
X138164819Y-75316190D02*
X138164819Y-75411428D01*
X138164819Y-75411428D02*
X138117200Y-75506666D01*
X138117200Y-75506666D02*
X138069580Y-75554285D01*
X138069580Y-75554285D02*
X137974342Y-75601904D01*
X137974342Y-75601904D02*
X137783866Y-75649523D01*
X137783866Y-75649523D02*
X137545771Y-75649523D01*
X137545771Y-75649523D02*
X137355295Y-75601904D01*
X137355295Y-75601904D02*
X137260057Y-75554285D01*
X137260057Y-75554285D02*
X137212438Y-75506666D01*
X137212438Y-75506666D02*
X137164819Y-75411428D01*
X148394819Y-114003333D02*
X149109104Y-114003333D01*
X149109104Y-114003333D02*
X149251961Y-114050952D01*
X149251961Y-114050952D02*
X149347200Y-114146190D01*
X149347200Y-114146190D02*
X149394819Y-114289047D01*
X149394819Y-114289047D02*
X149394819Y-114384285D01*
X148394819Y-113050952D02*
X148394819Y-113527142D01*
X148394819Y-113527142D02*
X148871009Y-113574761D01*
X148871009Y-113574761D02*
X148823390Y-113527142D01*
X148823390Y-113527142D02*
X148775771Y-113431904D01*
X148775771Y-113431904D02*
X148775771Y-113193809D01*
X148775771Y-113193809D02*
X148823390Y-113098571D01*
X148823390Y-113098571D02*
X148871009Y-113050952D01*
X148871009Y-113050952D02*
X148966247Y-113003333D01*
X148966247Y-113003333D02*
X149204342Y-113003333D01*
X149204342Y-113003333D02*
X149299580Y-113050952D01*
X149299580Y-113050952D02*
X149347200Y-113098571D01*
X149347200Y-113098571D02*
X149394819Y-113193809D01*
X149394819Y-113193809D02*
X149394819Y-113431904D01*
X149394819Y-113431904D02*
X149347200Y-113527142D01*
X149347200Y-113527142D02*
X149299580Y-113574761D01*
D11*
X128312318Y-96977762D02*
X127042318Y-96977762D01*
X128191365Y-95647285D02*
X128251842Y-95707761D01*
X128251842Y-95707761D02*
X128312318Y-95889190D01*
X128312318Y-95889190D02*
X128312318Y-96010142D01*
X128312318Y-96010142D02*
X128251842Y-96191571D01*
X128251842Y-96191571D02*
X128130889Y-96312523D01*
X128130889Y-96312523D02*
X128009937Y-96373000D01*
X128009937Y-96373000D02*
X127768032Y-96433476D01*
X127768032Y-96433476D02*
X127586603Y-96433476D01*
X127586603Y-96433476D02*
X127344699Y-96373000D01*
X127344699Y-96373000D02*
X127223746Y-96312523D01*
X127223746Y-96312523D02*
X127102794Y-96191571D01*
X127102794Y-96191571D02*
X127042318Y-96010142D01*
X127042318Y-96010142D02*
X127042318Y-95889190D01*
X127042318Y-95889190D02*
X127102794Y-95707761D01*
X127102794Y-95707761D02*
X127163270Y-95647285D01*
X128312318Y-94437761D02*
X128312318Y-95163476D01*
X128312318Y-94800619D02*
X127042318Y-94800619D01*
X127042318Y-94800619D02*
X127223746Y-94921571D01*
X127223746Y-94921571D02*
X127344699Y-95042523D01*
X127344699Y-95042523D02*
X127405175Y-95163476D01*
D10*
X147667142Y-74314819D02*
X147333809Y-73838628D01*
X147095714Y-74314819D02*
X147095714Y-73314819D01*
X147095714Y-73314819D02*
X147476666Y-73314819D01*
X147476666Y-73314819D02*
X147571904Y-73362438D01*
X147571904Y-73362438D02*
X147619523Y-73410057D01*
X147619523Y-73410057D02*
X147667142Y-73505295D01*
X147667142Y-73505295D02*
X147667142Y-73648152D01*
X147667142Y-73648152D02*
X147619523Y-73743390D01*
X147619523Y-73743390D02*
X147571904Y-73791009D01*
X147571904Y-73791009D02*
X147476666Y-73838628D01*
X147476666Y-73838628D02*
X147095714Y-73838628D01*
X148000476Y-73314819D02*
X148619523Y-73314819D01*
X148619523Y-73314819D02*
X148286190Y-73695771D01*
X148286190Y-73695771D02*
X148429047Y-73695771D01*
X148429047Y-73695771D02*
X148524285Y-73743390D01*
X148524285Y-73743390D02*
X148571904Y-73791009D01*
X148571904Y-73791009D02*
X148619523Y-73886247D01*
X148619523Y-73886247D02*
X148619523Y-74124342D01*
X148619523Y-74124342D02*
X148571904Y-74219580D01*
X148571904Y-74219580D02*
X148524285Y-74267200D01*
X148524285Y-74267200D02*
X148429047Y-74314819D01*
X148429047Y-74314819D02*
X148143333Y-74314819D01*
X148143333Y-74314819D02*
X148048095Y-74267200D01*
X148048095Y-74267200D02*
X148000476Y-74219580D01*
X149476666Y-73648152D02*
X149476666Y-74314819D01*
X149238571Y-73267200D02*
X149000476Y-73981485D01*
X149000476Y-73981485D02*
X149619523Y-73981485D01*
X115144819Y-79077857D02*
X114668628Y-79411190D01*
X115144819Y-79649285D02*
X114144819Y-79649285D01*
X114144819Y-79649285D02*
X114144819Y-79268333D01*
X114144819Y-79268333D02*
X114192438Y-79173095D01*
X114192438Y-79173095D02*
X114240057Y-79125476D01*
X114240057Y-79125476D02*
X114335295Y-79077857D01*
X114335295Y-79077857D02*
X114478152Y-79077857D01*
X114478152Y-79077857D02*
X114573390Y-79125476D01*
X114573390Y-79125476D02*
X114621009Y-79173095D01*
X114621009Y-79173095D02*
X114668628Y-79268333D01*
X114668628Y-79268333D02*
X114668628Y-79649285D01*
X114144819Y-78744523D02*
X114144819Y-78125476D01*
X114144819Y-78125476D02*
X114525771Y-78458809D01*
X114525771Y-78458809D02*
X114525771Y-78315952D01*
X114525771Y-78315952D02*
X114573390Y-78220714D01*
X114573390Y-78220714D02*
X114621009Y-78173095D01*
X114621009Y-78173095D02*
X114716247Y-78125476D01*
X114716247Y-78125476D02*
X114954342Y-78125476D01*
X114954342Y-78125476D02*
X115049580Y-78173095D01*
X115049580Y-78173095D02*
X115097200Y-78220714D01*
X115097200Y-78220714D02*
X115144819Y-78315952D01*
X115144819Y-78315952D02*
X115144819Y-78601666D01*
X115144819Y-78601666D02*
X115097200Y-78696904D01*
X115097200Y-78696904D02*
X115049580Y-78744523D01*
X114240057Y-77744523D02*
X114192438Y-77696904D01*
X114192438Y-77696904D02*
X114144819Y-77601666D01*
X114144819Y-77601666D02*
X114144819Y-77363571D01*
X114144819Y-77363571D02*
X114192438Y-77268333D01*
X114192438Y-77268333D02*
X114240057Y-77220714D01*
X114240057Y-77220714D02*
X114335295Y-77173095D01*
X114335295Y-77173095D02*
X114430533Y-77173095D01*
X114430533Y-77173095D02*
X114573390Y-77220714D01*
X114573390Y-77220714D02*
X115144819Y-77792142D01*
X115144819Y-77792142D02*
X115144819Y-77173095D01*
X124557142Y-82254819D02*
X124223809Y-81778628D01*
X123985714Y-82254819D02*
X123985714Y-81254819D01*
X123985714Y-81254819D02*
X124366666Y-81254819D01*
X124366666Y-81254819D02*
X124461904Y-81302438D01*
X124461904Y-81302438D02*
X124509523Y-81350057D01*
X124509523Y-81350057D02*
X124557142Y-81445295D01*
X124557142Y-81445295D02*
X124557142Y-81588152D01*
X124557142Y-81588152D02*
X124509523Y-81683390D01*
X124509523Y-81683390D02*
X124461904Y-81731009D01*
X124461904Y-81731009D02*
X124366666Y-81778628D01*
X124366666Y-81778628D02*
X123985714Y-81778628D01*
X124938095Y-81350057D02*
X124985714Y-81302438D01*
X124985714Y-81302438D02*
X125080952Y-81254819D01*
X125080952Y-81254819D02*
X125319047Y-81254819D01*
X125319047Y-81254819D02*
X125414285Y-81302438D01*
X125414285Y-81302438D02*
X125461904Y-81350057D01*
X125461904Y-81350057D02*
X125509523Y-81445295D01*
X125509523Y-81445295D02*
X125509523Y-81540533D01*
X125509523Y-81540533D02*
X125461904Y-81683390D01*
X125461904Y-81683390D02*
X124890476Y-82254819D01*
X124890476Y-82254819D02*
X125509523Y-82254819D01*
X126080952Y-81683390D02*
X125985714Y-81635771D01*
X125985714Y-81635771D02*
X125938095Y-81588152D01*
X125938095Y-81588152D02*
X125890476Y-81492914D01*
X125890476Y-81492914D02*
X125890476Y-81445295D01*
X125890476Y-81445295D02*
X125938095Y-81350057D01*
X125938095Y-81350057D02*
X125985714Y-81302438D01*
X125985714Y-81302438D02*
X126080952Y-81254819D01*
X126080952Y-81254819D02*
X126271428Y-81254819D01*
X126271428Y-81254819D02*
X126366666Y-81302438D01*
X126366666Y-81302438D02*
X126414285Y-81350057D01*
X126414285Y-81350057D02*
X126461904Y-81445295D01*
X126461904Y-81445295D02*
X126461904Y-81492914D01*
X126461904Y-81492914D02*
X126414285Y-81588152D01*
X126414285Y-81588152D02*
X126366666Y-81635771D01*
X126366666Y-81635771D02*
X126271428Y-81683390D01*
X126271428Y-81683390D02*
X126080952Y-81683390D01*
X126080952Y-81683390D02*
X125985714Y-81731009D01*
X125985714Y-81731009D02*
X125938095Y-81778628D01*
X125938095Y-81778628D02*
X125890476Y-81873866D01*
X125890476Y-81873866D02*
X125890476Y-82064342D01*
X125890476Y-82064342D02*
X125938095Y-82159580D01*
X125938095Y-82159580D02*
X125985714Y-82207200D01*
X125985714Y-82207200D02*
X126080952Y-82254819D01*
X126080952Y-82254819D02*
X126271428Y-82254819D01*
X126271428Y-82254819D02*
X126366666Y-82207200D01*
X126366666Y-82207200D02*
X126414285Y-82159580D01*
X126414285Y-82159580D02*
X126461904Y-82064342D01*
X126461904Y-82064342D02*
X126461904Y-81873866D01*
X126461904Y-81873866D02*
X126414285Y-81778628D01*
X126414285Y-81778628D02*
X126366666Y-81731009D01*
X126366666Y-81731009D02*
X126271428Y-81683390D01*
D11*
X127530237Y-74174318D02*
X127530237Y-72904318D01*
X128860714Y-74053365D02*
X128800238Y-74113842D01*
X128800238Y-74113842D02*
X128618809Y-74174318D01*
X128618809Y-74174318D02*
X128497857Y-74174318D01*
X128497857Y-74174318D02*
X128316428Y-74113842D01*
X128316428Y-74113842D02*
X128195476Y-73992889D01*
X128195476Y-73992889D02*
X128134999Y-73871937D01*
X128134999Y-73871937D02*
X128074523Y-73630032D01*
X128074523Y-73630032D02*
X128074523Y-73448603D01*
X128074523Y-73448603D02*
X128134999Y-73206699D01*
X128134999Y-73206699D02*
X128195476Y-73085746D01*
X128195476Y-73085746D02*
X128316428Y-72964794D01*
X128316428Y-72964794D02*
X128497857Y-72904318D01*
X128497857Y-72904318D02*
X128618809Y-72904318D01*
X128618809Y-72904318D02*
X128800238Y-72964794D01*
X128800238Y-72964794D02*
X128860714Y-73025270D01*
X129344523Y-73025270D02*
X129404999Y-72964794D01*
X129404999Y-72964794D02*
X129525952Y-72904318D01*
X129525952Y-72904318D02*
X129828333Y-72904318D01*
X129828333Y-72904318D02*
X129949285Y-72964794D01*
X129949285Y-72964794D02*
X130009761Y-73025270D01*
X130009761Y-73025270D02*
X130070238Y-73146222D01*
X130070238Y-73146222D02*
X130070238Y-73267175D01*
X130070238Y-73267175D02*
X130009761Y-73448603D01*
X130009761Y-73448603D02*
X129284047Y-74174318D01*
X129284047Y-74174318D02*
X130070238Y-74174318D01*
D10*
X143919642Y-74314819D02*
X143586309Y-73838628D01*
X143348214Y-74314819D02*
X143348214Y-73314819D01*
X143348214Y-73314819D02*
X143729166Y-73314819D01*
X143729166Y-73314819D02*
X143824404Y-73362438D01*
X143824404Y-73362438D02*
X143872023Y-73410057D01*
X143872023Y-73410057D02*
X143919642Y-73505295D01*
X143919642Y-73505295D02*
X143919642Y-73648152D01*
X143919642Y-73648152D02*
X143872023Y-73743390D01*
X143872023Y-73743390D02*
X143824404Y-73791009D01*
X143824404Y-73791009D02*
X143729166Y-73838628D01*
X143729166Y-73838628D02*
X143348214Y-73838628D01*
X144252976Y-73314819D02*
X144872023Y-73314819D01*
X144872023Y-73314819D02*
X144538690Y-73695771D01*
X144538690Y-73695771D02*
X144681547Y-73695771D01*
X144681547Y-73695771D02*
X144776785Y-73743390D01*
X144776785Y-73743390D02*
X144824404Y-73791009D01*
X144824404Y-73791009D02*
X144872023Y-73886247D01*
X144872023Y-73886247D02*
X144872023Y-74124342D01*
X144872023Y-74124342D02*
X144824404Y-74219580D01*
X144824404Y-74219580D02*
X144776785Y-74267200D01*
X144776785Y-74267200D02*
X144681547Y-74314819D01*
X144681547Y-74314819D02*
X144395833Y-74314819D01*
X144395833Y-74314819D02*
X144300595Y-74267200D01*
X144300595Y-74267200D02*
X144252976Y-74219580D01*
X145824404Y-74314819D02*
X145252976Y-74314819D01*
X145538690Y-74314819D02*
X145538690Y-73314819D01*
X145538690Y-73314819D02*
X145443452Y-73457676D01*
X145443452Y-73457676D02*
X145348214Y-73552914D01*
X145348214Y-73552914D02*
X145252976Y-73600533D01*
X131257142Y-82254819D02*
X130923809Y-81778628D01*
X130685714Y-82254819D02*
X130685714Y-81254819D01*
X130685714Y-81254819D02*
X131066666Y-81254819D01*
X131066666Y-81254819D02*
X131161904Y-81302438D01*
X131161904Y-81302438D02*
X131209523Y-81350057D01*
X131209523Y-81350057D02*
X131257142Y-81445295D01*
X131257142Y-81445295D02*
X131257142Y-81588152D01*
X131257142Y-81588152D02*
X131209523Y-81683390D01*
X131209523Y-81683390D02*
X131161904Y-81731009D01*
X131161904Y-81731009D02*
X131066666Y-81778628D01*
X131066666Y-81778628D02*
X130685714Y-81778628D01*
X131638095Y-81350057D02*
X131685714Y-81302438D01*
X131685714Y-81302438D02*
X131780952Y-81254819D01*
X131780952Y-81254819D02*
X132019047Y-81254819D01*
X132019047Y-81254819D02*
X132114285Y-81302438D01*
X132114285Y-81302438D02*
X132161904Y-81350057D01*
X132161904Y-81350057D02*
X132209523Y-81445295D01*
X132209523Y-81445295D02*
X132209523Y-81540533D01*
X132209523Y-81540533D02*
X132161904Y-81683390D01*
X132161904Y-81683390D02*
X131590476Y-82254819D01*
X131590476Y-82254819D02*
X132209523Y-82254819D01*
X132685714Y-82254819D02*
X132876190Y-82254819D01*
X132876190Y-82254819D02*
X132971428Y-82207200D01*
X132971428Y-82207200D02*
X133019047Y-82159580D01*
X133019047Y-82159580D02*
X133114285Y-82016723D01*
X133114285Y-82016723D02*
X133161904Y-81826247D01*
X133161904Y-81826247D02*
X133161904Y-81445295D01*
X133161904Y-81445295D02*
X133114285Y-81350057D01*
X133114285Y-81350057D02*
X133066666Y-81302438D01*
X133066666Y-81302438D02*
X132971428Y-81254819D01*
X132971428Y-81254819D02*
X132780952Y-81254819D01*
X132780952Y-81254819D02*
X132685714Y-81302438D01*
X132685714Y-81302438D02*
X132638095Y-81350057D01*
X132638095Y-81350057D02*
X132590476Y-81445295D01*
X132590476Y-81445295D02*
X132590476Y-81683390D01*
X132590476Y-81683390D02*
X132638095Y-81778628D01*
X132638095Y-81778628D02*
X132685714Y-81826247D01*
X132685714Y-81826247D02*
X132780952Y-81873866D01*
X132780952Y-81873866D02*
X132971428Y-81873866D01*
X132971428Y-81873866D02*
X133066666Y-81826247D01*
X133066666Y-81826247D02*
X133114285Y-81778628D01*
X133114285Y-81778628D02*
X133161904Y-81683390D01*
X123166667Y-76807200D02*
X123309524Y-76854819D01*
X123309524Y-76854819D02*
X123547619Y-76854819D01*
X123547619Y-76854819D02*
X123642857Y-76807200D01*
X123642857Y-76807200D02*
X123690476Y-76759580D01*
X123690476Y-76759580D02*
X123738095Y-76664342D01*
X123738095Y-76664342D02*
X123738095Y-76569104D01*
X123738095Y-76569104D02*
X123690476Y-76473866D01*
X123690476Y-76473866D02*
X123642857Y-76426247D01*
X123642857Y-76426247D02*
X123547619Y-76378628D01*
X123547619Y-76378628D02*
X123357143Y-76331009D01*
X123357143Y-76331009D02*
X123261905Y-76283390D01*
X123261905Y-76283390D02*
X123214286Y-76235771D01*
X123214286Y-76235771D02*
X123166667Y-76140533D01*
X123166667Y-76140533D02*
X123166667Y-76045295D01*
X123166667Y-76045295D02*
X123214286Y-75950057D01*
X123214286Y-75950057D02*
X123261905Y-75902438D01*
X123261905Y-75902438D02*
X123357143Y-75854819D01*
X123357143Y-75854819D02*
X123595238Y-75854819D01*
X123595238Y-75854819D02*
X123738095Y-75902438D01*
X124071429Y-75854819D02*
X124309524Y-76854819D01*
X124309524Y-76854819D02*
X124500000Y-76140533D01*
X124500000Y-76140533D02*
X124690476Y-76854819D01*
X124690476Y-76854819D02*
X124928572Y-75854819D01*
X125261905Y-75950057D02*
X125309524Y-75902438D01*
X125309524Y-75902438D02*
X125404762Y-75854819D01*
X125404762Y-75854819D02*
X125642857Y-75854819D01*
X125642857Y-75854819D02*
X125738095Y-75902438D01*
X125738095Y-75902438D02*
X125785714Y-75950057D01*
X125785714Y-75950057D02*
X125833333Y-76045295D01*
X125833333Y-76045295D02*
X125833333Y-76140533D01*
X125833333Y-76140533D02*
X125785714Y-76283390D01*
X125785714Y-76283390D02*
X125214286Y-76854819D01*
X125214286Y-76854819D02*
X125833333Y-76854819D01*
X120054819Y-79092857D02*
X119578628Y-79426190D01*
X120054819Y-79664285D02*
X119054819Y-79664285D01*
X119054819Y-79664285D02*
X119054819Y-79283333D01*
X119054819Y-79283333D02*
X119102438Y-79188095D01*
X119102438Y-79188095D02*
X119150057Y-79140476D01*
X119150057Y-79140476D02*
X119245295Y-79092857D01*
X119245295Y-79092857D02*
X119388152Y-79092857D01*
X119388152Y-79092857D02*
X119483390Y-79140476D01*
X119483390Y-79140476D02*
X119531009Y-79188095D01*
X119531009Y-79188095D02*
X119578628Y-79283333D01*
X119578628Y-79283333D02*
X119578628Y-79664285D01*
X119054819Y-78759523D02*
X119054819Y-78140476D01*
X119054819Y-78140476D02*
X119435771Y-78473809D01*
X119435771Y-78473809D02*
X119435771Y-78330952D01*
X119435771Y-78330952D02*
X119483390Y-78235714D01*
X119483390Y-78235714D02*
X119531009Y-78188095D01*
X119531009Y-78188095D02*
X119626247Y-78140476D01*
X119626247Y-78140476D02*
X119864342Y-78140476D01*
X119864342Y-78140476D02*
X119959580Y-78188095D01*
X119959580Y-78188095D02*
X120007200Y-78235714D01*
X120007200Y-78235714D02*
X120054819Y-78330952D01*
X120054819Y-78330952D02*
X120054819Y-78616666D01*
X120054819Y-78616666D02*
X120007200Y-78711904D01*
X120007200Y-78711904D02*
X119959580Y-78759523D01*
X119054819Y-77807142D02*
X119054819Y-77188095D01*
X119054819Y-77188095D02*
X119435771Y-77521428D01*
X119435771Y-77521428D02*
X119435771Y-77378571D01*
X119435771Y-77378571D02*
X119483390Y-77283333D01*
X119483390Y-77283333D02*
X119531009Y-77235714D01*
X119531009Y-77235714D02*
X119626247Y-77188095D01*
X119626247Y-77188095D02*
X119864342Y-77188095D01*
X119864342Y-77188095D02*
X119959580Y-77235714D01*
X119959580Y-77235714D02*
X120007200Y-77283333D01*
X120007200Y-77283333D02*
X120054819Y-77378571D01*
X120054819Y-77378571D02*
X120054819Y-77664285D01*
X120054819Y-77664285D02*
X120007200Y-77759523D01*
X120007200Y-77759523D02*
X119959580Y-77807142D01*
X120059580Y-82292857D02*
X120107200Y-82340476D01*
X120107200Y-82340476D02*
X120154819Y-82483333D01*
X120154819Y-82483333D02*
X120154819Y-82578571D01*
X120154819Y-82578571D02*
X120107200Y-82721428D01*
X120107200Y-82721428D02*
X120011961Y-82816666D01*
X120011961Y-82816666D02*
X119916723Y-82864285D01*
X119916723Y-82864285D02*
X119726247Y-82911904D01*
X119726247Y-82911904D02*
X119583390Y-82911904D01*
X119583390Y-82911904D02*
X119392914Y-82864285D01*
X119392914Y-82864285D02*
X119297676Y-82816666D01*
X119297676Y-82816666D02*
X119202438Y-82721428D01*
X119202438Y-82721428D02*
X119154819Y-82578571D01*
X119154819Y-82578571D02*
X119154819Y-82483333D01*
X119154819Y-82483333D02*
X119202438Y-82340476D01*
X119202438Y-82340476D02*
X119250057Y-82292857D01*
X119154819Y-81959523D02*
X119154819Y-81340476D01*
X119154819Y-81340476D02*
X119535771Y-81673809D01*
X119535771Y-81673809D02*
X119535771Y-81530952D01*
X119535771Y-81530952D02*
X119583390Y-81435714D01*
X119583390Y-81435714D02*
X119631009Y-81388095D01*
X119631009Y-81388095D02*
X119726247Y-81340476D01*
X119726247Y-81340476D02*
X119964342Y-81340476D01*
X119964342Y-81340476D02*
X120059580Y-81388095D01*
X120059580Y-81388095D02*
X120107200Y-81435714D01*
X120107200Y-81435714D02*
X120154819Y-81530952D01*
X120154819Y-81530952D02*
X120154819Y-81816666D01*
X120154819Y-81816666D02*
X120107200Y-81911904D01*
X120107200Y-81911904D02*
X120059580Y-81959523D01*
X119488152Y-80483333D02*
X120154819Y-80483333D01*
X119107200Y-80721428D02*
X119821485Y-80959523D01*
X119821485Y-80959523D02*
X119821485Y-80340476D01*
D12*
%TO.C,J4*%
X141650000Y-85000000D02*
X141650000Y-86000000D01*
X141650000Y-86000000D02*
X142650000Y-85500000D01*
X142650000Y-85500000D02*
X141650000Y-85000000D01*
X143040000Y-80290000D02*
X152160000Y-80290000D01*
X143040000Y-87260000D02*
X144350000Y-87260000D01*
X143040000Y-98330000D02*
X143040000Y-80290000D01*
X144350000Y-81590000D02*
X150850000Y-81590000D01*
X144350000Y-87260000D02*
X144350000Y-81590000D01*
X144350000Y-91360000D02*
X143040000Y-91360000D01*
X144350000Y-91360000D02*
X144350000Y-91360000D01*
X144350000Y-97030000D02*
X144350000Y-91360000D01*
X150850000Y-81590000D02*
X150850000Y-97030000D01*
X150850000Y-97030000D02*
X144350000Y-97030000D01*
X152160000Y-80290000D02*
X152160000Y-98330000D01*
X152160000Y-98330000D02*
X143040000Y-98330000D01*
%TO.C,R37*%
X140827500Y-91622258D02*
X140827500Y-91147742D01*
X141872500Y-91622258D02*
X141872500Y-91147742D01*
%TO.C,C40*%
X115610000Y-81790580D02*
X115610000Y-81509420D01*
X116630000Y-81790580D02*
X116630000Y-81509420D01*
%TO.C,Y2*%
X130700000Y-85670000D02*
X131340000Y-85670000D01*
X130700000Y-87890000D02*
X131340000Y-87890000D01*
X132730000Y-86400000D02*
X132730000Y-85710000D01*
%TO.C,SW1*%
X131130000Y-73110000D02*
X131130000Y-79510000D01*
X131130000Y-79510000D02*
X132330000Y-79510000D01*
X132330000Y-73110000D02*
X131130000Y-73110000D01*
X133930000Y-79510000D02*
X135130000Y-79510000D01*
X135130000Y-73110000D02*
X133930000Y-73110000D01*
X135130000Y-79510000D02*
X135130000Y-73110000D01*
%TO.C,C9*%
X119660000Y-99734420D02*
X119660000Y-100015580D01*
X120680000Y-99734420D02*
X120680000Y-100015580D01*
%TO.C,C7*%
X134780000Y-91865580D02*
X134780000Y-91584420D01*
X135800000Y-91865580D02*
X135800000Y-91584420D01*
%TO.C,C37*%
X139160000Y-96975580D02*
X139160000Y-96694420D01*
X140180000Y-96975580D02*
X140180000Y-96694420D01*
%TO.C,R30*%
X140782936Y-74775000D02*
X141237064Y-74775000D01*
X140782936Y-76245000D02*
X141237064Y-76245000D01*
%TO.C,C8*%
X124370580Y-87570000D02*
X124089420Y-87570000D01*
X124370580Y-88590000D02*
X124089420Y-88590000D01*
%TO.C,C19*%
X128539420Y-82000000D02*
X128820580Y-82000000D01*
X128539420Y-83020000D02*
X128820580Y-83020000D01*
%TO.C,J7*%
X104530000Y-78360000D02*
X113650000Y-78360000D01*
X104530000Y-106560000D02*
X104530000Y-78360000D01*
X105840000Y-79660000D02*
X112340000Y-79660000D01*
X105840000Y-105260000D02*
X105840000Y-79660000D01*
X112340000Y-79660000D02*
X112340000Y-90410000D01*
X112340000Y-90410000D02*
X112340000Y-90410000D01*
X112340000Y-90410000D02*
X113650000Y-90410000D01*
X112340000Y-94510000D02*
X112340000Y-105260000D01*
X112340000Y-105260000D02*
X105840000Y-105260000D01*
X113650000Y-78360000D02*
X113650000Y-106560000D01*
X113650000Y-94510000D02*
X112340000Y-94510000D01*
X113650000Y-106560000D02*
X104530000Y-106560000D01*
X114040000Y-101350000D02*
X115040000Y-101850000D01*
X115040000Y-100850000D02*
X114040000Y-101350000D01*
X115040000Y-101850000D02*
X115040000Y-100850000D01*
%TO.C,C36*%
X139140000Y-93185580D02*
X139140000Y-92904420D01*
X140160000Y-93185580D02*
X140160000Y-92904420D01*
%TO.C,C10*%
X131200580Y-83720000D02*
X130919420Y-83720000D01*
X131200580Y-84740000D02*
X130919420Y-84740000D01*
%TO.C,C29*%
X124370580Y-85780000D02*
X124089420Y-85780000D01*
X124370580Y-86800000D02*
X124089420Y-86800000D01*
%TO.C,L3*%
X117582742Y-92767500D02*
X118057258Y-92767500D01*
X117582742Y-93812500D02*
X118057258Y-93812500D01*
%TO.C,C16*%
X117689420Y-91220000D02*
X117970580Y-91220000D01*
X117689420Y-92240000D02*
X117970580Y-92240000D01*
%TO.C,R35*%
X151585436Y-74765000D02*
X152039564Y-74765000D01*
X151585436Y-76235000D02*
X152039564Y-76235000D01*
%TO.C,C6*%
X132049420Y-102830000D02*
X132330580Y-102830000D01*
X132049420Y-103850000D02*
X132330580Y-103850000D01*
%TO.C,J1*%
X141695000Y-99345000D02*
X151975000Y-99345000D01*
X141695000Y-101945000D02*
X141695000Y-99345000D01*
X141695000Y-104545000D02*
X141695000Y-103215000D01*
X143025000Y-104545000D02*
X141695000Y-104545000D01*
X144295000Y-101945000D02*
X141695000Y-101945000D01*
X144295000Y-104545000D02*
X144295000Y-101945000D01*
X144295000Y-104545000D02*
X151975000Y-104545000D01*
X151975000Y-104545000D02*
X151975000Y-99345000D01*
%TO.C,C30*%
X135770000Y-76199420D02*
X135770000Y-76480580D01*
X136790000Y-76199420D02*
X136790000Y-76480580D01*
%TO.C,J2*%
X135790000Y-69180000D02*
X135790000Y-71680000D01*
X135790000Y-71680000D02*
X138290000Y-71680000D01*
X136090000Y-67360000D02*
X136090000Y-71380000D01*
X136090000Y-69070000D02*
X136590000Y-69070000D01*
X136090000Y-69880000D02*
X137090000Y-69880000D01*
X136090000Y-71380000D02*
X153810000Y-71380000D01*
X136590000Y-67860000D02*
X153310000Y-67860000D01*
X136590000Y-69070000D02*
X136590000Y-67860000D01*
X137090000Y-69880000D02*
X137090000Y-71380000D01*
X152810000Y-69880000D02*
X152810000Y-71380000D01*
X153310000Y-67860000D02*
X153310000Y-69070000D01*
X153310000Y-69070000D02*
X153810000Y-69070000D01*
X153810000Y-67360000D02*
X136090000Y-67360000D01*
X153810000Y-69880000D02*
X152810000Y-69880000D01*
X153810000Y-71380000D02*
X153810000Y-67360000D01*
%TO.C,D5*%
X149802500Y-76590000D02*
X149802500Y-78510000D01*
X149802500Y-78510000D02*
X152487500Y-78510000D01*
X152487500Y-76590000D02*
X149802500Y-76590000D01*
%TO.C,D4*%
X142552500Y-76590000D02*
X142552500Y-78510000D01*
X142552500Y-78510000D02*
X145237500Y-78510000D01*
X145237500Y-76590000D02*
X142552500Y-76590000D01*
%TO.C,J5*%
X107150000Y-109110000D02*
X148050000Y-109110000D01*
X107150000Y-118230000D02*
X107150000Y-109110000D01*
X108450000Y-110420000D02*
X125550000Y-110420000D01*
X108450000Y-116920000D02*
X108450000Y-110420000D01*
X125550000Y-110420000D02*
X125550000Y-109110000D01*
X125550000Y-110420000D02*
X125550000Y-110420000D01*
X129650000Y-109110000D02*
X129650000Y-110420000D01*
X129650000Y-110420000D02*
X146750000Y-110420000D01*
X142340000Y-107720000D02*
X142840000Y-108720000D01*
X142840000Y-108720000D02*
X143340000Y-107720000D01*
X143340000Y-107720000D02*
X142340000Y-107720000D01*
X146750000Y-110420000D02*
X146750000Y-116920000D01*
X146750000Y-116920000D02*
X108450000Y-116920000D01*
X148050000Y-109110000D02*
X148050000Y-118230000D01*
X148050000Y-118230000D02*
X107150000Y-118230000D01*
%TO.C,C17*%
X117950580Y-94320000D02*
X117669420Y-94320000D01*
X117950580Y-95340000D02*
X117669420Y-95340000D01*
D13*
%TO.C,IC1*%
X123088000Y-91088000D02*
X132388000Y-91088000D01*
X123088000Y-100388000D02*
X123088000Y-91088000D01*
X132388000Y-91088000D02*
X132388000Y-100388000D01*
X132388000Y-100388000D02*
X123088000Y-100388000D01*
D14*
X132363000Y-89513000D02*
G75*
G02*
X132113000Y-89513000I-125000J0D01*
G01*
X132113000Y-89513000D02*
G75*
G02*
X132363000Y-89513000I125000J0D01*
G01*
D12*
%TO.C,J3*%
X104500000Y-66930000D02*
X120000000Y-66930000D01*
X104500000Y-76050000D02*
X104500000Y-66930000D01*
X105800000Y-68240000D02*
X118700000Y-68240000D01*
X105800000Y-74740000D02*
X105800000Y-68240000D01*
X109210000Y-77440000D02*
X110210000Y-77440000D01*
X109710000Y-76440000D02*
X109210000Y-77440000D01*
X110200000Y-74740000D02*
X105800000Y-74740000D01*
X110200000Y-76050000D02*
X110200000Y-74740000D01*
X110210000Y-77440000D02*
X109710000Y-76440000D01*
X114300000Y-74740000D02*
X114300000Y-74740000D01*
X114300000Y-74740000D02*
X114300000Y-76050000D01*
X118700000Y-68240000D02*
X118700000Y-74740000D01*
X118700000Y-74740000D02*
X114300000Y-74740000D01*
X120000000Y-66930000D02*
X120000000Y-76050000D01*
X120000000Y-76050000D02*
X104500000Y-76050000D01*
%TO.C,R38*%
X140837500Y-95452258D02*
X140837500Y-94977742D01*
X141882500Y-95452258D02*
X141882500Y-94977742D01*
%TO.C,R34*%
X148082936Y-74775000D02*
X148537064Y-74775000D01*
X148082936Y-76245000D02*
X148537064Y-76245000D01*
%TO.C,TP1*%
X141400000Y-106350000D02*
G75*
G02*
X138400000Y-106350000I-1500000J0D01*
G01*
X138400000Y-106350000D02*
G75*
G02*
X141400000Y-106350000I1500000J0D01*
G01*
%TO.C,R32*%
X115597500Y-78672258D02*
X115597500Y-78197742D01*
X116642500Y-78672258D02*
X116642500Y-78197742D01*
%TO.C,R28*%
X127097500Y-80322258D02*
X127097500Y-79847742D01*
X128142500Y-80322258D02*
X128142500Y-79847742D01*
%TO.C,R36*%
X140827500Y-87812258D02*
X140827500Y-87337742D01*
X141872500Y-87812258D02*
X141872500Y-87337742D01*
%TO.C,C14*%
X117950580Y-99070000D02*
X117669420Y-99070000D01*
X117950580Y-100090000D02*
X117669420Y-100090000D01*
%TO.C,C35*%
X139110000Y-89310580D02*
X139110000Y-89029420D01*
X140130000Y-89310580D02*
X140130000Y-89029420D01*
D13*
%TO.C,IC2*%
X127322000Y-76430000D02*
X130218000Y-76430000D01*
X127322000Y-76480000D02*
X127322000Y-76430000D01*
X130218000Y-76430000D02*
X130218000Y-76480000D01*
X130218000Y-76480000D02*
X127322000Y-76480000D01*
X130370000Y-74730000D02*
X130370000Y-76080000D01*
D12*
%TO.C,R31*%
X144335436Y-74775000D02*
X144789564Y-74775000D01*
X144335436Y-76245000D02*
X144789564Y-76245000D01*
%TO.C,TP2*%
X137650000Y-106350000D02*
G75*
G02*
X134650000Y-106350000I-1500000J0D01*
G01*
X134650000Y-106350000D02*
G75*
G02*
X137650000Y-106350000I1500000J0D01*
G01*
%TO.C,R29*%
X129257500Y-80317258D02*
X129257500Y-79842742D01*
X130302500Y-80317258D02*
X130302500Y-79842742D01*
%TO.C,TP3*%
X133900000Y-106300000D02*
G75*
G02*
X130900000Y-106300000I-1500000J0D01*
G01*
X130900000Y-106300000D02*
G75*
G02*
X133900000Y-106300000I1500000J0D01*
G01*
%TO.C,SW2*%
X122400000Y-73035000D02*
X122400000Y-79435000D01*
X122400000Y-79435000D02*
X123600000Y-79435000D01*
X123600000Y-73035000D02*
X122400000Y-73035000D01*
X125200000Y-79435000D02*
X126400000Y-79435000D01*
X126400000Y-73035000D02*
X125200000Y-73035000D01*
X126400000Y-79435000D02*
X126400000Y-73035000D01*
%TO.C,C18*%
X117950580Y-95880000D02*
X117669420Y-95880000D01*
X117950580Y-96900000D02*
X117669420Y-96900000D01*
%TO.C,C13*%
X117669420Y-102220000D02*
X117950580Y-102220000D01*
X117669420Y-103240000D02*
X117950580Y-103240000D01*
%TO.C,C15*%
X117940580Y-97490000D02*
X117659420Y-97490000D01*
X117940580Y-98510000D02*
X117659420Y-98510000D01*
%TO.C,R33*%
X117347500Y-78687258D02*
X117347500Y-78212742D01*
X118392500Y-78687258D02*
X118392500Y-78212742D01*
%TO.C,L4*%
X117582742Y-100617500D02*
X118057258Y-100617500D01*
X117582742Y-101662500D02*
X118057258Y-101662500D01*
%TO.C,C34*%
X117310000Y-81790580D02*
X117310000Y-81509420D01*
X118330000Y-81790580D02*
X118330000Y-81509420D01*
%TD*%
M02*
