%TF.GenerationSoftware,KiCad,Pcbnew,9.0.0*%
%TF.CreationDate,2025-03-07T07:21:17+07:00*%
%TF.ProjectId,IMU,494d552e-6b69-4636-9164-5f7063625858,rev?*%
%TF.SameCoordinates,Original*%
%TF.FileFunction,Copper,L2,Bot*%
%TF.FilePolarity,Positive*%
%FSLAX46Y46*%
G04 Gerber Fmt 4.6, Leading zero omitted, Abs format (unit mm)*
G04 Created by KiCad (PCBNEW 9.0.0) date 2025-03-07 07:21:17*
%MOMM*%
%LPD*%
G01*
G04 APERTURE LIST*
G04 Aperture macros list*
%AMRoundRect*
0 Rectangle with rounded corners*
0 $1 Rounding radius*
0 $2 $3 $4 $5 $6 $7 $8 $9 X,Y pos of 4 corners*
0 Add a 4 corners polygon primitive as box body*
4,1,4,$2,$3,$4,$5,$6,$7,$8,$9,$2,$3,0*
0 Add four circle primitives for the rounded corners*
1,1,$1+$1,$2,$3*
1,1,$1+$1,$4,$5*
1,1,$1+$1,$6,$7*
1,1,$1+$1,$8,$9*
0 Add four rect primitives between the rounded corners*
20,1,$1+$1,$2,$3,$4,$5,0*
20,1,$1+$1,$4,$5,$6,$7,0*
20,1,$1+$1,$6,$7,$8,$9,0*
20,1,$1+$1,$8,$9,$2,$3,0*%
G04 Aperture macros list end*
%TA.AperFunction,ComponentPad*%
%ADD10RoundRect,0.250000X0.600000X-0.600000X0.600000X0.600000X-0.600000X0.600000X-0.600000X-0.600000X0*%
%TD*%
%TA.AperFunction,ComponentPad*%
%ADD11C,1.700000*%
%TD*%
%TA.AperFunction,ViaPad*%
%ADD12C,0.450000*%
%TD*%
%TA.AperFunction,Conductor*%
%ADD13C,0.200000*%
%TD*%
G04 APERTURE END LIST*
D10*
%TO.P,J2,1,Pin_1*%
%TO.N,+3.3V*%
X141990000Y-101065000D03*
D11*
%TO.P,J2,2,Pin_2*%
%TO.N,GND*%
X141990000Y-98525000D03*
%TO.P,J2,3,Pin_3*%
%TO.N,CS*%
X144530000Y-101065000D03*
%TO.P,J2,4,Pin_4*%
%TO.N,GND*%
X144530000Y-98525000D03*
%TO.P,J2,5,Pin_5*%
%TO.N,INT2*%
X147070000Y-101065000D03*
%TO.P,J2,6,Pin_6*%
%TO.N,GND*%
X147070000Y-98525000D03*
%TO.P,J2,7,Pin_7*%
%TO.N,INT1*%
X149610000Y-101065000D03*
%TO.P,J2,8,Pin_8*%
%TO.N,GND*%
X149610000Y-98525000D03*
%TO.P,J2,9,Pin_9*%
%TO.N,SCLK*%
X152150000Y-101065000D03*
%TO.P,J2,10,Pin_10*%
%TO.N,GND*%
X152150000Y-98525000D03*
%TO.P,J2,11,Pin_11*%
%TO.N,SDO*%
X154690000Y-101065000D03*
%TO.P,J2,12,Pin_12*%
%TO.N,GND*%
X154690000Y-98525000D03*
%TO.P,J2,13,Pin_13*%
%TO.N,SDI*%
X157230000Y-101065000D03*
%TO.P,J2,14,Pin_14*%
%TO.N,GND*%
X157230000Y-98525000D03*
%TO.P,J2,15,Pin_15*%
%TO.N,unconnected-(J2-Pin_15-Pad15)*%
X159770000Y-101065000D03*
%TO.P,J2,16,Pin_16*%
%TO.N,GND*%
X159770000Y-98525000D03*
%TD*%
D12*
%TO.N,SDI*%
X152300000Y-106200000D03*
%TO.N,GND*%
X145650000Y-109575000D03*
X143900000Y-110575000D03*
%TO.N,+3.3V*%
X145998492Y-107729122D03*
X149611974Y-110036974D03*
%TO.N,INT2*%
X150500000Y-108100000D03*
%TD*%
D13*
%TO.N,INT2*%
X146400000Y-105625000D02*
X146400000Y-101065000D01*
X146700000Y-105925000D02*
X146400000Y-105625000D01*
X149500000Y-105925000D02*
X146700000Y-105925000D01*
X150149502Y-107749502D02*
X150149502Y-106574502D01*
X150500000Y-108100000D02*
X150149502Y-107749502D01*
X150149502Y-106574502D02*
X149500000Y-105925000D01*
%TO.N,SDI*%
X153060000Y-103265000D02*
X156260000Y-103265000D01*
X152600000Y-103725000D02*
X153060000Y-103265000D01*
X156260000Y-103265000D02*
X156560000Y-102965000D01*
X152600000Y-105900000D02*
X152600000Y-103725000D01*
X156560000Y-102965000D02*
X156560000Y-101065000D01*
X152300000Y-106200000D02*
X152600000Y-105900000D01*
%TO.N,GND*%
X144650000Y-110575000D02*
X143900000Y-110575000D01*
X145650000Y-109575000D02*
X144650000Y-110575000D01*
%TD*%
%TA.AperFunction,Conductor*%
%TO.N,+3.3V*%
G36*
X164153472Y-92575695D02*
G01*
X164424419Y-92590910D01*
X164432397Y-92591618D01*
X164494584Y-92599169D01*
X164500293Y-92600000D01*
X164735859Y-92640024D01*
X164744708Y-92641864D01*
X164799097Y-92655270D01*
X164803643Y-92656484D01*
X165040491Y-92724719D01*
X165050091Y-92727917D01*
X165088558Y-92742505D01*
X165089603Y-92742902D01*
X165093050Y-92744269D01*
X165333997Y-92844072D01*
X165344155Y-92848830D01*
X165356816Y-92855475D01*
X165359116Y-92856713D01*
X165462596Y-92913905D01*
X165606727Y-92993564D01*
X165618500Y-93000961D01*
X165858604Y-93171323D01*
X165869476Y-93179993D01*
X165971178Y-93270880D01*
X166088997Y-93376169D01*
X166098830Y-93386002D01*
X166295006Y-93605523D01*
X166303676Y-93616395D01*
X166474038Y-93856499D01*
X166481436Y-93868273D01*
X166595267Y-94074234D01*
X166618254Y-94115826D01*
X166618264Y-94115843D01*
X166619534Y-94118202D01*
X166626168Y-94130843D01*
X166630931Y-94141012D01*
X166730716Y-94381915D01*
X166732096Y-94385395D01*
X166747075Y-94424889D01*
X166750288Y-94434535D01*
X166818501Y-94671309D01*
X166819744Y-94675961D01*
X166833128Y-94730263D01*
X166834979Y-94739167D01*
X166874989Y-94974644D01*
X166875837Y-94980471D01*
X166883379Y-95042595D01*
X166884088Y-95050586D01*
X166899305Y-95321527D01*
X166899500Y-95328480D01*
X166899500Y-109072437D01*
X166899394Y-109077562D01*
X166884185Y-109445249D01*
X166883819Y-109450930D01*
X166883819Y-109450931D01*
X166876470Y-109534929D01*
X166875990Y-109539460D01*
X166835786Y-109861997D01*
X166834854Y-109868191D01*
X166821005Y-109946733D01*
X166820250Y-109950648D01*
X166752453Y-110273988D01*
X166750867Y-110280634D01*
X166732405Y-110349536D01*
X166731475Y-110352825D01*
X166634622Y-110678147D01*
X166632299Y-110685176D01*
X166612696Y-110739034D01*
X166611691Y-110741698D01*
X166483036Y-111071414D01*
X166479903Y-111078741D01*
X166479902Y-111078743D01*
X166465471Y-111109691D01*
X166464489Y-111111747D01*
X166299182Y-111449889D01*
X166294304Y-111458903D01*
X166088037Y-111805064D01*
X166082431Y-111813644D01*
X165848284Y-112141587D01*
X165841989Y-112149674D01*
X165581566Y-112457155D01*
X165574625Y-112464695D01*
X165289695Y-112749625D01*
X165282155Y-112756566D01*
X164974674Y-113016989D01*
X164966587Y-113023284D01*
X164638644Y-113257431D01*
X164630064Y-113263037D01*
X164283903Y-113469304D01*
X164274889Y-113474182D01*
X163936747Y-113639489D01*
X163934691Y-113640471D01*
X163903743Y-113654902D01*
X163896414Y-113658036D01*
X163566698Y-113786691D01*
X163564034Y-113787696D01*
X163510176Y-113807299D01*
X163503147Y-113809622D01*
X163177825Y-113906475D01*
X163174536Y-113907405D01*
X163105634Y-113925867D01*
X163098988Y-113927453D01*
X162775648Y-113995250D01*
X162771733Y-113996005D01*
X162693191Y-114009854D01*
X162686997Y-114010786D01*
X162364460Y-114050990D01*
X162359929Y-114051470D01*
X162275931Y-114058819D01*
X162270249Y-114059185D01*
X161902563Y-114074394D01*
X161897438Y-114074500D01*
X139652562Y-114074500D01*
X139647437Y-114074394D01*
X139279749Y-114059185D01*
X139274067Y-114058819D01*
X139190069Y-114051470D01*
X139185538Y-114050990D01*
X138863001Y-114010786D01*
X138856807Y-114009854D01*
X138778265Y-113996005D01*
X138774350Y-113995250D01*
X138451010Y-113927453D01*
X138444364Y-113925867D01*
X138375462Y-113907405D01*
X138372173Y-113906475D01*
X138046851Y-113809622D01*
X138039822Y-113807299D01*
X137985964Y-113787696D01*
X137983300Y-113786691D01*
X137653584Y-113658036D01*
X137646255Y-113654902D01*
X137615262Y-113640450D01*
X137613206Y-113639467D01*
X137275119Y-113474186D01*
X137266105Y-113469309D01*
X136919935Y-113263037D01*
X136911355Y-113257431D01*
X136583412Y-113023284D01*
X136575325Y-113016989D01*
X136267844Y-112756566D01*
X136260304Y-112749625D01*
X135975374Y-112464695D01*
X135968433Y-112457155D01*
X135708010Y-112149674D01*
X135701715Y-112141587D01*
X135588599Y-111983159D01*
X135467564Y-111813638D01*
X135461962Y-111805064D01*
X135255683Y-111458883D01*
X135250817Y-111449889D01*
X135085458Y-111111641D01*
X135084595Y-111109837D01*
X135070089Y-111078729D01*
X135066962Y-111071414D01*
X135060760Y-111055520D01*
X134938299Y-110741679D01*
X134937302Y-110739034D01*
X134917692Y-110685157D01*
X134915383Y-110678169D01*
X134818512Y-110352787D01*
X134817604Y-110349576D01*
X134799128Y-110280622D01*
X134797549Y-110274008D01*
X134729737Y-109950594D01*
X134728999Y-109946766D01*
X134715140Y-109868169D01*
X134714216Y-109862028D01*
X134674004Y-109539429D01*
X134673530Y-109534956D01*
X134666177Y-109450906D01*
X134665814Y-109445277D01*
X134650606Y-109077562D01*
X134650500Y-109072438D01*
X134650500Y-108963549D01*
X137949500Y-108963549D01*
X137949500Y-109186450D01*
X137949501Y-109186466D01*
X137978594Y-109407452D01*
X137978595Y-109407457D01*
X137978596Y-109407463D01*
X138036290Y-109622780D01*
X138036293Y-109622790D01*
X138104154Y-109786620D01*
X138121595Y-109828726D01*
X138233052Y-110021774D01*
X138233057Y-110021780D01*
X138233058Y-110021782D01*
X138368751Y-110198622D01*
X138368757Y-110198629D01*
X138526370Y-110356242D01*
X138526377Y-110356248D01*
X138535672Y-110363380D01*
X138703226Y-110491948D01*
X138896274Y-110603405D01*
X139000206Y-110646455D01*
X139076717Y-110678147D01*
X139102219Y-110688710D01*
X139317537Y-110746404D01*
X139538543Y-110775500D01*
X139538550Y-110775500D01*
X139761450Y-110775500D01*
X139761457Y-110775500D01*
X139982463Y-110746404D01*
X140197781Y-110688710D01*
X140299789Y-110646457D01*
X143174499Y-110646457D01*
X143202379Y-110786614D01*
X143202381Y-110786620D01*
X143257069Y-110918650D01*
X143257074Y-110918659D01*
X143336467Y-111037478D01*
X143336470Y-111037482D01*
X143437517Y-111138529D01*
X143437521Y-111138532D01*
X143556340Y-111217925D01*
X143556349Y-111217930D01*
X143566733Y-111222231D01*
X143688380Y-111272619D01*
X143688384Y-111272619D01*
X143688385Y-111272620D01*
X143828542Y-111300500D01*
X143828545Y-111300500D01*
X143971456Y-111300500D01*
X143995722Y-111295672D01*
X144088937Y-111277130D01*
X144092999Y-111276393D01*
X144108214Y-111273900D01*
X144228320Y-111236052D01*
X144266707Y-111222230D01*
X144268459Y-111221518D01*
X144305731Y-111204581D01*
X144330822Y-111191929D01*
X144337282Y-111190058D01*
X144340406Y-111187596D01*
X144374692Y-111179229D01*
X144379539Y-111178759D01*
X144407225Y-111176078D01*
X144419180Y-111175500D01*
X144563331Y-111175500D01*
X144563347Y-111175501D01*
X144570943Y-111175501D01*
X144729054Y-111175501D01*
X144729057Y-111175501D01*
X144881785Y-111134577D01*
X144931904Y-111105639D01*
X145018716Y-111055520D01*
X145130520Y-110943716D01*
X145130520Y-110943714D01*
X145140728Y-110933507D01*
X145140729Y-110933504D01*
X145720771Y-110353463D01*
X145740134Y-110337664D01*
X145749471Y-110331502D01*
X145749478Y-110331495D01*
X145752155Y-110329729D01*
X145779243Y-110316272D01*
X145843268Y-110293712D01*
X145882214Y-110278143D01*
X145883979Y-110277351D01*
X145921295Y-110258721D01*
X146008168Y-110210773D01*
X146025796Y-110200574D01*
X146026600Y-110200087D01*
X146087191Y-110156993D01*
X146087198Y-110156984D01*
X146087905Y-110156358D01*
X146101392Y-110145940D01*
X146112473Y-110138536D01*
X146112472Y-110138536D01*
X146112479Y-110138532D01*
X146213532Y-110037479D01*
X146292929Y-109918653D01*
X146347619Y-109786620D01*
X146375500Y-109646455D01*
X146375500Y-109503545D01*
X146375500Y-109503542D01*
X146347620Y-109363385D01*
X146347619Y-109363384D01*
X146347619Y-109363380D01*
X146292929Y-109231347D01*
X146292928Y-109231346D01*
X146292925Y-109231340D01*
X146213532Y-109112521D01*
X146213529Y-109112517D01*
X146112482Y-109011470D01*
X146112478Y-109011467D01*
X146040764Y-108963549D01*
X160199500Y-108963549D01*
X160199500Y-109186450D01*
X160199501Y-109186466D01*
X160228594Y-109407452D01*
X160228595Y-109407457D01*
X160228596Y-109407463D01*
X160286290Y-109622780D01*
X160286293Y-109622790D01*
X160354154Y-109786620D01*
X160371595Y-109828726D01*
X160483052Y-110021774D01*
X160483057Y-110021780D01*
X160483058Y-110021782D01*
X160618751Y-110198622D01*
X160618757Y-110198629D01*
X160776370Y-110356242D01*
X160776377Y-110356248D01*
X160785672Y-110363380D01*
X160953226Y-110491948D01*
X161146274Y-110603405D01*
X161250206Y-110646455D01*
X161326717Y-110678147D01*
X161352219Y-110688710D01*
X161567537Y-110746404D01*
X161788543Y-110775500D01*
X161788550Y-110775500D01*
X162011450Y-110775500D01*
X162011457Y-110775500D01*
X162232463Y-110746404D01*
X162447781Y-110688710D01*
X162653726Y-110603405D01*
X162846774Y-110491948D01*
X163023624Y-110356247D01*
X163181247Y-110198624D01*
X163316948Y-110021774D01*
X163428405Y-109828726D01*
X163513710Y-109622781D01*
X163571404Y-109407463D01*
X163600500Y-109186457D01*
X163600500Y-108963543D01*
X163571404Y-108742537D01*
X163513710Y-108527219D01*
X163428405Y-108321274D01*
X163316948Y-108128226D01*
X163237932Y-108025250D01*
X163181248Y-107951377D01*
X163181242Y-107951370D01*
X163023629Y-107793757D01*
X163023622Y-107793751D01*
X162846782Y-107658058D01*
X162846780Y-107658057D01*
X162846774Y-107658052D01*
X162653726Y-107546595D01*
X162653722Y-107546593D01*
X162447790Y-107461293D01*
X162447783Y-107461291D01*
X162447781Y-107461290D01*
X162232463Y-107403596D01*
X162232457Y-107403595D01*
X162232452Y-107403594D01*
X162011466Y-107374501D01*
X162011463Y-107374500D01*
X162011457Y-107374500D01*
X161788543Y-107374500D01*
X161788537Y-107374500D01*
X161788533Y-107374501D01*
X161567547Y-107403594D01*
X161567540Y-107403595D01*
X161567537Y-107403596D01*
X161432694Y-107439727D01*
X161352219Y-107461290D01*
X161352209Y-107461293D01*
X161146277Y-107546593D01*
X161146273Y-107546595D01*
X160953226Y-107658052D01*
X160953217Y-107658058D01*
X160776377Y-107793751D01*
X160776370Y-107793757D01*
X160618757Y-107951370D01*
X160618751Y-107951377D01*
X160483058Y-108128217D01*
X160483052Y-108128226D01*
X160371595Y-108321273D01*
X160371593Y-108321277D01*
X160286293Y-108527209D01*
X160286290Y-108527219D01*
X160228597Y-108742534D01*
X160228594Y-108742547D01*
X160199501Y-108963533D01*
X160199500Y-108963549D01*
X146040764Y-108963549D01*
X145993659Y-108932074D01*
X145993650Y-108932069D01*
X145861620Y-108877381D01*
X145861614Y-108877379D01*
X145721457Y-108849500D01*
X145721455Y-108849500D01*
X145578545Y-108849500D01*
X145578543Y-108849500D01*
X145438385Y-108877379D01*
X145438379Y-108877381D01*
X145306349Y-108932069D01*
X145306340Y-108932074D01*
X145187521Y-109011467D01*
X145187517Y-109011470D01*
X145086470Y-109112517D01*
X145019959Y-109212057D01*
X145017572Y-109215501D01*
X145008571Y-109228031D01*
X144950401Y-109339729D01*
X144933116Y-109376451D01*
X144932384Y-109378183D01*
X144917921Y-109416716D01*
X144909127Y-109443400D01*
X144905879Y-109449293D01*
X144905413Y-109453244D01*
X144887084Y-109483406D01*
X144866315Y-109508630D01*
X144858270Y-109517492D01*
X144451330Y-109924434D01*
X144390007Y-109957919D01*
X144320316Y-109952935D01*
X144310093Y-109948591D01*
X144271553Y-109930135D01*
X144244785Y-109918650D01*
X144233186Y-109913673D01*
X144231388Y-109912988D01*
X144191640Y-109899704D01*
X144191639Y-109899703D01*
X144191634Y-109899702D01*
X144096298Y-109872177D01*
X144076401Y-109866868D01*
X144075480Y-109866643D01*
X144075477Y-109866642D01*
X144002397Y-109854326D01*
X144001421Y-109854269D01*
X143984545Y-109852103D01*
X143971458Y-109849500D01*
X143971455Y-109849500D01*
X143828545Y-109849500D01*
X143828543Y-109849500D01*
X143688385Y-109877379D01*
X143688379Y-109877381D01*
X143556349Y-109932069D01*
X143556340Y-109932074D01*
X143437521Y-110011467D01*
X143437517Y-110011470D01*
X143336470Y-110112517D01*
X143336467Y-110112521D01*
X143257074Y-110231340D01*
X143257069Y-110231349D01*
X143202381Y-110363379D01*
X143202379Y-110363385D01*
X143174500Y-110503542D01*
X143174500Y-110503545D01*
X143174500Y-110646455D01*
X143174500Y-110646457D01*
X143174499Y-110646457D01*
X140299789Y-110646457D01*
X140403726Y-110603405D01*
X140596774Y-110491948D01*
X140773624Y-110356247D01*
X140931247Y-110198624D01*
X141066948Y-110021774D01*
X141178405Y-109828726D01*
X141263710Y-109622781D01*
X141321404Y-109407463D01*
X141350500Y-109186457D01*
X141350500Y-108963543D01*
X141321404Y-108742537D01*
X141263710Y-108527219D01*
X141178405Y-108321274D01*
X141066948Y-108128226D01*
X140987932Y-108025250D01*
X140931248Y-107951377D01*
X140931242Y-107951370D01*
X140773629Y-107793757D01*
X140773622Y-107793751D01*
X140596782Y-107658058D01*
X140596780Y-107658057D01*
X140596774Y-107658052D01*
X140403726Y-107546595D01*
X140403722Y-107546593D01*
X140197790Y-107461293D01*
X140197783Y-107461291D01*
X140197781Y-107461290D01*
X139982463Y-107403596D01*
X139982457Y-107403595D01*
X139982452Y-107403594D01*
X139761466Y-107374501D01*
X139761463Y-107374500D01*
X139761457Y-107374500D01*
X139538543Y-107374500D01*
X139538537Y-107374500D01*
X139538533Y-107374501D01*
X139317547Y-107403594D01*
X139317540Y-107403595D01*
X139317537Y-107403596D01*
X139182694Y-107439727D01*
X139102219Y-107461290D01*
X139102209Y-107461293D01*
X138896277Y-107546593D01*
X138896273Y-107546595D01*
X138703226Y-107658052D01*
X138703217Y-107658058D01*
X138526377Y-107793751D01*
X138526370Y-107793757D01*
X138368757Y-107951370D01*
X138368751Y-107951377D01*
X138233058Y-108128217D01*
X138233052Y-108128226D01*
X138121595Y-108321273D01*
X138121593Y-108321277D01*
X138036293Y-108527209D01*
X138036290Y-108527219D01*
X137978597Y-108742534D01*
X137978594Y-108742547D01*
X137949501Y-108963533D01*
X137949500Y-108963549D01*
X134650500Y-108963549D01*
X134650500Y-98418713D01*
X140639500Y-98418713D01*
X140639500Y-98631286D01*
X140672753Y-98841239D01*
X140738444Y-99043414D01*
X140834951Y-99232820D01*
X140959890Y-99404786D01*
X141110213Y-99555109D01*
X141282179Y-99680048D01*
X141282181Y-99680049D01*
X141282184Y-99680051D01*
X141471588Y-99776557D01*
X141673757Y-99842246D01*
X141883713Y-99875500D01*
X141883714Y-99875500D01*
X142096286Y-99875500D01*
X142096287Y-99875500D01*
X142306243Y-99842246D01*
X142508412Y-99776557D01*
X142697816Y-99680051D01*
X142719789Y-99664086D01*
X142869786Y-99555109D01*
X142869788Y-99555106D01*
X142869792Y-99555104D01*
X143020104Y-99404792D01*
X143020106Y-99404788D01*
X143020109Y-99404786D01*
X143145048Y-99232820D01*
X143145047Y-99232820D01*
X143145051Y-99232816D01*
X143149514Y-99224054D01*
X143197488Y-99173259D01*
X143265308Y-99156463D01*
X143331444Y-99178999D01*
X143370486Y-99224056D01*
X143374951Y-99232820D01*
X143499890Y-99404786D01*
X143650213Y-99555109D01*
X143822182Y-99680050D01*
X143830946Y-99684516D01*
X143881742Y-99732491D01*
X143898536Y-99800312D01*
X143875998Y-99866447D01*
X143830946Y-99905484D01*
X143822182Y-99909949D01*
X143650213Y-100034890D01*
X143499890Y-100185213D01*
X143374951Y-100357179D01*
X143278444Y-100546585D01*
X143212753Y-100748760D01*
X143179500Y-100958713D01*
X143179500Y-101171286D01*
X143212753Y-101381239D01*
X143278444Y-101583414D01*
X143374951Y-101772820D01*
X143499890Y-101944786D01*
X143650213Y-102095109D01*
X143822179Y-102220048D01*
X143822181Y-102220049D01*
X143822184Y-102220051D01*
X144011588Y-102316557D01*
X144213757Y-102382246D01*
X144423713Y-102415500D01*
X144423714Y-102415500D01*
X144636286Y-102415500D01*
X144636287Y-102415500D01*
X144846243Y-102382246D01*
X145048412Y-102316557D01*
X145237816Y-102220051D01*
X145331974Y-102151642D01*
X145409786Y-102095109D01*
X145409788Y-102095106D01*
X145409792Y-102095104D01*
X145560104Y-101944792D01*
X145575181Y-101924039D01*
X145600167Y-101904772D01*
X145623989Y-101884131D01*
X145627611Y-101883610D01*
X145630511Y-101881374D01*
X145661932Y-101878675D01*
X145693147Y-101874187D01*
X145696477Y-101875708D01*
X145700124Y-101875395D01*
X145728010Y-101890108D01*
X145756703Y-101903212D01*
X145758682Y-101906291D01*
X145761920Y-101908000D01*
X145777426Y-101935458D01*
X145794477Y-101961990D01*
X145795183Y-101966902D01*
X145796277Y-101968839D01*
X145799500Y-101996925D01*
X145799500Y-102159445D01*
X145799477Y-102161843D01*
X145794826Y-102402251D01*
X145794750Y-102407662D01*
X145794749Y-102407823D01*
X145797627Y-102466332D01*
X145798116Y-102469578D01*
X145799500Y-102488050D01*
X145799500Y-105538330D01*
X145799499Y-105538348D01*
X145799499Y-105704054D01*
X145799498Y-105704054D01*
X145840423Y-105856786D01*
X145840424Y-105856787D01*
X145860681Y-105891873D01*
X145916402Y-105988385D01*
X145919481Y-105993717D01*
X146038349Y-106112585D01*
X146038355Y-106112590D01*
X146215139Y-106289374D01*
X146215149Y-106289385D01*
X146219479Y-106293715D01*
X146219480Y-106293716D01*
X146331284Y-106405520D01*
X146418095Y-106455639D01*
X146418097Y-106455641D01*
X146456151Y-106477611D01*
X146468215Y-106484577D01*
X146620943Y-106525500D01*
X149199903Y-106525500D01*
X149266942Y-106545185D01*
X149287584Y-106561819D01*
X149512683Y-106786918D01*
X149546168Y-106848241D01*
X149549002Y-106874599D01*
X149549002Y-107662832D01*
X149549001Y-107662850D01*
X149549001Y-107828556D01*
X149549000Y-107828556D01*
X149589925Y-107981287D01*
X149618862Y-108031406D01*
X149668982Y-108118218D01*
X149728007Y-108177243D01*
X149733457Y-108184593D01*
X149733985Y-108186030D01*
X149737343Y-108190145D01*
X149745261Y-108202142D01*
X149758720Y-108229232D01*
X149781288Y-108293273D01*
X149796862Y-108332230D01*
X149797646Y-108333976D01*
X149816270Y-108371282D01*
X149864236Y-108458186D01*
X149874429Y-108475803D01*
X149874907Y-108476592D01*
X149874919Y-108476610D01*
X149918007Y-108537192D01*
X149918647Y-108537913D01*
X149929052Y-108551381D01*
X149936468Y-108562479D01*
X149936469Y-108562480D01*
X149936472Y-108562484D01*
X150037517Y-108663529D01*
X150037521Y-108663532D01*
X150156340Y-108742925D01*
X150156346Y-108742928D01*
X150156347Y-108742929D01*
X150288380Y-108797619D01*
X150288384Y-108797619D01*
X150288385Y-108797620D01*
X150428542Y-108825500D01*
X150428545Y-108825500D01*
X150571457Y-108825500D01*
X150665751Y-108806742D01*
X150711620Y-108797619D01*
X150843653Y-108742929D01*
X150962479Y-108663532D01*
X151063532Y-108562479D01*
X151142929Y-108443653D01*
X151197619Y-108311620D01*
X151214979Y-108224348D01*
X151225500Y-108171457D01*
X151225500Y-108028542D01*
X151197620Y-107888385D01*
X151197619Y-107888384D01*
X151197619Y-107888380D01*
X151142929Y-107756347D01*
X151142928Y-107756346D01*
X151142925Y-107756340D01*
X151063532Y-107637521D01*
X151063529Y-107637517D01*
X150962479Y-107536467D01*
X150865879Y-107471921D01*
X150865865Y-107471912D01*
X150861184Y-107468785D01*
X150846967Y-107458572D01*
X150813905Y-107441353D01*
X150811139Y-107439727D01*
X150789329Y-107416481D01*
X150766359Y-107394397D01*
X150765470Y-107391051D01*
X150763332Y-107388773D01*
X150759857Y-107369931D01*
X150750002Y-107332843D01*
X150750002Y-106663562D01*
X150750003Y-106663549D01*
X150750003Y-106495446D01*
X150739337Y-106455641D01*
X150709079Y-106342718D01*
X150680786Y-106293713D01*
X150630026Y-106205792D01*
X150630020Y-106205784D01*
X149987590Y-105563355D01*
X149987588Y-105563352D01*
X149868717Y-105444481D01*
X149868709Y-105444475D01*
X149779923Y-105393215D01*
X149779922Y-105393215D01*
X149731785Y-105365423D01*
X149579057Y-105324499D01*
X149420943Y-105324499D01*
X149413347Y-105324499D01*
X149413331Y-105324500D01*
X147124500Y-105324500D01*
X147057461Y-105304815D01*
X147011706Y-105252011D01*
X147000500Y-105200500D01*
X147000500Y-102580821D01*
X147020185Y-102513782D01*
X147072989Y-102468027D01*
X147102188Y-102458845D01*
X147113279Y-102456816D01*
X147191645Y-102442481D01*
X147206554Y-102439521D01*
X147207259Y-102439370D01*
X147209827Y-102438777D01*
X147222733Y-102435801D01*
X147222756Y-102435795D01*
X147222779Y-102435790D01*
X147364855Y-102400644D01*
X147392424Y-102392990D01*
X147393679Y-102392603D01*
X147420370Y-102383550D01*
X147567008Y-102329211D01*
X147602195Y-102314642D01*
X147603801Y-102313905D01*
X147637997Y-102296614D01*
X147757138Y-102230586D01*
X147777816Y-102220051D01*
X147784512Y-102215185D01*
X147794353Y-102209461D01*
X147795176Y-102208959D01*
X147855837Y-102165507D01*
X147855841Y-102165502D01*
X147860854Y-102161018D01*
X147861173Y-102161374D01*
X147871963Y-102151648D01*
X147949792Y-102095104D01*
X148100104Y-101944792D01*
X148100106Y-101944788D01*
X148100109Y-101944786D01*
X148225048Y-101772820D01*
X148225047Y-101772820D01*
X148225051Y-101772816D01*
X148229514Y-101764054D01*
X148277488Y-101713259D01*
X148345308Y-101696463D01*
X148411444Y-101718999D01*
X148450486Y-101764056D01*
X148454951Y-101772820D01*
X148579890Y-101944786D01*
X148730213Y-102095109D01*
X148902179Y-102220048D01*
X148902181Y-102220049D01*
X148902184Y-102220051D01*
X149091588Y-102316557D01*
X149293757Y-102382246D01*
X149503713Y-102415500D01*
X149503714Y-102415500D01*
X149716286Y-102415500D01*
X149716287Y-102415500D01*
X149926243Y-102382246D01*
X150128412Y-102316557D01*
X150317816Y-102220051D01*
X150411974Y-102151642D01*
X150489786Y-102095109D01*
X150489788Y-102095106D01*
X150489792Y-102095104D01*
X150640104Y-101944792D01*
X150640106Y-101944788D01*
X150640109Y-101944786D01*
X150765048Y-101772820D01*
X150765047Y-101772820D01*
X150765051Y-101772816D01*
X150769514Y-101764054D01*
X150817488Y-101713259D01*
X150885308Y-101696463D01*
X150951444Y-101718999D01*
X150990486Y-101764056D01*
X150994951Y-101772820D01*
X151119890Y-101944786D01*
X151270213Y-102095109D01*
X151442179Y-102220048D01*
X151442181Y-102220049D01*
X151442184Y-102220051D01*
X151631588Y-102316557D01*
X151833757Y-102382246D01*
X152043713Y-102415500D01*
X152043714Y-102415500D01*
X152256286Y-102415500D01*
X152256287Y-102415500D01*
X152466243Y-102382246D01*
X152668412Y-102316557D01*
X152857816Y-102220051D01*
X152951974Y-102151642D01*
X153029786Y-102095109D01*
X153029788Y-102095106D01*
X153029792Y-102095104D01*
X153180104Y-101944792D01*
X153180106Y-101944788D01*
X153180109Y-101944786D01*
X153305048Y-101772820D01*
X153305047Y-101772820D01*
X153305051Y-101772816D01*
X153309514Y-101764054D01*
X153357488Y-101713259D01*
X153425308Y-101696463D01*
X153491444Y-101718999D01*
X153530486Y-101764056D01*
X153534951Y-101772820D01*
X153659890Y-101944786D01*
X153810213Y-102095109D01*
X153982179Y-102220048D01*
X153982181Y-102220049D01*
X153982184Y-102220051D01*
X154171588Y-102316557D01*
X154373757Y-102382246D01*
X154583713Y-102415500D01*
X154583714Y-102415500D01*
X154796286Y-102415500D01*
X154796287Y-102415500D01*
X155006243Y-102382246D01*
X155208412Y-102316557D01*
X155397816Y-102220051D01*
X155491974Y-102151642D01*
X155569786Y-102095109D01*
X155569788Y-102095106D01*
X155569792Y-102095104D01*
X155720104Y-101944792D01*
X155735181Y-101924039D01*
X155760167Y-101904772D01*
X155783989Y-101884131D01*
X155787611Y-101883610D01*
X155790511Y-101881374D01*
X155821932Y-101878675D01*
X155853147Y-101874187D01*
X155856477Y-101875708D01*
X155860124Y-101875395D01*
X155888010Y-101890108D01*
X155916703Y-101903212D01*
X155918682Y-101906291D01*
X155921920Y-101908000D01*
X155937426Y-101935458D01*
X155954477Y-101961990D01*
X155955183Y-101966902D01*
X155956277Y-101968839D01*
X155959500Y-101996925D01*
X155959500Y-102159445D01*
X155959477Y-102161843D01*
X155954826Y-102402251D01*
X155954750Y-102407662D01*
X155954749Y-102407823D01*
X155957627Y-102466332D01*
X155958116Y-102469578D01*
X155959500Y-102488050D01*
X155959500Y-102540500D01*
X155939815Y-102607539D01*
X155887011Y-102653294D01*
X155835500Y-102664500D01*
X152980942Y-102664500D01*
X152828214Y-102705423D01*
X152804146Y-102719319D01*
X152780078Y-102733215D01*
X152780077Y-102733215D01*
X152691290Y-102784475D01*
X152691282Y-102784481D01*
X152119481Y-103356282D01*
X152119479Y-103356285D01*
X152069361Y-103443094D01*
X152069359Y-103443096D01*
X152040425Y-103493209D01*
X152040424Y-103493210D01*
X152040423Y-103493215D01*
X151999499Y-103645943D01*
X151999499Y-103645945D01*
X151999499Y-103814046D01*
X151999500Y-103814059D01*
X151999500Y-105461957D01*
X151979815Y-105528996D01*
X151944391Y-105565059D01*
X151837521Y-105636467D01*
X151837517Y-105636470D01*
X151736470Y-105737517D01*
X151736467Y-105737521D01*
X151657074Y-105856340D01*
X151657069Y-105856349D01*
X151602381Y-105988379D01*
X151602379Y-105988385D01*
X151574500Y-106128542D01*
X151574500Y-106128545D01*
X151574500Y-106271455D01*
X151574500Y-106271457D01*
X151574499Y-106271457D01*
X151602379Y-106411614D01*
X151602381Y-106411620D01*
X151657069Y-106543650D01*
X151657074Y-106543659D01*
X151736467Y-106662478D01*
X151736470Y-106662482D01*
X151837517Y-106763529D01*
X151837521Y-106763532D01*
X151956340Y-106842925D01*
X151956346Y-106842928D01*
X151956347Y-106842929D01*
X152088380Y-106897619D01*
X152088384Y-106897619D01*
X152088385Y-106897620D01*
X152228542Y-106925500D01*
X152228545Y-106925500D01*
X152371457Y-106925500D01*
X152465751Y-106906742D01*
X152511620Y-106897619D01*
X152643653Y-106842929D01*
X152762479Y-106763532D01*
X152863532Y-106662479D01*
X152942929Y-106543653D01*
X152997619Y-106411620D01*
X153005179Y-106373608D01*
X153025324Y-106326531D01*
X153031505Y-106317729D01*
X153080520Y-106268716D01*
X153145143Y-106156785D01*
X153159577Y-106131785D01*
X153200500Y-105979057D01*
X153200500Y-105820943D01*
X153200500Y-104025097D01*
X153209144Y-103995656D01*
X153215668Y-103965670D01*
X153219422Y-103960654D01*
X153220185Y-103958058D01*
X153236819Y-103937416D01*
X153272416Y-103901819D01*
X153333739Y-103868334D01*
X153360097Y-103865500D01*
X156173331Y-103865500D01*
X156173347Y-103865501D01*
X156180943Y-103865501D01*
X156339054Y-103865501D01*
X156339057Y-103865501D01*
X156491785Y-103824577D01*
X156541904Y-103795639D01*
X156628716Y-103745520D01*
X156740520Y-103633716D01*
X156740520Y-103633714D01*
X156750728Y-103623507D01*
X156750730Y-103623504D01*
X156918506Y-103455728D01*
X156918511Y-103455724D01*
X156928714Y-103445520D01*
X156928716Y-103445520D01*
X157040520Y-103333716D01*
X157092040Y-103244480D01*
X157092042Y-103244478D01*
X157119574Y-103196790D01*
X157119573Y-103196790D01*
X157119577Y-103196785D01*
X157160500Y-103044057D01*
X157160500Y-102885943D01*
X157160500Y-102580821D01*
X157180185Y-102513782D01*
X157232989Y-102468027D01*
X157262188Y-102458845D01*
X157273279Y-102456816D01*
X157351645Y-102442481D01*
X157366554Y-102439521D01*
X157367259Y-102439370D01*
X157369827Y-102438777D01*
X157382733Y-102435801D01*
X157382756Y-102435795D01*
X157382779Y-102435790D01*
X157524855Y-102400644D01*
X157552424Y-102392990D01*
X157553679Y-102392603D01*
X157580370Y-102383550D01*
X157727008Y-102329211D01*
X157762195Y-102314642D01*
X157763801Y-102313905D01*
X157797997Y-102296614D01*
X157917138Y-102230586D01*
X157937816Y-102220051D01*
X157944512Y-102215185D01*
X157954353Y-102209461D01*
X157955176Y-102208959D01*
X158015837Y-102165507D01*
X158015841Y-102165502D01*
X158020854Y-102161018D01*
X158021173Y-102161374D01*
X158031963Y-102151648D01*
X158109792Y-102095104D01*
X158260104Y-101944792D01*
X158260106Y-101944788D01*
X158260109Y-101944786D01*
X158385048Y-101772820D01*
X158385047Y-101772820D01*
X158385051Y-101772816D01*
X158389514Y-101764054D01*
X158437488Y-101713259D01*
X158505308Y-101696463D01*
X158571444Y-101718999D01*
X158610486Y-101764056D01*
X158614951Y-101772820D01*
X158739890Y-101944786D01*
X158890213Y-102095109D01*
X159062179Y-102220048D01*
X159062181Y-102220049D01*
X159062184Y-102220051D01*
X159251588Y-102316557D01*
X159453757Y-102382246D01*
X159663713Y-102415500D01*
X159663714Y-102415500D01*
X159876286Y-102415500D01*
X159876287Y-102415500D01*
X160086243Y-102382246D01*
X160288412Y-102316557D01*
X160477816Y-102220051D01*
X160571974Y-102151642D01*
X160649786Y-102095109D01*
X160649788Y-102095106D01*
X160649792Y-102095104D01*
X160800104Y-101944792D01*
X160800106Y-101944788D01*
X160800109Y-101944786D01*
X160925048Y-101772820D01*
X160925047Y-101772820D01*
X160925051Y-101772816D01*
X161021557Y-101583412D01*
X161087246Y-101381243D01*
X161120500Y-101171287D01*
X161120500Y-100958713D01*
X161087246Y-100748757D01*
X161021557Y-100546588D01*
X160925051Y-100357184D01*
X160925049Y-100357181D01*
X160925048Y-100357179D01*
X160800109Y-100185213D01*
X160649786Y-100034890D01*
X160477820Y-99909951D01*
X160477115Y-99909591D01*
X160469054Y-99905485D01*
X160418259Y-99857512D01*
X160401463Y-99789692D01*
X160423999Y-99723556D01*
X160469054Y-99684515D01*
X160477816Y-99680051D01*
X160499789Y-99664086D01*
X160649786Y-99555109D01*
X160649788Y-99555106D01*
X160649792Y-99555104D01*
X160800104Y-99404792D01*
X160800106Y-99404788D01*
X160800109Y-99404786D01*
X160925048Y-99232820D01*
X160925047Y-99232820D01*
X160925051Y-99232816D01*
X161021557Y-99043412D01*
X161087246Y-98841243D01*
X161120500Y-98631287D01*
X161120500Y-98418713D01*
X161087246Y-98208757D01*
X161021557Y-98006588D01*
X160925051Y-97817184D01*
X160925049Y-97817181D01*
X160925048Y-97817179D01*
X160800109Y-97645213D01*
X160649786Y-97494890D01*
X160477820Y-97369951D01*
X160288414Y-97273444D01*
X160288413Y-97273443D01*
X160288412Y-97273443D01*
X160086243Y-97207754D01*
X160086241Y-97207753D01*
X160086240Y-97207753D01*
X159924957Y-97182208D01*
X159876287Y-97174500D01*
X159663713Y-97174500D01*
X159615042Y-97182208D01*
X159453760Y-97207753D01*
X159251585Y-97273444D01*
X159062179Y-97369951D01*
X158890213Y-97494890D01*
X158739890Y-97645213D01*
X158614949Y-97817182D01*
X158610484Y-97825946D01*
X158562509Y-97876742D01*
X158494688Y-97893536D01*
X158428553Y-97870998D01*
X158389516Y-97825946D01*
X158385050Y-97817182D01*
X158260109Y-97645213D01*
X158109786Y-97494890D01*
X157937820Y-97369951D01*
X157748414Y-97273444D01*
X157748413Y-97273443D01*
X157748412Y-97273443D01*
X157546243Y-97207754D01*
X157546241Y-97207753D01*
X157546240Y-97207753D01*
X157384957Y-97182208D01*
X157336287Y-97174500D01*
X157123713Y-97174500D01*
X157075042Y-97182208D01*
X156913760Y-97207753D01*
X156711585Y-97273444D01*
X156522179Y-97369951D01*
X156350213Y-97494890D01*
X156199890Y-97645213D01*
X156074949Y-97817182D01*
X156070484Y-97825946D01*
X156022509Y-97876742D01*
X155954688Y-97893536D01*
X155888553Y-97870998D01*
X155849516Y-97825946D01*
X155845050Y-97817182D01*
X155720109Y-97645213D01*
X155569786Y-97494890D01*
X155397820Y-97369951D01*
X155208414Y-97273444D01*
X155208413Y-97273443D01*
X155208412Y-97273443D01*
X155006243Y-97207754D01*
X155006241Y-97207753D01*
X155006240Y-97207753D01*
X154844957Y-97182208D01*
X154796287Y-97174500D01*
X154583713Y-97174500D01*
X154535042Y-97182208D01*
X154373760Y-97207753D01*
X154171585Y-97273444D01*
X153982179Y-97369951D01*
X153810213Y-97494890D01*
X153659890Y-97645213D01*
X153534949Y-97817182D01*
X153530484Y-97825946D01*
X153482509Y-97876742D01*
X153414688Y-97893536D01*
X153348553Y-97870998D01*
X153309516Y-97825946D01*
X153305050Y-97817182D01*
X153180109Y-97645213D01*
X153029786Y-97494890D01*
X152857820Y-97369951D01*
X152668414Y-97273444D01*
X152668413Y-97273443D01*
X152668412Y-97273443D01*
X152466243Y-97207754D01*
X152466241Y-97207753D01*
X152466240Y-97207753D01*
X152304957Y-97182208D01*
X152256287Y-97174500D01*
X152043713Y-97174500D01*
X151995042Y-97182208D01*
X151833760Y-97207753D01*
X151631585Y-97273444D01*
X151442179Y-97369951D01*
X151270213Y-97494890D01*
X151119890Y-97645213D01*
X150994949Y-97817182D01*
X150990484Y-97825946D01*
X150942509Y-97876742D01*
X150874688Y-97893536D01*
X150808553Y-97870998D01*
X150769516Y-97825946D01*
X150765050Y-97817182D01*
X150640109Y-97645213D01*
X150489786Y-97494890D01*
X150317820Y-97369951D01*
X150128414Y-97273444D01*
X150128413Y-97273443D01*
X150128412Y-97273443D01*
X149926243Y-97207754D01*
X149926241Y-97207753D01*
X149926240Y-97207753D01*
X149764957Y-97182208D01*
X149716287Y-97174500D01*
X149503713Y-97174500D01*
X149455042Y-97182208D01*
X149293760Y-97207753D01*
X149091585Y-97273444D01*
X148902179Y-97369951D01*
X148730213Y-97494890D01*
X148579890Y-97645213D01*
X148454949Y-97817182D01*
X148450484Y-97825946D01*
X148402509Y-97876742D01*
X148334688Y-97893536D01*
X148268553Y-97870998D01*
X148229516Y-97825946D01*
X148225050Y-97817182D01*
X148100109Y-97645213D01*
X147949786Y-97494890D01*
X147777820Y-97369951D01*
X147588414Y-97273444D01*
X147588413Y-97273443D01*
X147588412Y-97273443D01*
X147386243Y-97207754D01*
X147386241Y-97207753D01*
X147386240Y-97207753D01*
X147224957Y-97182208D01*
X147176287Y-97174500D01*
X146963713Y-97174500D01*
X146915042Y-97182208D01*
X146753760Y-97207753D01*
X146551585Y-97273444D01*
X146362179Y-97369951D01*
X146190213Y-97494890D01*
X146039890Y-97645213D01*
X145914949Y-97817182D01*
X145910484Y-97825946D01*
X145862509Y-97876742D01*
X145794688Y-97893536D01*
X145728553Y-97870998D01*
X145689516Y-97825946D01*
X145685050Y-97817182D01*
X145560109Y-97645213D01*
X145409786Y-97494890D01*
X145237820Y-97369951D01*
X145048414Y-97273444D01*
X145048413Y-97273443D01*
X145048412Y-97273443D01*
X144846243Y-97207754D01*
X144846241Y-97207753D01*
X144846240Y-97207753D01*
X144684957Y-97182208D01*
X144636287Y-97174500D01*
X144423713Y-97174500D01*
X144375042Y-97182208D01*
X144213760Y-97207753D01*
X144011585Y-97273444D01*
X143822179Y-97369951D01*
X143650213Y-97494890D01*
X143499890Y-97645213D01*
X143374949Y-97817182D01*
X143370484Y-97825946D01*
X143322509Y-97876742D01*
X143254688Y-97893536D01*
X143188553Y-97870998D01*
X143149516Y-97825946D01*
X143145050Y-97817182D01*
X143020109Y-97645213D01*
X142869786Y-97494890D01*
X142697820Y-97369951D01*
X142508414Y-97273444D01*
X142508413Y-97273443D01*
X142508412Y-97273443D01*
X142306243Y-97207754D01*
X142306241Y-97207753D01*
X142306240Y-97207753D01*
X142144957Y-97182208D01*
X142096287Y-97174500D01*
X141883713Y-97174500D01*
X141835042Y-97182208D01*
X141673760Y-97207753D01*
X141471585Y-97273444D01*
X141282179Y-97369951D01*
X141110213Y-97494890D01*
X140959890Y-97645213D01*
X140834951Y-97817179D01*
X140738444Y-98006585D01*
X140672753Y-98208760D01*
X140639500Y-98418713D01*
X134650500Y-98418713D01*
X134650500Y-95328479D01*
X134650695Y-95321527D01*
X134665910Y-95050588D01*
X134665911Y-95050586D01*
X134665911Y-95050575D01*
X134666619Y-95042596D01*
X134674170Y-94980403D01*
X134674998Y-94974719D01*
X134715026Y-94739129D01*
X134716861Y-94730302D01*
X134730276Y-94675877D01*
X134731477Y-94671382D01*
X134799723Y-94434493D01*
X134802911Y-94424923D01*
X134817918Y-94385352D01*
X134819250Y-94381995D01*
X134919079Y-94140985D01*
X134923822Y-94130858D01*
X134930514Y-94118108D01*
X134931684Y-94115936D01*
X135068564Y-93868270D01*
X135075959Y-93856502D01*
X135075961Y-93856499D01*
X135246330Y-93616385D01*
X135254985Y-93605531D01*
X135451179Y-93385991D01*
X135460991Y-93376179D01*
X135680531Y-93179985D01*
X135691385Y-93171330D01*
X135931506Y-93000956D01*
X135943270Y-92993564D01*
X136190936Y-92856684D01*
X136193108Y-92855514D01*
X136205858Y-92848822D01*
X136215985Y-92844079D01*
X136456995Y-92744250D01*
X136460352Y-92742918D01*
X136499923Y-92727911D01*
X136509493Y-92724723D01*
X136746382Y-92656477D01*
X136750877Y-92655276D01*
X136805302Y-92641861D01*
X136814129Y-92640026D01*
X137049719Y-92599998D01*
X137055403Y-92599170D01*
X137117607Y-92591617D01*
X137125575Y-92590911D01*
X137396528Y-92575695D01*
X137403480Y-92575500D01*
X164146520Y-92575500D01*
X164153472Y-92575695D01*
G37*
%TD.AperFunction*%
%TD*%
%TA.AperFunction,Conductor*%
%TO.N,INT2*%
G36*
X147071104Y-101067273D02*
G01*
X147074347Y-101070515D01*
X147535182Y-101761179D01*
X147536924Y-101769963D01*
X147531944Y-101777405D01*
X147531121Y-101777907D01*
X147392965Y-101854472D01*
X147391359Y-101855209D01*
X147244721Y-101909548D01*
X147243466Y-101909935D01*
X147101390Y-101945081D01*
X147100685Y-101945232D01*
X146966221Y-101969829D01*
X146966122Y-101969847D01*
X146907243Y-101980094D01*
X146743432Y-102018643D01*
X146639655Y-102068486D01*
X146567518Y-102140284D01*
X146539938Y-102189846D01*
X146519226Y-102249752D01*
X146504902Y-102329047D01*
X146500573Y-102412887D01*
X146496724Y-102420973D01*
X146488889Y-102423984D01*
X146311929Y-102423984D01*
X146303656Y-102420557D01*
X146300229Y-102412284D01*
X146300231Y-102412058D01*
X146305488Y-102140283D01*
X146307489Y-102036848D01*
X146310075Y-101956890D01*
X146306133Y-101686267D01*
X146306132Y-101686259D01*
X146306132Y-101686252D01*
X146283352Y-101493097D01*
X146283346Y-101493056D01*
X146238356Y-101242112D01*
X146240269Y-101233366D01*
X146247573Y-101228577D01*
X147062321Y-101065536D01*
X147071104Y-101067273D01*
G37*
%TD.AperFunction*%
%TD*%
%TA.AperFunction,Conductor*%
%TO.N,INT2*%
G36*
X150263813Y-107721497D02*
G01*
X150307026Y-107760019D01*
X150312608Y-107764995D01*
X150344320Y-107785846D01*
X150361446Y-107797108D01*
X150449719Y-107831430D01*
X150499303Y-107847772D01*
X150500046Y-107848017D01*
X150501788Y-107848752D01*
X150613479Y-107906918D01*
X150619234Y-107913779D01*
X150618452Y-107922699D01*
X150617831Y-107923753D01*
X150502020Y-108098722D01*
X150498722Y-108102020D01*
X150323493Y-108218004D01*
X150314703Y-108219713D01*
X150307279Y-108214706D01*
X150306792Y-108213902D01*
X150258843Y-108127028D01*
X150258051Y-108125263D01*
X150249860Y-108102020D01*
X150231430Y-108049719D01*
X150198624Y-107964276D01*
X150166230Y-107914215D01*
X150159750Y-107906918D01*
X150121471Y-107863814D01*
X150118540Y-107855353D01*
X150121945Y-107847773D01*
X150247759Y-107721959D01*
X150256031Y-107718533D01*
X150263813Y-107721497D01*
G37*
%TD.AperFunction*%
%TD*%
%TA.AperFunction,Conductor*%
%TO.N,SDI*%
G36*
X157231104Y-101067273D02*
G01*
X157234347Y-101070515D01*
X157695182Y-101761179D01*
X157696924Y-101769963D01*
X157691944Y-101777405D01*
X157691121Y-101777907D01*
X157552965Y-101854472D01*
X157551359Y-101855209D01*
X157404721Y-101909548D01*
X157403466Y-101909935D01*
X157261390Y-101945081D01*
X157260685Y-101945232D01*
X157126221Y-101969829D01*
X157126122Y-101969847D01*
X157067243Y-101980094D01*
X156903432Y-102018643D01*
X156799655Y-102068486D01*
X156727518Y-102140284D01*
X156699938Y-102189846D01*
X156679226Y-102249752D01*
X156664902Y-102329047D01*
X156660573Y-102412887D01*
X156656724Y-102420973D01*
X156648889Y-102423984D01*
X156471929Y-102423984D01*
X156463656Y-102420557D01*
X156460229Y-102412284D01*
X156460231Y-102412058D01*
X156465488Y-102140283D01*
X156467489Y-102036848D01*
X156470075Y-101956890D01*
X156466133Y-101686267D01*
X156466132Y-101686259D01*
X156466132Y-101686252D01*
X156443352Y-101493097D01*
X156443346Y-101493056D01*
X156398356Y-101242112D01*
X156400269Y-101233366D01*
X156407573Y-101228577D01*
X157222321Y-101065536D01*
X157231104Y-101067273D01*
G37*
%TD.AperFunction*%
%TD*%
%TA.AperFunction,Conductor*%
%TO.N,GND*%
G36*
X143956075Y-110357839D02*
G01*
X144051421Y-110385367D01*
X144053219Y-110386052D01*
X144075110Y-110396535D01*
X144125438Y-110420636D01*
X144144982Y-110429335D01*
X144209077Y-110457866D01*
X144209080Y-110457866D01*
X144209081Y-110457867D01*
X144267377Y-110470357D01*
X144267382Y-110470358D01*
X144334669Y-110474347D01*
X144342725Y-110478257D01*
X144345677Y-110486026D01*
X144345677Y-110663952D01*
X144342250Y-110672225D01*
X144334647Y-110675633D01*
X144269388Y-110679378D01*
X144212148Y-110691205D01*
X144212146Y-110691205D01*
X144125456Y-110729356D01*
X144078143Y-110753212D01*
X144076391Y-110753924D01*
X143956285Y-110791772D01*
X143947365Y-110790990D01*
X143941610Y-110784129D01*
X143941307Y-110782959D01*
X143899474Y-110577329D01*
X143899474Y-110572670D01*
X143941367Y-110366747D01*
X143946374Y-110359325D01*
X143955165Y-110357616D01*
X143956075Y-110357839D01*
G37*
%TD.AperFunction*%
%TD*%
%TA.AperFunction,Conductor*%
%TO.N,GND*%
G36*
X145472699Y-109456547D02*
G01*
X145473753Y-109457168D01*
X145648722Y-109572979D01*
X145652020Y-109576277D01*
X145768004Y-109751507D01*
X145769713Y-109760296D01*
X145764706Y-109767720D01*
X145763902Y-109768207D01*
X145677029Y-109816155D01*
X145675264Y-109816947D01*
X145599727Y-109843565D01*
X145514276Y-109876374D01*
X145464217Y-109908768D01*
X145464206Y-109908777D01*
X145413814Y-109953528D01*
X145405352Y-109956459D01*
X145397772Y-109953053D01*
X145271960Y-109827241D01*
X145268533Y-109818968D01*
X145271498Y-109811185D01*
X145314993Y-109762394D01*
X145347108Y-109713554D01*
X145381430Y-109625281D01*
X145398018Y-109574948D01*
X145398752Y-109573211D01*
X145456918Y-109461520D01*
X145463779Y-109455765D01*
X145472699Y-109456547D01*
G37*
%TD.AperFunction*%
%TD*%
M02*
