M48
; DRILL file {KiCad 9.0.0} date 2025-03-07T07:21:22+0700
; FORMAT={-:-/ absolute / inch / decimal}
; #@! TF.CreationDate,2025-03-07T07:21:22+07:00
; #@! TF.GenerationSoftware,Kicad,Pcbnew,9.0.0
; #@! TF.FileFunction,Plated,1,2,PTH
FMAT,2
INCH
; #@! TA.AperFunction,Plated,PTH,ViaDrill
T1C0.0118
; #@! TA.AperFunction,Plated,PTH,ComponentDrill
T2C0.0394
%
G90
G05
T1
X5.6654Y-4.3533
X5.7343Y-4.314
X5.748Y-4.2413
X5.8902Y-4.3322
X5.9252Y-4.2559
X5.9961Y-4.1811
T2
X5.5902Y-3.8789
X5.5902Y-3.9789
X5.6902Y-3.8789
X5.6902Y-3.9789
X5.7902Y-3.8789
X5.7902Y-3.9789
X5.8902Y-3.8789
X5.8902Y-3.9789
X5.9902Y-3.8789
X5.9902Y-3.9789
X6.0902Y-3.8789
X6.0902Y-3.9789
X6.1902Y-3.8789
X6.1902Y-3.9789
X6.2902Y-3.8789
X6.2902Y-3.9789
M30
