%TF.GenerationSoftware,KiCad,Pcbnew,9.0.0*%
%TF.CreationDate,2025-03-07T07:21:17+07:00*%
%TF.ProjectId,IMU,494d552e-6b69-4636-9164-5f7063625858,rev?*%
%TF.SameCoordinates,Original*%
%TF.FileFunction,Copper,L1,Top*%
%TF.FilePolarity,Positive*%
%FSLAX46Y46*%
G04 Gerber Fmt 4.6, Leading zero omitted, Abs format (unit mm)*
G04 Created by KiCad (PCBNEW 9.0.0) date 2025-03-07 07:21:17*
%MOMM*%
%LPD*%
G01*
G04 APERTURE LIST*
G04 Aperture macros list*
%AMRoundRect*
0 Rectangle with rounded corners*
0 $1 Rounding radius*
0 $2 $3 $4 $5 $6 $7 $8 $9 X,Y pos of 4 corners*
0 Add a 4 corners polygon primitive as box body*
4,1,4,$2,$3,$4,$5,$6,$7,$8,$9,$2,$3,0*
0 Add four circle primitives for the rounded corners*
1,1,$1+$1,$2,$3*
1,1,$1+$1,$4,$5*
1,1,$1+$1,$6,$7*
1,1,$1+$1,$8,$9*
0 Add four rect primitives between the rounded corners*
20,1,$1+$1,$2,$3,$4,$5,0*
20,1,$1+$1,$4,$5,$6,$7,0*
20,1,$1+$1,$6,$7,$8,$9,0*
20,1,$1+$1,$8,$9,$2,$3,0*%
G04 Aperture macros list end*
%TA.AperFunction,SMDPad,CuDef*%
%ADD10R,1.020000X1.470000*%
%TD*%
%TA.AperFunction,ComponentPad*%
%ADD11RoundRect,0.250000X0.600000X-0.600000X0.600000X0.600000X-0.600000X0.600000X-0.600000X-0.600000X0*%
%TD*%
%TA.AperFunction,ComponentPad*%
%ADD12C,1.700000*%
%TD*%
%TA.AperFunction,SMDPad,CuDef*%
%ADD13R,0.300000X0.600000*%
%TD*%
%TA.AperFunction,SMDPad,CuDef*%
%ADD14R,0.600000X0.300000*%
%TD*%
%TA.AperFunction,SMDPad,CuDef*%
%ADD15R,1.470000X1.020000*%
%TD*%
%TA.AperFunction,ViaPad*%
%ADD16C,0.450000*%
%TD*%
%TA.AperFunction,Conductor*%
%ADD17C,0.200000*%
%TD*%
%TA.AperFunction,Conductor*%
%ADD18C,0.250000*%
%TD*%
G04 APERTURE END LIST*
D10*
%TO.P,C1,1,1*%
%TO.N,GND*%
X152110000Y-111225000D03*
%TO.P,C1,2,2*%
%TO.N,+3.3V*%
X150490000Y-111225000D03*
%TD*%
D11*
%TO.P,J2,1,Pin_1*%
%TO.N,+3.3V*%
X141990000Y-101065000D03*
D12*
%TO.P,J2,2,Pin_2*%
%TO.N,GND*%
X141990000Y-98525000D03*
%TO.P,J2,3,Pin_3*%
%TO.N,CS*%
X144530000Y-101065000D03*
%TO.P,J2,4,Pin_4*%
%TO.N,GND*%
X144530000Y-98525000D03*
%TO.P,J2,5,Pin_5*%
%TO.N,INT2*%
X147070000Y-101065000D03*
%TO.P,J2,6,Pin_6*%
%TO.N,GND*%
X147070000Y-98525000D03*
%TO.P,J2,7,Pin_7*%
%TO.N,INT1*%
X149610000Y-101065000D03*
%TO.P,J2,8,Pin_8*%
%TO.N,GND*%
X149610000Y-98525000D03*
%TO.P,J2,9,Pin_9*%
%TO.N,SCLK*%
X152150000Y-101065000D03*
%TO.P,J2,10,Pin_10*%
%TO.N,GND*%
X152150000Y-98525000D03*
%TO.P,J2,11,Pin_11*%
%TO.N,SDO*%
X154690000Y-101065000D03*
%TO.P,J2,12,Pin_12*%
%TO.N,GND*%
X154690000Y-98525000D03*
%TO.P,J2,13,Pin_13*%
%TO.N,SDI*%
X157230000Y-101065000D03*
%TO.P,J2,14,Pin_14*%
%TO.N,GND*%
X157230000Y-98525000D03*
%TO.P,J2,15,Pin_15*%
%TO.N,unconnected-(J2-Pin_15-Pad15)*%
X159770000Y-101065000D03*
%TO.P,J2,16,Pin_16*%
%TO.N,GND*%
X159770000Y-98525000D03*
%TD*%
D13*
%TO.P,IC1,1,AP_SDO_/_AP_AD0*%
%TO.N,SDO*%
X151150000Y-106900000D03*
%TO.P,IC1,2,RESV_1*%
%TO.N,unconnected-(IC1-RESV_1-Pad2)*%
X150650000Y-106900000D03*
%TO.P,IC1,3,RESV_2*%
%TO.N,unconnected-(IC1-RESV_2-Pad3)*%
X150150000Y-106900000D03*
%TO.P,IC1,4,INT1_/_INT*%
%TO.N,INT1*%
X149650000Y-106900000D03*
D14*
%TO.P,IC1,5,VDDIO*%
%TO.N,+3.3V*%
X149500000Y-107550000D03*
%TO.P,IC1,6,GND*%
%TO.N,GND*%
X149500000Y-108050000D03*
%TO.P,IC1,7,RESV_3*%
%TO.N,unconnected-(IC1-RESV_3-Pad7)*%
X149500000Y-108550000D03*
D13*
%TO.P,IC1,8,VDD*%
%TO.N,+3.3V*%
X149650000Y-109200000D03*
%TO.P,IC1,9,INT2_/_FSYNC_/_CLKIN*%
%TO.N,INT2*%
X150150000Y-109200000D03*
%TO.P,IC1,10,RESV_4*%
%TO.N,unconnected-(IC1-RESV_4-Pad10)*%
X150650000Y-109200000D03*
%TO.P,IC1,11,RESV_5*%
%TO.N,unconnected-(IC1-RESV_5-Pad11)*%
X151150000Y-109200000D03*
D14*
%TO.P,IC1,12,AP_CS*%
%TO.N,CS*%
X151300000Y-108550000D03*
%TO.P,IC1,13,AP_SCL_/_AP_SCLK*%
%TO.N,SCLK*%
X151300000Y-108050000D03*
%TO.P,IC1,14,AP_SDA_/_AP_SDIO_/_AP_SDI*%
%TO.N,SDI*%
X151300000Y-107550000D03*
%TD*%
D10*
%TO.P,C2,1,1*%
%TO.N,GND*%
X147290000Y-111225000D03*
%TO.P,C2,2,2*%
%TO.N,+3.3V*%
X148910000Y-111225000D03*
%TD*%
D15*
%TO.P,C3,1,1*%
%TO.N,+3.3V*%
X147300000Y-107740000D03*
%TO.P,C3,2,2*%
%TO.N,GND*%
X147300000Y-109360000D03*
%TD*%
D16*
%TO.N,SDI*%
X152300000Y-106200000D03*
%TO.N,GND*%
X145650000Y-109575000D03*
X143900000Y-110575000D03*
%TO.N,+3.3V*%
X145998492Y-107729122D03*
X149611974Y-110036974D03*
%TO.N,INT2*%
X150500000Y-108100000D03*
%TD*%
D17*
%TO.N,INT2*%
X150150000Y-108450000D02*
X150150000Y-109200000D01*
X150500000Y-108100000D02*
X150150000Y-108450000D01*
D18*
%TO.N,SDI*%
X152300000Y-106700000D02*
X152300000Y-106200000D01*
X151450000Y-107550000D02*
X152300000Y-106700000D01*
X151300000Y-107550000D02*
X151450000Y-107550000D01*
%TO.N,GND*%
X147475000Y-112325000D02*
X151285000Y-112325000D01*
X147290000Y-109450000D02*
X147290000Y-112140000D01*
D17*
X148589841Y-109068104D02*
X148297945Y-109360000D01*
X148589841Y-108216707D02*
X148589841Y-109068104D01*
X152110000Y-111550000D02*
X152110000Y-111320953D01*
X145900000Y-109360000D02*
X145865000Y-109360000D01*
X148756548Y-108050000D02*
X148589841Y-108216707D01*
X149500000Y-108050000D02*
X148756548Y-108050000D01*
D18*
X147200000Y-109360000D02*
X147290000Y-109450000D01*
D17*
X145900000Y-109360000D02*
X147300000Y-109360000D01*
X145865000Y-109360000D02*
X145650000Y-109575000D01*
D18*
X152110000Y-111500000D02*
X152110000Y-111225000D01*
X147290000Y-112140000D02*
X147475000Y-112325000D01*
D17*
X148297945Y-109360000D02*
X147300000Y-109360000D01*
D18*
X151285000Y-112325000D02*
X152110000Y-111500000D01*
%TO.N,+3.3V*%
X149650000Y-109998949D02*
X149650000Y-109200000D01*
X149611974Y-110036974D02*
X149650000Y-109998949D01*
D17*
X147300000Y-107740000D02*
X148500862Y-107740000D01*
X146009370Y-107740000D02*
X147300000Y-107740000D01*
X148690862Y-107550000D02*
X149500000Y-107550000D01*
X148500862Y-107740000D02*
X148690862Y-107550000D01*
D18*
X148910000Y-110738949D02*
X149611974Y-110036974D01*
X148910000Y-111225000D02*
X148910000Y-110738949D01*
X150490000Y-111225000D02*
X148910000Y-111225000D01*
D17*
X145998492Y-107729122D02*
X146009370Y-107740000D01*
%TO.N,SDO*%
X154690000Y-101065000D02*
X154690000Y-100440000D01*
X151150000Y-106150000D02*
X151150000Y-106900000D01*
X150999000Y-105999000D02*
X151150000Y-106150000D01*
X154150000Y-99900000D02*
X151400000Y-99900000D01*
X150999000Y-100301000D02*
X150999000Y-105999000D01*
X151400000Y-99900000D02*
X150999000Y-100301000D01*
X154690000Y-100440000D02*
X154150000Y-99900000D01*
%TO.N,INT1*%
X148940000Y-106765000D02*
X148940000Y-101065000D01*
X149650000Y-106900000D02*
X149075000Y-106900000D01*
X149075000Y-106900000D02*
X148940000Y-106765000D01*
%TO.N,CS*%
X143797039Y-105472039D02*
X143797039Y-104027961D01*
X143800000Y-104025000D02*
X143800000Y-101125000D01*
X145825000Y-112750000D02*
X144900000Y-111825000D01*
X153200000Y-108825000D02*
X153200000Y-112305000D01*
X153200000Y-112305000D02*
X152755000Y-112750000D01*
X152925000Y-108550000D02*
X153200000Y-108825000D01*
X152755000Y-112750000D02*
X145825000Y-112750000D01*
X143800000Y-101125000D02*
X143860000Y-101065000D01*
X144900000Y-106575000D02*
X143797039Y-105472039D01*
X144900000Y-111825000D02*
X144900000Y-106575000D01*
X143797039Y-104027961D02*
X143800000Y-104025000D01*
X151300000Y-108550000D02*
X152925000Y-108550000D01*
%TO.N,SCLK*%
X153011166Y-107713834D02*
X153011166Y-102596166D01*
X151300000Y-108050000D02*
X152675000Y-108050000D01*
X152675000Y-108050000D02*
X153011166Y-107713834D01*
X153011166Y-102596166D02*
X151480000Y-101065000D01*
%TD*%
%TA.AperFunction,Conductor*%
%TO.N,GND*%
G36*
X145671953Y-108379140D02*
G01*
X145786872Y-108426741D01*
X145786876Y-108426741D01*
X145786877Y-108426742D01*
X145927034Y-108454622D01*
X146030905Y-108454622D01*
X146097944Y-108474307D01*
X146130171Y-108504310D01*
X146207455Y-108607547D01*
X146322664Y-108693793D01*
X146322671Y-108693797D01*
X146457517Y-108744091D01*
X146457516Y-108744091D01*
X146464444Y-108744835D01*
X146517127Y-108750500D01*
X148082872Y-108750499D01*
X148142483Y-108744091D01*
X148277331Y-108693796D01*
X148392546Y-108607546D01*
X148476235Y-108495750D01*
X148532167Y-108453882D01*
X148601858Y-108448898D01*
X148663182Y-108482383D01*
X148696666Y-108543706D01*
X148699500Y-108570063D01*
X148699500Y-108747869D01*
X148699501Y-108747876D01*
X148705908Y-108807483D01*
X148756202Y-108942328D01*
X148756206Y-108942335D01*
X148825358Y-109034709D01*
X148842454Y-109057546D01*
X148949811Y-109137914D01*
X148991682Y-109193847D01*
X148999500Y-109237180D01*
X148999500Y-109547868D01*
X148999501Y-109547878D01*
X149000651Y-109558573D01*
X148998391Y-109573777D01*
X149000519Y-109586248D01*
X148992968Y-109610257D01*
X148991467Y-109620361D01*
X148989261Y-109625546D01*
X148980291Y-109642250D01*
X148958922Y-109687221D01*
X148958044Y-109689331D01*
X148941294Y-109735887D01*
X148938662Y-109744500D01*
X148936090Y-109750549D01*
X148934626Y-109752330D01*
X148930660Y-109761725D01*
X148905711Y-109807130D01*
X148894274Y-109829175D01*
X148861577Y-109868969D01*
X148801860Y-109916648D01*
X148792233Y-109923606D01*
X148735585Y-109960554D01*
X148723469Y-109967516D01*
X148705923Y-109976323D01*
X148650297Y-109989500D01*
X148352130Y-109989500D01*
X148352123Y-109989501D01*
X148292516Y-109995908D01*
X148157671Y-110046202D01*
X148157664Y-110046206D01*
X148042455Y-110132452D01*
X148042452Y-110132455D01*
X147956206Y-110247664D01*
X147956202Y-110247671D01*
X147905908Y-110382517D01*
X147899501Y-110442116D01*
X147899501Y-110442123D01*
X147899500Y-110442135D01*
X147899500Y-112007870D01*
X147899501Y-112007881D01*
X147899971Y-112012249D01*
X147887563Y-112081008D01*
X147839951Y-112132144D01*
X147776681Y-112149500D01*
X146125098Y-112149500D01*
X146058059Y-112129815D01*
X146037417Y-112113181D01*
X145536819Y-111612583D01*
X145503334Y-111551260D01*
X145500500Y-111524902D01*
X145500500Y-108493701D01*
X145520185Y-108426662D01*
X145572989Y-108380907D01*
X145642147Y-108370963D01*
X145671953Y-108379140D01*
G37*
%TD.AperFunction*%
%TA.AperFunction,Conductor*%
G36*
X152542539Y-109170185D02*
G01*
X152588294Y-109222989D01*
X152599500Y-109274500D01*
X152599500Y-112004903D01*
X152590855Y-112034343D01*
X152584332Y-112064330D01*
X152580577Y-112069345D01*
X152579815Y-112071942D01*
X152563181Y-112092584D01*
X152542584Y-112113181D01*
X152481261Y-112146666D01*
X152454903Y-112149500D01*
X151623319Y-112149500D01*
X151556280Y-112129815D01*
X151510525Y-112077011D01*
X151500030Y-112012244D01*
X151500499Y-112007880D01*
X151500500Y-112007873D01*
X151500499Y-110442128D01*
X151494091Y-110382517D01*
X151484293Y-110356248D01*
X151443797Y-110247671D01*
X151443795Y-110247668D01*
X151443792Y-110247664D01*
X151386743Y-110171456D01*
X151362326Y-110105993D01*
X151377177Y-110037720D01*
X151426582Y-109988314D01*
X151442678Y-109980964D01*
X151455122Y-109976323D01*
X151534368Y-109946766D01*
X151542326Y-109943798D01*
X151542326Y-109943797D01*
X151542331Y-109943796D01*
X151657546Y-109857546D01*
X151743796Y-109742331D01*
X151794091Y-109607483D01*
X151800500Y-109547873D01*
X151800499Y-109274498D01*
X151820183Y-109207461D01*
X151872987Y-109161706D01*
X151924499Y-109150500D01*
X152475500Y-109150500D01*
X152542539Y-109170185D01*
G37*
%TD.AperFunction*%
%TA.AperFunction,Conductor*%
G36*
X164153472Y-92575695D02*
G01*
X164424419Y-92590910D01*
X164432397Y-92591618D01*
X164494584Y-92599169D01*
X164500293Y-92600000D01*
X164735859Y-92640024D01*
X164744708Y-92641864D01*
X164799097Y-92655270D01*
X164803643Y-92656484D01*
X165040491Y-92724719D01*
X165050091Y-92727917D01*
X165088558Y-92742505D01*
X165089603Y-92742902D01*
X165093050Y-92744269D01*
X165333997Y-92844072D01*
X165344155Y-92848830D01*
X165356816Y-92855475D01*
X165359116Y-92856713D01*
X165462596Y-92913905D01*
X165606727Y-92993564D01*
X165618500Y-93000961D01*
X165858604Y-93171323D01*
X165869476Y-93179993D01*
X165971178Y-93270880D01*
X166088997Y-93376169D01*
X166098830Y-93386002D01*
X166295006Y-93605523D01*
X166303676Y-93616395D01*
X166474038Y-93856499D01*
X166481436Y-93868273D01*
X166595267Y-94074234D01*
X166618254Y-94115826D01*
X166618264Y-94115843D01*
X166619534Y-94118202D01*
X166626168Y-94130843D01*
X166630931Y-94141012D01*
X166730716Y-94381915D01*
X166732096Y-94385395D01*
X166747075Y-94424889D01*
X166750288Y-94434535D01*
X166818501Y-94671309D01*
X166819744Y-94675961D01*
X166833128Y-94730263D01*
X166834979Y-94739167D01*
X166874989Y-94974644D01*
X166875837Y-94980471D01*
X166883379Y-95042595D01*
X166884088Y-95050586D01*
X166899305Y-95321527D01*
X166899500Y-95328480D01*
X166899500Y-109072437D01*
X166899394Y-109077562D01*
X166884185Y-109445249D01*
X166883819Y-109450930D01*
X166883819Y-109450931D01*
X166876470Y-109534929D01*
X166875990Y-109539460D01*
X166835786Y-109861997D01*
X166834854Y-109868191D01*
X166821005Y-109946733D01*
X166820250Y-109950648D01*
X166752453Y-110273988D01*
X166750867Y-110280634D01*
X166732405Y-110349536D01*
X166731475Y-110352825D01*
X166634622Y-110678147D01*
X166632299Y-110685176D01*
X166612696Y-110739034D01*
X166611691Y-110741698D01*
X166483036Y-111071414D01*
X166479903Y-111078741D01*
X166479902Y-111078743D01*
X166465471Y-111109691D01*
X166464489Y-111111747D01*
X166299182Y-111449889D01*
X166294304Y-111458903D01*
X166088037Y-111805064D01*
X166082431Y-111813644D01*
X165848284Y-112141587D01*
X165841989Y-112149674D01*
X165581566Y-112457155D01*
X165574625Y-112464695D01*
X165289695Y-112749625D01*
X165282155Y-112756566D01*
X164974674Y-113016989D01*
X164966587Y-113023284D01*
X164638644Y-113257431D01*
X164630064Y-113263037D01*
X164283903Y-113469304D01*
X164274889Y-113474182D01*
X163936747Y-113639489D01*
X163934691Y-113640471D01*
X163903743Y-113654902D01*
X163896414Y-113658036D01*
X163566698Y-113786691D01*
X163564034Y-113787696D01*
X163510176Y-113807299D01*
X163503147Y-113809622D01*
X163177825Y-113906475D01*
X163174536Y-113907405D01*
X163105634Y-113925867D01*
X163098988Y-113927453D01*
X162775648Y-113995250D01*
X162771733Y-113996005D01*
X162693191Y-114009854D01*
X162686997Y-114010786D01*
X162364460Y-114050990D01*
X162359929Y-114051470D01*
X162275931Y-114058819D01*
X162270249Y-114059185D01*
X161902563Y-114074394D01*
X161897438Y-114074500D01*
X139652562Y-114074500D01*
X139647437Y-114074394D01*
X139279749Y-114059185D01*
X139274067Y-114058819D01*
X139190069Y-114051470D01*
X139185538Y-114050990D01*
X138863001Y-114010786D01*
X138856807Y-114009854D01*
X138778265Y-113996005D01*
X138774350Y-113995250D01*
X138451010Y-113927453D01*
X138444364Y-113925867D01*
X138375462Y-113907405D01*
X138372173Y-113906475D01*
X138046851Y-113809622D01*
X138039822Y-113807299D01*
X137985964Y-113787696D01*
X137983300Y-113786691D01*
X137653584Y-113658036D01*
X137646255Y-113654902D01*
X137615262Y-113640450D01*
X137613206Y-113639467D01*
X137275119Y-113474186D01*
X137266105Y-113469309D01*
X136919935Y-113263037D01*
X136911355Y-113257431D01*
X136583412Y-113023284D01*
X136575325Y-113016989D01*
X136267844Y-112756566D01*
X136260304Y-112749625D01*
X135975374Y-112464695D01*
X135968433Y-112457155D01*
X135745312Y-112193716D01*
X135708005Y-112149668D01*
X135701715Y-112141587D01*
X135681433Y-112113181D01*
X135467564Y-111813638D01*
X135461962Y-111805064D01*
X135255683Y-111458883D01*
X135250817Y-111449889D01*
X135085458Y-111111641D01*
X135084595Y-111109837D01*
X135070089Y-111078729D01*
X135066962Y-111071414D01*
X134940143Y-110746404D01*
X134938299Y-110741679D01*
X134937302Y-110739034D01*
X134917692Y-110685157D01*
X134915383Y-110678169D01*
X134818512Y-110352787D01*
X134817604Y-110349576D01*
X134799128Y-110280622D01*
X134797549Y-110274008D01*
X134729737Y-109950594D01*
X134728999Y-109946766D01*
X134715140Y-109868169D01*
X134714216Y-109862028D01*
X134674004Y-109539429D01*
X134673530Y-109534956D01*
X134666177Y-109450906D01*
X134665814Y-109445277D01*
X134650606Y-109077562D01*
X134650500Y-109072438D01*
X134650500Y-108963549D01*
X137949500Y-108963549D01*
X137949500Y-109186450D01*
X137949501Y-109186466D01*
X137978594Y-109407452D01*
X137978595Y-109407457D01*
X137978596Y-109407463D01*
X138035642Y-109620361D01*
X138036290Y-109622780D01*
X138036293Y-109622790D01*
X138121593Y-109828722D01*
X138121595Y-109828726D01*
X138233052Y-110021774D01*
X138233057Y-110021780D01*
X138233058Y-110021782D01*
X138368751Y-110198622D01*
X138368757Y-110198629D01*
X138526370Y-110356242D01*
X138526377Y-110356248D01*
X138560612Y-110382517D01*
X138703226Y-110491948D01*
X138896274Y-110603405D01*
X139026140Y-110657197D01*
X139076717Y-110678147D01*
X139102219Y-110688710D01*
X139317537Y-110746404D01*
X139538543Y-110775500D01*
X139538550Y-110775500D01*
X139761450Y-110775500D01*
X139761457Y-110775500D01*
X139982463Y-110746404D01*
X140197781Y-110688710D01*
X140403726Y-110603405D01*
X140596774Y-110491948D01*
X140773624Y-110356247D01*
X140931247Y-110198624D01*
X141066948Y-110021774D01*
X141178405Y-109828726D01*
X141263710Y-109622781D01*
X141321404Y-109407463D01*
X141350500Y-109186457D01*
X141350500Y-108963543D01*
X141321404Y-108742537D01*
X141263710Y-108527219D01*
X141249826Y-108493701D01*
X141178406Y-108321277D01*
X141178405Y-108321274D01*
X141066948Y-108128226D01*
X140931247Y-107951376D01*
X140931242Y-107951370D01*
X140773629Y-107793757D01*
X140773622Y-107793751D01*
X140596782Y-107658058D01*
X140596780Y-107658057D01*
X140596774Y-107658052D01*
X140403726Y-107546595D01*
X140403722Y-107546593D01*
X140197790Y-107461293D01*
X140197783Y-107461291D01*
X140197781Y-107461290D01*
X139982463Y-107403596D01*
X139982457Y-107403595D01*
X139982452Y-107403594D01*
X139761466Y-107374501D01*
X139761463Y-107374500D01*
X139761457Y-107374500D01*
X139538543Y-107374500D01*
X139538537Y-107374500D01*
X139538533Y-107374501D01*
X139317547Y-107403594D01*
X139317540Y-107403595D01*
X139317537Y-107403596D01*
X139102219Y-107461290D01*
X139102209Y-107461293D01*
X138896277Y-107546593D01*
X138896273Y-107546595D01*
X138703226Y-107658052D01*
X138703217Y-107658058D01*
X138526377Y-107793751D01*
X138526370Y-107793757D01*
X138368757Y-107951370D01*
X138368751Y-107951377D01*
X138233058Y-108128217D01*
X138233052Y-108128226D01*
X138121595Y-108321273D01*
X138121593Y-108321277D01*
X138036293Y-108527209D01*
X138036290Y-108527219D01*
X137978597Y-108742534D01*
X137978594Y-108742547D01*
X137949501Y-108963533D01*
X137949500Y-108963549D01*
X134650500Y-108963549D01*
X134650500Y-100414983D01*
X140639500Y-100414983D01*
X140639500Y-101715001D01*
X140639501Y-101715018D01*
X140650000Y-101817796D01*
X140650001Y-101817799D01*
X140705185Y-101984331D01*
X140705187Y-101984336D01*
X140710765Y-101993379D01*
X140797288Y-102133656D01*
X140921344Y-102257712D01*
X141070666Y-102349814D01*
X141237203Y-102404999D01*
X141339991Y-102415500D01*
X142640008Y-102415499D01*
X142648261Y-102414656D01*
X142676356Y-102411786D01*
X142742797Y-102404999D01*
X142909334Y-102349814D01*
X143010268Y-102287557D01*
X143042567Y-102278719D01*
X143074675Y-102269098D01*
X143076163Y-102269526D01*
X143077659Y-102269117D01*
X143109642Y-102279154D01*
X143141823Y-102288410D01*
X143142843Y-102289574D01*
X143144323Y-102290039D01*
X143165789Y-102315760D01*
X143187871Y-102340959D01*
X143188459Y-102342923D01*
X143189092Y-102343681D01*
X143198002Y-102374768D01*
X143198138Y-102375678D01*
X143199500Y-102394006D01*
X143199500Y-103921523D01*
X143196967Y-103940759D01*
X143197599Y-103940843D01*
X143196538Y-103948904D01*
X143196538Y-104117007D01*
X143196539Y-104117020D01*
X143196539Y-105385369D01*
X143196538Y-105385387D01*
X143196538Y-105551093D01*
X143196537Y-105551093D01*
X143237463Y-105703828D01*
X143237464Y-105703829D01*
X143256916Y-105737520D01*
X143256917Y-105737521D01*
X143316516Y-105840751D01*
X143316520Y-105840756D01*
X143435388Y-105959624D01*
X143435394Y-105959629D01*
X144263181Y-106787416D01*
X144296666Y-106848739D01*
X144299500Y-106875097D01*
X144299500Y-111738330D01*
X144299499Y-111738348D01*
X144299499Y-111904054D01*
X144299498Y-111904054D01*
X144299499Y-111904057D01*
X144328489Y-112012249D01*
X144340423Y-112056784D01*
X144340424Y-112056787D01*
X144346601Y-112067485D01*
X144346602Y-112067487D01*
X144419477Y-112193712D01*
X144419481Y-112193717D01*
X144538349Y-112312585D01*
X144538354Y-112312589D01*
X145456284Y-113230520D01*
X145456286Y-113230521D01*
X145456290Y-113230524D01*
X145593209Y-113309573D01*
X145593216Y-113309577D01*
X145745943Y-113350501D01*
X145745945Y-113350501D01*
X145911654Y-113350501D01*
X145911670Y-113350500D01*
X152668331Y-113350500D01*
X152668347Y-113350501D01*
X152675943Y-113350501D01*
X152834054Y-113350501D01*
X152834057Y-113350501D01*
X152986785Y-113309577D01*
X153036904Y-113280639D01*
X153123716Y-113230520D01*
X153235520Y-113118716D01*
X153235520Y-113118714D01*
X153245728Y-113108507D01*
X153245730Y-113108504D01*
X153568713Y-112785521D01*
X153568716Y-112785520D01*
X153680520Y-112673716D01*
X153730639Y-112586904D01*
X153759577Y-112536785D01*
X153800501Y-112384057D01*
X153800501Y-112225943D01*
X153800501Y-112218348D01*
X153800500Y-112218330D01*
X153800500Y-108963549D01*
X160199500Y-108963549D01*
X160199500Y-109186450D01*
X160199501Y-109186466D01*
X160228594Y-109407452D01*
X160228595Y-109407457D01*
X160228596Y-109407463D01*
X160285642Y-109620361D01*
X160286290Y-109622780D01*
X160286293Y-109622790D01*
X160371593Y-109828722D01*
X160371595Y-109828726D01*
X160483052Y-110021774D01*
X160483057Y-110021780D01*
X160483058Y-110021782D01*
X160618751Y-110198622D01*
X160618757Y-110198629D01*
X160776370Y-110356242D01*
X160776377Y-110356248D01*
X160810612Y-110382517D01*
X160953226Y-110491948D01*
X161146274Y-110603405D01*
X161276140Y-110657197D01*
X161326717Y-110678147D01*
X161352219Y-110688710D01*
X161567537Y-110746404D01*
X161788543Y-110775500D01*
X161788550Y-110775500D01*
X162011450Y-110775500D01*
X162011457Y-110775500D01*
X162232463Y-110746404D01*
X162447781Y-110688710D01*
X162653726Y-110603405D01*
X162846774Y-110491948D01*
X163023624Y-110356247D01*
X163181247Y-110198624D01*
X163316948Y-110021774D01*
X163428405Y-109828726D01*
X163513710Y-109622781D01*
X163571404Y-109407463D01*
X163600500Y-109186457D01*
X163600500Y-108963543D01*
X163571404Y-108742537D01*
X163513710Y-108527219D01*
X163499826Y-108493701D01*
X163428406Y-108321277D01*
X163428405Y-108321274D01*
X163316948Y-108128226D01*
X163181247Y-107951376D01*
X163181242Y-107951370D01*
X163023629Y-107793757D01*
X163023622Y-107793751D01*
X162846782Y-107658058D01*
X162846780Y-107658057D01*
X162846774Y-107658052D01*
X162653726Y-107546595D01*
X162653722Y-107546593D01*
X162447790Y-107461293D01*
X162447783Y-107461291D01*
X162447781Y-107461290D01*
X162232463Y-107403596D01*
X162232457Y-107403595D01*
X162232452Y-107403594D01*
X162011466Y-107374501D01*
X162011463Y-107374500D01*
X162011457Y-107374500D01*
X161788543Y-107374500D01*
X161788537Y-107374500D01*
X161788533Y-107374501D01*
X161567547Y-107403594D01*
X161567540Y-107403595D01*
X161567537Y-107403596D01*
X161352219Y-107461290D01*
X161352209Y-107461293D01*
X161146277Y-107546593D01*
X161146273Y-107546595D01*
X160953226Y-107658052D01*
X160953217Y-107658058D01*
X160776377Y-107793751D01*
X160776370Y-107793757D01*
X160618757Y-107951370D01*
X160618751Y-107951377D01*
X160483058Y-108128217D01*
X160483052Y-108128226D01*
X160371595Y-108321273D01*
X160371593Y-108321277D01*
X160286293Y-108527209D01*
X160286290Y-108527219D01*
X160228597Y-108742534D01*
X160228594Y-108742547D01*
X160199501Y-108963533D01*
X160199500Y-108963549D01*
X153800500Y-108963549D01*
X153800500Y-108914060D01*
X153800501Y-108914047D01*
X153800501Y-108745944D01*
X153800501Y-108745943D01*
X153759577Y-108593216D01*
X153708248Y-108504310D01*
X153680524Y-108456290D01*
X153680518Y-108456282D01*
X153595199Y-108370963D01*
X153486915Y-108262680D01*
X153453431Y-108201358D01*
X153458415Y-108131667D01*
X153486920Y-108087315D01*
X153491686Y-108082550D01*
X153570743Y-107945618D01*
X153611667Y-107792891D01*
X153611667Y-107634776D01*
X153611667Y-107627181D01*
X153611666Y-107627163D01*
X153611666Y-102685226D01*
X153611667Y-102685213D01*
X153611667Y-102517110D01*
X153611667Y-102517109D01*
X153570743Y-102364382D01*
X153557152Y-102340841D01*
X153491690Y-102227456D01*
X153491684Y-102227448D01*
X153374420Y-102110184D01*
X153365908Y-102100752D01*
X153362556Y-102096632D01*
X153351151Y-102079862D01*
X153330683Y-102057450D01*
X153328447Y-102054700D01*
X153316247Y-102025625D01*
X153302404Y-101997293D01*
X153302716Y-101993379D01*
X153301413Y-101990272D01*
X153304262Y-101974048D01*
X153307270Y-101936449D01*
X153321991Y-101893256D01*
X153324507Y-101886518D01*
X153340457Y-101847353D01*
X153341425Y-101844959D01*
X153341488Y-101844802D01*
X153343242Y-101840370D01*
X153344901Y-101836117D01*
X153387609Y-101780821D01*
X153453433Y-101757392D01*
X153521475Y-101773269D01*
X153560736Y-101808310D01*
X153659890Y-101944786D01*
X153810213Y-102095109D01*
X153982179Y-102220048D01*
X153982181Y-102220049D01*
X153982184Y-102220051D01*
X154171588Y-102316557D01*
X154373757Y-102382246D01*
X154583713Y-102415500D01*
X154583714Y-102415500D01*
X154796286Y-102415500D01*
X154796287Y-102415500D01*
X155006243Y-102382246D01*
X155208412Y-102316557D01*
X155397816Y-102220051D01*
X155419789Y-102204086D01*
X155569786Y-102095109D01*
X155569788Y-102095106D01*
X155569792Y-102095104D01*
X155720104Y-101944792D01*
X155720106Y-101944788D01*
X155720109Y-101944786D01*
X155845048Y-101772820D01*
X155845047Y-101772820D01*
X155845051Y-101772816D01*
X155849514Y-101764054D01*
X155897488Y-101713259D01*
X155965308Y-101696463D01*
X156031444Y-101718999D01*
X156070486Y-101764056D01*
X156074951Y-101772820D01*
X156199890Y-101944786D01*
X156350213Y-102095109D01*
X156522179Y-102220048D01*
X156522181Y-102220049D01*
X156522184Y-102220051D01*
X156711588Y-102316557D01*
X156913757Y-102382246D01*
X157123713Y-102415500D01*
X157123714Y-102415500D01*
X157336286Y-102415500D01*
X157336287Y-102415500D01*
X157546243Y-102382246D01*
X157748412Y-102316557D01*
X157937816Y-102220051D01*
X157959789Y-102204086D01*
X158109786Y-102095109D01*
X158109788Y-102095106D01*
X158109792Y-102095104D01*
X158260104Y-101944792D01*
X158260106Y-101944788D01*
X158260109Y-101944786D01*
X158385048Y-101772820D01*
X158385047Y-101772820D01*
X158385051Y-101772816D01*
X158389514Y-101764054D01*
X158437488Y-101713259D01*
X158505308Y-101696463D01*
X158571444Y-101718999D01*
X158610486Y-101764056D01*
X158614951Y-101772820D01*
X158739890Y-101944786D01*
X158890213Y-102095109D01*
X159062179Y-102220048D01*
X159062181Y-102220049D01*
X159062184Y-102220051D01*
X159251588Y-102316557D01*
X159453757Y-102382246D01*
X159663713Y-102415500D01*
X159663714Y-102415500D01*
X159876286Y-102415500D01*
X159876287Y-102415500D01*
X160086243Y-102382246D01*
X160288412Y-102316557D01*
X160477816Y-102220051D01*
X160499789Y-102204086D01*
X160649786Y-102095109D01*
X160649788Y-102095106D01*
X160649792Y-102095104D01*
X160800104Y-101944792D01*
X160800106Y-101944788D01*
X160800109Y-101944786D01*
X160925048Y-101772820D01*
X160925047Y-101772820D01*
X160925051Y-101772816D01*
X161021557Y-101583412D01*
X161087246Y-101381243D01*
X161120500Y-101171287D01*
X161120500Y-100958713D01*
X161087246Y-100748757D01*
X161021557Y-100546588D01*
X160925051Y-100357184D01*
X160925049Y-100357181D01*
X160925048Y-100357179D01*
X160800109Y-100185213D01*
X160649786Y-100034890D01*
X160477820Y-99909951D01*
X160288414Y-99813444D01*
X160288413Y-99813443D01*
X160288412Y-99813443D01*
X160086243Y-99747754D01*
X160086241Y-99747753D01*
X160086240Y-99747753D01*
X159924957Y-99722208D01*
X159876287Y-99714500D01*
X159663713Y-99714500D01*
X159615042Y-99722208D01*
X159453760Y-99747753D01*
X159251585Y-99813444D01*
X159062179Y-99909951D01*
X158890213Y-100034890D01*
X158739890Y-100185213D01*
X158614949Y-100357182D01*
X158610484Y-100365946D01*
X158562509Y-100416742D01*
X158494688Y-100433536D01*
X158428553Y-100410998D01*
X158389516Y-100365946D01*
X158385050Y-100357182D01*
X158260109Y-100185213D01*
X158109786Y-100034890D01*
X157937820Y-99909951D01*
X157748414Y-99813444D01*
X157748413Y-99813443D01*
X157748412Y-99813443D01*
X157546243Y-99747754D01*
X157546241Y-99747753D01*
X157546240Y-99747753D01*
X157384957Y-99722208D01*
X157336287Y-99714500D01*
X157123713Y-99714500D01*
X157075042Y-99722208D01*
X156913760Y-99747753D01*
X156711585Y-99813444D01*
X156522179Y-99909951D01*
X156350213Y-100034890D01*
X156199890Y-100185213D01*
X156074949Y-100357182D01*
X156070484Y-100365946D01*
X156022509Y-100416742D01*
X155954688Y-100433536D01*
X155888553Y-100410998D01*
X155849516Y-100365946D01*
X155845050Y-100357182D01*
X155720109Y-100185213D01*
X155569786Y-100034890D01*
X155397820Y-99909951D01*
X155208414Y-99813444D01*
X155208413Y-99813443D01*
X155208412Y-99813443D01*
X155006243Y-99747754D01*
X155006237Y-99747753D01*
X154992682Y-99745606D01*
X154980903Y-99743148D01*
X154973326Y-99741179D01*
X154963796Y-99737371D01*
X154889235Y-99719331D01*
X154888145Y-99719048D01*
X154887892Y-99718896D01*
X154879547Y-99716479D01*
X154852934Y-99707465D01*
X154836895Y-99700744D01*
X154780212Y-99672164D01*
X154748360Y-99649125D01*
X154637590Y-99538355D01*
X154637588Y-99538352D01*
X154518717Y-99419481D01*
X154518716Y-99419480D01*
X154431904Y-99369360D01*
X154431904Y-99369359D01*
X154431900Y-99369358D01*
X154381785Y-99340423D01*
X154229057Y-99299499D01*
X154070943Y-99299499D01*
X154063347Y-99299499D01*
X154063331Y-99299500D01*
X153873844Y-99299500D01*
X153863928Y-99299103D01*
X153854842Y-99298374D01*
X153839364Y-99297132D01*
X153839354Y-99297131D01*
X153839349Y-99297131D01*
X153818884Y-99295905D01*
X153817957Y-99295868D01*
X153742365Y-99298428D01*
X153727280Y-99299500D01*
X151486670Y-99299500D01*
X151486654Y-99299499D01*
X151479058Y-99299499D01*
X151320943Y-99299499D01*
X151244579Y-99319961D01*
X151168214Y-99340423D01*
X151168209Y-99340426D01*
X151031290Y-99419475D01*
X151031282Y-99419481D01*
X150521862Y-99928901D01*
X150460539Y-99962386D01*
X150390847Y-99957402D01*
X150361297Y-99941539D01*
X150317816Y-99909949D01*
X150317814Y-99909948D01*
X150128414Y-99813444D01*
X150128413Y-99813443D01*
X150128412Y-99813443D01*
X149926243Y-99747754D01*
X149926241Y-99747753D01*
X149926240Y-99747753D01*
X149764957Y-99722208D01*
X149716287Y-99714500D01*
X149503713Y-99714500D01*
X149455042Y-99722208D01*
X149293760Y-99747753D01*
X149091585Y-99813444D01*
X148902179Y-99909951D01*
X148730213Y-100034890D01*
X148579890Y-100185213D01*
X148454949Y-100357182D01*
X148450484Y-100365946D01*
X148402509Y-100416742D01*
X148334688Y-100433536D01*
X148268553Y-100410998D01*
X148229516Y-100365946D01*
X148225050Y-100357182D01*
X148100109Y-100185213D01*
X147949786Y-100034890D01*
X147777820Y-99909951D01*
X147588414Y-99813444D01*
X147588413Y-99813443D01*
X147588412Y-99813443D01*
X147386243Y-99747754D01*
X147386241Y-99747753D01*
X147386240Y-99747753D01*
X147224957Y-99722208D01*
X147176287Y-99714500D01*
X146963713Y-99714500D01*
X146915042Y-99722208D01*
X146753760Y-99747753D01*
X146551585Y-99813444D01*
X146362179Y-99909951D01*
X146190213Y-100034890D01*
X146039890Y-100185213D01*
X145914949Y-100357182D01*
X145910484Y-100365946D01*
X145862509Y-100416742D01*
X145794688Y-100433536D01*
X145728553Y-100410998D01*
X145689516Y-100365946D01*
X145685050Y-100357182D01*
X145560109Y-100185213D01*
X145409786Y-100034890D01*
X145237820Y-99909951D01*
X145048414Y-99813444D01*
X145048413Y-99813443D01*
X145048412Y-99813443D01*
X144846243Y-99747754D01*
X144846241Y-99747753D01*
X144846240Y-99747753D01*
X144684957Y-99722208D01*
X144636287Y-99714500D01*
X144423713Y-99714500D01*
X144375042Y-99722208D01*
X144213760Y-99747753D01*
X144011585Y-99813444D01*
X143822179Y-99909951D01*
X143650213Y-100034890D01*
X143499894Y-100185209D01*
X143499885Y-100185219D01*
X143496330Y-100190113D01*
X143440997Y-100232775D01*
X143371383Y-100238748D01*
X143309591Y-100206137D01*
X143278312Y-100156223D01*
X143274815Y-100145670D01*
X143274814Y-100145666D01*
X143182712Y-99996344D01*
X143058656Y-99872288D01*
X142909334Y-99780186D01*
X142742797Y-99725001D01*
X142742795Y-99725000D01*
X142640010Y-99714500D01*
X141339998Y-99714500D01*
X141339981Y-99714501D01*
X141237203Y-99725000D01*
X141237200Y-99725001D01*
X141070668Y-99780185D01*
X141070663Y-99780187D01*
X140921342Y-99872289D01*
X140797289Y-99996342D01*
X140705187Y-100145663D01*
X140705185Y-100145668D01*
X140692083Y-100185208D01*
X140650001Y-100312203D01*
X140650001Y-100312204D01*
X140650000Y-100312204D01*
X140639500Y-100414983D01*
X134650500Y-100414983D01*
X134650500Y-95328479D01*
X134650695Y-95321527D01*
X134665910Y-95050588D01*
X134665911Y-95050586D01*
X134665911Y-95050575D01*
X134666619Y-95042596D01*
X134674170Y-94980403D01*
X134674998Y-94974719D01*
X134715026Y-94739129D01*
X134716861Y-94730302D01*
X134730276Y-94675877D01*
X134731477Y-94671382D01*
X134799723Y-94434493D01*
X134802911Y-94424923D01*
X134817918Y-94385352D01*
X134819250Y-94381995D01*
X134919079Y-94140985D01*
X134923822Y-94130858D01*
X134930514Y-94118108D01*
X134931684Y-94115936D01*
X135068564Y-93868270D01*
X135075959Y-93856502D01*
X135075961Y-93856499D01*
X135246330Y-93616385D01*
X135254985Y-93605531D01*
X135451179Y-93385991D01*
X135460991Y-93376179D01*
X135680531Y-93179985D01*
X135691385Y-93171330D01*
X135931506Y-93000956D01*
X135943270Y-92993564D01*
X136190936Y-92856684D01*
X136193108Y-92855514D01*
X136205858Y-92848822D01*
X136215985Y-92844079D01*
X136456995Y-92744250D01*
X136460352Y-92742918D01*
X136499923Y-92727911D01*
X136509493Y-92724723D01*
X136746382Y-92656477D01*
X136750877Y-92655276D01*
X136805302Y-92641861D01*
X136814129Y-92640026D01*
X137049719Y-92599998D01*
X137055403Y-92599170D01*
X137117607Y-92591617D01*
X137125575Y-92590911D01*
X137396528Y-92575695D01*
X137403480Y-92575500D01*
X164146520Y-92575500D01*
X164153472Y-92575695D01*
G37*
%TD.AperFunction*%
%TD*%
%TA.AperFunction,Conductor*%
%TO.N,INT2*%
G36*
X150245829Y-108753427D02*
G01*
X150249256Y-108761700D01*
X150249234Y-108762420D01*
X150248394Y-108776039D01*
X150246692Y-108837788D01*
X150260977Y-108882689D01*
X150276658Y-108895336D01*
X150284995Y-108897002D01*
X150292437Y-108901983D01*
X150294176Y-108910767D01*
X150293175Y-108913693D01*
X150160472Y-109179986D01*
X150153715Y-109185863D01*
X150144782Y-109185240D01*
X150139528Y-109179986D01*
X150005862Y-108911763D01*
X150005239Y-108902830D01*
X150011116Y-108896073D01*
X150012348Y-108895545D01*
X150034783Y-108887453D01*
X150050569Y-108856213D01*
X150051606Y-108776048D01*
X150050766Y-108762419D01*
X150053678Y-108753951D01*
X150061725Y-108750022D01*
X150062444Y-108750000D01*
X150237556Y-108750000D01*
X150245829Y-108753427D01*
G37*
%TD.AperFunction*%
%TD*%
%TA.AperFunction,Conductor*%
%TO.N,INT2*%
G36*
X150322699Y-107981547D02*
G01*
X150323753Y-107982168D01*
X150498722Y-108097979D01*
X150502020Y-108101277D01*
X150618004Y-108276507D01*
X150619713Y-108285296D01*
X150614706Y-108292720D01*
X150613902Y-108293207D01*
X150527029Y-108341155D01*
X150525264Y-108341947D01*
X150449727Y-108368565D01*
X150364276Y-108401374D01*
X150314217Y-108433768D01*
X150314206Y-108433777D01*
X150263814Y-108478528D01*
X150255352Y-108481459D01*
X150247772Y-108478053D01*
X150121960Y-108352241D01*
X150118533Y-108343968D01*
X150121498Y-108336185D01*
X150164993Y-108287394D01*
X150197108Y-108238554D01*
X150231430Y-108150281D01*
X150248018Y-108099948D01*
X150248752Y-108098211D01*
X150306918Y-107986520D01*
X150313779Y-107980765D01*
X150322699Y-107981547D01*
G37*
%TD.AperFunction*%
%TD*%
%TA.AperFunction,Conductor*%
%TO.N,SDI*%
G36*
X151625917Y-107213786D02*
G01*
X151784099Y-107371968D01*
X151787526Y-107380241D01*
X151784099Y-107388514D01*
X151782070Y-107390136D01*
X151719735Y-107429471D01*
X151719133Y-107429826D01*
X151677860Y-107452543D01*
X151617604Y-107497854D01*
X151617603Y-107497856D01*
X151602924Y-107531557D01*
X151596478Y-107537774D01*
X151592680Y-107538575D01*
X151308541Y-107550324D01*
X151300134Y-107547242D01*
X151296793Y-107541793D01*
X151284471Y-107497855D01*
X151261337Y-107415358D01*
X151262402Y-107406468D01*
X151269443Y-107400935D01*
X151272602Y-107400500D01*
X151319747Y-107400500D01*
X151319748Y-107400500D01*
X151378231Y-107388867D01*
X151438722Y-107348447D01*
X151440031Y-107347692D01*
X151469353Y-107333303D01*
X151548696Y-107272055D01*
X151609540Y-107213620D01*
X151617880Y-107210361D01*
X151625917Y-107213786D01*
G37*
%TD.AperFunction*%
%TD*%
%TA.AperFunction,Conductor*%
%TO.N,GND*%
G36*
X145900000Y-109460000D02*
G01*
X145872436Y-109465335D01*
X145860767Y-109480183D01*
X145865103Y-109531479D01*
X145869238Y-109552669D01*
X145870677Y-109618895D01*
X145649000Y-109575000D01*
X145606105Y-109354323D01*
X145686488Y-109330263D01*
X145740192Y-109302571D01*
X145791547Y-109276711D01*
X145836969Y-109264589D01*
X145900000Y-109260000D01*
X145900000Y-109460000D01*
G37*
%TD.AperFunction*%
%TD*%
%TA.AperFunction,Conductor*%
%TO.N,+3.3V*%
G36*
X149655218Y-109214759D02*
G01*
X149660472Y-109220013D01*
X149794083Y-109488126D01*
X149794706Y-109497059D01*
X149788829Y-109503816D01*
X149787479Y-109504386D01*
X149769873Y-109510553D01*
X149769871Y-109510555D01*
X149759141Y-109537337D01*
X149759141Y-109537338D01*
X149762002Y-109560103D01*
X149768311Y-109610307D01*
X149772701Y-109636356D01*
X149770697Y-109645083D01*
X149763108Y-109649837D01*
X149761164Y-109650000D01*
X149538836Y-109650000D01*
X149530563Y-109646573D01*
X149527136Y-109638300D01*
X149527299Y-109636356D01*
X149531669Y-109610427D01*
X149531689Y-109610307D01*
X149540685Y-109560104D01*
X149535116Y-109517299D01*
X149522186Y-109504662D01*
X149522185Y-109504661D01*
X149522186Y-109504661D01*
X149514820Y-109503114D01*
X149507428Y-109498059D01*
X149505776Y-109489258D01*
X149506754Y-109486446D01*
X149639528Y-109220013D01*
X149646285Y-109214136D01*
X149655218Y-109214759D01*
G37*
%TD.AperFunction*%
%TD*%
%TA.AperFunction,Conductor*%
%TO.N,+3.3V*%
G36*
X149772093Y-109594724D02*
G01*
X149775508Y-109602465D01*
X149782257Y-109750866D01*
X149804682Y-109865197D01*
X149830114Y-109981480D01*
X149828534Y-109990295D01*
X149821184Y-109995410D01*
X149821017Y-109995445D01*
X149614307Y-110037499D01*
X149609642Y-110037499D01*
X149403915Y-109995646D01*
X149396491Y-109990639D01*
X149394782Y-109981849D01*
X149395052Y-109980781D01*
X149424751Y-109883534D01*
X149425629Y-109881424D01*
X149464581Y-109808896D01*
X149507781Y-109721082D01*
X149520348Y-109665295D01*
X149524311Y-109602263D01*
X149528250Y-109594221D01*
X149535988Y-109591297D01*
X149763820Y-109591297D01*
X149772093Y-109594724D01*
G37*
%TD.AperFunction*%
%TD*%
%TA.AperFunction,Conductor*%
%TO.N,+3.3V*%
G36*
X148034745Y-107244419D02*
G01*
X148036781Y-107249978D01*
X148040984Y-107293962D01*
X148040984Y-107293963D01*
X148057425Y-107352282D01*
X148086461Y-107411952D01*
X148087239Y-107413550D01*
X148126599Y-107468386D01*
X148126602Y-107468389D01*
X148179924Y-107522231D01*
X148179925Y-107522232D01*
X148239340Y-107566623D01*
X148239344Y-107566626D01*
X148305704Y-107597515D01*
X148364476Y-107624873D01*
X148457457Y-107637547D01*
X148464149Y-107640867D01*
X148586551Y-107763269D01*
X148589978Y-107771542D01*
X148586551Y-107779815D01*
X148580111Y-107783097D01*
X148532302Y-107790682D01*
X148532286Y-107790686D01*
X148363841Y-107852569D01*
X148363837Y-107852572D01*
X148214889Y-107943644D01*
X148214884Y-107943647D01*
X148111623Y-108041752D01*
X148053658Y-108137890D01*
X148038410Y-108214658D01*
X148033437Y-108222104D01*
X148024654Y-108223854D01*
X148020438Y-108222109D01*
X147313586Y-107750248D01*
X147308608Y-107742805D01*
X147310351Y-107734021D01*
X147313405Y-107730910D01*
X148018462Y-107241479D01*
X148027212Y-107239577D01*
X148034745Y-107244419D01*
G37*
%TD.AperFunction*%
%TD*%
%TA.AperFunction,Conductor*%
%TO.N,+3.3V*%
G36*
X146579868Y-107240303D02*
G01*
X147287121Y-107730383D01*
X147291969Y-107737912D01*
X147290074Y-107746664D01*
X147287121Y-107749617D01*
X146581342Y-108238675D01*
X146572590Y-108240570D01*
X146565061Y-108235722D01*
X146563048Y-108230336D01*
X146558782Y-108191498D01*
X146541906Y-108138608D01*
X146510071Y-108080904D01*
X146510067Y-108080899D01*
X146467614Y-108028771D01*
X146467612Y-108028769D01*
X146405491Y-107973561D01*
X146405489Y-107973559D01*
X146335426Y-107927269D01*
X146335424Y-107927268D01*
X146255121Y-107887588D01*
X146255111Y-107887583D01*
X146255109Y-107887582D01*
X146219062Y-107874846D01*
X146175652Y-107859509D01*
X146064832Y-107841589D01*
X146057212Y-107836885D01*
X146055000Y-107830039D01*
X146055000Y-107650733D01*
X146058427Y-107642460D01*
X146065692Y-107639076D01*
X146110032Y-107635248D01*
X146260622Y-107590073D01*
X146395164Y-107514124D01*
X146490761Y-107424967D01*
X146546413Y-107330206D01*
X146561701Y-107247784D01*
X146566578Y-107240277D01*
X146575338Y-107238416D01*
X146579868Y-107240303D01*
G37*
%TD.AperFunction*%
%TD*%
%TA.AperFunction,Conductor*%
%TO.N,+3.3V*%
G36*
X146054671Y-107512162D02*
G01*
X146151626Y-107541505D01*
X146153683Y-107542349D01*
X146208552Y-107571285D01*
X146226197Y-107580591D01*
X146305884Y-107619175D01*
X146313359Y-107622795D01*
X146313362Y-107622795D01*
X146313366Y-107622797D01*
X146350480Y-107631091D01*
X146369528Y-107635349D01*
X146433196Y-107639316D01*
X146441241Y-107643250D01*
X146444169Y-107650993D01*
X146444169Y-107829499D01*
X146440742Y-107837772D01*
X146433729Y-107841131D01*
X146309395Y-107854601D01*
X146281388Y-107865619D01*
X146221074Y-107889350D01*
X146221066Y-107889353D01*
X146221065Y-107889354D01*
X146183578Y-107906554D01*
X146182118Y-107907109D01*
X146054703Y-107946036D01*
X146045789Y-107945176D01*
X146040095Y-107938266D01*
X146039821Y-107937190D01*
X145997966Y-107731451D01*
X145997966Y-107726790D01*
X146039826Y-107521029D01*
X146044833Y-107513607D01*
X146053623Y-107511898D01*
X146054671Y-107512162D01*
G37*
%TD.AperFunction*%
%TD*%
%TA.AperFunction,Conductor*%
%TO.N,+3.3V*%
G36*
X149213688Y-107406821D02*
G01*
X149479987Y-107539528D01*
X149485863Y-107546284D01*
X149485240Y-107555217D01*
X149479986Y-107560471D01*
X149211764Y-107694137D01*
X149202831Y-107694760D01*
X149196074Y-107688883D01*
X149195540Y-107687635D01*
X149187453Y-107665218D01*
X149187453Y-107665217D01*
X149156213Y-107649431D01*
X149156210Y-107649430D01*
X149156211Y-107649430D01*
X149076055Y-107648393D01*
X149062419Y-107649234D01*
X149053951Y-107646322D01*
X149050022Y-107638275D01*
X149050000Y-107637556D01*
X149050000Y-107462443D01*
X149053427Y-107454170D01*
X149061700Y-107450743D01*
X149062395Y-107450764D01*
X149076048Y-107451606D01*
X149137786Y-107453308D01*
X149182689Y-107439022D01*
X149195336Y-107423342D01*
X149197002Y-107415002D01*
X149201983Y-107407562D01*
X149210767Y-107405822D01*
X149213688Y-107406821D01*
G37*
%TD.AperFunction*%
%TD*%
%TA.AperFunction,Conductor*%
%TO.N,+3.3V*%
G36*
X149439184Y-110048987D02*
G01*
X149600420Y-110210223D01*
X149603847Y-110218496D01*
X149601150Y-110225969D01*
X149547004Y-110291202D01*
X149499090Y-110370000D01*
X149457303Y-110460257D01*
X149457300Y-110460263D01*
X149421412Y-110563445D01*
X149393586Y-110675114D01*
X149365513Y-110910283D01*
X149375196Y-111142434D01*
X149416154Y-111338418D01*
X149414492Y-111347217D01*
X149407094Y-111352264D01*
X149401792Y-111352144D01*
X148916140Y-111227464D01*
X148908978Y-111222087D01*
X148907664Y-111218826D01*
X148834626Y-110910283D01*
X148738140Y-110502686D01*
X148739569Y-110493848D01*
X148746830Y-110488608D01*
X148748032Y-110488389D01*
X148801212Y-110481608D01*
X148872496Y-110458319D01*
X148981979Y-110403368D01*
X149093678Y-110330513D01*
X149284402Y-110178236D01*
X149422920Y-110048713D01*
X149431303Y-110045567D01*
X149439184Y-110048987D01*
G37*
%TD.AperFunction*%
%TD*%
%TA.AperFunction,Conductor*%
%TO.N,+3.3V*%
G36*
X149434664Y-109918485D02*
G01*
X149435487Y-109918983D01*
X149610696Y-110034953D01*
X149613994Y-110038251D01*
X149730184Y-110213792D01*
X149731893Y-110222583D01*
X149726886Y-110230006D01*
X149726385Y-110230320D01*
X149646559Y-110277542D01*
X149645475Y-110278109D01*
X149577089Y-110309440D01*
X149507187Y-110342658D01*
X149507180Y-110342663D01*
X149452409Y-110379866D01*
X149393473Y-110433055D01*
X149385035Y-110436054D01*
X149377361Y-110432642D01*
X149215997Y-110271278D01*
X149212570Y-110263005D01*
X149215278Y-110255519D01*
X149296671Y-110157774D01*
X149339519Y-110071832D01*
X149348256Y-110051544D01*
X149348735Y-110050564D01*
X149418775Y-109923103D01*
X149425763Y-109917504D01*
X149434664Y-109918485D01*
G37*
%TD.AperFunction*%
%TD*%
%TA.AperFunction,Conductor*%
%TO.N,+3.3V*%
G36*
X149995657Y-110730626D02*
G01*
X150482702Y-111216719D01*
X150486137Y-111224989D01*
X150482718Y-111233265D01*
X150482702Y-111233281D01*
X149995738Y-111719292D01*
X149987462Y-111722711D01*
X149979192Y-111719276D01*
X149975967Y-111713133D01*
X149962248Y-111638747D01*
X149934254Y-111583897D01*
X149895812Y-111534767D01*
X149836990Y-111481939D01*
X149836988Y-111481937D01*
X149836985Y-111481935D01*
X149769483Y-111437933D01*
X149769472Y-111437927D01*
X149685487Y-111397929D01*
X149601557Y-111369941D01*
X149479946Y-111351507D01*
X149472280Y-111346879D01*
X149470000Y-111339939D01*
X149470000Y-111110849D01*
X149473427Y-111102576D01*
X149480816Y-111099182D01*
X149525032Y-111095841D01*
X149678828Y-111054697D01*
X149812523Y-110985566D01*
X149906507Y-110903229D01*
X149961420Y-110813391D01*
X149975895Y-110736735D01*
X149980798Y-110729242D01*
X149989563Y-110727410D01*
X149995657Y-110730626D01*
G37*
%TD.AperFunction*%
%TD*%
%TA.AperFunction,Conductor*%
%TO.N,+3.3V*%
G36*
X149420807Y-110730723D02*
G01*
X149424032Y-110736866D01*
X149437752Y-110811254D01*
X149465744Y-110866100D01*
X149465746Y-110866103D01*
X149504188Y-110915233D01*
X149563010Y-110968061D01*
X149563012Y-110968062D01*
X149563014Y-110968064D01*
X149630516Y-111012066D01*
X149630521Y-111012069D01*
X149714505Y-111052067D01*
X149714507Y-111052067D01*
X149714512Y-111052070D01*
X149798443Y-111080058D01*
X149920053Y-111098492D01*
X149927720Y-111103120D01*
X149930000Y-111110060D01*
X149930000Y-111339150D01*
X149926573Y-111347423D01*
X149919182Y-111350817D01*
X149874971Y-111354158D01*
X149798070Y-111374731D01*
X149721172Y-111395303D01*
X149721171Y-111395303D01*
X149721169Y-111395304D01*
X149587476Y-111464434D01*
X149587475Y-111464435D01*
X149493494Y-111546769D01*
X149493493Y-111546770D01*
X149438580Y-111636608D01*
X149424104Y-111713263D01*
X149419201Y-111720757D01*
X149410436Y-111722589D01*
X149404342Y-111719373D01*
X149035063Y-111350817D01*
X148917296Y-111233280D01*
X148913862Y-111225011D01*
X148917281Y-111216735D01*
X148917297Y-111216719D01*
X149082272Y-111052067D01*
X149404263Y-110730706D01*
X149412537Y-110727288D01*
X149420807Y-110730723D01*
G37*
%TD.AperFunction*%
%TD*%
%TA.AperFunction,Conductor*%
%TO.N,SDO*%
G36*
X151245829Y-106453427D02*
G01*
X151249256Y-106461700D01*
X151249234Y-106462420D01*
X151248394Y-106476039D01*
X151246692Y-106537788D01*
X151260977Y-106582689D01*
X151276658Y-106595336D01*
X151280346Y-106596073D01*
X151284996Y-106597002D01*
X151292438Y-106601983D01*
X151294177Y-106610767D01*
X151293176Y-106613693D01*
X151160472Y-106879986D01*
X151153715Y-106885863D01*
X151144782Y-106885240D01*
X151139528Y-106879986D01*
X151005862Y-106611763D01*
X151005239Y-106602830D01*
X151011116Y-106596073D01*
X151012348Y-106595545D01*
X151034783Y-106587453D01*
X151050569Y-106556213D01*
X151051606Y-106476048D01*
X151050766Y-106462419D01*
X151053678Y-106453951D01*
X151061725Y-106450022D01*
X151062444Y-106450000D01*
X151237556Y-106450000D01*
X151245829Y-106453427D01*
G37*
%TD.AperFunction*%
%TD*%
%TA.AperFunction,Conductor*%
%TO.N,SDO*%
G36*
X153798933Y-99801012D02*
G01*
X153986383Y-99816053D01*
X153988700Y-99816478D01*
X154135597Y-99859075D01*
X154137879Y-99860008D01*
X154252344Y-99921690D01*
X154253655Y-99922514D01*
X154355295Y-99996303D01*
X154355340Y-99996335D01*
X154488983Y-100091446D01*
X154488992Y-100091451D01*
X154648829Y-100172041D01*
X154648832Y-100172042D01*
X154648834Y-100172043D01*
X154743976Y-100204271D01*
X154743987Y-100204273D01*
X154743991Y-100204275D01*
X154844924Y-100228695D01*
X154852160Y-100233971D01*
X154853651Y-100242336D01*
X154692518Y-101057318D01*
X154687551Y-101064770D01*
X154683320Y-101066525D01*
X153868562Y-101228397D01*
X153859780Y-101226648D01*
X153854806Y-101219201D01*
X153854688Y-101218487D01*
X153843655Y-101135705D01*
X153843554Y-101134359D01*
X153842132Y-101040255D01*
X153842222Y-101038627D01*
X153865805Y-100851909D01*
X153866088Y-100850449D01*
X153912978Y-100670943D01*
X153913185Y-100670247D01*
X153969023Y-100502294D01*
X153969031Y-100502285D01*
X153969027Y-100502284D01*
X154015200Y-100363883D01*
X154032772Y-100288511D01*
X154049252Y-100217827D01*
X154046399Y-100126839D01*
X154046399Y-100126837D01*
X154013522Y-100064023D01*
X153981629Y-100038584D01*
X153981627Y-100038583D01*
X153981626Y-100038582D01*
X153981623Y-100038580D01*
X153938420Y-100019290D01*
X153938411Y-100019287D01*
X153871760Y-100004911D01*
X153797349Y-100000633D01*
X153789287Y-99996737D01*
X153786321Y-99988952D01*
X153786321Y-99812676D01*
X153789748Y-99804403D01*
X153798021Y-99800976D01*
X153798933Y-99801012D01*
G37*
%TD.AperFunction*%
%TD*%
%TA.AperFunction,Conductor*%
%TO.N,INT1*%
G36*
X149611104Y-101067273D02*
G01*
X149614347Y-101070515D01*
X150075182Y-101761179D01*
X150076924Y-101769963D01*
X150071944Y-101777405D01*
X150071121Y-101777907D01*
X149932965Y-101854472D01*
X149931359Y-101855209D01*
X149784721Y-101909548D01*
X149783466Y-101909935D01*
X149641390Y-101945081D01*
X149640685Y-101945232D01*
X149506221Y-101969829D01*
X149506122Y-101969847D01*
X149447243Y-101980094D01*
X149283432Y-102018643D01*
X149179655Y-102068486D01*
X149107518Y-102140284D01*
X149079938Y-102189846D01*
X149059226Y-102249752D01*
X149044902Y-102329047D01*
X149040573Y-102412887D01*
X149036724Y-102420973D01*
X149028889Y-102423984D01*
X148851929Y-102423984D01*
X148843656Y-102420557D01*
X148840229Y-102412284D01*
X148840231Y-102412058D01*
X148845488Y-102140283D01*
X148847489Y-102036848D01*
X148850075Y-101956890D01*
X148846133Y-101686267D01*
X148846132Y-101686259D01*
X148846132Y-101686252D01*
X148823352Y-101493097D01*
X148823346Y-101493056D01*
X148778356Y-101242112D01*
X148780269Y-101233366D01*
X148787573Y-101228577D01*
X149602321Y-101065536D01*
X149611104Y-101067273D01*
G37*
%TD.AperFunction*%
%TD*%
%TA.AperFunction,Conductor*%
%TO.N,INT1*%
G36*
X149515451Y-106765349D02*
G01*
X149642643Y-106891699D01*
X149646097Y-106899961D01*
X149642698Y-106908246D01*
X149642643Y-106908301D01*
X149513023Y-107037063D01*
X149504738Y-107040462D01*
X149496476Y-107037008D01*
X149493771Y-107032732D01*
X149487453Y-107015218D01*
X149487453Y-107015217D01*
X149456213Y-106999431D01*
X149456210Y-106999430D01*
X149456211Y-106999430D01*
X149376055Y-106998393D01*
X149362419Y-106999234D01*
X149353951Y-106996322D01*
X149350022Y-106988275D01*
X149350000Y-106987556D01*
X149350000Y-106812443D01*
X149353427Y-106804170D01*
X149361700Y-106800743D01*
X149362395Y-106800764D01*
X149376048Y-106801606D01*
X149437786Y-106803308D01*
X149482689Y-106789022D01*
X149495336Y-106773342D01*
X149495732Y-106771357D01*
X149500711Y-106763918D01*
X149509495Y-106762176D01*
X149515451Y-106765349D01*
G37*
%TD.AperFunction*%
%TD*%
%TA.AperFunction,Conductor*%
%TO.N,CS*%
G36*
X144531104Y-101067273D02*
G01*
X144534347Y-101070515D01*
X144995382Y-101761478D01*
X144997124Y-101770262D01*
X144992144Y-101777704D01*
X144991612Y-101778039D01*
X144922262Y-101819110D01*
X144921166Y-101819683D01*
X144841313Y-101856203D01*
X144839800Y-101856772D01*
X144679342Y-101904765D01*
X144677745Y-101905124D01*
X144521035Y-101928909D01*
X144520163Y-101929008D01*
X144371236Y-101940294D01*
X144371124Y-101940302D01*
X144298925Y-101945075D01*
X144138976Y-101966347D01*
X144037437Y-102004643D01*
X144037437Y-102004644D01*
X143966865Y-102066493D01*
X143966863Y-102066495D01*
X143939672Y-102111219D01*
X143939671Y-102111219D01*
X143919200Y-102166293D01*
X143919197Y-102166302D01*
X143904901Y-102240814D01*
X143904900Y-102240823D01*
X143900601Y-102320036D01*
X143896731Y-102328111D01*
X143888918Y-102331102D01*
X143712109Y-102331102D01*
X143703836Y-102327675D01*
X143700409Y-102319402D01*
X143700416Y-102319000D01*
X143703106Y-102240814D01*
X143708980Y-102070035D01*
X143709028Y-102069301D01*
X143727461Y-101880633D01*
X143727464Y-101880633D01*
X143727467Y-101880566D01*
X143738867Y-101771899D01*
X143742406Y-101556607D01*
X143727617Y-101412687D01*
X143698263Y-101242047D01*
X143700238Y-101233314D01*
X143707496Y-101228593D01*
X144522321Y-101065536D01*
X144531104Y-101067273D01*
G37*
%TD.AperFunction*%
%TD*%
%TA.AperFunction,Conductor*%
%TO.N,CS*%
G36*
X151603925Y-108411116D02*
G01*
X151604459Y-108412364D01*
X151612546Y-108434781D01*
X151612547Y-108434783D01*
X151643787Y-108450569D01*
X151651803Y-108450672D01*
X151723943Y-108451606D01*
X151723944Y-108451605D01*
X151723952Y-108451606D01*
X151737581Y-108450765D01*
X151746048Y-108453676D01*
X151749978Y-108461723D01*
X151750000Y-108462443D01*
X151750000Y-108637556D01*
X151746573Y-108645829D01*
X151738300Y-108649256D01*
X151737580Y-108649234D01*
X151723960Y-108648394D01*
X151679051Y-108647156D01*
X151662214Y-108646692D01*
X151662213Y-108646692D01*
X151662211Y-108646692D01*
X151617310Y-108660977D01*
X151604663Y-108676658D01*
X151602997Y-108684997D01*
X151598015Y-108692438D01*
X151589231Y-108694177D01*
X151586307Y-108693176D01*
X151320012Y-108560471D01*
X151314136Y-108553715D01*
X151314759Y-108544782D01*
X151320012Y-108539528D01*
X151588237Y-108405861D01*
X151597168Y-108405239D01*
X151603925Y-108411116D01*
G37*
%TD.AperFunction*%
%TD*%
%TA.AperFunction,Conductor*%
%TO.N,SCLK*%
G36*
X151603925Y-107911116D02*
G01*
X151604459Y-107912364D01*
X151612546Y-107934781D01*
X151612547Y-107934783D01*
X151643787Y-107950569D01*
X151651803Y-107950672D01*
X151723943Y-107951606D01*
X151723944Y-107951605D01*
X151723952Y-107951606D01*
X151737581Y-107950765D01*
X151746048Y-107953676D01*
X151749978Y-107961723D01*
X151750000Y-107962443D01*
X151750000Y-108137556D01*
X151746573Y-108145829D01*
X151738300Y-108149256D01*
X151737580Y-108149234D01*
X151723960Y-108148394D01*
X151679051Y-108147156D01*
X151662214Y-108146692D01*
X151662213Y-108146692D01*
X151662211Y-108146692D01*
X151617310Y-108160977D01*
X151604663Y-108176658D01*
X151602997Y-108184996D01*
X151598015Y-108192437D01*
X151589231Y-108194176D01*
X151586306Y-108193175D01*
X151413637Y-108107128D01*
X151320012Y-108060471D01*
X151314136Y-108053715D01*
X151314759Y-108044782D01*
X151320012Y-108039528D01*
X151588237Y-107905861D01*
X151597168Y-107905239D01*
X151603925Y-107911116D01*
G37*
%TD.AperFunction*%
%TD*%
%TA.AperFunction,Conductor*%
%TO.N,SCLK*%
G36*
X152980377Y-100903316D02*
G01*
X152985344Y-100910767D01*
X152985444Y-100911347D01*
X153000854Y-101016874D01*
X153000968Y-101018104D01*
X153005261Y-101126863D01*
X153005246Y-101128075D01*
X152998736Y-101229346D01*
X152998609Y-101230466D01*
X152983313Y-101324902D01*
X152983016Y-101326239D01*
X152933666Y-101499331D01*
X152933313Y-101500378D01*
X152872349Y-101656549D01*
X152872286Y-101656706D01*
X152849435Y-101712821D01*
X152849425Y-101712848D01*
X152791903Y-101881627D01*
X152791902Y-101881629D01*
X152774581Y-102014462D01*
X152793573Y-102139939D01*
X152793576Y-102139951D01*
X152819131Y-102205616D01*
X152857161Y-102273737D01*
X152857169Y-102273750D01*
X152912702Y-102349369D01*
X152912708Y-102349375D01*
X152912712Y-102349381D01*
X152934970Y-102373754D01*
X152977878Y-102420740D01*
X152980926Y-102429160D01*
X152977511Y-102436903D01*
X152852022Y-102562392D01*
X152843749Y-102565819D01*
X152835731Y-102562640D01*
X152835467Y-102562392D01*
X152693711Y-102428997D01*
X152634999Y-102373748D01*
X152467053Y-102240416D01*
X152467045Y-102240410D01*
X152467046Y-102240410D01*
X152467044Y-102240409D01*
X152318124Y-102144841D01*
X152318116Y-102144836D01*
X152318112Y-102144834D01*
X152166277Y-102061520D01*
X152166255Y-102061508D01*
X152018912Y-101981486D01*
X152018368Y-101981171D01*
X151688104Y-101778106D01*
X151682851Y-101770853D01*
X151684265Y-101762011D01*
X151684496Y-101761650D01*
X151717041Y-101712821D01*
X152146598Y-101068336D01*
X152154034Y-101063354D01*
X152971598Y-100901561D01*
X152980377Y-100903316D01*
G37*
%TD.AperFunction*%
%TD*%
M02*
