%TF.GenerationSoftware,KiCad,Pcbnew,9.0.0*%
%TF.CreationDate,2025-03-07T07:16:51+07:00*%
%TF.ProjectId,Driver-DRV8317,44726976-6572-42d4-9452-56383331372e,rev?*%
%TF.SameCoordinates,Original*%
%TF.FileFunction,Soldermask,Top*%
%TF.FilePolarity,Negative*%
%FSLAX46Y46*%
G04 Gerber Fmt 4.6, Leading zero omitted, Abs format (unit mm)*
G04 Created by KiCad (PCBNEW 9.0.0) date 2025-03-07 07:16:51*
%MOMM*%
%LPD*%
G01*
G04 APERTURE LIST*
G04 Aperture macros list*
%AMRoundRect*
0 Rectangle with rounded corners*
0 $1 Rounding radius*
0 $2 $3 $4 $5 $6 $7 $8 $9 X,Y pos of 4 corners*
0 Add a 4 corners polygon primitive as box body*
4,1,4,$2,$3,$4,$5,$6,$7,$8,$9,$2,$3,0*
0 Add four circle primitives for the rounded corners*
1,1,$1+$1,$2,$3*
1,1,$1+$1,$4,$5*
1,1,$1+$1,$6,$7*
1,1,$1+$1,$8,$9*
0 Add four rect primitives between the rounded corners*
20,1,$1+$1,$2,$3,$4,$5,0*
20,1,$1+$1,$4,$5,$6,$7,0*
20,1,$1+$1,$6,$7,$8,$9,0*
20,1,$1+$1,$8,$9,$2,$3,0*%
G04 Aperture macros list end*
%ADD10R,1.700000X1.700000*%
%ADD11O,1.700000X1.700000*%
%ADD12RoundRect,0.200000X-0.200000X-0.275000X0.200000X-0.275000X0.200000X0.275000X-0.200000X0.275000X0*%
%ADD13R,4.350000X4.350000*%
%ADD14C,4.350000*%
%ADD15C,3.000000*%
%ADD16C,2.500000*%
%ADD17RoundRect,0.225000X-0.225000X-0.250000X0.225000X-0.250000X0.225000X0.250000X-0.225000X0.250000X0*%
%ADD18C,1.400000*%
%ADD19RoundRect,0.225000X0.225000X0.250000X-0.225000X0.250000X-0.225000X-0.250000X0.225000X-0.250000X0*%
%ADD20RoundRect,0.250000X1.500000X1.000000X-1.500000X1.000000X-1.500000X-1.000000X1.500000X-1.000000X0*%
%ADD21R,1.000000X1.000000*%
%ADD22RoundRect,0.225000X-0.250000X0.225000X-0.250000X-0.225000X0.250000X-0.225000X0.250000X0.225000X0*%
%ADD23RoundRect,0.250000X0.550000X-1.500000X0.550000X1.500000X-0.550000X1.500000X-0.550000X-1.500000X0*%
%ADD24RoundRect,0.250000X1.000000X-1.500000X1.000000X1.500000X-1.000000X1.500000X-1.000000X-1.500000X0*%
%ADD25RoundRect,0.150000X-0.150000X-0.200000X0.150000X-0.200000X0.150000X0.200000X-0.150000X0.200000X0*%
%ADD26RoundRect,0.225000X0.250000X-0.225000X0.250000X0.225000X-0.250000X0.225000X-0.250000X-0.225000X0*%
%ADD27RoundRect,0.250000X-0.262500X-0.450000X0.262500X-0.450000X0.262500X0.450000X-0.262500X0.450000X0*%
%ADD28RoundRect,0.250000X-1.500000X-0.550000X1.500000X-0.550000X1.500000X0.550000X-1.500000X0.550000X0*%
%ADD29RoundRect,0.250000X-0.600000X0.600000X-0.600000X-0.600000X0.600000X-0.600000X0.600000X0.600000X0*%
%ADD30C,1.700000*%
%ADD31RoundRect,0.250000X1.450000X-0.400000X1.450000X0.400000X-1.450000X0.400000X-1.450000X-0.400000X0*%
%ADD32RoundRect,0.243750X0.456250X-0.243750X0.456250X0.243750X-0.456250X0.243750X-0.456250X-0.243750X0*%
%ADD33RoundRect,0.375000X-0.375000X0.625000X-0.375000X-0.625000X0.375000X-0.625000X0.375000X0.625000X0*%
%ADD34RoundRect,0.500000X-1.400000X0.500000X-1.400000X-0.500000X1.400000X-0.500000X1.400000X0.500000X0*%
%ADD35RoundRect,0.250000X0.262500X0.450000X-0.262500X0.450000X-0.262500X-0.450000X0.262500X-0.450000X0*%
%ADD36RoundRect,0.250000X-1.050000X1.050000X-1.050000X-1.050000X1.050000X-1.050000X1.050000X1.050000X0*%
%ADD37C,2.600000*%
%ADD38R,0.200000X0.800000*%
%ADD39R,0.800000X0.200000*%
%ADD40R,3.800000X2.800000*%
%ADD41RoundRect,0.150000X-0.150000X0.825000X-0.150000X-0.825000X0.150000X-0.825000X0.150000X0.825000X0*%
%ADD42RoundRect,0.250000X0.300000X-2.050000X0.300000X2.050000X-0.300000X2.050000X-0.300000X-2.050000X0*%
%ADD43RoundRect,0.250002X5.149998X-4.449998X5.149998X4.449998X-5.149998X4.449998X-5.149998X-4.449998X0*%
%ADD44RoundRect,0.250000X0.550000X-1.250000X0.550000X1.250000X-0.550000X1.250000X-0.550000X-1.250000X0*%
%ADD45R,2.000000X4.600000*%
%ADD46O,2.000000X4.200000*%
%ADD47O,4.200000X2.000000*%
%ADD48C,1.440000*%
%ADD49R,4.400000X4.050000*%
%ADD50RoundRect,0.200000X0.200000X0.275000X-0.200000X0.275000X-0.200000X-0.275000X0.200000X-0.275000X0*%
%ADD51R,2.500000X2.500000*%
%ADD52RoundRect,0.250000X0.650000X-1.000000X0.650000X1.000000X-0.650000X1.000000X-0.650000X-1.000000X0*%
G04 APERTURE END LIST*
D10*
%TO.C,JP4*%
X146830000Y-117950000D03*
D11*
X149370000Y-117950000D03*
X151910000Y-117950000D03*
%TD*%
D12*
%TO.C,R4*%
X149435000Y-123000000D03*
X151085000Y-123000000D03*
%TD*%
D13*
%TO.C,PS1*%
X128710000Y-89700000D03*
D14*
X128710000Y-96900000D03*
D15*
X122710000Y-86550000D03*
X122710000Y-100050000D03*
%TD*%
D16*
%TO.C,H5*%
X115710000Y-79150000D03*
%TD*%
%TO.C,H2*%
X163910000Y-134350000D03*
%TD*%
D17*
%TO.C,C23*%
X141985000Y-116100000D03*
X143535000Y-116100000D03*
%TD*%
D18*
%TO.C,JP5*%
X146860000Y-114550000D03*
X149400000Y-114550000D03*
%TD*%
%TO.C,JP1*%
X156560000Y-114625000D03*
X159100000Y-114625000D03*
%TD*%
D19*
%TO.C,C39*%
X158250000Y-59150000D03*
X156700000Y-59150000D03*
%TD*%
D20*
%TO.C,C1*%
X141710000Y-96350000D03*
X135210000Y-96350000D03*
%TD*%
D21*
%TO.C,TP2*%
X138810000Y-88750000D03*
%TD*%
D22*
%TO.C,C28*%
X146310000Y-65775000D03*
X146310000Y-67325000D03*
%TD*%
D17*
%TO.C,C34*%
X146260000Y-124550000D03*
X147810000Y-124550000D03*
%TD*%
D12*
%TO.C,R6*%
X143035000Y-122950000D03*
X144685000Y-122950000D03*
%TD*%
D23*
%TO.C,C11*%
X140810000Y-110400000D03*
X140810000Y-104800000D03*
%TD*%
D17*
%TO.C,C32*%
X138535000Y-121150000D03*
X140085000Y-121150000D03*
%TD*%
D12*
%TO.C,R44*%
X156985000Y-112025000D03*
X158635000Y-112025000D03*
%TD*%
D24*
%TO.C,C4*%
X134100000Y-70050000D03*
X134100000Y-63550000D03*
%TD*%
D25*
%TO.C,D3*%
X146210000Y-71550000D03*
X144810000Y-71550000D03*
%TD*%
D26*
%TO.C,C26*%
X136060000Y-108550000D03*
X136060000Y-107000000D03*
%TD*%
D16*
%TO.C,H6*%
X163910000Y-79150000D03*
%TD*%
%TO.C,H3*%
X163710000Y-60350000D03*
%TD*%
D27*
%TO.C,R35*%
X159597500Y-103600000D03*
X161422500Y-103600000D03*
%TD*%
D10*
%TO.C,JP2*%
X156610000Y-118025000D03*
D11*
X159150000Y-118025000D03*
X161690000Y-118025000D03*
%TD*%
D17*
%TO.C,C20*%
X130410000Y-111750000D03*
X131960000Y-111750000D03*
%TD*%
D24*
%TO.C,C2*%
X156710000Y-83800000D03*
X156710000Y-77300000D03*
%TD*%
D28*
%TO.C,C12*%
X125010000Y-106950000D03*
X130610000Y-106950000D03*
%TD*%
D16*
%TO.C,H4*%
X115710000Y-60150000D03*
%TD*%
D21*
%TO.C,TP3*%
X152700000Y-65150000D03*
%TD*%
D29*
%TO.C,J1*%
X155030000Y-129190000D03*
D30*
X155030000Y-131730000D03*
X152490000Y-129190000D03*
X152490000Y-131730000D03*
X149950000Y-129190000D03*
X149950000Y-131730000D03*
X147410000Y-129190000D03*
X147410000Y-131730000D03*
X144870000Y-129190000D03*
X144870000Y-131730000D03*
X142330000Y-129190000D03*
X142330000Y-131730000D03*
X139790000Y-129190000D03*
X139790000Y-131730000D03*
X137250000Y-129190000D03*
X137250000Y-131730000D03*
X134710000Y-129190000D03*
X134710000Y-131730000D03*
X132170000Y-129190000D03*
X132170000Y-131730000D03*
X129630000Y-129190000D03*
X129630000Y-131730000D03*
X127090000Y-129190000D03*
X127090000Y-131730000D03*
X124550000Y-129190000D03*
X124550000Y-131730000D03*
%TD*%
D12*
%TO.C,R43*%
X147485000Y-111950000D03*
X149135000Y-111950000D03*
%TD*%
D31*
%TO.C,L2*%
X149310000Y-71575000D03*
X149310000Y-67125000D03*
%TD*%
D19*
%TO.C,C31*%
X134860000Y-114050000D03*
X133310000Y-114050000D03*
%TD*%
D12*
%TO.C,R5*%
X146235000Y-123000000D03*
X147885000Y-123000000D03*
%TD*%
D32*
%TO.C,D5*%
X163660000Y-105450000D03*
X163660000Y-103575000D03*
%TD*%
D18*
%TO.C,JP3*%
X146720000Y-107750000D03*
X149260000Y-107750000D03*
%TD*%
D19*
%TO.C,C38*%
X159650000Y-61150000D03*
X158100000Y-61150000D03*
%TD*%
D33*
%TO.C,U3*%
X159975000Y-63950000D03*
X157675000Y-63950000D03*
D34*
X157675000Y-70250000D03*
D33*
X155375000Y-63950000D03*
%TD*%
D16*
%TO.C,H1*%
X115710000Y-134350000D03*
%TD*%
D35*
%TO.C,R34*%
X161435000Y-105700000D03*
X159610000Y-105700000D03*
%TD*%
D36*
%TO.C,J6*%
X117900000Y-111750000D03*
D37*
X117900000Y-116750000D03*
X117900000Y-121750000D03*
%TD*%
D35*
%TO.C,R42*%
X140322500Y-123400000D03*
X138497500Y-123400000D03*
%TD*%
D38*
%TO.C,IC3*%
X134910000Y-116750000D03*
X134510000Y-116750000D03*
X134110000Y-116750000D03*
X133710000Y-116750000D03*
X133310000Y-116750000D03*
X132910000Y-116750000D03*
X132510000Y-116750000D03*
X132110000Y-116750000D03*
X131710000Y-116750000D03*
X131310000Y-116750000D03*
D39*
X130610000Y-117350000D03*
X130610000Y-117750000D03*
X130610000Y-118150000D03*
X130610000Y-118550000D03*
X130610000Y-118950000D03*
X130610000Y-119350000D03*
X130610000Y-119750000D03*
X130610000Y-120150000D03*
D38*
X131310000Y-120750000D03*
X131710000Y-120750000D03*
X132110000Y-120750000D03*
X132510000Y-120750000D03*
X132910000Y-120750000D03*
X133310000Y-120750000D03*
X133710000Y-120750000D03*
X134110000Y-120750000D03*
X134510000Y-120750000D03*
X134910000Y-120750000D03*
D39*
X135610000Y-120150000D03*
X135610000Y-119750000D03*
X135610000Y-119350000D03*
X135610000Y-118950000D03*
X135610000Y-118550000D03*
X135610000Y-118150000D03*
X135610000Y-117750000D03*
X135610000Y-117350000D03*
D40*
X133110000Y-118750000D03*
%TD*%
D41*
%TO.C,U2*%
X144310000Y-64200000D03*
X143040000Y-64200000D03*
X141770000Y-64200000D03*
X140500000Y-64200000D03*
X140500000Y-69150000D03*
X141770000Y-69150000D03*
X143040000Y-69150000D03*
X144310000Y-69150000D03*
%TD*%
D42*
%TO.C,U1*%
X142760000Y-88930000D03*
X144460000Y-88930000D03*
X146160000Y-88930000D03*
D43*
X146160000Y-79780000D03*
D42*
X147860000Y-88930000D03*
X149560000Y-88930000D03*
%TD*%
D17*
%TO.C,C33*%
X149485000Y-124600000D03*
X151035000Y-124600000D03*
%TD*%
D44*
%TO.C,C5*%
X149310000Y-63550000D03*
X149310000Y-59150000D03*
%TD*%
D17*
%TO.C,C35*%
X143085000Y-124500000D03*
X144635000Y-124500000D03*
%TD*%
D45*
%TO.C,J5*%
X126910000Y-70450000D03*
D46*
X120610000Y-70450000D03*
D47*
X124010000Y-75250000D03*
%TD*%
D48*
%TO.C,RV1*%
X137110000Y-82830000D03*
X137110000Y-80290000D03*
X137110000Y-77750000D03*
%TD*%
D26*
%TO.C,C3*%
X133160000Y-82405000D03*
X133160000Y-80855000D03*
%TD*%
D21*
%TO.C,TP1*%
X130610000Y-80850000D03*
%TD*%
D49*
%TO.C,L1*%
X158410000Y-98955000D03*
X158410000Y-89505000D03*
%TD*%
D21*
%TO.C,TP7*%
X157700000Y-73350000D03*
%TD*%
D19*
%TO.C,C22*%
X130485000Y-113950000D03*
X128935000Y-113950000D03*
%TD*%
D50*
%TO.C,R3*%
X138760000Y-86450000D03*
X137110000Y-86450000D03*
%TD*%
D51*
%TO.C,TP8*%
X126610000Y-63250000D03*
%TD*%
%TO.C,TP9*%
X120310000Y-63250000D03*
%TD*%
D52*
%TO.C,D1*%
X149560000Y-98830000D03*
X149560000Y-94830000D03*
%TD*%
M02*
