%TF.GenerationSoftware,KiCad,Pcbnew,9.0.0*%
%TF.CreationDate,2025-03-07T07:16:51+07:00*%
%TF.ProjectId,Driver-DRV8317,44726976-6572-42d4-9452-56383331372e,rev?*%
%TF.SameCoordinates,Original*%
%TF.FileFunction,Soldermask,Bot*%
%TF.FilePolarity,Negative*%
%FSLAX46Y46*%
G04 Gerber Fmt 4.6, Leading zero omitted, Abs format (unit mm)*
G04 Created by KiCad (PCBNEW 9.0.0) date 2025-03-07 07:16:51*
%MOMM*%
%LPD*%
G01*
G04 APERTURE LIST*
G04 Aperture macros list*
%AMRoundRect*
0 Rectangle with rounded corners*
0 $1 Rounding radius*
0 $2 $3 $4 $5 $6 $7 $8 $9 X,Y pos of 4 corners*
0 Add a 4 corners polygon primitive as box body*
4,1,4,$2,$3,$4,$5,$6,$7,$8,$9,$2,$3,0*
0 Add four circle primitives for the rounded corners*
1,1,$1+$1,$2,$3*
1,1,$1+$1,$4,$5*
1,1,$1+$1,$6,$7*
1,1,$1+$1,$8,$9*
0 Add four rect primitives between the rounded corners*
20,1,$1+$1,$2,$3,$4,$5,0*
20,1,$1+$1,$4,$5,$6,$7,0*
20,1,$1+$1,$6,$7,$8,$9,0*
20,1,$1+$1,$8,$9,$2,$3,0*%
G04 Aperture macros list end*
%ADD10R,1.700000X1.700000*%
%ADD11O,1.700000X1.700000*%
%ADD12R,4.350000X4.350000*%
%ADD13C,4.350000*%
%ADD14C,3.000000*%
%ADD15C,2.500000*%
%ADD16C,1.400000*%
%ADD17RoundRect,0.250000X-0.600000X0.600000X-0.600000X-0.600000X0.600000X-0.600000X0.600000X0.600000X0*%
%ADD18C,1.700000*%
%ADD19RoundRect,0.250000X-1.050000X1.050000X-1.050000X-1.050000X1.050000X-1.050000X1.050000X1.050000X0*%
%ADD20C,2.600000*%
%ADD21R,2.000000X4.600000*%
%ADD22O,2.000000X4.200000*%
%ADD23O,4.200000X2.000000*%
%ADD24C,1.440000*%
G04 APERTURE END LIST*
D10*
%TO.C,JP4*%
X146830000Y-117950000D03*
D11*
X149370000Y-117950000D03*
X151910000Y-117950000D03*
%TD*%
D12*
%TO.C,PS1*%
X128710000Y-89700000D03*
D13*
X128710000Y-96900000D03*
D14*
X122710000Y-86550000D03*
X122710000Y-100050000D03*
%TD*%
D15*
%TO.C,H5*%
X115710000Y-79150000D03*
%TD*%
%TO.C,H2*%
X163910000Y-134350000D03*
%TD*%
D16*
%TO.C,JP5*%
X146860000Y-114550000D03*
X149400000Y-114550000D03*
%TD*%
%TO.C,JP1*%
X156560000Y-114625000D03*
X159100000Y-114625000D03*
%TD*%
D15*
%TO.C,H6*%
X163910000Y-79150000D03*
%TD*%
%TO.C,H3*%
X163710000Y-60350000D03*
%TD*%
D10*
%TO.C,JP2*%
X156610000Y-118025000D03*
D11*
X159150000Y-118025000D03*
X161690000Y-118025000D03*
%TD*%
D15*
%TO.C,H4*%
X115710000Y-60150000D03*
%TD*%
D17*
%TO.C,J1*%
X155030000Y-129190000D03*
D18*
X155030000Y-131730000D03*
X152490000Y-129190000D03*
X152490000Y-131730000D03*
X149950000Y-129190000D03*
X149950000Y-131730000D03*
X147410000Y-129190000D03*
X147410000Y-131730000D03*
X144870000Y-129190000D03*
X144870000Y-131730000D03*
X142330000Y-129190000D03*
X142330000Y-131730000D03*
X139790000Y-129190000D03*
X139790000Y-131730000D03*
X137250000Y-129190000D03*
X137250000Y-131730000D03*
X134710000Y-129190000D03*
X134710000Y-131730000D03*
X132170000Y-129190000D03*
X132170000Y-131730000D03*
X129630000Y-129190000D03*
X129630000Y-131730000D03*
X127090000Y-129190000D03*
X127090000Y-131730000D03*
X124550000Y-129190000D03*
X124550000Y-131730000D03*
%TD*%
D16*
%TO.C,JP3*%
X146720000Y-107750000D03*
X149260000Y-107750000D03*
%TD*%
D15*
%TO.C,H1*%
X115710000Y-134350000D03*
%TD*%
D19*
%TO.C,J6*%
X117900000Y-111750000D03*
D20*
X117900000Y-116750000D03*
X117900000Y-121750000D03*
%TD*%
D21*
%TO.C,J5*%
X126910000Y-70450000D03*
D22*
X120610000Y-70450000D03*
D23*
X124010000Y-75250000D03*
%TD*%
D24*
%TO.C,RV1*%
X137110000Y-82830000D03*
X137110000Y-80290000D03*
X137110000Y-77750000D03*
%TD*%
M02*
