%TF.GenerationSoftware,KiCad,Pcbnew,9.0.0*%
%TF.CreationDate,2025-03-07T07:16:51+07:00*%
%TF.ProjectId,Driver-DRV8317,44726976-6572-42d4-9452-56383331372e,rev?*%
%TF.SameCoordinates,Original*%
%TF.FileFunction,Copper,L3,Inr*%
%TF.FilePolarity,Positive*%
%FSLAX46Y46*%
G04 Gerber Fmt 4.6, Leading zero omitted, Abs format (unit mm)*
G04 Created by KiCad (PCBNEW 9.0.0) date 2025-03-07 07:16:51*
%MOMM*%
%LPD*%
G01*
G04 APERTURE LIST*
G04 Aperture macros list*
%AMRoundRect*
0 Rectangle with rounded corners*
0 $1 Rounding radius*
0 $2 $3 $4 $5 $6 $7 $8 $9 X,Y pos of 4 corners*
0 Add a 4 corners polygon primitive as box body*
4,1,4,$2,$3,$4,$5,$6,$7,$8,$9,$2,$3,0*
0 Add four circle primitives for the rounded corners*
1,1,$1+$1,$2,$3*
1,1,$1+$1,$4,$5*
1,1,$1+$1,$6,$7*
1,1,$1+$1,$8,$9*
0 Add four rect primitives between the rounded corners*
20,1,$1+$1,$2,$3,$4,$5,0*
20,1,$1+$1,$4,$5,$6,$7,0*
20,1,$1+$1,$6,$7,$8,$9,0*
20,1,$1+$1,$8,$9,$2,$3,0*%
G04 Aperture macros list end*
%TA.AperFunction,ComponentPad*%
%ADD10R,1.700000X1.700000*%
%TD*%
%TA.AperFunction,ComponentPad*%
%ADD11O,1.700000X1.700000*%
%TD*%
%TA.AperFunction,ComponentPad*%
%ADD12R,4.350000X4.350000*%
%TD*%
%TA.AperFunction,ComponentPad*%
%ADD13C,4.350000*%
%TD*%
%TA.AperFunction,ComponentPad*%
%ADD14C,3.000000*%
%TD*%
%TA.AperFunction,ComponentPad*%
%ADD15C,1.400000*%
%TD*%
%TA.AperFunction,ComponentPad*%
%ADD16RoundRect,0.250000X-0.600000X0.600000X-0.600000X-0.600000X0.600000X-0.600000X0.600000X0.600000X0*%
%TD*%
%TA.AperFunction,ComponentPad*%
%ADD17C,1.700000*%
%TD*%
%TA.AperFunction,ComponentPad*%
%ADD18RoundRect,0.250000X-1.050000X1.050000X-1.050000X-1.050000X1.050000X-1.050000X1.050000X1.050000X0*%
%TD*%
%TA.AperFunction,ComponentPad*%
%ADD19C,2.600000*%
%TD*%
%TA.AperFunction,ComponentPad*%
%ADD20R,2.000000X4.600000*%
%TD*%
%TA.AperFunction,ComponentPad*%
%ADD21O,2.000000X4.200000*%
%TD*%
%TA.AperFunction,ComponentPad*%
%ADD22O,4.200000X2.000000*%
%TD*%
%TA.AperFunction,ComponentPad*%
%ADD23C,1.440000*%
%TD*%
%TA.AperFunction,ViaPad*%
%ADD24C,0.650000*%
%TD*%
%TA.AperFunction,ViaPad*%
%ADD25C,0.450000*%
%TD*%
%TA.AperFunction,ViaPad*%
%ADD26C,0.600000*%
%TD*%
%TA.AperFunction,ViaPad*%
%ADD27C,1.200000*%
%TD*%
G04 APERTURE END LIST*
D10*
%TO.N,Net-(JP4-A)*%
%TO.C,JP4*%
X146830000Y-117950000D03*
D11*
%TO.N,SLEW*%
X149370000Y-117950000D03*
%TO.N,AVDD*%
X151910000Y-117950000D03*
%TD*%
D12*
%TO.N,V+*%
%TO.C,PS1*%
X128710000Y-89700000D03*
D13*
%TO.N,GND*%
X128710000Y-96900000D03*
D14*
%TO.N,unconnected-(PS1-PadMH1)*%
X122710000Y-86550000D03*
%TO.N,unconnected-(PS1-PadMH2)*%
X122710000Y-100050000D03*
%TD*%
D15*
%TO.N,Net-(JP4-A)*%
%TO.C,JP5*%
X146860000Y-114550000D03*
%TO.N,GND*%
X149400000Y-114550000D03*
%TD*%
%TO.N,Net-(JP1-A)*%
%TO.C,JP1*%
X156560000Y-114625000D03*
%TO.N,GND*%
X159100000Y-114625000D03*
%TD*%
D10*
%TO.N,Net-(JP1-A)*%
%TO.C,JP2*%
X156610000Y-118025000D03*
D11*
%TO.N,GAIN*%
X159150000Y-118025000D03*
%TO.N,AVDD*%
X161690000Y-118025000D03*
%TD*%
D16*
%TO.N,AVDD*%
%TO.C,J1*%
X155030000Y-129190000D03*
D17*
%TO.N,GND*%
X155030000Y-131730000D03*
%TO.N,+5V*%
X152490000Y-129190000D03*
%TO.N,GND*%
X152490000Y-131730000D03*
%TO.N,Net-(J1-Pin_5)*%
X149950000Y-129190000D03*
%TO.N,GND*%
X149950000Y-131730000D03*
%TO.N,Net-(J1-Pin_7)*%
X147410000Y-129190000D03*
%TO.N,GND*%
X147410000Y-131730000D03*
%TO.N,Net-(J1-Pin_9)*%
X144870000Y-129190000D03*
%TO.N,GND*%
X144870000Y-131730000D03*
%TO.N,/DRV8317/NSLEEP*%
X142330000Y-129190000D03*
%TO.N,GND*%
X142330000Y-131730000D03*
%TO.N,/DRV8317/NFAULT*%
X139790000Y-129190000D03*
%TO.N,GND*%
X139790000Y-131730000D03*
%TO.N,/DRV8317/TIM1_CH3N*%
X137250000Y-129190000D03*
%TO.N,GND*%
X137250000Y-131730000D03*
%TO.N,/DRV8317/TIM1_CH3*%
X134710000Y-129190000D03*
%TO.N,GND*%
X134710000Y-131730000D03*
%TO.N,/DRV8317/TIM1_CH2N*%
X132170000Y-129190000D03*
%TO.N,GND*%
X132170000Y-131730000D03*
%TO.N,/DRV8317/TIM1_CH2*%
X129630000Y-129190000D03*
%TO.N,GND*%
X129630000Y-131730000D03*
%TO.N,/DRV8317/TIM1_CH1N*%
X127090000Y-129190000D03*
%TO.N,GND*%
X127090000Y-131730000D03*
%TO.N,/DRV8317/TIM1_CH1*%
X124550000Y-129190000D03*
%TO.N,GND*%
X124550000Y-131730000D03*
%TD*%
D15*
%TO.N,MODE*%
%TO.C,JP3*%
X146720000Y-107750000D03*
%TO.N,GND*%
X149260000Y-107750000D03*
%TD*%
D18*
%TO.N,Net-(IC3-OUTA_1)*%
%TO.C,J6*%
X117900000Y-111750000D03*
D19*
%TO.N,Net-(IC3-OUTB_1)*%
X117900000Y-116750000D03*
%TO.N,Net-(IC3-OUTC_1)*%
X117900000Y-121750000D03*
%TD*%
D20*
%TO.N,V+*%
%TO.C,J5*%
X126910000Y-70450000D03*
D21*
%TO.N,GND*%
X120610000Y-70450000D03*
D22*
%TO.N,N/C*%
X124010000Y-75250000D03*
%TD*%
D23*
%TO.N,Net-(U1-FB)*%
%TO.C,RV1*%
X137110000Y-82830000D03*
%TO.N,VM*%
X137110000Y-80290000D03*
%TO.N,unconnected-(RV1-Pad3)*%
X137110000Y-77750000D03*
%TD*%
D24*
%TO.N,GND*%
X114310000Y-106550000D03*
X129510000Y-115600000D03*
X132310000Y-105550000D03*
X130291623Y-121109148D03*
D25*
X134510000Y-118250000D03*
D24*
X144310000Y-74050000D03*
X115310000Y-108550000D03*
X116310000Y-104550000D03*
X131310000Y-104550000D03*
X144310000Y-73050000D03*
X129510000Y-116600000D03*
X121310000Y-105550000D03*
X125291623Y-122109148D03*
X114310000Y-105550000D03*
X118310000Y-105550000D03*
X142310000Y-73050000D03*
X120310000Y-107550000D03*
X118310000Y-103550000D03*
X127510000Y-115600000D03*
X117310000Y-108550000D03*
X150310000Y-74050000D03*
X129291623Y-122109148D03*
X128310000Y-107550000D03*
X119310000Y-103550000D03*
X148310000Y-74050000D03*
D25*
X131610000Y-118750000D03*
D24*
X121310000Y-108550000D03*
X116310000Y-103550000D03*
X125510000Y-115600000D03*
X114310000Y-103550000D03*
X117310000Y-106550000D03*
D25*
X134510000Y-119250000D03*
D24*
X149310000Y-73050000D03*
X121310000Y-104550000D03*
D25*
X133910000Y-119750000D03*
D24*
X151310000Y-74050000D03*
D25*
X140072407Y-122125930D03*
D24*
X127291623Y-122109148D03*
X119310000Y-105550000D03*
X128310000Y-103550000D03*
X116310000Y-105550000D03*
X129310000Y-104550000D03*
X117310000Y-104550000D03*
X130310000Y-102550000D03*
X151310000Y-73050000D03*
D26*
X143510000Y-114800000D03*
D24*
X118310000Y-104550000D03*
X128291623Y-122109148D03*
X131310000Y-103550000D03*
X129310000Y-105550000D03*
X117310000Y-105550000D03*
D25*
X132210000Y-119750000D03*
D24*
X121310000Y-106550000D03*
X132310000Y-103550000D03*
D25*
X134510000Y-118750000D03*
D24*
X121310000Y-107550000D03*
X119310000Y-108550000D03*
X116310000Y-106550000D03*
D25*
X133910000Y-118750000D03*
X128410000Y-118150000D03*
D24*
X128310000Y-105550000D03*
X141310000Y-74050000D03*
D25*
X134510000Y-117750000D03*
D24*
X129291623Y-121109148D03*
X130310000Y-104550000D03*
X142310000Y-74050000D03*
X143310000Y-73050000D03*
X146310000Y-73050000D03*
D25*
X133910000Y-119250000D03*
D24*
X149310000Y-74050000D03*
X120310000Y-108550000D03*
X130291623Y-122109148D03*
D25*
X131610000Y-118250000D03*
X133910000Y-117750000D03*
D24*
X132310000Y-104550000D03*
X115310000Y-103550000D03*
X117310000Y-103550000D03*
X118310000Y-107550000D03*
D25*
X133910000Y-118250000D03*
X132210000Y-118250000D03*
D24*
X141310000Y-73050000D03*
X118310000Y-108550000D03*
D25*
X132210000Y-118750000D03*
D24*
X117310000Y-107550000D03*
X131310000Y-105550000D03*
X128510000Y-115600000D03*
D25*
X128410000Y-119350000D03*
D24*
X150310000Y-73050000D03*
D25*
X134510000Y-119750000D03*
D24*
X128291623Y-121109148D03*
D25*
X131610000Y-117750000D03*
D24*
X127510000Y-116600000D03*
X115310000Y-107550000D03*
X148310000Y-73050000D03*
X119310000Y-104550000D03*
D26*
X157510000Y-58150000D03*
D24*
X119310000Y-107550000D03*
X126291623Y-122109148D03*
X120310000Y-106550000D03*
X145310000Y-74050000D03*
X147310000Y-74050000D03*
X128510000Y-116600000D03*
X145310000Y-73050000D03*
X128310000Y-102550000D03*
X116310000Y-107550000D03*
X147310000Y-73050000D03*
X130510000Y-116600000D03*
D26*
X137010000Y-88750000D03*
D24*
X132310000Y-102550000D03*
X120310000Y-105550000D03*
X129310000Y-102550000D03*
X126510000Y-115600000D03*
X129310000Y-103550000D03*
D25*
X132210000Y-119250000D03*
D24*
X143310000Y-74050000D03*
X114310000Y-107550000D03*
X116310000Y-108550000D03*
X115310000Y-106550000D03*
X120310000Y-104550000D03*
D25*
X131610000Y-119750000D03*
D24*
X130310000Y-105550000D03*
X115310000Y-104550000D03*
X119310000Y-106550000D03*
X121310000Y-103550000D03*
X114310000Y-104550000D03*
X146310000Y-74050000D03*
D25*
X131610000Y-119250000D03*
D24*
X128310000Y-104550000D03*
X131310000Y-102550000D03*
X128310000Y-106550000D03*
X120310000Y-103550000D03*
X130310000Y-103550000D03*
D26*
X163660000Y-107300000D03*
D24*
X127291623Y-121109148D03*
X115310000Y-105550000D03*
X114310000Y-108550000D03*
D25*
X132210000Y-117750000D03*
D24*
X118310000Y-106550000D03*
D27*
%TO.N,VM*%
X123510000Y-105050000D03*
X124910000Y-108850000D03*
X157310000Y-93750000D03*
X159310000Y-92350000D03*
X123510000Y-110350000D03*
X124910000Y-103550000D03*
X152910000Y-88650000D03*
X152910000Y-93350000D03*
X154910000Y-88650000D03*
D25*
X131660000Y-121600000D03*
D27*
X126310000Y-105050000D03*
X124910000Y-110350000D03*
X126310000Y-110350000D03*
X126310000Y-103550000D03*
X154910000Y-90150000D03*
X123510000Y-108850000D03*
X152910000Y-91650000D03*
X123510000Y-103550000D03*
X159310000Y-93750000D03*
X126310000Y-108850000D03*
X154910000Y-91650000D03*
X152910000Y-90150000D03*
X154910000Y-93350000D03*
X157310000Y-92350000D03*
X124910000Y-105050000D03*
D26*
%TO.N,Net-(U1-FB)*%
X147860000Y-85500000D03*
D25*
%TO.N,AVDD*%
X137010000Y-121050000D03*
D26*
X160610000Y-67150000D03*
D25*
X132200000Y-122200000D03*
D26*
X156610000Y-67100000D03*
D25*
X141285000Y-121150000D03*
D26*
X154810000Y-68700000D03*
X156610000Y-67900000D03*
X160610000Y-67950000D03*
X156610000Y-68700000D03*
X154810000Y-67100000D03*
D25*
X136452496Y-118802542D03*
D26*
X159710000Y-67950000D03*
X154810000Y-67900000D03*
D25*
X137160000Y-116800000D03*
D26*
X158810000Y-68750000D03*
X161410000Y-107400000D03*
D25*
X132300000Y-115600000D03*
D26*
X158810000Y-67150000D03*
X155710000Y-68700000D03*
X159710000Y-68750000D03*
X155710000Y-67100000D03*
X158810000Y-67950000D03*
X160610000Y-68750000D03*
X159710000Y-67150000D03*
X155710000Y-67900000D03*
D25*
%TO.N,SLEW*%
X137800000Y-119750000D03*
%TO.N,/DRV8317/NFAULT*%
X138774364Y-118815359D03*
X134810000Y-115650000D03*
%TO.N,GAIN*%
X136810000Y-120350000D03*
%TO.N,MODE*%
X137400000Y-119150000D03*
%TO.N,/DRV8317/NSLEEP*%
X143110000Y-118450000D03*
X143610000Y-122150000D03*
X140510000Y-116150000D03*
D26*
%TO.N,+5V*%
X151110000Y-62550000D03*
X162810000Y-122950000D03*
%TD*%
%TA.AperFunction,Conductor*%
%TO.N,GND*%
G36*
X163713243Y-57250670D02*
G01*
X164027498Y-57267139D01*
X164040406Y-57268495D01*
X164348015Y-57317217D01*
X164360680Y-57319908D01*
X164661528Y-57400520D01*
X164673855Y-57404525D01*
X164964623Y-57516141D01*
X164976459Y-57521410D01*
X165253977Y-57662812D01*
X165265183Y-57669282D01*
X165526396Y-57838917D01*
X165536887Y-57846539D01*
X165778923Y-58042536D01*
X165788568Y-58051221D01*
X166008778Y-58271431D01*
X166017463Y-58281076D01*
X166213460Y-58523112D01*
X166221085Y-58533606D01*
X166390713Y-58794810D01*
X166397190Y-58806029D01*
X166493450Y-58994949D01*
X166538584Y-59083530D01*
X166543863Y-59095387D01*
X166655471Y-59386135D01*
X166659482Y-59398480D01*
X166689810Y-59511666D01*
X166724780Y-59642179D01*
X166740087Y-59699304D01*
X166742785Y-59711999D01*
X166791503Y-60019592D01*
X166792860Y-60032500D01*
X166809330Y-60346756D01*
X166809500Y-60353246D01*
X166809500Y-134346519D01*
X166809305Y-134353472D01*
X166791659Y-134667688D01*
X166790102Y-134681506D01*
X166737969Y-134988333D01*
X166734875Y-135001889D01*
X166648717Y-135300952D01*
X166644124Y-135314078D01*
X166525024Y-135601611D01*
X166518991Y-135614139D01*
X166368442Y-135886538D01*
X166361043Y-135898312D01*
X166180954Y-136152123D01*
X166172285Y-136162995D01*
X165964896Y-136395063D01*
X165955063Y-136404896D01*
X165722995Y-136612285D01*
X165712123Y-136620954D01*
X165458312Y-136801043D01*
X165446538Y-136808442D01*
X165174139Y-136958991D01*
X165161611Y-136965024D01*
X164874078Y-137084124D01*
X164860952Y-137088717D01*
X164561889Y-137174875D01*
X164548333Y-137177969D01*
X164241506Y-137230102D01*
X164227688Y-137231659D01*
X163913472Y-137249305D01*
X163906519Y-137249500D01*
X115713481Y-137249500D01*
X115706528Y-137249305D01*
X115392311Y-137231659D01*
X115378493Y-137230102D01*
X115071666Y-137177969D01*
X115058110Y-137174875D01*
X114759047Y-137088717D01*
X114745921Y-137084124D01*
X114458388Y-136965024D01*
X114445860Y-136958991D01*
X114238673Y-136844483D01*
X114173457Y-136808439D01*
X114161692Y-136801046D01*
X113907872Y-136620951D01*
X113897004Y-136612285D01*
X113664936Y-136404896D01*
X113655103Y-136395063D01*
X113447714Y-136162995D01*
X113439050Y-136152129D01*
X113258950Y-135898303D01*
X113251563Y-135886547D01*
X113101004Y-135614132D01*
X113094978Y-135601618D01*
X112975874Y-135314077D01*
X112971282Y-135300952D01*
X112950780Y-135229786D01*
X112885122Y-135001883D01*
X112882030Y-134988333D01*
X112829896Y-134681498D01*
X112828340Y-134667695D01*
X112810695Y-134353471D01*
X112810500Y-134346519D01*
X112810500Y-134243713D01*
X114359500Y-134243713D01*
X114359500Y-134456286D01*
X114371227Y-134530331D01*
X114392754Y-134666243D01*
X114397713Y-134681506D01*
X114458444Y-134868414D01*
X114554951Y-135057820D01*
X114679890Y-135229786D01*
X114830213Y-135380109D01*
X115002179Y-135505048D01*
X115002181Y-135505049D01*
X115002184Y-135505051D01*
X115191588Y-135601557D01*
X115393757Y-135667246D01*
X115603713Y-135700500D01*
X115603714Y-135700500D01*
X115816286Y-135700500D01*
X115816287Y-135700500D01*
X116026243Y-135667246D01*
X116228412Y-135601557D01*
X116417816Y-135505051D01*
X116439789Y-135489086D01*
X116589786Y-135380109D01*
X116589788Y-135380106D01*
X116589792Y-135380104D01*
X116740104Y-135229792D01*
X116740106Y-135229788D01*
X116740109Y-135229786D01*
X116865048Y-135057820D01*
X116865047Y-135057820D01*
X116865051Y-135057816D01*
X116961557Y-134868412D01*
X117027246Y-134666243D01*
X117060500Y-134456287D01*
X117060500Y-134243713D01*
X162559500Y-134243713D01*
X162559500Y-134456286D01*
X162571227Y-134530331D01*
X162592754Y-134666243D01*
X162597713Y-134681506D01*
X162658444Y-134868414D01*
X162754951Y-135057820D01*
X162879890Y-135229786D01*
X163030213Y-135380109D01*
X163202179Y-135505048D01*
X163202181Y-135505049D01*
X163202184Y-135505051D01*
X163391588Y-135601557D01*
X163593757Y-135667246D01*
X163803713Y-135700500D01*
X163803714Y-135700500D01*
X164016286Y-135700500D01*
X164016287Y-135700500D01*
X164226243Y-135667246D01*
X164428412Y-135601557D01*
X164617816Y-135505051D01*
X164639789Y-135489086D01*
X164789786Y-135380109D01*
X164789788Y-135380106D01*
X164789792Y-135380104D01*
X164940104Y-135229792D01*
X164940106Y-135229788D01*
X164940109Y-135229786D01*
X165065048Y-135057820D01*
X165065047Y-135057820D01*
X165065051Y-135057816D01*
X165161557Y-134868412D01*
X165227246Y-134666243D01*
X165260500Y-134456287D01*
X165260500Y-134243713D01*
X165227246Y-134033757D01*
X165161557Y-133831588D01*
X165065051Y-133642184D01*
X165065049Y-133642181D01*
X165065048Y-133642179D01*
X164940109Y-133470213D01*
X164789786Y-133319890D01*
X164617820Y-133194951D01*
X164428414Y-133098444D01*
X164428413Y-133098443D01*
X164428412Y-133098443D01*
X164226243Y-133032754D01*
X164226241Y-133032753D01*
X164226240Y-133032753D01*
X164064957Y-133007208D01*
X164016287Y-132999500D01*
X163803713Y-132999500D01*
X163755042Y-133007208D01*
X163593760Y-133032753D01*
X163391585Y-133098444D01*
X163202179Y-133194951D01*
X163030213Y-133319890D01*
X162879890Y-133470213D01*
X162754951Y-133642179D01*
X162658444Y-133831585D01*
X162592753Y-134033760D01*
X162559500Y-134243713D01*
X117060500Y-134243713D01*
X117027246Y-134033757D01*
X116961557Y-133831588D01*
X116865051Y-133642184D01*
X116865049Y-133642181D01*
X116865048Y-133642179D01*
X116740109Y-133470213D01*
X116589786Y-133319890D01*
X116417820Y-133194951D01*
X116228414Y-133098444D01*
X116228413Y-133098443D01*
X116228412Y-133098443D01*
X116026243Y-133032754D01*
X116026241Y-133032753D01*
X116026240Y-133032753D01*
X115864957Y-133007208D01*
X115816287Y-132999500D01*
X115603713Y-132999500D01*
X115555042Y-133007208D01*
X115393760Y-133032753D01*
X115191585Y-133098444D01*
X115002179Y-133194951D01*
X114830213Y-133319890D01*
X114679890Y-133470213D01*
X114554951Y-133642179D01*
X114458444Y-133831585D01*
X114392753Y-134033760D01*
X114359500Y-134243713D01*
X112810500Y-134243713D01*
X112810500Y-127774000D01*
X112830185Y-127706961D01*
X112882989Y-127661206D01*
X112934500Y-127650000D01*
X124136420Y-127650000D01*
X124203459Y-127669685D01*
X124249214Y-127722489D01*
X124259158Y-127791647D01*
X124230133Y-127855203D01*
X124174739Y-127891930D01*
X124031588Y-127938443D01*
X124031585Y-127938444D01*
X123842179Y-128034951D01*
X123670213Y-128159890D01*
X123519890Y-128310213D01*
X123394951Y-128482179D01*
X123298444Y-128671585D01*
X123232753Y-128873760D01*
X123199500Y-129083713D01*
X123199500Y-129296286D01*
X123232753Y-129506239D01*
X123298444Y-129708414D01*
X123394951Y-129897820D01*
X123519890Y-130069786D01*
X123670213Y-130220109D01*
X123842179Y-130345048D01*
X123842181Y-130345049D01*
X123842184Y-130345051D01*
X124031588Y-130441557D01*
X124233757Y-130507246D01*
X124443713Y-130540500D01*
X124443714Y-130540500D01*
X124656286Y-130540500D01*
X124656287Y-130540500D01*
X124866243Y-130507246D01*
X125068412Y-130441557D01*
X125257816Y-130345051D01*
X125279789Y-130329086D01*
X125429786Y-130220109D01*
X125429788Y-130220106D01*
X125429792Y-130220104D01*
X125580104Y-130069792D01*
X125580106Y-130069788D01*
X125580109Y-130069786D01*
X125705048Y-129897820D01*
X125705047Y-129897820D01*
X125705051Y-129897816D01*
X125709514Y-129889054D01*
X125757488Y-129838259D01*
X125825308Y-129821463D01*
X125891444Y-129843999D01*
X125930486Y-129889056D01*
X125934951Y-129897820D01*
X126059890Y-130069786D01*
X126210213Y-130220109D01*
X126382179Y-130345048D01*
X126382181Y-130345049D01*
X126382184Y-130345051D01*
X126571588Y-130441557D01*
X126773757Y-130507246D01*
X126983713Y-130540500D01*
X126983714Y-130540500D01*
X127196286Y-130540500D01*
X127196287Y-130540500D01*
X127406243Y-130507246D01*
X127608412Y-130441557D01*
X127797816Y-130345051D01*
X127819789Y-130329086D01*
X127969786Y-130220109D01*
X127969788Y-130220106D01*
X127969792Y-130220104D01*
X128120104Y-130069792D01*
X128120106Y-130069788D01*
X128120109Y-130069786D01*
X128245048Y-129897820D01*
X128245047Y-129897820D01*
X128245051Y-129897816D01*
X128249514Y-129889054D01*
X128297488Y-129838259D01*
X128365308Y-129821463D01*
X128431444Y-129843999D01*
X128470486Y-129889056D01*
X128474951Y-129897820D01*
X128599890Y-130069786D01*
X128750213Y-130220109D01*
X128922179Y-130345048D01*
X128922181Y-130345049D01*
X128922184Y-130345051D01*
X129111588Y-130441557D01*
X129313757Y-130507246D01*
X129523713Y-130540500D01*
X129523714Y-130540500D01*
X129736286Y-130540500D01*
X129736287Y-130540500D01*
X129946243Y-130507246D01*
X130148412Y-130441557D01*
X130337816Y-130345051D01*
X130359789Y-130329086D01*
X130509786Y-130220109D01*
X130509788Y-130220106D01*
X130509792Y-130220104D01*
X130660104Y-130069792D01*
X130660106Y-130069788D01*
X130660109Y-130069786D01*
X130785048Y-129897820D01*
X130785047Y-129897820D01*
X130785051Y-129897816D01*
X130789514Y-129889054D01*
X130837488Y-129838259D01*
X130905308Y-129821463D01*
X130971444Y-129843999D01*
X131010486Y-129889056D01*
X131014951Y-129897820D01*
X131139890Y-130069786D01*
X131290213Y-130220109D01*
X131462179Y-130345048D01*
X131462181Y-130345049D01*
X131462184Y-130345051D01*
X131651588Y-130441557D01*
X131853757Y-130507246D01*
X132063713Y-130540500D01*
X132063714Y-130540500D01*
X132276286Y-130540500D01*
X132276287Y-130540500D01*
X132486243Y-130507246D01*
X132688412Y-130441557D01*
X132877816Y-130345051D01*
X132899789Y-130329086D01*
X133049786Y-130220109D01*
X133049788Y-130220106D01*
X133049792Y-130220104D01*
X133200104Y-130069792D01*
X133200106Y-130069788D01*
X133200109Y-130069786D01*
X133325048Y-129897820D01*
X133325047Y-129897820D01*
X133325051Y-129897816D01*
X133329514Y-129889054D01*
X133377488Y-129838259D01*
X133445308Y-129821463D01*
X133511444Y-129843999D01*
X133550486Y-129889056D01*
X133554951Y-129897820D01*
X133679890Y-130069786D01*
X133830213Y-130220109D01*
X134002179Y-130345048D01*
X134002181Y-130345049D01*
X134002184Y-130345051D01*
X134191588Y-130441557D01*
X134393757Y-130507246D01*
X134603713Y-130540500D01*
X134603714Y-130540500D01*
X134816286Y-130540500D01*
X134816287Y-130540500D01*
X135026243Y-130507246D01*
X135228412Y-130441557D01*
X135417816Y-130345051D01*
X135439789Y-130329086D01*
X135589786Y-130220109D01*
X135589788Y-130220106D01*
X135589792Y-130220104D01*
X135740104Y-130069792D01*
X135740106Y-130069788D01*
X135740109Y-130069786D01*
X135865048Y-129897820D01*
X135865047Y-129897820D01*
X135865051Y-129897816D01*
X135869514Y-129889054D01*
X135917488Y-129838259D01*
X135985308Y-129821463D01*
X136051444Y-129843999D01*
X136090486Y-129889056D01*
X136094951Y-129897820D01*
X136219890Y-130069786D01*
X136370213Y-130220109D01*
X136542179Y-130345048D01*
X136542181Y-130345049D01*
X136542184Y-130345051D01*
X136731588Y-130441557D01*
X136933757Y-130507246D01*
X137143713Y-130540500D01*
X137143714Y-130540500D01*
X137356286Y-130540500D01*
X137356287Y-130540500D01*
X137566243Y-130507246D01*
X137768412Y-130441557D01*
X137957816Y-130345051D01*
X137979789Y-130329086D01*
X138129786Y-130220109D01*
X138129788Y-130220106D01*
X138129792Y-130220104D01*
X138280104Y-130069792D01*
X138280106Y-130069788D01*
X138280109Y-130069786D01*
X138405048Y-129897820D01*
X138405047Y-129897820D01*
X138405051Y-129897816D01*
X138409514Y-129889054D01*
X138457488Y-129838259D01*
X138525308Y-129821463D01*
X138591444Y-129843999D01*
X138630486Y-129889056D01*
X138634951Y-129897820D01*
X138759890Y-130069786D01*
X138910213Y-130220109D01*
X139082179Y-130345048D01*
X139082181Y-130345049D01*
X139082184Y-130345051D01*
X139271588Y-130441557D01*
X139473757Y-130507246D01*
X139683713Y-130540500D01*
X139683714Y-130540500D01*
X139896286Y-130540500D01*
X139896287Y-130540500D01*
X140106243Y-130507246D01*
X140308412Y-130441557D01*
X140497816Y-130345051D01*
X140519789Y-130329086D01*
X140669786Y-130220109D01*
X140669788Y-130220106D01*
X140669792Y-130220104D01*
X140820104Y-130069792D01*
X140820106Y-130069788D01*
X140820109Y-130069786D01*
X140945048Y-129897820D01*
X140945047Y-129897820D01*
X140945051Y-129897816D01*
X140949514Y-129889054D01*
X140997488Y-129838259D01*
X141065308Y-129821463D01*
X141131444Y-129843999D01*
X141170486Y-129889056D01*
X141174951Y-129897820D01*
X141299890Y-130069786D01*
X141450213Y-130220109D01*
X141622179Y-130345048D01*
X141622181Y-130345049D01*
X141622184Y-130345051D01*
X141811588Y-130441557D01*
X142013757Y-130507246D01*
X142223713Y-130540500D01*
X142223714Y-130540500D01*
X142436286Y-130540500D01*
X142436287Y-130540500D01*
X142646243Y-130507246D01*
X142848412Y-130441557D01*
X143037816Y-130345051D01*
X143059789Y-130329086D01*
X143209786Y-130220109D01*
X143209788Y-130220106D01*
X143209792Y-130220104D01*
X143360104Y-130069792D01*
X143360106Y-130069788D01*
X143360109Y-130069786D01*
X143485048Y-129897820D01*
X143485047Y-129897820D01*
X143485051Y-129897816D01*
X143489514Y-129889054D01*
X143537488Y-129838259D01*
X143605308Y-129821463D01*
X143671444Y-129843999D01*
X143710486Y-129889056D01*
X143714951Y-129897820D01*
X143839890Y-130069786D01*
X143990213Y-130220109D01*
X144162179Y-130345048D01*
X144162181Y-130345049D01*
X144162184Y-130345051D01*
X144351588Y-130441557D01*
X144553757Y-130507246D01*
X144763713Y-130540500D01*
X144763714Y-130540500D01*
X144976286Y-130540500D01*
X144976287Y-130540500D01*
X145186243Y-130507246D01*
X145388412Y-130441557D01*
X145577816Y-130345051D01*
X145599789Y-130329086D01*
X145749786Y-130220109D01*
X145749788Y-130220106D01*
X145749792Y-130220104D01*
X145900104Y-130069792D01*
X145900106Y-130069788D01*
X145900109Y-130069786D01*
X146025048Y-129897820D01*
X146025047Y-129897820D01*
X146025051Y-129897816D01*
X146029514Y-129889054D01*
X146077488Y-129838259D01*
X146145308Y-129821463D01*
X146211444Y-129843999D01*
X146250486Y-129889056D01*
X146254951Y-129897820D01*
X146379890Y-130069786D01*
X146530213Y-130220109D01*
X146702179Y-130345048D01*
X146702181Y-130345049D01*
X146702184Y-130345051D01*
X146891588Y-130441557D01*
X147093757Y-130507246D01*
X147303713Y-130540500D01*
X147303714Y-130540500D01*
X147516286Y-130540500D01*
X147516287Y-130540500D01*
X147726243Y-130507246D01*
X147928412Y-130441557D01*
X148117816Y-130345051D01*
X148139789Y-130329086D01*
X148289786Y-130220109D01*
X148289788Y-130220106D01*
X148289792Y-130220104D01*
X148440104Y-130069792D01*
X148440106Y-130069788D01*
X148440109Y-130069786D01*
X148565048Y-129897820D01*
X148565047Y-129897820D01*
X148565051Y-129897816D01*
X148569514Y-129889054D01*
X148617488Y-129838259D01*
X148685308Y-129821463D01*
X148751444Y-129843999D01*
X148790486Y-129889056D01*
X148794951Y-129897820D01*
X148919890Y-130069786D01*
X149070213Y-130220109D01*
X149242179Y-130345048D01*
X149242181Y-130345049D01*
X149242184Y-130345051D01*
X149431588Y-130441557D01*
X149633757Y-130507246D01*
X149843713Y-130540500D01*
X149843714Y-130540500D01*
X150056286Y-130540500D01*
X150056287Y-130540500D01*
X150266243Y-130507246D01*
X150468412Y-130441557D01*
X150657816Y-130345051D01*
X150679789Y-130329086D01*
X150829786Y-130220109D01*
X150829788Y-130220106D01*
X150829792Y-130220104D01*
X150980104Y-130069792D01*
X150980106Y-130069788D01*
X150980109Y-130069786D01*
X151105048Y-129897820D01*
X151105047Y-129897820D01*
X151105051Y-129897816D01*
X151109514Y-129889054D01*
X151157488Y-129838259D01*
X151225308Y-129821463D01*
X151291444Y-129843999D01*
X151330486Y-129889056D01*
X151334951Y-129897820D01*
X151459890Y-130069786D01*
X151610213Y-130220109D01*
X151782179Y-130345048D01*
X151782181Y-130345049D01*
X151782184Y-130345051D01*
X151971588Y-130441557D01*
X152173757Y-130507246D01*
X152383713Y-130540500D01*
X152383714Y-130540500D01*
X152596286Y-130540500D01*
X152596287Y-130540500D01*
X152806243Y-130507246D01*
X153008412Y-130441557D01*
X153197816Y-130345051D01*
X153219789Y-130329086D01*
X153369786Y-130220109D01*
X153369788Y-130220106D01*
X153369792Y-130220104D01*
X153520104Y-130069792D01*
X153523660Y-130064896D01*
X153578987Y-130022230D01*
X153648600Y-130016248D01*
X153710397Y-130048851D01*
X153741686Y-130098772D01*
X153745186Y-130109334D01*
X153837288Y-130258656D01*
X153961344Y-130382712D01*
X154110666Y-130474814D01*
X154277203Y-130529999D01*
X154379991Y-130540500D01*
X155680008Y-130540499D01*
X155782797Y-130529999D01*
X155949334Y-130474814D01*
X156098656Y-130382712D01*
X156222712Y-130258656D01*
X156314814Y-130109334D01*
X156369999Y-129942797D01*
X156380500Y-129840009D01*
X156380499Y-128539992D01*
X156369999Y-128437203D01*
X156314814Y-128270666D01*
X156222712Y-128121344D01*
X156098656Y-127997288D01*
X155949334Y-127905186D01*
X155782797Y-127850001D01*
X155782795Y-127850000D01*
X155680010Y-127839500D01*
X154379998Y-127839500D01*
X154379981Y-127839501D01*
X154277203Y-127850000D01*
X154277200Y-127850001D01*
X154110668Y-127905185D01*
X154110663Y-127905187D01*
X153961342Y-127997289D01*
X153837289Y-128121342D01*
X153745187Y-128270663D01*
X153745183Y-128270673D01*
X153741685Y-128281229D01*
X153701910Y-128338672D01*
X153637393Y-128365493D01*
X153568618Y-128353174D01*
X153523663Y-128315106D01*
X153520105Y-128310209D01*
X153369786Y-128159890D01*
X153197820Y-128034951D01*
X153008414Y-127938444D01*
X153008413Y-127938443D01*
X153008412Y-127938443D01*
X152806243Y-127872754D01*
X152806241Y-127872753D01*
X152806240Y-127872753D01*
X152644957Y-127847208D01*
X152596287Y-127839500D01*
X152383713Y-127839500D01*
X152335042Y-127847208D01*
X152173760Y-127872753D01*
X151971585Y-127938444D01*
X151782179Y-128034951D01*
X151610213Y-128159890D01*
X151459890Y-128310213D01*
X151334949Y-128482182D01*
X151330484Y-128490946D01*
X151282509Y-128541742D01*
X151214688Y-128558536D01*
X151148553Y-128535998D01*
X151109516Y-128490946D01*
X151105050Y-128482182D01*
X150980109Y-128310213D01*
X150829786Y-128159890D01*
X150657820Y-128034951D01*
X150468414Y-127938444D01*
X150468413Y-127938443D01*
X150468412Y-127938443D01*
X150266243Y-127872754D01*
X150266241Y-127872753D01*
X150266240Y-127872753D01*
X150104957Y-127847208D01*
X150056287Y-127839500D01*
X149843713Y-127839500D01*
X149795042Y-127847208D01*
X149633760Y-127872753D01*
X149431585Y-127938444D01*
X149242179Y-128034951D01*
X149070213Y-128159890D01*
X148919890Y-128310213D01*
X148794949Y-128482182D01*
X148790484Y-128490946D01*
X148742509Y-128541742D01*
X148674688Y-128558536D01*
X148608553Y-128535998D01*
X148569516Y-128490946D01*
X148565050Y-128482182D01*
X148440109Y-128310213D01*
X148289786Y-128159890D01*
X148117820Y-128034951D01*
X147928414Y-127938444D01*
X147928413Y-127938443D01*
X147928412Y-127938443D01*
X147726243Y-127872754D01*
X147726241Y-127872753D01*
X147726240Y-127872753D01*
X147564957Y-127847208D01*
X147516287Y-127839500D01*
X147303713Y-127839500D01*
X147255042Y-127847208D01*
X147093760Y-127872753D01*
X146891585Y-127938444D01*
X146702179Y-128034951D01*
X146530213Y-128159890D01*
X146379890Y-128310213D01*
X146254949Y-128482182D01*
X146250484Y-128490946D01*
X146202509Y-128541742D01*
X146134688Y-128558536D01*
X146068553Y-128535998D01*
X146029516Y-128490946D01*
X146025050Y-128482182D01*
X145900109Y-128310213D01*
X145749786Y-128159890D01*
X145577820Y-128034951D01*
X145388414Y-127938444D01*
X145388413Y-127938443D01*
X145388412Y-127938443D01*
X145186243Y-127872754D01*
X145186241Y-127872753D01*
X145186240Y-127872753D01*
X145024957Y-127847208D01*
X144976287Y-127839500D01*
X144763713Y-127839500D01*
X144715042Y-127847208D01*
X144553760Y-127872753D01*
X144351585Y-127938444D01*
X144162179Y-128034951D01*
X143990213Y-128159890D01*
X143839890Y-128310213D01*
X143714949Y-128482182D01*
X143710484Y-128490946D01*
X143662509Y-128541742D01*
X143594688Y-128558536D01*
X143528553Y-128535998D01*
X143489516Y-128490946D01*
X143485050Y-128482182D01*
X143360109Y-128310213D01*
X143209786Y-128159890D01*
X143037820Y-128034951D01*
X142848414Y-127938444D01*
X142848413Y-127938443D01*
X142848412Y-127938443D01*
X142646243Y-127872754D01*
X142646241Y-127872753D01*
X142646240Y-127872753D01*
X142484957Y-127847208D01*
X142436287Y-127839500D01*
X142223713Y-127839500D01*
X142175042Y-127847208D01*
X142013760Y-127872753D01*
X141811585Y-127938444D01*
X141622179Y-128034951D01*
X141450213Y-128159890D01*
X141299890Y-128310213D01*
X141174949Y-128482182D01*
X141170484Y-128490946D01*
X141122509Y-128541742D01*
X141054688Y-128558536D01*
X140988553Y-128535998D01*
X140949516Y-128490946D01*
X140945050Y-128482182D01*
X140820109Y-128310213D01*
X140669786Y-128159890D01*
X140497820Y-128034951D01*
X140308414Y-127938444D01*
X140308413Y-127938443D01*
X140308412Y-127938443D01*
X140106243Y-127872754D01*
X140106241Y-127872753D01*
X140106240Y-127872753D01*
X139944957Y-127847208D01*
X139896287Y-127839500D01*
X139683713Y-127839500D01*
X139635042Y-127847208D01*
X139473760Y-127872753D01*
X139271585Y-127938444D01*
X139082179Y-128034951D01*
X138910213Y-128159890D01*
X138759890Y-128310213D01*
X138634949Y-128482182D01*
X138630484Y-128490946D01*
X138582509Y-128541742D01*
X138514688Y-128558536D01*
X138448553Y-128535998D01*
X138409516Y-128490946D01*
X138405050Y-128482182D01*
X138280109Y-128310213D01*
X138129786Y-128159890D01*
X137957820Y-128034951D01*
X137768414Y-127938444D01*
X137768413Y-127938443D01*
X137768412Y-127938443D01*
X137566243Y-127872754D01*
X137566241Y-127872753D01*
X137566240Y-127872753D01*
X137404957Y-127847208D01*
X137356287Y-127839500D01*
X137143713Y-127839500D01*
X137095042Y-127847208D01*
X136933760Y-127872753D01*
X136731585Y-127938444D01*
X136542179Y-128034951D01*
X136370213Y-128159890D01*
X136219890Y-128310213D01*
X136094949Y-128482182D01*
X136090484Y-128490946D01*
X136042509Y-128541742D01*
X135974688Y-128558536D01*
X135908553Y-128535998D01*
X135869516Y-128490946D01*
X135865050Y-128482182D01*
X135740109Y-128310213D01*
X135589786Y-128159890D01*
X135417820Y-128034951D01*
X135228414Y-127938444D01*
X135228413Y-127938443D01*
X135228412Y-127938443D01*
X135026243Y-127872754D01*
X135026241Y-127872753D01*
X135026240Y-127872753D01*
X134864957Y-127847208D01*
X134816287Y-127839500D01*
X134603713Y-127839500D01*
X134555042Y-127847208D01*
X134393760Y-127872753D01*
X134191585Y-127938444D01*
X134002179Y-128034951D01*
X133830213Y-128159890D01*
X133679890Y-128310213D01*
X133554949Y-128482182D01*
X133550484Y-128490946D01*
X133502509Y-128541742D01*
X133434688Y-128558536D01*
X133368553Y-128535998D01*
X133329516Y-128490946D01*
X133325050Y-128482182D01*
X133200109Y-128310213D01*
X133049786Y-128159890D01*
X132877820Y-128034951D01*
X132688414Y-127938444D01*
X132688413Y-127938443D01*
X132688412Y-127938443D01*
X132486243Y-127872754D01*
X132486241Y-127872753D01*
X132486240Y-127872753D01*
X132324957Y-127847208D01*
X132276287Y-127839500D01*
X132063713Y-127839500D01*
X132015042Y-127847208D01*
X131853760Y-127872753D01*
X131651585Y-127938444D01*
X131462179Y-128034951D01*
X131290213Y-128159890D01*
X131139890Y-128310213D01*
X131014949Y-128482182D01*
X131010484Y-128490946D01*
X130962509Y-128541742D01*
X130894688Y-128558536D01*
X130828553Y-128535998D01*
X130789516Y-128490946D01*
X130785050Y-128482182D01*
X130660109Y-128310213D01*
X130509786Y-128159890D01*
X130337820Y-128034951D01*
X130148414Y-127938444D01*
X130148413Y-127938443D01*
X130148412Y-127938443D01*
X130005260Y-127891930D01*
X129947586Y-127852494D01*
X129920388Y-127788135D01*
X129932303Y-127719289D01*
X129979547Y-127667813D01*
X130043580Y-127650000D01*
X131610000Y-127650000D01*
X131610000Y-122910313D01*
X131629685Y-122843274D01*
X131682489Y-122797519D01*
X131751647Y-122787575D01*
X131802891Y-122807211D01*
X131856341Y-122842925D01*
X131856349Y-122842930D01*
X131867672Y-122847620D01*
X131988380Y-122897619D01*
X131988384Y-122897619D01*
X131988385Y-122897620D01*
X132128542Y-122925500D01*
X132128545Y-122925500D01*
X132271457Y-122925500D01*
X132365751Y-122906742D01*
X132411620Y-122897619D01*
X132543653Y-122842929D01*
X132662479Y-122763532D01*
X132763532Y-122662479D01*
X132842929Y-122543653D01*
X132897619Y-122411620D01*
X132914210Y-122328213D01*
X132925500Y-122271457D01*
X132925500Y-122221457D01*
X142884499Y-122221457D01*
X142912379Y-122361614D01*
X142912381Y-122361620D01*
X142967069Y-122493650D01*
X142967074Y-122493659D01*
X143046467Y-122612478D01*
X143046470Y-122612482D01*
X143147517Y-122713529D01*
X143147521Y-122713532D01*
X143266340Y-122792925D01*
X143266346Y-122792928D01*
X143266347Y-122792929D01*
X143398380Y-122847619D01*
X143398384Y-122847619D01*
X143398385Y-122847620D01*
X143538542Y-122875500D01*
X143538545Y-122875500D01*
X143681457Y-122875500D01*
X143703309Y-122871153D01*
X162009500Y-122871153D01*
X162009500Y-123028846D01*
X162040261Y-123183489D01*
X162040264Y-123183501D01*
X162100602Y-123329172D01*
X162100609Y-123329185D01*
X162188210Y-123460288D01*
X162188213Y-123460292D01*
X162299707Y-123571786D01*
X162299711Y-123571789D01*
X162430814Y-123659390D01*
X162430827Y-123659397D01*
X162576498Y-123719735D01*
X162576503Y-123719737D01*
X162731153Y-123750499D01*
X162731156Y-123750500D01*
X162731158Y-123750500D01*
X162888844Y-123750500D01*
X162888845Y-123750499D01*
X163043497Y-123719737D01*
X163189179Y-123659394D01*
X163320289Y-123571789D01*
X163431789Y-123460289D01*
X163519394Y-123329179D01*
X163579737Y-123183497D01*
X163610500Y-123028842D01*
X163610500Y-122871158D01*
X163610500Y-122871155D01*
X163610499Y-122871153D01*
X163593874Y-122787575D01*
X163579737Y-122716503D01*
X163557360Y-122662479D01*
X163519397Y-122570827D01*
X163519390Y-122570814D01*
X163431789Y-122439711D01*
X163431786Y-122439707D01*
X163320292Y-122328213D01*
X163320288Y-122328210D01*
X163189185Y-122240609D01*
X163189172Y-122240602D01*
X163043501Y-122180264D01*
X163043489Y-122180261D01*
X162888845Y-122149500D01*
X162888842Y-122149500D01*
X162731158Y-122149500D01*
X162731155Y-122149500D01*
X162576510Y-122180261D01*
X162576498Y-122180264D01*
X162430827Y-122240602D01*
X162430814Y-122240609D01*
X162299711Y-122328210D01*
X162299707Y-122328213D01*
X162188213Y-122439707D01*
X162188210Y-122439711D01*
X162100609Y-122570814D01*
X162100602Y-122570827D01*
X162040264Y-122716498D01*
X162040261Y-122716510D01*
X162009500Y-122871153D01*
X143703309Y-122871153D01*
X143775751Y-122856742D01*
X143821620Y-122847619D01*
X143953653Y-122792929D01*
X143997649Y-122763532D01*
X143999996Y-122761964D01*
X144027334Y-122743696D01*
X144072479Y-122713532D01*
X144173532Y-122612479D01*
X144252929Y-122493653D01*
X144307619Y-122361620D01*
X144325554Y-122271455D01*
X144335500Y-122221457D01*
X144335500Y-122078542D01*
X144307620Y-121938385D01*
X144307619Y-121938384D01*
X144307619Y-121938380D01*
X144252929Y-121806347D01*
X144252928Y-121806346D01*
X144252925Y-121806340D01*
X144173532Y-121687521D01*
X144173529Y-121687517D01*
X144072482Y-121586470D01*
X144072478Y-121586467D01*
X143953659Y-121507074D01*
X143953650Y-121507069D01*
X143821620Y-121452381D01*
X143821614Y-121452379D01*
X143681457Y-121424500D01*
X143681455Y-121424500D01*
X143538545Y-121424500D01*
X143538543Y-121424500D01*
X143398385Y-121452379D01*
X143398379Y-121452381D01*
X143266349Y-121507069D01*
X143266340Y-121507074D01*
X143147521Y-121586467D01*
X143147517Y-121586470D01*
X143046470Y-121687517D01*
X143046467Y-121687521D01*
X142967074Y-121806340D01*
X142967069Y-121806349D01*
X142912381Y-121938379D01*
X142912379Y-121938385D01*
X142884500Y-122078542D01*
X142884500Y-122078545D01*
X142884500Y-122221455D01*
X142884500Y-122221457D01*
X142884499Y-122221457D01*
X132925500Y-122221457D01*
X132925500Y-122128542D01*
X132919155Y-122096645D01*
X132897620Y-121988385D01*
X132897619Y-121988384D01*
X132897619Y-121988380D01*
X132855318Y-121886258D01*
X132842930Y-121856349D01*
X132842925Y-121856340D01*
X132763532Y-121737521D01*
X132763529Y-121737517D01*
X132662482Y-121636470D01*
X132662478Y-121636467D01*
X132543659Y-121557074D01*
X132543649Y-121557069D01*
X132438716Y-121513604D01*
X132384313Y-121469763D01*
X132364552Y-121423236D01*
X132357619Y-121388380D01*
X132302929Y-121256347D01*
X132302928Y-121256346D01*
X132302925Y-121256340D01*
X132223532Y-121137521D01*
X132223529Y-121137517D01*
X132122482Y-121036470D01*
X132122478Y-121036467D01*
X132003659Y-120957074D01*
X132003650Y-120957069D01*
X131871620Y-120902381D01*
X131871614Y-120902379D01*
X131731457Y-120874499D01*
X131725395Y-120873903D01*
X131725579Y-120872027D01*
X131666961Y-120854815D01*
X131621206Y-120802011D01*
X131610000Y-120750500D01*
X131610000Y-120150000D01*
X131334000Y-120150000D01*
X131266961Y-120130315D01*
X131221206Y-120077511D01*
X131210000Y-120026000D01*
X131210000Y-118873999D01*
X135726995Y-118873999D01*
X135754875Y-119014156D01*
X135754877Y-119014162D01*
X135809565Y-119146192D01*
X135809570Y-119146201D01*
X135888963Y-119265020D01*
X135888966Y-119265024D01*
X135990013Y-119366071D01*
X135990017Y-119366074D01*
X136108836Y-119445467D01*
X136108842Y-119445470D01*
X136108843Y-119445471D01*
X136240876Y-119500161D01*
X136240880Y-119500161D01*
X136240881Y-119500162D01*
X136359638Y-119523785D01*
X136421549Y-119556170D01*
X136456123Y-119616886D01*
X136452383Y-119686655D01*
X136411516Y-119743327D01*
X136404337Y-119748504D01*
X136347521Y-119786467D01*
X136347517Y-119786470D01*
X136246470Y-119887517D01*
X136246467Y-119887521D01*
X136167074Y-120006340D01*
X136167069Y-120006349D01*
X136112381Y-120138379D01*
X136112379Y-120138385D01*
X136084500Y-120278542D01*
X136084500Y-120278545D01*
X136084500Y-120421455D01*
X136084500Y-120421457D01*
X136084499Y-120421457D01*
X136112379Y-120561614D01*
X136112381Y-120561620D01*
X136167069Y-120693650D01*
X136167074Y-120693659D01*
X136246467Y-120812478D01*
X136246470Y-120812482D01*
X136258875Y-120824887D01*
X136292360Y-120886210D01*
X136292811Y-120936759D01*
X136284500Y-120978540D01*
X136284500Y-120978545D01*
X136284500Y-121121455D01*
X136284500Y-121121457D01*
X136284499Y-121121457D01*
X136312379Y-121261614D01*
X136312381Y-121261620D01*
X136367069Y-121393650D01*
X136367074Y-121393659D01*
X136446467Y-121512478D01*
X136446470Y-121512482D01*
X136547517Y-121613529D01*
X136547521Y-121613532D01*
X136666340Y-121692925D01*
X136666346Y-121692928D01*
X136666347Y-121692929D01*
X136798380Y-121747619D01*
X136798384Y-121747619D01*
X136798385Y-121747620D01*
X136938542Y-121775500D01*
X136938545Y-121775500D01*
X137081457Y-121775500D01*
X137175751Y-121756742D01*
X137221620Y-121747619D01*
X137353653Y-121692929D01*
X137472479Y-121613532D01*
X137573532Y-121512479D01*
X137652929Y-121393653D01*
X137707619Y-121261620D01*
X137715608Y-121221457D01*
X140559499Y-121221457D01*
X140587379Y-121361614D01*
X140587381Y-121361620D01*
X140642069Y-121493650D01*
X140642074Y-121493659D01*
X140721467Y-121612478D01*
X140721470Y-121612482D01*
X140822517Y-121713529D01*
X140822521Y-121713532D01*
X140941340Y-121792925D01*
X140941346Y-121792928D01*
X140941347Y-121792929D01*
X141073380Y-121847619D01*
X141073384Y-121847619D01*
X141073385Y-121847620D01*
X141213542Y-121875500D01*
X141213545Y-121875500D01*
X141356457Y-121875500D01*
X141452777Y-121856340D01*
X141496620Y-121847619D01*
X141628653Y-121792929D01*
X141747479Y-121713532D01*
X141848532Y-121612479D01*
X141927929Y-121493653D01*
X141982619Y-121361620D01*
X142003559Y-121256349D01*
X142010500Y-121221457D01*
X142010500Y-121078542D01*
X141982620Y-120938385D01*
X141982619Y-120938384D01*
X141982619Y-120938380D01*
X141927929Y-120806347D01*
X141927928Y-120806346D01*
X141927925Y-120806340D01*
X141848532Y-120687521D01*
X141848529Y-120687517D01*
X141747482Y-120586470D01*
X141747478Y-120586467D01*
X141628659Y-120507074D01*
X141628650Y-120507069D01*
X141496620Y-120452381D01*
X141496614Y-120452379D01*
X141356457Y-120424500D01*
X141356455Y-120424500D01*
X141213545Y-120424500D01*
X141213543Y-120424500D01*
X141073385Y-120452379D01*
X141073379Y-120452381D01*
X140941349Y-120507069D01*
X140941340Y-120507074D01*
X140822521Y-120586467D01*
X140822517Y-120586470D01*
X140721470Y-120687517D01*
X140721467Y-120687521D01*
X140642074Y-120806340D01*
X140642069Y-120806349D01*
X140587381Y-120938379D01*
X140587379Y-120938385D01*
X140559500Y-121078542D01*
X140559500Y-121078545D01*
X140559500Y-121221455D01*
X140559500Y-121221457D01*
X140559499Y-121221457D01*
X137715608Y-121221457D01*
X137725842Y-121170007D01*
X137735500Y-121121457D01*
X137735500Y-120978542D01*
X137707620Y-120838385D01*
X137707619Y-120838384D01*
X137707619Y-120838380D01*
X137652929Y-120706347D01*
X137652928Y-120706346D01*
X137652925Y-120706340D01*
X137627568Y-120668391D01*
X137606690Y-120601714D01*
X137625174Y-120534334D01*
X137677153Y-120487643D01*
X137730670Y-120475500D01*
X137871457Y-120475500D01*
X137987690Y-120452379D01*
X138011620Y-120447619D01*
X138143653Y-120392929D01*
X138262479Y-120313532D01*
X138363532Y-120212479D01*
X138442929Y-120093653D01*
X138497619Y-119961620D01*
X138506742Y-119915751D01*
X138525500Y-119821457D01*
X138525500Y-119678542D01*
X138524903Y-119672480D01*
X138526609Y-119672311D01*
X138532108Y-119610866D01*
X138574971Y-119555689D01*
X138640860Y-119532444D01*
X138671689Y-119534648D01*
X138689195Y-119538131D01*
X138702908Y-119540859D01*
X138702909Y-119540859D01*
X138845821Y-119540859D01*
X138940115Y-119522101D01*
X138985984Y-119512978D01*
X139118017Y-119458288D01*
X139236843Y-119378891D01*
X139337896Y-119277838D01*
X139417293Y-119159012D01*
X139471983Y-119026979D01*
X139481307Y-118980104D01*
X139499864Y-118886816D01*
X139499864Y-118743901D01*
X139471984Y-118603744D01*
X139471983Y-118603743D01*
X139471983Y-118603739D01*
X139437901Y-118521457D01*
X142384499Y-118521457D01*
X142412379Y-118661614D01*
X142412381Y-118661620D01*
X142467069Y-118793650D01*
X142467074Y-118793659D01*
X142546467Y-118912478D01*
X142546470Y-118912482D01*
X142647517Y-119013529D01*
X142647521Y-119013532D01*
X142766340Y-119092925D01*
X142766346Y-119092928D01*
X142766347Y-119092929D01*
X142898380Y-119147619D01*
X142898384Y-119147619D01*
X142898385Y-119147620D01*
X143038542Y-119175500D01*
X143038545Y-119175500D01*
X143181457Y-119175500D01*
X143275751Y-119156742D01*
X143321620Y-119147619D01*
X143453653Y-119092929D01*
X143572479Y-119013532D01*
X143673532Y-118912479D01*
X143752929Y-118793653D01*
X143807619Y-118661620D01*
X143819133Y-118603738D01*
X143835500Y-118521457D01*
X143835500Y-118378542D01*
X143807620Y-118238385D01*
X143807619Y-118238384D01*
X143807619Y-118238380D01*
X143753031Y-118106593D01*
X143752930Y-118106349D01*
X143752925Y-118106340D01*
X143673532Y-117987521D01*
X143673529Y-117987517D01*
X143572482Y-117886470D01*
X143572478Y-117886467D01*
X143453659Y-117807074D01*
X143453650Y-117807069D01*
X143321620Y-117752381D01*
X143321614Y-117752379D01*
X143181457Y-117724500D01*
X143181455Y-117724500D01*
X143038545Y-117724500D01*
X143038543Y-117724500D01*
X142898385Y-117752379D01*
X142898379Y-117752381D01*
X142766349Y-117807069D01*
X142766340Y-117807074D01*
X142647521Y-117886467D01*
X142647517Y-117886470D01*
X142546470Y-117987517D01*
X142546467Y-117987521D01*
X142467074Y-118106340D01*
X142467069Y-118106349D01*
X142412381Y-118238379D01*
X142412379Y-118238385D01*
X142384500Y-118378542D01*
X142384500Y-118378545D01*
X142384500Y-118521455D01*
X142384500Y-118521457D01*
X142384499Y-118521457D01*
X139437901Y-118521457D01*
X139417293Y-118471706D01*
X139372194Y-118404210D01*
X139337896Y-118352879D01*
X139236846Y-118251829D01*
X139236842Y-118251826D01*
X139118023Y-118172433D01*
X139118014Y-118172428D01*
X138985984Y-118117740D01*
X138985978Y-118117738D01*
X138845821Y-118089859D01*
X138845819Y-118089859D01*
X138702909Y-118089859D01*
X138702907Y-118089859D01*
X138562749Y-118117738D01*
X138562743Y-118117740D01*
X138430713Y-118172428D01*
X138430704Y-118172433D01*
X138311885Y-118251826D01*
X138311881Y-118251829D01*
X138210834Y-118352876D01*
X138210831Y-118352880D01*
X138131438Y-118471699D01*
X138131433Y-118471709D01*
X138090064Y-118571582D01*
X138046222Y-118625986D01*
X137979928Y-118648050D01*
X137912229Y-118630770D01*
X137887822Y-118611810D01*
X137862482Y-118586470D01*
X137862478Y-118586467D01*
X137743659Y-118507074D01*
X137743650Y-118507069D01*
X137611620Y-118452381D01*
X137611614Y-118452379D01*
X137471457Y-118424500D01*
X137471455Y-118424500D01*
X137328545Y-118424500D01*
X137328540Y-118424500D01*
X137183753Y-118453300D01*
X137114161Y-118447073D01*
X137058984Y-118404210D01*
X137056459Y-118400573D01*
X137034884Y-118368284D01*
X137016028Y-118340063D01*
X137016026Y-118340060D01*
X136914978Y-118239012D01*
X136914974Y-118239009D01*
X136796155Y-118159616D01*
X136796146Y-118159611D01*
X136664116Y-118104923D01*
X136664110Y-118104921D01*
X136523953Y-118077042D01*
X136523951Y-118077042D01*
X136381041Y-118077042D01*
X136381039Y-118077042D01*
X136240881Y-118104921D01*
X136240875Y-118104923D01*
X136108845Y-118159611D01*
X136108836Y-118159616D01*
X135990017Y-118239009D01*
X135990013Y-118239012D01*
X135888966Y-118340059D01*
X135888963Y-118340063D01*
X135809570Y-118458882D01*
X135809565Y-118458891D01*
X135754877Y-118590921D01*
X135754875Y-118590927D01*
X135726996Y-118731084D01*
X135726996Y-118731087D01*
X135726996Y-118873997D01*
X135726996Y-118873999D01*
X135726995Y-118873999D01*
X131210000Y-118873999D01*
X131210000Y-117474000D01*
X131229685Y-117406961D01*
X131282489Y-117361206D01*
X131334000Y-117350000D01*
X131610000Y-117350000D01*
X131610000Y-116871457D01*
X136434499Y-116871457D01*
X136462379Y-117011614D01*
X136462381Y-117011620D01*
X136517069Y-117143650D01*
X136517074Y-117143659D01*
X136596467Y-117262478D01*
X136596470Y-117262482D01*
X136697517Y-117363529D01*
X136697521Y-117363532D01*
X136816340Y-117442925D01*
X136816346Y-117442928D01*
X136816347Y-117442929D01*
X136948380Y-117497619D01*
X136948384Y-117497619D01*
X136948385Y-117497620D01*
X137088542Y-117525500D01*
X137088545Y-117525500D01*
X137231457Y-117525500D01*
X137326546Y-117506585D01*
X137371620Y-117497619D01*
X137503653Y-117442929D01*
X137622479Y-117363532D01*
X137723532Y-117262479D01*
X137802929Y-117143653D01*
X137840837Y-117052135D01*
X145479500Y-117052135D01*
X145479500Y-118847870D01*
X145479501Y-118847876D01*
X145485908Y-118907483D01*
X145536202Y-119042328D01*
X145536206Y-119042335D01*
X145622452Y-119157544D01*
X145622455Y-119157547D01*
X145737664Y-119243793D01*
X145737671Y-119243797D01*
X145872517Y-119294091D01*
X145872516Y-119294091D01*
X145879444Y-119294835D01*
X145932127Y-119300500D01*
X147727872Y-119300499D01*
X147787483Y-119294091D01*
X147922331Y-119243796D01*
X148037546Y-119157546D01*
X148123796Y-119042331D01*
X148172810Y-118910916D01*
X148214681Y-118854984D01*
X148280145Y-118830566D01*
X148348418Y-118845417D01*
X148376673Y-118866569D01*
X148490213Y-118980109D01*
X148662179Y-119105048D01*
X148662181Y-119105049D01*
X148662184Y-119105051D01*
X148851588Y-119201557D01*
X149053757Y-119267246D01*
X149263713Y-119300500D01*
X149263714Y-119300500D01*
X149476286Y-119300500D01*
X149476287Y-119300500D01*
X149686243Y-119267246D01*
X149888412Y-119201557D01*
X150077816Y-119105051D01*
X150164138Y-119042335D01*
X150249786Y-118980109D01*
X150249788Y-118980106D01*
X150249792Y-118980104D01*
X150400104Y-118829792D01*
X150400106Y-118829788D01*
X150400109Y-118829786D01*
X150525048Y-118657820D01*
X150525047Y-118657820D01*
X150525051Y-118657816D01*
X150529514Y-118649054D01*
X150577488Y-118598259D01*
X150645308Y-118581463D01*
X150711444Y-118603999D01*
X150750486Y-118649056D01*
X150754951Y-118657820D01*
X150879890Y-118829786D01*
X151030213Y-118980109D01*
X151202179Y-119105048D01*
X151202181Y-119105049D01*
X151202184Y-119105051D01*
X151391588Y-119201557D01*
X151593757Y-119267246D01*
X151803713Y-119300500D01*
X151803714Y-119300500D01*
X152016286Y-119300500D01*
X152016287Y-119300500D01*
X152226243Y-119267246D01*
X152428412Y-119201557D01*
X152617816Y-119105051D01*
X152704138Y-119042335D01*
X152789786Y-118980109D01*
X152789788Y-118980106D01*
X152789792Y-118980104D01*
X152940104Y-118829792D01*
X152940106Y-118829788D01*
X152940109Y-118829786D01*
X153065048Y-118657820D01*
X153065047Y-118657820D01*
X153065051Y-118657816D01*
X153161557Y-118468412D01*
X153227246Y-118266243D01*
X153260500Y-118056287D01*
X153260500Y-117843713D01*
X153227246Y-117633757D01*
X153161557Y-117431588D01*
X153065051Y-117242184D01*
X152981464Y-117127135D01*
X155259500Y-117127135D01*
X155259500Y-118922870D01*
X155259501Y-118922876D01*
X155265908Y-118982483D01*
X155316202Y-119117328D01*
X155316206Y-119117335D01*
X155402452Y-119232544D01*
X155402455Y-119232547D01*
X155517664Y-119318793D01*
X155517671Y-119318797D01*
X155652517Y-119369091D01*
X155652516Y-119369091D01*
X155659444Y-119369835D01*
X155712127Y-119375500D01*
X157507872Y-119375499D01*
X157567483Y-119369091D01*
X157702331Y-119318796D01*
X157817546Y-119232546D01*
X157903796Y-119117331D01*
X157952810Y-118985916D01*
X157994681Y-118929984D01*
X158060145Y-118905566D01*
X158128418Y-118920417D01*
X158156673Y-118941569D01*
X158270213Y-119055109D01*
X158442179Y-119180048D01*
X158442181Y-119180049D01*
X158442184Y-119180051D01*
X158631588Y-119276557D01*
X158833757Y-119342246D01*
X159043713Y-119375500D01*
X159043714Y-119375500D01*
X159256286Y-119375500D01*
X159256287Y-119375500D01*
X159466243Y-119342246D01*
X159668412Y-119276557D01*
X159857816Y-119180051D01*
X159944138Y-119117335D01*
X160029786Y-119055109D01*
X160029788Y-119055106D01*
X160029792Y-119055104D01*
X160180104Y-118904792D01*
X160180106Y-118904788D01*
X160180109Y-118904786D01*
X160305048Y-118732820D01*
X160305047Y-118732820D01*
X160305051Y-118732816D01*
X160309514Y-118724054D01*
X160357488Y-118673259D01*
X160425308Y-118656463D01*
X160491444Y-118678999D01*
X160530486Y-118724056D01*
X160534951Y-118732820D01*
X160659890Y-118904786D01*
X160810213Y-119055109D01*
X160982179Y-119180048D01*
X160982181Y-119180049D01*
X160982184Y-119180051D01*
X161171588Y-119276557D01*
X161373757Y-119342246D01*
X161583713Y-119375500D01*
X161583714Y-119375500D01*
X161796286Y-119375500D01*
X161796287Y-119375500D01*
X162006243Y-119342246D01*
X162208412Y-119276557D01*
X162397816Y-119180051D01*
X162484138Y-119117335D01*
X162569786Y-119055109D01*
X162569788Y-119055106D01*
X162569792Y-119055104D01*
X162720104Y-118904792D01*
X162720106Y-118904788D01*
X162720109Y-118904786D01*
X162845048Y-118732820D01*
X162845047Y-118732820D01*
X162845051Y-118732816D01*
X162941557Y-118543412D01*
X163007246Y-118341243D01*
X163040500Y-118131287D01*
X163040500Y-117918713D01*
X163007246Y-117708757D01*
X162941557Y-117506588D01*
X162845051Y-117317184D01*
X162845049Y-117317181D01*
X162845048Y-117317179D01*
X162720109Y-117145213D01*
X162569786Y-116994890D01*
X162397820Y-116869951D01*
X162208414Y-116773444D01*
X162208413Y-116773443D01*
X162208412Y-116773443D01*
X162006243Y-116707754D01*
X162006241Y-116707753D01*
X162006240Y-116707753D01*
X161844957Y-116682208D01*
X161796287Y-116674500D01*
X161583713Y-116674500D01*
X161535042Y-116682208D01*
X161373760Y-116707753D01*
X161171585Y-116773444D01*
X160982179Y-116869951D01*
X160810213Y-116994890D01*
X160659890Y-117145213D01*
X160534949Y-117317182D01*
X160530484Y-117325946D01*
X160482509Y-117376742D01*
X160414688Y-117393536D01*
X160348553Y-117370998D01*
X160309516Y-117325946D01*
X160305050Y-117317182D01*
X160180109Y-117145213D01*
X160029786Y-116994890D01*
X159857820Y-116869951D01*
X159668414Y-116773444D01*
X159668413Y-116773443D01*
X159668412Y-116773443D01*
X159466243Y-116707754D01*
X159466241Y-116707753D01*
X159466240Y-116707753D01*
X159304957Y-116682208D01*
X159256287Y-116674500D01*
X159043713Y-116674500D01*
X158995042Y-116682208D01*
X158833760Y-116707753D01*
X158631585Y-116773444D01*
X158442179Y-116869951D01*
X158270215Y-116994889D01*
X158156673Y-117108431D01*
X158095350Y-117141915D01*
X158025658Y-117136931D01*
X157969725Y-117095059D01*
X157952810Y-117064082D01*
X157903797Y-116932671D01*
X157903793Y-116932664D01*
X157817547Y-116817455D01*
X157817544Y-116817452D01*
X157702335Y-116731206D01*
X157702328Y-116731202D01*
X157567482Y-116680908D01*
X157567483Y-116680908D01*
X157507883Y-116674501D01*
X157507881Y-116674500D01*
X157507873Y-116674500D01*
X157507864Y-116674500D01*
X155712129Y-116674500D01*
X155712123Y-116674501D01*
X155652516Y-116680908D01*
X155517671Y-116731202D01*
X155517664Y-116731206D01*
X155402455Y-116817452D01*
X155402452Y-116817455D01*
X155316206Y-116932664D01*
X155316202Y-116932671D01*
X155265908Y-117067517D01*
X155259501Y-117127116D01*
X155259500Y-117127135D01*
X152981464Y-117127135D01*
X152940104Y-117070208D01*
X152789792Y-116919896D01*
X152789786Y-116919890D01*
X152617820Y-116794951D01*
X152428414Y-116698444D01*
X152428413Y-116698443D01*
X152428412Y-116698443D01*
X152226243Y-116632754D01*
X152226241Y-116632753D01*
X152226240Y-116632753D01*
X152064957Y-116607208D01*
X152016287Y-116599500D01*
X151803713Y-116599500D01*
X151755042Y-116607208D01*
X151593760Y-116632753D01*
X151391585Y-116698444D01*
X151202179Y-116794951D01*
X151030213Y-116919890D01*
X150879890Y-117070213D01*
X150754949Y-117242182D01*
X150750484Y-117250946D01*
X150702509Y-117301742D01*
X150634688Y-117318536D01*
X150568553Y-117295998D01*
X150529516Y-117250946D01*
X150525050Y-117242182D01*
X150400109Y-117070213D01*
X150249786Y-116919890D01*
X150077820Y-116794951D01*
X149888414Y-116698444D01*
X149888413Y-116698443D01*
X149888412Y-116698443D01*
X149686243Y-116632754D01*
X149686241Y-116632753D01*
X149686240Y-116632753D01*
X149524957Y-116607208D01*
X149476287Y-116599500D01*
X149263713Y-116599500D01*
X149215042Y-116607208D01*
X149053760Y-116632753D01*
X148851585Y-116698444D01*
X148662179Y-116794951D01*
X148490215Y-116919889D01*
X148376673Y-117033431D01*
X148315350Y-117066915D01*
X148245658Y-117061931D01*
X148189725Y-117020059D01*
X148172810Y-116989082D01*
X148123797Y-116857671D01*
X148123793Y-116857664D01*
X148037547Y-116742455D01*
X148037544Y-116742452D01*
X147922335Y-116656206D01*
X147922328Y-116656202D01*
X147787482Y-116605908D01*
X147787483Y-116605908D01*
X147727883Y-116599501D01*
X147727881Y-116599500D01*
X147727873Y-116599500D01*
X147727864Y-116599500D01*
X145932129Y-116599500D01*
X145932123Y-116599501D01*
X145872516Y-116605908D01*
X145737671Y-116656202D01*
X145737664Y-116656206D01*
X145622455Y-116742452D01*
X145622452Y-116742455D01*
X145536206Y-116857664D01*
X145536202Y-116857671D01*
X145485908Y-116992517D01*
X145479501Y-117052116D01*
X145479500Y-117052135D01*
X137840837Y-117052135D01*
X137857619Y-117011620D01*
X137873325Y-116932664D01*
X137885500Y-116871457D01*
X137885500Y-116728542D01*
X137857620Y-116588385D01*
X137857619Y-116588384D01*
X137857619Y-116588380D01*
X137802929Y-116456347D01*
X137802928Y-116456346D01*
X137802925Y-116456340D01*
X137723532Y-116337521D01*
X137723529Y-116337517D01*
X137622482Y-116236470D01*
X137622478Y-116236467D01*
X137600014Y-116221457D01*
X139784499Y-116221457D01*
X139812379Y-116361614D01*
X139812381Y-116361620D01*
X139867069Y-116493650D01*
X139867074Y-116493659D01*
X139946467Y-116612478D01*
X139946470Y-116612482D01*
X140047517Y-116713529D01*
X140047521Y-116713532D01*
X140166340Y-116792925D01*
X140166349Y-116792930D01*
X140196258Y-116805318D01*
X140298380Y-116847619D01*
X140298384Y-116847619D01*
X140298385Y-116847620D01*
X140438542Y-116875500D01*
X140438545Y-116875500D01*
X140581457Y-116875500D01*
X140675751Y-116856742D01*
X140721620Y-116847619D01*
X140853653Y-116792929D01*
X140972479Y-116713532D01*
X141073532Y-116612479D01*
X141152929Y-116493653D01*
X141207619Y-116361620D01*
X141221284Y-116292925D01*
X141235500Y-116221457D01*
X141235500Y-116078542D01*
X141207620Y-115938385D01*
X141207619Y-115938384D01*
X141207619Y-115938380D01*
X141165318Y-115836258D01*
X141152930Y-115806349D01*
X141152925Y-115806340D01*
X141073532Y-115687521D01*
X141073529Y-115687517D01*
X140972482Y-115586470D01*
X140972478Y-115586467D01*
X140853659Y-115507074D01*
X140853650Y-115507069D01*
X140721620Y-115452381D01*
X140721614Y-115452379D01*
X140581457Y-115424500D01*
X140581455Y-115424500D01*
X140438545Y-115424500D01*
X140438543Y-115424500D01*
X140298385Y-115452379D01*
X140298379Y-115452381D01*
X140166349Y-115507069D01*
X140166340Y-115507074D01*
X140047521Y-115586467D01*
X140047517Y-115586470D01*
X139946470Y-115687517D01*
X139946467Y-115687521D01*
X139867074Y-115806340D01*
X139867069Y-115806349D01*
X139812381Y-115938379D01*
X139812379Y-115938385D01*
X139784500Y-116078542D01*
X139784500Y-116078545D01*
X139784500Y-116221455D01*
X139784500Y-116221457D01*
X139784499Y-116221457D01*
X137600014Y-116221457D01*
X137531317Y-116175555D01*
X137503659Y-116157074D01*
X137503650Y-116157069D01*
X137371620Y-116102381D01*
X137371614Y-116102379D01*
X137231457Y-116074500D01*
X137231455Y-116074500D01*
X137088545Y-116074500D01*
X137088543Y-116074500D01*
X136948385Y-116102379D01*
X136948379Y-116102381D01*
X136816349Y-116157069D01*
X136816340Y-116157074D01*
X136697521Y-116236467D01*
X136697517Y-116236470D01*
X136596470Y-116337517D01*
X136596467Y-116337521D01*
X136517074Y-116456340D01*
X136517069Y-116456349D01*
X136462381Y-116588379D01*
X136462379Y-116588385D01*
X136434500Y-116728542D01*
X136434500Y-116728545D01*
X136434500Y-116871455D01*
X136434500Y-116871457D01*
X136434499Y-116871457D01*
X131610000Y-116871457D01*
X131610000Y-116280644D01*
X131610000Y-116252640D01*
X131462055Y-116112482D01*
X130996529Y-115671457D01*
X131574499Y-115671457D01*
X131602379Y-115811614D01*
X131602381Y-115811620D01*
X131657069Y-115943650D01*
X131657073Y-115943657D01*
X131682744Y-115982077D01*
X131682749Y-115982083D01*
X131736468Y-116062479D01*
X131825419Y-116151430D01*
X131825425Y-116151437D01*
X131837517Y-116163529D01*
X131837521Y-116163532D01*
X131956340Y-116242925D01*
X131956346Y-116242928D01*
X131956347Y-116242929D01*
X132088380Y-116297619D01*
X132088384Y-116297619D01*
X132088385Y-116297620D01*
X132228542Y-116325500D01*
X132228545Y-116325500D01*
X132371457Y-116325500D01*
X132465751Y-116306742D01*
X132511620Y-116297619D01*
X132643653Y-116242929D01*
X132762479Y-116163532D01*
X132863532Y-116062479D01*
X132942929Y-115943653D01*
X132997619Y-115811620D01*
X133015554Y-115721457D01*
X134084499Y-115721457D01*
X134112379Y-115861614D01*
X134112381Y-115861620D01*
X134167069Y-115993650D01*
X134167074Y-115993659D01*
X134246467Y-116112478D01*
X134246470Y-116112482D01*
X134347517Y-116213529D01*
X134347521Y-116213532D01*
X134466340Y-116292925D01*
X134466349Y-116292930D01*
X134477672Y-116297620D01*
X134598380Y-116347619D01*
X134598384Y-116347619D01*
X134598385Y-116347620D01*
X134738542Y-116375500D01*
X134738545Y-116375500D01*
X134881457Y-116375500D01*
X134975751Y-116356742D01*
X135021620Y-116347619D01*
X135153653Y-116292929D01*
X135272479Y-116213532D01*
X135373532Y-116112479D01*
X135452929Y-115993653D01*
X135507619Y-115861620D01*
X135520684Y-115795940D01*
X135535500Y-115721457D01*
X135535500Y-115578542D01*
X135507620Y-115438385D01*
X135507619Y-115438384D01*
X135507619Y-115438380D01*
X135463586Y-115332075D01*
X135452930Y-115306349D01*
X135452925Y-115306340D01*
X135373532Y-115187521D01*
X135373529Y-115187517D01*
X135272482Y-115086470D01*
X135272478Y-115086467D01*
X135153659Y-115007074D01*
X135153650Y-115007069D01*
X135021620Y-114952381D01*
X135021614Y-114952379D01*
X134881457Y-114924500D01*
X134881455Y-114924500D01*
X134738545Y-114924500D01*
X134738543Y-114924500D01*
X134598385Y-114952379D01*
X134598379Y-114952381D01*
X134466349Y-115007069D01*
X134466340Y-115007074D01*
X134347521Y-115086467D01*
X134347517Y-115086470D01*
X134246470Y-115187517D01*
X134246467Y-115187521D01*
X134167074Y-115306340D01*
X134167069Y-115306349D01*
X134112381Y-115438379D01*
X134112379Y-115438385D01*
X134084500Y-115578542D01*
X134084500Y-115578545D01*
X134084500Y-115721455D01*
X134084500Y-115721457D01*
X134084499Y-115721457D01*
X133015554Y-115721457D01*
X133015657Y-115720940D01*
X133025500Y-115671457D01*
X133025500Y-115528542D01*
X132997620Y-115388385D01*
X132997619Y-115388384D01*
X132997619Y-115388380D01*
X132942929Y-115256347D01*
X132942928Y-115256346D01*
X132942925Y-115256340D01*
X132863532Y-115137521D01*
X132863529Y-115137517D01*
X132762482Y-115036470D01*
X132762478Y-115036467D01*
X132643659Y-114957074D01*
X132643650Y-114957069D01*
X132511620Y-114902381D01*
X132511614Y-114902379D01*
X132371457Y-114874500D01*
X132371455Y-114874500D01*
X132228545Y-114874500D01*
X132228543Y-114874500D01*
X132088385Y-114902379D01*
X132088379Y-114902381D01*
X131956349Y-114957069D01*
X131956340Y-114957074D01*
X131837521Y-115036467D01*
X131837517Y-115036470D01*
X131736470Y-115137517D01*
X131736467Y-115137521D01*
X131657074Y-115256340D01*
X131657069Y-115256349D01*
X131602381Y-115388379D01*
X131602379Y-115388385D01*
X131574500Y-115528542D01*
X131574500Y-115528545D01*
X131574500Y-115671455D01*
X131574500Y-115671457D01*
X131574499Y-115671457D01*
X130996529Y-115671457D01*
X130858494Y-115540687D01*
X129748717Y-114489320D01*
X129729054Y-114455513D01*
X145659500Y-114455513D01*
X145659500Y-114644486D01*
X145689059Y-114831118D01*
X145747454Y-115010836D01*
X145785991Y-115086468D01*
X145833240Y-115179199D01*
X145944310Y-115332073D01*
X146077927Y-115465690D01*
X146230801Y-115576760D01*
X146310347Y-115617290D01*
X146399163Y-115662545D01*
X146399165Y-115662545D01*
X146399168Y-115662547D01*
X146476017Y-115687517D01*
X146578881Y-115720940D01*
X146765514Y-115750500D01*
X146765519Y-115750500D01*
X146954486Y-115750500D01*
X147141118Y-115720940D01*
X147320832Y-115662547D01*
X147489199Y-115576760D01*
X147642073Y-115465690D01*
X147775690Y-115332073D01*
X147886760Y-115179199D01*
X147972547Y-115010832D01*
X148030940Y-114831118D01*
X148048621Y-114719486D01*
X148060500Y-114644486D01*
X148060500Y-114530513D01*
X155359500Y-114530513D01*
X155359500Y-114719486D01*
X155389059Y-114906118D01*
X155447454Y-115085836D01*
X155499264Y-115187517D01*
X155533240Y-115254199D01*
X155644310Y-115407073D01*
X155777927Y-115540690D01*
X155930801Y-115651760D01*
X155951972Y-115662547D01*
X156099163Y-115737545D01*
X156099165Y-115737545D01*
X156099168Y-115737547D01*
X156195497Y-115768846D01*
X156278881Y-115795940D01*
X156465514Y-115825500D01*
X156465519Y-115825500D01*
X156654486Y-115825500D01*
X156841118Y-115795940D01*
X157020832Y-115737547D01*
X157189199Y-115651760D01*
X157342073Y-115540690D01*
X157475690Y-115407073D01*
X157586760Y-115254199D01*
X157672547Y-115085832D01*
X157730940Y-114906118D01*
X157742819Y-114831118D01*
X157760500Y-114719486D01*
X157760500Y-114530513D01*
X157730940Y-114343881D01*
X157672545Y-114164163D01*
X157586759Y-113995800D01*
X157475690Y-113842927D01*
X157342073Y-113709310D01*
X157189199Y-113598240D01*
X157020836Y-113512454D01*
X156841118Y-113454059D01*
X156654486Y-113424500D01*
X156654481Y-113424500D01*
X156465519Y-113424500D01*
X156465514Y-113424500D01*
X156278881Y-113454059D01*
X156099163Y-113512454D01*
X155930800Y-113598240D01*
X155881155Y-113634310D01*
X155777927Y-113709310D01*
X155777925Y-113709312D01*
X155777924Y-113709312D01*
X155644312Y-113842924D01*
X155644312Y-113842925D01*
X155644310Y-113842927D01*
X155596610Y-113908579D01*
X155533240Y-113995800D01*
X155447454Y-114164163D01*
X155389059Y-114343881D01*
X155359500Y-114530513D01*
X148060500Y-114530513D01*
X148060500Y-114455513D01*
X148030940Y-114268881D01*
X147996916Y-114164168D01*
X147972547Y-114089168D01*
X147972545Y-114089165D01*
X147972545Y-114089163D01*
X147886759Y-113920800D01*
X147775690Y-113767927D01*
X147642073Y-113634310D01*
X147489199Y-113523240D01*
X147468030Y-113512454D01*
X147320836Y-113437454D01*
X147141118Y-113379059D01*
X146954486Y-113349500D01*
X146954481Y-113349500D01*
X146765519Y-113349500D01*
X146765514Y-113349500D01*
X146578881Y-113379059D01*
X146399163Y-113437454D01*
X146230800Y-113523240D01*
X146143579Y-113586610D01*
X146077927Y-113634310D01*
X146077925Y-113634312D01*
X146077924Y-113634312D01*
X145944312Y-113767924D01*
X145944312Y-113767925D01*
X145944310Y-113767927D01*
X145896610Y-113833579D01*
X145833240Y-113920800D01*
X145747454Y-114089163D01*
X145689059Y-114268881D01*
X145659500Y-114455513D01*
X129729054Y-114455513D01*
X129713590Y-114428926D01*
X129710000Y-114399304D01*
X129710000Y-108974000D01*
X129729685Y-108906961D01*
X129782489Y-108861206D01*
X129834000Y-108850000D01*
X133010000Y-108850000D01*
X133010000Y-107655513D01*
X145519500Y-107655513D01*
X145519500Y-107844486D01*
X145549059Y-108031118D01*
X145607454Y-108210836D01*
X145693240Y-108379199D01*
X145804310Y-108532073D01*
X145937927Y-108665690D01*
X146090801Y-108776760D01*
X146170347Y-108817290D01*
X146259163Y-108862545D01*
X146259165Y-108862545D01*
X146259168Y-108862547D01*
X146355497Y-108893846D01*
X146438881Y-108920940D01*
X146625514Y-108950500D01*
X146625519Y-108950500D01*
X146814486Y-108950500D01*
X147001118Y-108920940D01*
X147180832Y-108862547D01*
X147349199Y-108776760D01*
X147502073Y-108665690D01*
X147635690Y-108532073D01*
X147746760Y-108379199D01*
X147832547Y-108210832D01*
X147890940Y-108031118D01*
X147910077Y-107910292D01*
X147920500Y-107844486D01*
X147920500Y-107655513D01*
X147890940Y-107468881D01*
X147876239Y-107423637D01*
X147842940Y-107321153D01*
X160609500Y-107321153D01*
X160609500Y-107478846D01*
X160640261Y-107633489D01*
X160640264Y-107633501D01*
X160700602Y-107779172D01*
X160700609Y-107779185D01*
X160788210Y-107910288D01*
X160788213Y-107910292D01*
X160899707Y-108021786D01*
X160899711Y-108021789D01*
X161030814Y-108109390D01*
X161030827Y-108109397D01*
X161176498Y-108169735D01*
X161176503Y-108169737D01*
X161331153Y-108200499D01*
X161331156Y-108200500D01*
X161331158Y-108200500D01*
X161488844Y-108200500D01*
X161488845Y-108200499D01*
X161643497Y-108169737D01*
X161789179Y-108109394D01*
X161920289Y-108021789D01*
X162031789Y-107910289D01*
X162119394Y-107779179D01*
X162120464Y-107776597D01*
X162170615Y-107655519D01*
X162179737Y-107633497D01*
X162210500Y-107478842D01*
X162210500Y-107321158D01*
X162210500Y-107321155D01*
X162210499Y-107321153D01*
X162179738Y-107166510D01*
X162179737Y-107166503D01*
X162160807Y-107120801D01*
X162119397Y-107020827D01*
X162119390Y-107020814D01*
X162031789Y-106889711D01*
X162031786Y-106889707D01*
X161920292Y-106778213D01*
X161920288Y-106778210D01*
X161789185Y-106690609D01*
X161789172Y-106690602D01*
X161643501Y-106630264D01*
X161643489Y-106630261D01*
X161488845Y-106599500D01*
X161488842Y-106599500D01*
X161331158Y-106599500D01*
X161331155Y-106599500D01*
X161176510Y-106630261D01*
X161176498Y-106630264D01*
X161030827Y-106690602D01*
X161030814Y-106690609D01*
X160899711Y-106778210D01*
X160899707Y-106778213D01*
X160788213Y-106889707D01*
X160788210Y-106889711D01*
X160700609Y-107020814D01*
X160700602Y-107020827D01*
X160640264Y-107166498D01*
X160640261Y-107166510D01*
X160609500Y-107321153D01*
X147842940Y-107321153D01*
X147832547Y-107289168D01*
X147832545Y-107289165D01*
X147832545Y-107289163D01*
X147746759Y-107120800D01*
X147635690Y-106967927D01*
X147502073Y-106834310D01*
X147349199Y-106723240D01*
X147180836Y-106637454D01*
X147001118Y-106579059D01*
X146814486Y-106549500D01*
X146814481Y-106549500D01*
X146625519Y-106549500D01*
X146625514Y-106549500D01*
X146438881Y-106579059D01*
X146259163Y-106637454D01*
X146090800Y-106723240D01*
X146003579Y-106786610D01*
X145937927Y-106834310D01*
X145937925Y-106834312D01*
X145937924Y-106834312D01*
X145804312Y-106967924D01*
X145804312Y-106967925D01*
X145804310Y-106967927D01*
X145765885Y-107020814D01*
X145693240Y-107120800D01*
X145607454Y-107289163D01*
X145549059Y-107468881D01*
X145519500Y-107655513D01*
X133010000Y-107655513D01*
X133010000Y-88563389D01*
X151809500Y-88563389D01*
X151809500Y-88736610D01*
X151836597Y-88907697D01*
X151890128Y-89072447D01*
X151968770Y-89226791D01*
X152041659Y-89327115D01*
X152065139Y-89392921D01*
X152049313Y-89460975D01*
X152041659Y-89472885D01*
X151968770Y-89573208D01*
X151890128Y-89727552D01*
X151836597Y-89892302D01*
X151809500Y-90063389D01*
X151809500Y-90236610D01*
X151836597Y-90407697D01*
X151890128Y-90572447D01*
X151968770Y-90726791D01*
X152041659Y-90827115D01*
X152065139Y-90892921D01*
X152049313Y-90960975D01*
X152041659Y-90972885D01*
X151968770Y-91073208D01*
X151890128Y-91227552D01*
X151836597Y-91392302D01*
X151817863Y-91510586D01*
X151809500Y-91563389D01*
X151809500Y-91736611D01*
X151836598Y-91907701D01*
X151890127Y-92072445D01*
X151968768Y-92226788D01*
X152070586Y-92366928D01*
X152070589Y-92366931D01*
X152115977Y-92412320D01*
X152149461Y-92473643D01*
X152144476Y-92543335D01*
X152115977Y-92587680D01*
X152070589Y-92633068D01*
X152070588Y-92633070D01*
X152070586Y-92633072D01*
X152070582Y-92633078D01*
X151968768Y-92773211D01*
X151890128Y-92927552D01*
X151836597Y-93092302D01*
X151809500Y-93263389D01*
X151809500Y-93436610D01*
X151835180Y-93598752D01*
X151836598Y-93607701D01*
X151890127Y-93772445D01*
X151968768Y-93926788D01*
X152070586Y-94066928D01*
X152193072Y-94189414D01*
X152333212Y-94291232D01*
X152487555Y-94369873D01*
X152652299Y-94423402D01*
X152823389Y-94450500D01*
X152823390Y-94450500D01*
X152996610Y-94450500D01*
X152996611Y-94450500D01*
X153167701Y-94423402D01*
X153332445Y-94369873D01*
X153486788Y-94291232D01*
X153626928Y-94189414D01*
X153749414Y-94066928D01*
X153809682Y-93983975D01*
X153865012Y-93941311D01*
X153934626Y-93935332D01*
X153996421Y-93967938D01*
X154010315Y-93983973D01*
X154070586Y-94066928D01*
X154193072Y-94189414D01*
X154333212Y-94291232D01*
X154487555Y-94369873D01*
X154652299Y-94423402D01*
X154823389Y-94450500D01*
X154823390Y-94450500D01*
X154996610Y-94450500D01*
X154996611Y-94450500D01*
X155167701Y-94423402D01*
X155332445Y-94369873D01*
X155486788Y-94291232D01*
X155626928Y-94189414D01*
X155749414Y-94066928D01*
X155851232Y-93926788D01*
X155929873Y-93772445D01*
X155967569Y-93656426D01*
X156007007Y-93598752D01*
X156071365Y-93571554D01*
X156140212Y-93583469D01*
X156191687Y-93630713D01*
X156209500Y-93694746D01*
X156209500Y-93836611D01*
X156236598Y-94007701D01*
X156290127Y-94172445D01*
X156368768Y-94326788D01*
X156470586Y-94466928D01*
X156593072Y-94589414D01*
X156733212Y-94691232D01*
X156887555Y-94769873D01*
X157052299Y-94823402D01*
X157223389Y-94850500D01*
X157223390Y-94850500D01*
X157396610Y-94850500D01*
X157396611Y-94850500D01*
X157567701Y-94823402D01*
X157732445Y-94769873D01*
X157886788Y-94691232D01*
X158026928Y-94589414D01*
X158149414Y-94466928D01*
X158209682Y-94383975D01*
X158265012Y-94341311D01*
X158334626Y-94335332D01*
X158396421Y-94367938D01*
X158410315Y-94383973D01*
X158470586Y-94466928D01*
X158593072Y-94589414D01*
X158733212Y-94691232D01*
X158887555Y-94769873D01*
X159052299Y-94823402D01*
X159223389Y-94850500D01*
X159223390Y-94850500D01*
X159396610Y-94850500D01*
X159396611Y-94850500D01*
X159567701Y-94823402D01*
X159732445Y-94769873D01*
X159886788Y-94691232D01*
X160026928Y-94589414D01*
X160149414Y-94466928D01*
X160251232Y-94326788D01*
X160329873Y-94172445D01*
X160383402Y-94007701D01*
X160410500Y-93836611D01*
X160410500Y-93663389D01*
X160383402Y-93492299D01*
X160329873Y-93327555D01*
X160251232Y-93173212D01*
X160251229Y-93173208D01*
X160214668Y-93122887D01*
X160191187Y-93057080D01*
X160207012Y-92989026D01*
X160214668Y-92977113D01*
X160251232Y-92926788D01*
X160329873Y-92772445D01*
X160383402Y-92607701D01*
X160410500Y-92436611D01*
X160410500Y-92263389D01*
X160383402Y-92092299D01*
X160329873Y-91927555D01*
X160251232Y-91773212D01*
X160149414Y-91633072D01*
X160026928Y-91510586D01*
X159886788Y-91408768D01*
X159732445Y-91330127D01*
X159567701Y-91276598D01*
X159567699Y-91276597D01*
X159567698Y-91276597D01*
X159436271Y-91255781D01*
X159396611Y-91249500D01*
X159223389Y-91249500D01*
X159183728Y-91255781D01*
X159052302Y-91276597D01*
X158887552Y-91330128D01*
X158733211Y-91408768D01*
X158653256Y-91466859D01*
X158593072Y-91510586D01*
X158593070Y-91510588D01*
X158593069Y-91510588D01*
X158470588Y-91633069D01*
X158470581Y-91633078D01*
X158410317Y-91716023D01*
X158354987Y-91758689D01*
X158285374Y-91764667D01*
X158223579Y-91732061D01*
X158209683Y-91716023D01*
X158149418Y-91633078D01*
X158149414Y-91633072D01*
X158026928Y-91510586D01*
X157886788Y-91408768D01*
X157732445Y-91330127D01*
X157567701Y-91276598D01*
X157567699Y-91276597D01*
X157567698Y-91276597D01*
X157436271Y-91255781D01*
X157396611Y-91249500D01*
X157223389Y-91249500D01*
X157183728Y-91255781D01*
X157052302Y-91276597D01*
X156887552Y-91330128D01*
X156733211Y-91408768D01*
X156653256Y-91466859D01*
X156593072Y-91510586D01*
X156593070Y-91510588D01*
X156593069Y-91510588D01*
X156470588Y-91633069D01*
X156470588Y-91633070D01*
X156470586Y-91633072D01*
X156470582Y-91633078D01*
X156368768Y-91773211D01*
X156290128Y-91927552D01*
X156236597Y-92092302D01*
X156209500Y-92263389D01*
X156209500Y-92436610D01*
X156223714Y-92526358D01*
X156236598Y-92607701D01*
X156290127Y-92772445D01*
X156349285Y-92888551D01*
X156368770Y-92926791D01*
X156405332Y-92977115D01*
X156428812Y-93042921D01*
X156412987Y-93110975D01*
X156405332Y-93122885D01*
X156368770Y-93173208D01*
X156290128Y-93327552D01*
X156252431Y-93443571D01*
X156212993Y-93501247D01*
X156148635Y-93528445D01*
X156079788Y-93516530D01*
X156028313Y-93469286D01*
X156010500Y-93405253D01*
X156010500Y-93263389D01*
X155996217Y-93173210D01*
X155983402Y-93092299D01*
X155929873Y-92927555D01*
X155851232Y-92773212D01*
X155749414Y-92633072D01*
X155704022Y-92587680D01*
X155670538Y-92526358D01*
X155675522Y-92456666D01*
X155704023Y-92412319D01*
X155749414Y-92366928D01*
X155851232Y-92226788D01*
X155929873Y-92072445D01*
X155983402Y-91907701D01*
X156010500Y-91736611D01*
X156010500Y-91563389D01*
X155983402Y-91392299D01*
X155929873Y-91227555D01*
X155851232Y-91073212D01*
X155778339Y-90972884D01*
X155754860Y-90907080D01*
X155770685Y-90839026D01*
X155778334Y-90827121D01*
X155851232Y-90726788D01*
X155929873Y-90572445D01*
X155983402Y-90407701D01*
X156010500Y-90236611D01*
X156010500Y-90063389D01*
X155983402Y-89892299D01*
X155929873Y-89727555D01*
X155851232Y-89573212D01*
X155778339Y-89472884D01*
X155754860Y-89407080D01*
X155770685Y-89339026D01*
X155778334Y-89327121D01*
X155851232Y-89226788D01*
X155929873Y-89072445D01*
X155983402Y-88907701D01*
X156010500Y-88736611D01*
X156010500Y-88563389D01*
X155983402Y-88392299D01*
X155929873Y-88227555D01*
X155851232Y-88073212D01*
X155749414Y-87933072D01*
X155626928Y-87810586D01*
X155486788Y-87708768D01*
X155332445Y-87630127D01*
X155167701Y-87576598D01*
X155167699Y-87576597D01*
X155167698Y-87576597D01*
X155036271Y-87555781D01*
X154996611Y-87549500D01*
X154823389Y-87549500D01*
X154783728Y-87555781D01*
X154652302Y-87576597D01*
X154487552Y-87630128D01*
X154333211Y-87708768D01*
X154253256Y-87766859D01*
X154193072Y-87810586D01*
X154193070Y-87810588D01*
X154193069Y-87810588D01*
X154070588Y-87933069D01*
X154070581Y-87933078D01*
X154010317Y-88016023D01*
X153954987Y-88058689D01*
X153885374Y-88064667D01*
X153823579Y-88032061D01*
X153809683Y-88016023D01*
X153749418Y-87933078D01*
X153749414Y-87933072D01*
X153626928Y-87810586D01*
X153486788Y-87708768D01*
X153332445Y-87630127D01*
X153167701Y-87576598D01*
X153167699Y-87576597D01*
X153167698Y-87576597D01*
X153036271Y-87555781D01*
X152996611Y-87549500D01*
X152823389Y-87549500D01*
X152783728Y-87555781D01*
X152652302Y-87576597D01*
X152487552Y-87630128D01*
X152333211Y-87708768D01*
X152253256Y-87766859D01*
X152193072Y-87810586D01*
X152193070Y-87810588D01*
X152193069Y-87810588D01*
X152070588Y-87933069D01*
X152070588Y-87933070D01*
X152070586Y-87933072D01*
X152070582Y-87933078D01*
X151968768Y-88073211D01*
X151890128Y-88227552D01*
X151836597Y-88392302D01*
X151809500Y-88563389D01*
X133010000Y-88563389D01*
X133010000Y-85421153D01*
X147059500Y-85421153D01*
X147059500Y-85578846D01*
X147090261Y-85733489D01*
X147090264Y-85733501D01*
X147150602Y-85879172D01*
X147150609Y-85879185D01*
X147238210Y-86010288D01*
X147238213Y-86010292D01*
X147349707Y-86121786D01*
X147349711Y-86121789D01*
X147480814Y-86209390D01*
X147480827Y-86209397D01*
X147626498Y-86269735D01*
X147626503Y-86269737D01*
X147781153Y-86300499D01*
X147781156Y-86300500D01*
X147781158Y-86300500D01*
X147938844Y-86300500D01*
X147938845Y-86300499D01*
X148093497Y-86269737D01*
X148239179Y-86209394D01*
X148370289Y-86121789D01*
X148481789Y-86010289D01*
X148569394Y-85879179D01*
X148629737Y-85733497D01*
X148660500Y-85578842D01*
X148660500Y-85421158D01*
X148660500Y-85421155D01*
X148660499Y-85421153D01*
X148629738Y-85266510D01*
X148629737Y-85266503D01*
X148629735Y-85266498D01*
X148569397Y-85120827D01*
X148569390Y-85120814D01*
X148481789Y-84989711D01*
X148481786Y-84989707D01*
X148370292Y-84878213D01*
X148370288Y-84878210D01*
X148239185Y-84790609D01*
X148239172Y-84790602D01*
X148093501Y-84730264D01*
X148093489Y-84730261D01*
X147938845Y-84699500D01*
X147938842Y-84699500D01*
X147781158Y-84699500D01*
X147781155Y-84699500D01*
X147626510Y-84730261D01*
X147626498Y-84730264D01*
X147480827Y-84790602D01*
X147480814Y-84790609D01*
X147349711Y-84878210D01*
X147349707Y-84878213D01*
X147238213Y-84989707D01*
X147238210Y-84989711D01*
X147150609Y-85120814D01*
X147150602Y-85120827D01*
X147090264Y-85266498D01*
X147090261Y-85266510D01*
X147059500Y-85421153D01*
X133010000Y-85421153D01*
X133010000Y-77653945D01*
X135889500Y-77653945D01*
X135889500Y-77846055D01*
X135897798Y-77898444D01*
X135919553Y-78035802D01*
X135978916Y-78218506D01*
X136066135Y-78389681D01*
X136179055Y-78545102D01*
X136314898Y-78680945D01*
X136470319Y-78793865D01*
X136548617Y-78833760D01*
X136641493Y-78881083D01*
X136706081Y-78902069D01*
X136763756Y-78941506D01*
X136790955Y-79005865D01*
X136779041Y-79074711D01*
X136731797Y-79126187D01*
X136706081Y-79137931D01*
X136641493Y-79158916D01*
X136470318Y-79246135D01*
X136381645Y-79310560D01*
X136314898Y-79359055D01*
X136314896Y-79359057D01*
X136314895Y-79359057D01*
X136179057Y-79494895D01*
X136179057Y-79494896D01*
X136179055Y-79494898D01*
X136130560Y-79561645D01*
X136066135Y-79650318D01*
X135978916Y-79821493D01*
X135919553Y-80004197D01*
X135889500Y-80193945D01*
X135889500Y-80386054D01*
X135919553Y-80575802D01*
X135978916Y-80758506D01*
X135978918Y-80758509D01*
X136066135Y-80929681D01*
X136179055Y-81085102D01*
X136314898Y-81220945D01*
X136470319Y-81333865D01*
X136641491Y-81421082D01*
X136641493Y-81421083D01*
X136706081Y-81442069D01*
X136763756Y-81481506D01*
X136790955Y-81545865D01*
X136779041Y-81614711D01*
X136731797Y-81666187D01*
X136706081Y-81677931D01*
X136641493Y-81698916D01*
X136470318Y-81786135D01*
X136381645Y-81850560D01*
X136314898Y-81899055D01*
X136314896Y-81899057D01*
X136314895Y-81899057D01*
X136179057Y-82034895D01*
X136179057Y-82034896D01*
X136179055Y-82034898D01*
X136130560Y-82101645D01*
X136066135Y-82190318D01*
X135978916Y-82361493D01*
X135919553Y-82544197D01*
X135889500Y-82733945D01*
X135889500Y-82926054D01*
X135919553Y-83115802D01*
X135978916Y-83298506D01*
X135978918Y-83298509D01*
X136066135Y-83469681D01*
X136179055Y-83625102D01*
X136314898Y-83760945D01*
X136470319Y-83873865D01*
X136641491Y-83961082D01*
X136641493Y-83961083D01*
X136732845Y-83990764D01*
X136824199Y-84020447D01*
X137013945Y-84050500D01*
X137013946Y-84050500D01*
X137206054Y-84050500D01*
X137206055Y-84050500D01*
X137395801Y-84020447D01*
X137578509Y-83961082D01*
X137749681Y-83873865D01*
X137905102Y-83760945D01*
X138040945Y-83625102D01*
X138153865Y-83469681D01*
X138241082Y-83298509D01*
X138300447Y-83115801D01*
X138330500Y-82926055D01*
X138330500Y-82733945D01*
X138300447Y-82544199D01*
X138241082Y-82361491D01*
X138153865Y-82190319D01*
X138040945Y-82034898D01*
X137905102Y-81899055D01*
X137749681Y-81786135D01*
X137578504Y-81698915D01*
X137513919Y-81677931D01*
X137456243Y-81638494D01*
X137429044Y-81574136D01*
X137440958Y-81505289D01*
X137488202Y-81453813D01*
X137513919Y-81442069D01*
X137578504Y-81421084D01*
X137578506Y-81421082D01*
X137578509Y-81421082D01*
X137749681Y-81333865D01*
X137905102Y-81220945D01*
X138040945Y-81085102D01*
X138153865Y-80929681D01*
X138241082Y-80758509D01*
X138300447Y-80575801D01*
X138330500Y-80386055D01*
X138330500Y-80193945D01*
X138300447Y-80004199D01*
X138241082Y-79821491D01*
X138153865Y-79650319D01*
X138040945Y-79494898D01*
X137905102Y-79359055D01*
X137749681Y-79246135D01*
X137578504Y-79158915D01*
X137571907Y-79156772D01*
X137513919Y-79137931D01*
X137456243Y-79098494D01*
X137433091Y-79043713D01*
X162559500Y-79043713D01*
X162559500Y-79256287D01*
X162592754Y-79466243D01*
X162652564Y-79650319D01*
X162658444Y-79668414D01*
X162754951Y-79857820D01*
X162879890Y-80029786D01*
X163030213Y-80180109D01*
X163202179Y-80305048D01*
X163202181Y-80305049D01*
X163202184Y-80305051D01*
X163391588Y-80401557D01*
X163593757Y-80467246D01*
X163803713Y-80500500D01*
X163803714Y-80500500D01*
X164016286Y-80500500D01*
X164016287Y-80500500D01*
X164226243Y-80467246D01*
X164428412Y-80401557D01*
X164617816Y-80305051D01*
X164639789Y-80289086D01*
X164789786Y-80180109D01*
X164789788Y-80180106D01*
X164789792Y-80180104D01*
X164940104Y-80029792D01*
X164940106Y-80029788D01*
X164940109Y-80029786D01*
X165065048Y-79857820D01*
X165065047Y-79857820D01*
X165065051Y-79857816D01*
X165161557Y-79668412D01*
X165227246Y-79466243D01*
X165260500Y-79256287D01*
X165260500Y-79043713D01*
X165227246Y-78833757D01*
X165161557Y-78631588D01*
X165065051Y-78442184D01*
X165065049Y-78442181D01*
X165065048Y-78442179D01*
X164940109Y-78270213D01*
X164789786Y-78119890D01*
X164617820Y-77994951D01*
X164428414Y-77898444D01*
X164428413Y-77898443D01*
X164428412Y-77898443D01*
X164226243Y-77832754D01*
X164226241Y-77832753D01*
X164226240Y-77832753D01*
X164064957Y-77807208D01*
X164016287Y-77799500D01*
X163803713Y-77799500D01*
X163755042Y-77807208D01*
X163593760Y-77832753D01*
X163391585Y-77898444D01*
X163202179Y-77994951D01*
X163030213Y-78119890D01*
X162879890Y-78270213D01*
X162754951Y-78442179D01*
X162658444Y-78631585D01*
X162592753Y-78833760D01*
X162561017Y-79034136D01*
X162559500Y-79043713D01*
X137433091Y-79043713D01*
X137429044Y-79034136D01*
X137440958Y-78965289D01*
X137488202Y-78913813D01*
X137513919Y-78902069D01*
X137578504Y-78881084D01*
X137578506Y-78881082D01*
X137578509Y-78881082D01*
X137749681Y-78793865D01*
X137905102Y-78680945D01*
X138040945Y-78545102D01*
X138153865Y-78389681D01*
X138241082Y-78218509D01*
X138300447Y-78035801D01*
X138330500Y-77846055D01*
X138330500Y-77653945D01*
X138300447Y-77464199D01*
X138241082Y-77281491D01*
X138153865Y-77110319D01*
X138040945Y-76954898D01*
X137905102Y-76819055D01*
X137749681Y-76706135D01*
X137669458Y-76665259D01*
X137578506Y-76618916D01*
X137395802Y-76559553D01*
X137300928Y-76544526D01*
X137206055Y-76529500D01*
X137013945Y-76529500D01*
X136950696Y-76539517D01*
X136824197Y-76559553D01*
X136641493Y-76618916D01*
X136470318Y-76706135D01*
X136409256Y-76750500D01*
X136314898Y-76819055D01*
X136314896Y-76819057D01*
X136314895Y-76819057D01*
X136179057Y-76954895D01*
X136179057Y-76954896D01*
X136179055Y-76954898D01*
X136174014Y-76961837D01*
X136066135Y-77110318D01*
X135978916Y-77281493D01*
X135919553Y-77464197D01*
X135902162Y-77574000D01*
X135889500Y-77653945D01*
X133010000Y-77653945D01*
X133010000Y-77100000D01*
X132710294Y-77100000D01*
X132710000Y-77099999D01*
X126733379Y-77091681D01*
X122533827Y-77085837D01*
X122466815Y-77066059D01*
X122421134Y-77013191D01*
X122410000Y-76961837D01*
X122410000Y-76835162D01*
X122429685Y-76768123D01*
X122482489Y-76722368D01*
X122551647Y-76712424D01*
X122553812Y-76712840D01*
X122553820Y-76712791D01*
X122791903Y-76750500D01*
X122791908Y-76750500D01*
X125228097Y-76750500D01*
X125461368Y-76713553D01*
X125484198Y-76706135D01*
X125685992Y-76640568D01*
X125896433Y-76533343D01*
X126087510Y-76394517D01*
X126254517Y-76227510D01*
X126393343Y-76036433D01*
X126500568Y-75825992D01*
X126573553Y-75601368D01*
X126610500Y-75368097D01*
X126610500Y-75131902D01*
X126573553Y-74898631D01*
X126500566Y-74674003D01*
X126393342Y-74463566D01*
X126254517Y-74272490D01*
X126087510Y-74105483D01*
X125896433Y-73966657D01*
X125685996Y-73859433D01*
X125461368Y-73786446D01*
X125228097Y-73749500D01*
X125228092Y-73749500D01*
X122791908Y-73749500D01*
X122791903Y-73749500D01*
X122553820Y-73787209D01*
X122553462Y-73784954D01*
X122493083Y-73781892D01*
X122436294Y-73741188D01*
X122410526Y-73676243D01*
X122410000Y-73664837D01*
X122410000Y-68102135D01*
X125409500Y-68102135D01*
X125409500Y-72797870D01*
X125409501Y-72797876D01*
X125415908Y-72857483D01*
X125466202Y-72992328D01*
X125466206Y-72992335D01*
X125552452Y-73107544D01*
X125552455Y-73107547D01*
X125667664Y-73193793D01*
X125667671Y-73193797D01*
X125802517Y-73244091D01*
X125802516Y-73244091D01*
X125809444Y-73244835D01*
X125862127Y-73250500D01*
X127957872Y-73250499D01*
X128017483Y-73244091D01*
X128152331Y-73193796D01*
X128267546Y-73107546D01*
X128353796Y-72992331D01*
X128404091Y-72857483D01*
X128410500Y-72797873D01*
X128410499Y-68102128D01*
X128404091Y-68042517D01*
X128398991Y-68028844D01*
X128353797Y-67907671D01*
X128353793Y-67907664D01*
X128267547Y-67792455D01*
X128267544Y-67792452D01*
X128152335Y-67706206D01*
X128152328Y-67706202D01*
X128017482Y-67655908D01*
X128017483Y-67655908D01*
X127957883Y-67649501D01*
X127957881Y-67649500D01*
X127957873Y-67649500D01*
X127957864Y-67649500D01*
X125862129Y-67649500D01*
X125862123Y-67649501D01*
X125802516Y-67655908D01*
X125667671Y-67706202D01*
X125667664Y-67706206D01*
X125552455Y-67792452D01*
X125552452Y-67792455D01*
X125466206Y-67907664D01*
X125466202Y-67907671D01*
X125415908Y-68042517D01*
X125409501Y-68102116D01*
X125409501Y-68102123D01*
X125409500Y-68102135D01*
X122410000Y-68102135D01*
X122410000Y-67350000D01*
X122012149Y-67350000D01*
X121985478Y-67350000D01*
X121982873Y-67351421D01*
X121956403Y-67354241D01*
X116510546Y-67346659D01*
X116510483Y-67804315D01*
X116510484Y-67804316D01*
X121887652Y-67804316D01*
X121954691Y-67824001D01*
X122000446Y-67876805D01*
X122011651Y-67928421D01*
X122009203Y-70775933D01*
X122006442Y-73988679D01*
X121986700Y-74055701D01*
X121955330Y-74088888D01*
X121932493Y-74105480D01*
X121932487Y-74105485D01*
X121765485Y-74272487D01*
X121765485Y-74272488D01*
X121765483Y-74272490D01*
X121705862Y-74354550D01*
X121626657Y-74463566D01*
X121519433Y-74674003D01*
X121446446Y-74898631D01*
X121409500Y-75131902D01*
X121409500Y-75368097D01*
X121446446Y-75601368D01*
X121519433Y-75825996D01*
X121626657Y-76036433D01*
X121765483Y-76227510D01*
X121932490Y-76394517D01*
X121953161Y-76409535D01*
X121995825Y-76464864D01*
X122004274Y-76509958D01*
X122003757Y-77112860D01*
X122003847Y-77113025D01*
X122006660Y-77137994D01*
X122010000Y-77450000D01*
X132586000Y-77450000D01*
X132653039Y-77469685D01*
X132698794Y-77522489D01*
X132710000Y-77574000D01*
X132710000Y-108476000D01*
X132690315Y-108543039D01*
X132637511Y-108588794D01*
X132586000Y-108600000D01*
X129710000Y-108600000D01*
X129460000Y-108600000D01*
X129460000Y-114508333D01*
X131371142Y-116313300D01*
X131406364Y-116373641D01*
X131410000Y-116403449D01*
X131410000Y-117026000D01*
X131390315Y-117093039D01*
X131337511Y-117138794D01*
X131286000Y-117150000D01*
X131210000Y-117150000D01*
X131010000Y-117150000D01*
X131010000Y-120150000D01*
X131010000Y-120350000D01*
X131286000Y-120350000D01*
X131353039Y-120369685D01*
X131398794Y-120422489D01*
X131410000Y-120474000D01*
X131410000Y-120835424D01*
X131390315Y-120902463D01*
X131337511Y-120948218D01*
X131333454Y-120949985D01*
X131316347Y-120957071D01*
X131316340Y-120957074D01*
X131197521Y-121036467D01*
X131197517Y-121036470D01*
X131096470Y-121137517D01*
X131096467Y-121137521D01*
X131017074Y-121256340D01*
X131017069Y-121256349D01*
X130962381Y-121388379D01*
X130962379Y-121388385D01*
X130934500Y-121528542D01*
X130934500Y-121528545D01*
X130934500Y-121671455D01*
X130934500Y-121671457D01*
X130934499Y-121671457D01*
X130962379Y-121811614D01*
X130962381Y-121811620D01*
X131017069Y-121943650D01*
X131017074Y-121943659D01*
X131096467Y-122062478D01*
X131096470Y-122062482D01*
X131197517Y-122163529D01*
X131197521Y-122163532D01*
X131316340Y-122242925D01*
X131316344Y-122242927D01*
X131316347Y-122242929D01*
X131333450Y-122250013D01*
X131387854Y-122293852D01*
X131409921Y-122360146D01*
X131410000Y-122364575D01*
X131410000Y-127326000D01*
X131390315Y-127393039D01*
X131337511Y-127438794D01*
X131286000Y-127450000D01*
X112934500Y-127450000D01*
X112867461Y-127430315D01*
X112821706Y-127377511D01*
X112810500Y-127326000D01*
X112810500Y-121631995D01*
X116099500Y-121631995D01*
X116099500Y-121868004D01*
X116099501Y-121868020D01*
X116130306Y-122102010D01*
X116191394Y-122329993D01*
X116281714Y-122548045D01*
X116281719Y-122548056D01*
X116347782Y-122662478D01*
X116399727Y-122752450D01*
X116399729Y-122752453D01*
X116399730Y-122752454D01*
X116543406Y-122939697D01*
X116543412Y-122939704D01*
X116710295Y-123106587D01*
X116710301Y-123106592D01*
X116897550Y-123250273D01*
X117028918Y-123326118D01*
X117101943Y-123368280D01*
X117101948Y-123368282D01*
X117101951Y-123368284D01*
X117320007Y-123458606D01*
X117547986Y-123519693D01*
X117781989Y-123550500D01*
X117781996Y-123550500D01*
X118018004Y-123550500D01*
X118018011Y-123550500D01*
X118252014Y-123519693D01*
X118479993Y-123458606D01*
X118698049Y-123368284D01*
X118902450Y-123250273D01*
X119089699Y-123106592D01*
X119256592Y-122939699D01*
X119400273Y-122752450D01*
X119518284Y-122548049D01*
X119608606Y-122329993D01*
X119669693Y-122102014D01*
X119700500Y-121868011D01*
X119700500Y-121631989D01*
X119669693Y-121397986D01*
X119608606Y-121170007D01*
X119518284Y-120951951D01*
X119518282Y-120951948D01*
X119518280Y-120951943D01*
X119462202Y-120854815D01*
X119400273Y-120747550D01*
X119257604Y-120561620D01*
X119256593Y-120560302D01*
X119256587Y-120560295D01*
X119089704Y-120393412D01*
X119089697Y-120393406D01*
X118902454Y-120249730D01*
X118902453Y-120249729D01*
X118902450Y-120249727D01*
X118820957Y-120202677D01*
X118698056Y-120131719D01*
X118698045Y-120131714D01*
X118479993Y-120041394D01*
X118252010Y-119980306D01*
X118018020Y-119949501D01*
X118018017Y-119949500D01*
X118018011Y-119949500D01*
X117781989Y-119949500D01*
X117781983Y-119949500D01*
X117781979Y-119949501D01*
X117547989Y-119980306D01*
X117320006Y-120041394D01*
X117101954Y-120131714D01*
X117101943Y-120131719D01*
X116897545Y-120249730D01*
X116710302Y-120393406D01*
X116710295Y-120393412D01*
X116543412Y-120560295D01*
X116543406Y-120560302D01*
X116399730Y-120747545D01*
X116281719Y-120951943D01*
X116281714Y-120951954D01*
X116191394Y-121170006D01*
X116130306Y-121397989D01*
X116099501Y-121631979D01*
X116099500Y-121631995D01*
X112810500Y-121631995D01*
X112810500Y-116631995D01*
X116099500Y-116631995D01*
X116099500Y-116868004D01*
X116099501Y-116868020D01*
X116126119Y-117070208D01*
X116130307Y-117102014D01*
X116167865Y-117242182D01*
X116191394Y-117329993D01*
X116281714Y-117548045D01*
X116281719Y-117548056D01*
X116331201Y-117633760D01*
X116399727Y-117752450D01*
X116399729Y-117752453D01*
X116399730Y-117752454D01*
X116543406Y-117939697D01*
X116543412Y-117939704D01*
X116710295Y-118106587D01*
X116710301Y-118106592D01*
X116897550Y-118250273D01*
X117028918Y-118326118D01*
X117101943Y-118368280D01*
X117101948Y-118368282D01*
X117101951Y-118368284D01*
X117320007Y-118458606D01*
X117547986Y-118519693D01*
X117781989Y-118550500D01*
X117781996Y-118550500D01*
X118018004Y-118550500D01*
X118018011Y-118550500D01*
X118252014Y-118519693D01*
X118479993Y-118458606D01*
X118698049Y-118368284D01*
X118902450Y-118250273D01*
X119089699Y-118106592D01*
X119256592Y-117939699D01*
X119400273Y-117752450D01*
X119518284Y-117548049D01*
X119608606Y-117329993D01*
X119669693Y-117102014D01*
X119700500Y-116868011D01*
X119700500Y-116631989D01*
X119669693Y-116397986D01*
X119608606Y-116170007D01*
X119518284Y-115951951D01*
X119518282Y-115951948D01*
X119518280Y-115951943D01*
X119445277Y-115825500D01*
X119400273Y-115747550D01*
X119270589Y-115578542D01*
X119256593Y-115560302D01*
X119256587Y-115560295D01*
X119089704Y-115393412D01*
X119089697Y-115393406D01*
X118902454Y-115249730D01*
X118902453Y-115249729D01*
X118902450Y-115249727D01*
X118794706Y-115187521D01*
X118698056Y-115131719D01*
X118698045Y-115131714D01*
X118479993Y-115041394D01*
X118252010Y-114980306D01*
X118018020Y-114949501D01*
X118018017Y-114949500D01*
X118018011Y-114949500D01*
X117781989Y-114949500D01*
X117781983Y-114949500D01*
X117781979Y-114949501D01*
X117547989Y-114980306D01*
X117320006Y-115041394D01*
X117101954Y-115131714D01*
X117101943Y-115131719D01*
X116897545Y-115249730D01*
X116710302Y-115393406D01*
X116710295Y-115393412D01*
X116543412Y-115560295D01*
X116543406Y-115560302D01*
X116399730Y-115747545D01*
X116281719Y-115951943D01*
X116281714Y-115951954D01*
X116191394Y-116170006D01*
X116130306Y-116397989D01*
X116099501Y-116631979D01*
X116099500Y-116631995D01*
X112810500Y-116631995D01*
X112810500Y-110649983D01*
X116099500Y-110649983D01*
X116099500Y-112850001D01*
X116099501Y-112850018D01*
X116110000Y-112952796D01*
X116110001Y-112952799D01*
X116165185Y-113119331D01*
X116165186Y-113119334D01*
X116257288Y-113268656D01*
X116381344Y-113392712D01*
X116530666Y-113484814D01*
X116697203Y-113539999D01*
X116799991Y-113550500D01*
X119000008Y-113550499D01*
X119102797Y-113539999D01*
X119269334Y-113484814D01*
X119418656Y-113392712D01*
X119542712Y-113268656D01*
X119634814Y-113119334D01*
X119689999Y-112952797D01*
X119700500Y-112850009D01*
X119700499Y-110649992D01*
X119689999Y-110547203D01*
X119634814Y-110380666D01*
X119542712Y-110231344D01*
X119418656Y-110107288D01*
X119269334Y-110015186D01*
X119102797Y-109960001D01*
X119102795Y-109960000D01*
X119000010Y-109949500D01*
X116799998Y-109949500D01*
X116799981Y-109949501D01*
X116697203Y-109960000D01*
X116697200Y-109960001D01*
X116530668Y-110015185D01*
X116530663Y-110015187D01*
X116381342Y-110107289D01*
X116257289Y-110231342D01*
X116165187Y-110380663D01*
X116165186Y-110380666D01*
X116110001Y-110547203D01*
X116110001Y-110547204D01*
X116110000Y-110547204D01*
X116099500Y-110649983D01*
X112810500Y-110649983D01*
X112810500Y-108763389D01*
X122409500Y-108763389D01*
X122409500Y-108936610D01*
X122436597Y-109107697D01*
X122490128Y-109272447D01*
X122568770Y-109426791D01*
X122641659Y-109527115D01*
X122665139Y-109592921D01*
X122649313Y-109660975D01*
X122641659Y-109672885D01*
X122568770Y-109773208D01*
X122490128Y-109927552D01*
X122436597Y-110092302D01*
X122409500Y-110263389D01*
X122409500Y-110436610D01*
X122427015Y-110547200D01*
X122436598Y-110607701D01*
X122490127Y-110772445D01*
X122568768Y-110926788D01*
X122670586Y-111066928D01*
X122793072Y-111189414D01*
X122933212Y-111291232D01*
X123087555Y-111369873D01*
X123252299Y-111423402D01*
X123423389Y-111450500D01*
X123423390Y-111450500D01*
X123596610Y-111450500D01*
X123596611Y-111450500D01*
X123767701Y-111423402D01*
X123932445Y-111369873D01*
X124086788Y-111291232D01*
X124137113Y-111254667D01*
X124202920Y-111231187D01*
X124270974Y-111247012D01*
X124282887Y-111254668D01*
X124333210Y-111291231D01*
X124333212Y-111291232D01*
X124487555Y-111369873D01*
X124652299Y-111423402D01*
X124823389Y-111450500D01*
X124823390Y-111450500D01*
X124996610Y-111450500D01*
X124996611Y-111450500D01*
X125167701Y-111423402D01*
X125332445Y-111369873D01*
X125486788Y-111291232D01*
X125537113Y-111254667D01*
X125602920Y-111231187D01*
X125670974Y-111247012D01*
X125682887Y-111254668D01*
X125733210Y-111291231D01*
X125733212Y-111291232D01*
X125887555Y-111369873D01*
X126052299Y-111423402D01*
X126223389Y-111450500D01*
X126223390Y-111450500D01*
X126396610Y-111450500D01*
X126396611Y-111450500D01*
X126567701Y-111423402D01*
X126732445Y-111369873D01*
X126886788Y-111291232D01*
X127026928Y-111189414D01*
X127149414Y-111066928D01*
X127251232Y-110926788D01*
X127329873Y-110772445D01*
X127383402Y-110607701D01*
X127410500Y-110436611D01*
X127410500Y-110263389D01*
X127383402Y-110092299D01*
X127329873Y-109927555D01*
X127251232Y-109773212D01*
X127178339Y-109672884D01*
X127154860Y-109607080D01*
X127170685Y-109539026D01*
X127178334Y-109527121D01*
X127251232Y-109426788D01*
X127329873Y-109272445D01*
X127383402Y-109107701D01*
X127410500Y-108936611D01*
X127410500Y-108763389D01*
X127383402Y-108592299D01*
X127329873Y-108427555D01*
X127251232Y-108273212D01*
X127149414Y-108133072D01*
X127026928Y-108010586D01*
X126886788Y-107908768D01*
X126732445Y-107830127D01*
X126567701Y-107776598D01*
X126567699Y-107776597D01*
X126567698Y-107776597D01*
X126436271Y-107755781D01*
X126396611Y-107749500D01*
X126223389Y-107749500D01*
X126183728Y-107755781D01*
X126052302Y-107776597D01*
X125887552Y-107830128D01*
X125733208Y-107908770D01*
X125682885Y-107945332D01*
X125617079Y-107968812D01*
X125549025Y-107952987D01*
X125537115Y-107945332D01*
X125486791Y-107908770D01*
X125486790Y-107908769D01*
X125486788Y-107908768D01*
X125332445Y-107830127D01*
X125167701Y-107776598D01*
X125167699Y-107776597D01*
X125167698Y-107776597D01*
X125036271Y-107755781D01*
X124996611Y-107749500D01*
X124823389Y-107749500D01*
X124783728Y-107755781D01*
X124652302Y-107776597D01*
X124487552Y-107830128D01*
X124333208Y-107908770D01*
X124282885Y-107945332D01*
X124217079Y-107968812D01*
X124149025Y-107952987D01*
X124137115Y-107945332D01*
X124086791Y-107908770D01*
X124086790Y-107908769D01*
X124086788Y-107908768D01*
X123932445Y-107830127D01*
X123767701Y-107776598D01*
X123767699Y-107776597D01*
X123767698Y-107776597D01*
X123636271Y-107755781D01*
X123596611Y-107749500D01*
X123423389Y-107749500D01*
X123383728Y-107755781D01*
X123252302Y-107776597D01*
X123087552Y-107830128D01*
X122933211Y-107908768D01*
X122882886Y-107945332D01*
X122793072Y-108010586D01*
X122793070Y-108010588D01*
X122793069Y-108010588D01*
X122670588Y-108133069D01*
X122670588Y-108133070D01*
X122670586Y-108133072D01*
X122643949Y-108169735D01*
X122568768Y-108273211D01*
X122490128Y-108427552D01*
X122436597Y-108592302D01*
X122409500Y-108763389D01*
X112810500Y-108763389D01*
X112810500Y-103463389D01*
X122409500Y-103463389D01*
X122409500Y-103636610D01*
X122436597Y-103807697D01*
X122490128Y-103972447D01*
X122568770Y-104126791D01*
X122641659Y-104227115D01*
X122665139Y-104292921D01*
X122649313Y-104360975D01*
X122641659Y-104372885D01*
X122568770Y-104473208D01*
X122490128Y-104627552D01*
X122436597Y-104792302D01*
X122409500Y-104963389D01*
X122409500Y-105136611D01*
X122436598Y-105307701D01*
X122490127Y-105472445D01*
X122568768Y-105626788D01*
X122670586Y-105766928D01*
X122793072Y-105889414D01*
X122933212Y-105991232D01*
X123087555Y-106069873D01*
X123252299Y-106123402D01*
X123423389Y-106150500D01*
X123423390Y-106150500D01*
X123596610Y-106150500D01*
X123596611Y-106150500D01*
X123767701Y-106123402D01*
X123932445Y-106069873D01*
X124086788Y-105991232D01*
X124137113Y-105954667D01*
X124202920Y-105931187D01*
X124270974Y-105947012D01*
X124282887Y-105954668D01*
X124333210Y-105991231D01*
X124333212Y-105991232D01*
X124487555Y-106069873D01*
X124652299Y-106123402D01*
X124823389Y-106150500D01*
X124823390Y-106150500D01*
X124996610Y-106150500D01*
X124996611Y-106150500D01*
X125167701Y-106123402D01*
X125332445Y-106069873D01*
X125486788Y-105991232D01*
X125537113Y-105954667D01*
X125602920Y-105931187D01*
X125670974Y-105947012D01*
X125682887Y-105954668D01*
X125733210Y-105991231D01*
X125733212Y-105991232D01*
X125887555Y-106069873D01*
X126052299Y-106123402D01*
X126223389Y-106150500D01*
X126223390Y-106150500D01*
X126396610Y-106150500D01*
X126396611Y-106150500D01*
X126567701Y-106123402D01*
X126732445Y-106069873D01*
X126886788Y-105991232D01*
X127026928Y-105889414D01*
X127149414Y-105766928D01*
X127251232Y-105626788D01*
X127329873Y-105472445D01*
X127383402Y-105307701D01*
X127410500Y-105136611D01*
X127410500Y-104963389D01*
X127383402Y-104792299D01*
X127329873Y-104627555D01*
X127251232Y-104473212D01*
X127178339Y-104372884D01*
X127154860Y-104307080D01*
X127170685Y-104239026D01*
X127178334Y-104227121D01*
X127251232Y-104126788D01*
X127329873Y-103972445D01*
X127383402Y-103807701D01*
X127410500Y-103636611D01*
X127410500Y-103463389D01*
X127383402Y-103292299D01*
X127329873Y-103127555D01*
X127251232Y-102973212D01*
X127149414Y-102833072D01*
X127026928Y-102710586D01*
X126886788Y-102608768D01*
X126732445Y-102530127D01*
X126567701Y-102476598D01*
X126567699Y-102476597D01*
X126567698Y-102476597D01*
X126436271Y-102455781D01*
X126396611Y-102449500D01*
X126223389Y-102449500D01*
X126183728Y-102455781D01*
X126052302Y-102476597D01*
X125887552Y-102530128D01*
X125733208Y-102608770D01*
X125682885Y-102645332D01*
X125617079Y-102668812D01*
X125549025Y-102652987D01*
X125537115Y-102645332D01*
X125486791Y-102608770D01*
X125486790Y-102608769D01*
X125486788Y-102608768D01*
X125332445Y-102530127D01*
X125167701Y-102476598D01*
X125167699Y-102476597D01*
X125167698Y-102476597D01*
X125036271Y-102455781D01*
X124996611Y-102449500D01*
X124823389Y-102449500D01*
X124783728Y-102455781D01*
X124652302Y-102476597D01*
X124487552Y-102530128D01*
X124333208Y-102608770D01*
X124282885Y-102645332D01*
X124217079Y-102668812D01*
X124149025Y-102652987D01*
X124137115Y-102645332D01*
X124086791Y-102608770D01*
X124086790Y-102608769D01*
X124086788Y-102608768D01*
X123932445Y-102530127D01*
X123767701Y-102476598D01*
X123767699Y-102476597D01*
X123767698Y-102476597D01*
X123636271Y-102455781D01*
X123596611Y-102449500D01*
X123423389Y-102449500D01*
X123383728Y-102455781D01*
X123252302Y-102476597D01*
X123087552Y-102530128D01*
X122933211Y-102608768D01*
X122882886Y-102645332D01*
X122793072Y-102710586D01*
X122793070Y-102710588D01*
X122793069Y-102710588D01*
X122670588Y-102833069D01*
X122670588Y-102833070D01*
X122670586Y-102833072D01*
X122626859Y-102893256D01*
X122568768Y-102973211D01*
X122490128Y-103127552D01*
X122436597Y-103292302D01*
X122409500Y-103463389D01*
X112810500Y-103463389D01*
X112810500Y-99918872D01*
X120709500Y-99918872D01*
X120709500Y-100181127D01*
X120736123Y-100383339D01*
X120743730Y-100441116D01*
X120811602Y-100694418D01*
X120811605Y-100694428D01*
X120911953Y-100936690D01*
X120911958Y-100936700D01*
X121043075Y-101163803D01*
X121202718Y-101371851D01*
X121202726Y-101371860D01*
X121388140Y-101557274D01*
X121388148Y-101557281D01*
X121596196Y-101716924D01*
X121823299Y-101848041D01*
X121823309Y-101848046D01*
X122065571Y-101948394D01*
X122065581Y-101948398D01*
X122318884Y-102016270D01*
X122578880Y-102050500D01*
X122578887Y-102050500D01*
X122841113Y-102050500D01*
X122841120Y-102050500D01*
X123101116Y-102016270D01*
X123354419Y-101948398D01*
X123596697Y-101848043D01*
X123823803Y-101716924D01*
X124031851Y-101557282D01*
X124031855Y-101557277D01*
X124031860Y-101557274D01*
X124217274Y-101371860D01*
X124217277Y-101371855D01*
X124217282Y-101371851D01*
X124376924Y-101163803D01*
X124508043Y-100936697D01*
X124608398Y-100694419D01*
X124676270Y-100441116D01*
X124710500Y-100181120D01*
X124710500Y-99918880D01*
X124676270Y-99658884D01*
X124608398Y-99405581D01*
X124608394Y-99405571D01*
X124508046Y-99163309D01*
X124508041Y-99163299D01*
X124376924Y-98936196D01*
X124217281Y-98728148D01*
X124217274Y-98728140D01*
X124031860Y-98542726D01*
X124031851Y-98542718D01*
X123823803Y-98383075D01*
X123596700Y-98251958D01*
X123596690Y-98251953D01*
X123354428Y-98151605D01*
X123354421Y-98151603D01*
X123354419Y-98151602D01*
X123101116Y-98083730D01*
X123043339Y-98076123D01*
X122841127Y-98049500D01*
X122841120Y-98049500D01*
X122578880Y-98049500D01*
X122578872Y-98049500D01*
X122347772Y-98079926D01*
X122318884Y-98083730D01*
X122065581Y-98151602D01*
X122065571Y-98151605D01*
X121823309Y-98251953D01*
X121823299Y-98251958D01*
X121596196Y-98383075D01*
X121388148Y-98542718D01*
X121202718Y-98728148D01*
X121043075Y-98936196D01*
X120911958Y-99163299D01*
X120911953Y-99163309D01*
X120811605Y-99405571D01*
X120811602Y-99405581D01*
X120743730Y-99658885D01*
X120709500Y-99918872D01*
X112810500Y-99918872D01*
X112810500Y-86418872D01*
X120709500Y-86418872D01*
X120709500Y-86681127D01*
X120736123Y-86883339D01*
X120743730Y-86941116D01*
X120804377Y-87167454D01*
X120811602Y-87194418D01*
X120811605Y-87194428D01*
X120911953Y-87436690D01*
X120911958Y-87436700D01*
X121043075Y-87663803D01*
X121202718Y-87871851D01*
X121202726Y-87871860D01*
X121388140Y-88057274D01*
X121388148Y-88057281D01*
X121596196Y-88216924D01*
X121823299Y-88348041D01*
X121823309Y-88348046D01*
X122065571Y-88448394D01*
X122065581Y-88448398D01*
X122318884Y-88516270D01*
X122578880Y-88550500D01*
X122578887Y-88550500D01*
X122841113Y-88550500D01*
X122841120Y-88550500D01*
X123101116Y-88516270D01*
X123354419Y-88448398D01*
X123596697Y-88348043D01*
X123823803Y-88216924D01*
X124031851Y-88057282D01*
X124031855Y-88057277D01*
X124031860Y-88057274D01*
X124217274Y-87871860D01*
X124217277Y-87871855D01*
X124217282Y-87871851D01*
X124376924Y-87663803D01*
X124484696Y-87477135D01*
X126034500Y-87477135D01*
X126034500Y-91922870D01*
X126034501Y-91922876D01*
X126040908Y-91982483D01*
X126091202Y-92117328D01*
X126091206Y-92117335D01*
X126177452Y-92232544D01*
X126177455Y-92232547D01*
X126292664Y-92318793D01*
X126292671Y-92318797D01*
X126427517Y-92369091D01*
X126427516Y-92369091D01*
X126434444Y-92369835D01*
X126487127Y-92375500D01*
X130932872Y-92375499D01*
X130992483Y-92369091D01*
X131127331Y-92318796D01*
X131242546Y-92232546D01*
X131328796Y-92117331D01*
X131379091Y-91982483D01*
X131385500Y-91922873D01*
X131385499Y-87477128D01*
X131379091Y-87417517D01*
X131328796Y-87282669D01*
X131328795Y-87282668D01*
X131328793Y-87282664D01*
X131242547Y-87167455D01*
X131242544Y-87167452D01*
X131127335Y-87081206D01*
X131127328Y-87081202D01*
X130992482Y-87030908D01*
X130992483Y-87030908D01*
X130932883Y-87024501D01*
X130932881Y-87024500D01*
X130932873Y-87024500D01*
X130932864Y-87024500D01*
X126487129Y-87024500D01*
X126487123Y-87024501D01*
X126427516Y-87030908D01*
X126292671Y-87081202D01*
X126292664Y-87081206D01*
X126177455Y-87167452D01*
X126177452Y-87167455D01*
X126091206Y-87282664D01*
X126091202Y-87282671D01*
X126040908Y-87417517D01*
X126034501Y-87477116D01*
X126034501Y-87477123D01*
X126034500Y-87477135D01*
X124484696Y-87477135D01*
X124508043Y-87436697D01*
X124608398Y-87194419D01*
X124676270Y-86941116D01*
X124710500Y-86681120D01*
X124710500Y-86418880D01*
X124676270Y-86158884D01*
X124608398Y-85905581D01*
X124608394Y-85905571D01*
X124508046Y-85663309D01*
X124508041Y-85663299D01*
X124376924Y-85436196D01*
X124217281Y-85228148D01*
X124217274Y-85228140D01*
X124031860Y-85042726D01*
X124031851Y-85042718D01*
X123823803Y-84883075D01*
X123596700Y-84751958D01*
X123596690Y-84751953D01*
X123354428Y-84651605D01*
X123354421Y-84651603D01*
X123354419Y-84651602D01*
X123101116Y-84583730D01*
X123043339Y-84576123D01*
X122841127Y-84549500D01*
X122841120Y-84549500D01*
X122578880Y-84549500D01*
X122578872Y-84549500D01*
X122347772Y-84579926D01*
X122318884Y-84583730D01*
X122065581Y-84651602D01*
X122065571Y-84651605D01*
X121823309Y-84751953D01*
X121823299Y-84751958D01*
X121596196Y-84883075D01*
X121388148Y-85042718D01*
X121202718Y-85228148D01*
X121043075Y-85436196D01*
X120911958Y-85663299D01*
X120911953Y-85663309D01*
X120811605Y-85905571D01*
X120811602Y-85905581D01*
X120753671Y-86121786D01*
X120743730Y-86158885D01*
X120709500Y-86418872D01*
X112810500Y-86418872D01*
X112810500Y-79043713D01*
X114359500Y-79043713D01*
X114359500Y-79256287D01*
X114392754Y-79466243D01*
X114452564Y-79650319D01*
X114458444Y-79668414D01*
X114554951Y-79857820D01*
X114679890Y-80029786D01*
X114830213Y-80180109D01*
X115002179Y-80305048D01*
X115002181Y-80305049D01*
X115002184Y-80305051D01*
X115191588Y-80401557D01*
X115393757Y-80467246D01*
X115603713Y-80500500D01*
X115603714Y-80500500D01*
X115816286Y-80500500D01*
X115816287Y-80500500D01*
X116026243Y-80467246D01*
X116228412Y-80401557D01*
X116417816Y-80305051D01*
X116439789Y-80289086D01*
X116589786Y-80180109D01*
X116589788Y-80180106D01*
X116589792Y-80180104D01*
X116740104Y-80029792D01*
X116740106Y-80029788D01*
X116740109Y-80029786D01*
X116865048Y-79857820D01*
X116865047Y-79857820D01*
X116865051Y-79857816D01*
X116961557Y-79668412D01*
X117027246Y-79466243D01*
X117060500Y-79256287D01*
X117060500Y-79043713D01*
X117027246Y-78833757D01*
X116961557Y-78631588D01*
X116865051Y-78442184D01*
X116865049Y-78442181D01*
X116865048Y-78442179D01*
X116740109Y-78270213D01*
X116589786Y-78119890D01*
X116417820Y-77994951D01*
X116228414Y-77898444D01*
X116228413Y-77898443D01*
X116228412Y-77898443D01*
X116026243Y-77832754D01*
X116026241Y-77832753D01*
X116026240Y-77832753D01*
X115864957Y-77807208D01*
X115816287Y-77799500D01*
X115603713Y-77799500D01*
X115555042Y-77807208D01*
X115393760Y-77832753D01*
X115191585Y-77898444D01*
X115002179Y-77994951D01*
X114830213Y-78119890D01*
X114679890Y-78270213D01*
X114554951Y-78442179D01*
X114458444Y-78631585D01*
X114392753Y-78833760D01*
X114361017Y-79034136D01*
X114359500Y-79043713D01*
X112810500Y-79043713D01*
X112810500Y-67929291D01*
X112830185Y-67862252D01*
X112882989Y-67816497D01*
X112934500Y-67805291D01*
X114909923Y-67805291D01*
X114909923Y-67350557D01*
X112934327Y-67347806D01*
X112925727Y-67345267D01*
X112916853Y-67346544D01*
X112892739Y-67335531D01*
X112867315Y-67328028D01*
X112861452Y-67321243D01*
X112853297Y-67317519D01*
X112838964Y-67295217D01*
X112821634Y-67275160D01*
X112819373Y-67264731D01*
X112815523Y-67258741D01*
X112810500Y-67223806D01*
X112810500Y-67021153D01*
X154009500Y-67021153D01*
X154009500Y-67178846D01*
X154040261Y-67333489D01*
X154040264Y-67333501D01*
X154089574Y-67452548D01*
X154097043Y-67522018D01*
X154089574Y-67547452D01*
X154040264Y-67666498D01*
X154040261Y-67666510D01*
X154009500Y-67821153D01*
X154009500Y-67978846D01*
X154040261Y-68133489D01*
X154040264Y-68133501D01*
X154089574Y-68252548D01*
X154097043Y-68322018D01*
X154089574Y-68347452D01*
X154040264Y-68466498D01*
X154040261Y-68466510D01*
X154009500Y-68621153D01*
X154009500Y-68778846D01*
X154040261Y-68933489D01*
X154040264Y-68933501D01*
X154100602Y-69079172D01*
X154100609Y-69079185D01*
X154188210Y-69210288D01*
X154188213Y-69210292D01*
X154299707Y-69321786D01*
X154299711Y-69321789D01*
X154430814Y-69409390D01*
X154430827Y-69409397D01*
X154576498Y-69469735D01*
X154576503Y-69469737D01*
X154731153Y-69500499D01*
X154731156Y-69500500D01*
X154731158Y-69500500D01*
X154888844Y-69500500D01*
X154888845Y-69500499D01*
X155043497Y-69469737D01*
X155189179Y-69409394D01*
X155191110Y-69408103D01*
X155192276Y-69407737D01*
X155194546Y-69406525D01*
X155194776Y-69406955D01*
X155257786Y-69387226D01*
X155325166Y-69405710D01*
X155328850Y-69408077D01*
X155330821Y-69409394D01*
X155330824Y-69409395D01*
X155330827Y-69409397D01*
X155476498Y-69469735D01*
X155476503Y-69469737D01*
X155631153Y-69500499D01*
X155631156Y-69500500D01*
X155631158Y-69500500D01*
X155788844Y-69500500D01*
X155788845Y-69500499D01*
X155943497Y-69469737D01*
X156089179Y-69409394D01*
X156091110Y-69408103D01*
X156092276Y-69407737D01*
X156094546Y-69406525D01*
X156094776Y-69406955D01*
X156157786Y-69387226D01*
X156225166Y-69405710D01*
X156228850Y-69408077D01*
X156230821Y-69409394D01*
X156230824Y-69409395D01*
X156230827Y-69409397D01*
X156376498Y-69469735D01*
X156376503Y-69469737D01*
X156531153Y-69500499D01*
X156531156Y-69500500D01*
X156531158Y-69500500D01*
X156688844Y-69500500D01*
X156688845Y-69500499D01*
X156843497Y-69469737D01*
X156989179Y-69409394D01*
X157120289Y-69321789D01*
X157231789Y-69210289D01*
X157319394Y-69079179D01*
X157379737Y-68933497D01*
X157410500Y-68778842D01*
X157410500Y-68621158D01*
X157410500Y-68621155D01*
X157410499Y-68621153D01*
X157389684Y-68516510D01*
X157379737Y-68466503D01*
X157330425Y-68347452D01*
X157322956Y-68277983D01*
X157330425Y-68252548D01*
X157379735Y-68133501D01*
X157379737Y-68133497D01*
X157410500Y-67978842D01*
X157410500Y-67821158D01*
X157410500Y-67821155D01*
X157410499Y-67821153D01*
X157389684Y-67716510D01*
X157379737Y-67666503D01*
X157375349Y-67655909D01*
X157330425Y-67547452D01*
X157322956Y-67477983D01*
X157330425Y-67452548D01*
X157359030Y-67383489D01*
X157379737Y-67333497D01*
X157410500Y-67178842D01*
X157410500Y-67071153D01*
X158009500Y-67071153D01*
X158009500Y-67228846D01*
X158040261Y-67383489D01*
X158040264Y-67383501D01*
X158089574Y-67502548D01*
X158097043Y-67572018D01*
X158089574Y-67597452D01*
X158040264Y-67716498D01*
X158040261Y-67716510D01*
X158009500Y-67871153D01*
X158009500Y-68028846D01*
X158040261Y-68183489D01*
X158040264Y-68183501D01*
X158089574Y-68302548D01*
X158097043Y-68372018D01*
X158089574Y-68397452D01*
X158040264Y-68516498D01*
X158040261Y-68516510D01*
X158009500Y-68671153D01*
X158009500Y-68828846D01*
X158040261Y-68983489D01*
X158040264Y-68983501D01*
X158100602Y-69129172D01*
X158100609Y-69129185D01*
X158188210Y-69260288D01*
X158188213Y-69260292D01*
X158299707Y-69371786D01*
X158299711Y-69371789D01*
X158430814Y-69459390D01*
X158430827Y-69459397D01*
X158530060Y-69500500D01*
X158576503Y-69519737D01*
X158731153Y-69550499D01*
X158731156Y-69550500D01*
X158731158Y-69550500D01*
X158888844Y-69550500D01*
X158888845Y-69550499D01*
X159043497Y-69519737D01*
X159189179Y-69459394D01*
X159191110Y-69458103D01*
X159192276Y-69457737D01*
X159194546Y-69456525D01*
X159194776Y-69456955D01*
X159257786Y-69437226D01*
X159325166Y-69455710D01*
X159328850Y-69458077D01*
X159330821Y-69459394D01*
X159330824Y-69459395D01*
X159330827Y-69459397D01*
X159430060Y-69500500D01*
X159476503Y-69519737D01*
X159631153Y-69550499D01*
X159631156Y-69550500D01*
X159631158Y-69550500D01*
X159788844Y-69550500D01*
X159788845Y-69550499D01*
X159943497Y-69519737D01*
X160089179Y-69459394D01*
X160091110Y-69458103D01*
X160092276Y-69457737D01*
X160094546Y-69456525D01*
X160094776Y-69456955D01*
X160157786Y-69437226D01*
X160225166Y-69455710D01*
X160228850Y-69458077D01*
X160230821Y-69459394D01*
X160230824Y-69459395D01*
X160230827Y-69459397D01*
X160330060Y-69500500D01*
X160376503Y-69519737D01*
X160531153Y-69550499D01*
X160531156Y-69550500D01*
X160531158Y-69550500D01*
X160688844Y-69550500D01*
X160688845Y-69550499D01*
X160843497Y-69519737D01*
X160989179Y-69459394D01*
X161120289Y-69371789D01*
X161231789Y-69260289D01*
X161319394Y-69129179D01*
X161379737Y-68983497D01*
X161410500Y-68828842D01*
X161410500Y-68671158D01*
X161410500Y-68671155D01*
X161410499Y-68671153D01*
X161379738Y-68516510D01*
X161379737Y-68516503D01*
X161359029Y-68466510D01*
X161330425Y-68397452D01*
X161322956Y-68327983D01*
X161330425Y-68302548D01*
X161379735Y-68183501D01*
X161379737Y-68183497D01*
X161410500Y-68028842D01*
X161410500Y-67871158D01*
X161410500Y-67871155D01*
X161410499Y-67871153D01*
X161394845Y-67792455D01*
X161379737Y-67716503D01*
X161359029Y-67666510D01*
X161330425Y-67597452D01*
X161322956Y-67527983D01*
X161330425Y-67502548D01*
X161379735Y-67383501D01*
X161379737Y-67383497D01*
X161410500Y-67228842D01*
X161410500Y-67071158D01*
X161410500Y-67071155D01*
X161410499Y-67071153D01*
X161379738Y-66916510D01*
X161379737Y-66916503D01*
X161379735Y-66916498D01*
X161319397Y-66770827D01*
X161319390Y-66770814D01*
X161231789Y-66639711D01*
X161231786Y-66639707D01*
X161120292Y-66528213D01*
X161120288Y-66528210D01*
X160989185Y-66440609D01*
X160989172Y-66440602D01*
X160843501Y-66380264D01*
X160843489Y-66380261D01*
X160688845Y-66349500D01*
X160688842Y-66349500D01*
X160531158Y-66349500D01*
X160531155Y-66349500D01*
X160376510Y-66380261D01*
X160376498Y-66380264D01*
X160230822Y-66440604D01*
X160230820Y-66440605D01*
X160228885Y-66441899D01*
X160227717Y-66442264D01*
X160225451Y-66443476D01*
X160225221Y-66443045D01*
X160162206Y-66462773D01*
X160094827Y-66444285D01*
X160091115Y-66441899D01*
X160089179Y-66440605D01*
X160089177Y-66440604D01*
X159943501Y-66380264D01*
X159943489Y-66380261D01*
X159788845Y-66349500D01*
X159788842Y-66349500D01*
X159631158Y-66349500D01*
X159631155Y-66349500D01*
X159476510Y-66380261D01*
X159476498Y-66380264D01*
X159330822Y-66440604D01*
X159330820Y-66440605D01*
X159328885Y-66441899D01*
X159327717Y-66442264D01*
X159325451Y-66443476D01*
X159325221Y-66443045D01*
X159262206Y-66462773D01*
X159194827Y-66444285D01*
X159191115Y-66441899D01*
X159189179Y-66440605D01*
X159189177Y-66440604D01*
X159043501Y-66380264D01*
X159043489Y-66380261D01*
X158888845Y-66349500D01*
X158888842Y-66349500D01*
X158731158Y-66349500D01*
X158731155Y-66349500D01*
X158576510Y-66380261D01*
X158576498Y-66380264D01*
X158430827Y-66440602D01*
X158430814Y-66440609D01*
X158299711Y-66528210D01*
X158299707Y-66528213D01*
X158188213Y-66639707D01*
X158188210Y-66639711D01*
X158100609Y-66770814D01*
X158100602Y-66770827D01*
X158040264Y-66916498D01*
X158040261Y-66916510D01*
X158009500Y-67071153D01*
X157410500Y-67071153D01*
X157410500Y-67021158D01*
X157410500Y-67021155D01*
X157410499Y-67021153D01*
X157389684Y-66916510D01*
X157379737Y-66866503D01*
X157340102Y-66770814D01*
X157319397Y-66720827D01*
X157319390Y-66720814D01*
X157231789Y-66589711D01*
X157231786Y-66589707D01*
X157120292Y-66478213D01*
X157120288Y-66478210D01*
X156989185Y-66390609D01*
X156989172Y-66390602D01*
X156843501Y-66330264D01*
X156843489Y-66330261D01*
X156688845Y-66299500D01*
X156688842Y-66299500D01*
X156531158Y-66299500D01*
X156531155Y-66299500D01*
X156376510Y-66330261D01*
X156376498Y-66330264D01*
X156230822Y-66390604D01*
X156230820Y-66390605D01*
X156228885Y-66391899D01*
X156227717Y-66392264D01*
X156225451Y-66393476D01*
X156225221Y-66393045D01*
X156162206Y-66412773D01*
X156094827Y-66394285D01*
X156091115Y-66391899D01*
X156089179Y-66390605D01*
X156089177Y-66390604D01*
X155943501Y-66330264D01*
X155943489Y-66330261D01*
X155788845Y-66299500D01*
X155788842Y-66299500D01*
X155631158Y-66299500D01*
X155631155Y-66299500D01*
X155476510Y-66330261D01*
X155476498Y-66330264D01*
X155330822Y-66390604D01*
X155330820Y-66390605D01*
X155328885Y-66391899D01*
X155327717Y-66392264D01*
X155325451Y-66393476D01*
X155325221Y-66393045D01*
X155262206Y-66412773D01*
X155194827Y-66394285D01*
X155191115Y-66391899D01*
X155189179Y-66390605D01*
X155189177Y-66390604D01*
X155043501Y-66330264D01*
X155043489Y-66330261D01*
X154888845Y-66299500D01*
X154888842Y-66299500D01*
X154731158Y-66299500D01*
X154731155Y-66299500D01*
X154576510Y-66330261D01*
X154576498Y-66330264D01*
X154430827Y-66390602D01*
X154430814Y-66390609D01*
X154299711Y-66478210D01*
X154299707Y-66478213D01*
X154188213Y-66589707D01*
X154188210Y-66589711D01*
X154100609Y-66720814D01*
X154100602Y-66720827D01*
X154040264Y-66866498D01*
X154040261Y-66866510D01*
X154009500Y-67021153D01*
X112810500Y-67021153D01*
X112810500Y-62471153D01*
X150309500Y-62471153D01*
X150309500Y-62628846D01*
X150340261Y-62783489D01*
X150340264Y-62783501D01*
X150400602Y-62929172D01*
X150400609Y-62929185D01*
X150488210Y-63060288D01*
X150488213Y-63060292D01*
X150599707Y-63171786D01*
X150599711Y-63171789D01*
X150730814Y-63259390D01*
X150730827Y-63259397D01*
X150876498Y-63319735D01*
X150876503Y-63319737D01*
X151031153Y-63350499D01*
X151031156Y-63350500D01*
X151031158Y-63350500D01*
X151188844Y-63350500D01*
X151188845Y-63350499D01*
X151343497Y-63319737D01*
X151489179Y-63259394D01*
X151620289Y-63171789D01*
X151731789Y-63060289D01*
X151819394Y-62929179D01*
X151879737Y-62783497D01*
X151910500Y-62628842D01*
X151910500Y-62471158D01*
X151910500Y-62471155D01*
X151910499Y-62471153D01*
X151879738Y-62316510D01*
X151879737Y-62316503D01*
X151879735Y-62316498D01*
X151819397Y-62170827D01*
X151819390Y-62170814D01*
X151731789Y-62039711D01*
X151731786Y-62039707D01*
X151620292Y-61928213D01*
X151620288Y-61928210D01*
X151489185Y-61840609D01*
X151489172Y-61840602D01*
X151343501Y-61780264D01*
X151343489Y-61780261D01*
X151188845Y-61749500D01*
X151188842Y-61749500D01*
X151031158Y-61749500D01*
X151031155Y-61749500D01*
X150876510Y-61780261D01*
X150876498Y-61780264D01*
X150730827Y-61840602D01*
X150730814Y-61840609D01*
X150599711Y-61928210D01*
X150599707Y-61928213D01*
X150488213Y-62039707D01*
X150488210Y-62039711D01*
X150400609Y-62170814D01*
X150400602Y-62170827D01*
X150340264Y-62316498D01*
X150340261Y-62316510D01*
X150309500Y-62471153D01*
X112810500Y-62471153D01*
X112810500Y-60153480D01*
X112810695Y-60146527D01*
X112816469Y-60043713D01*
X114359500Y-60043713D01*
X114359500Y-60256287D01*
X114392754Y-60466243D01*
X114457738Y-60666243D01*
X114458444Y-60668414D01*
X114554951Y-60857820D01*
X114679890Y-61029786D01*
X114830213Y-61180109D01*
X115002179Y-61305048D01*
X115002181Y-61305049D01*
X115002184Y-61305051D01*
X115191588Y-61401557D01*
X115393757Y-61467246D01*
X115603713Y-61500500D01*
X115603714Y-61500500D01*
X115816286Y-61500500D01*
X115816287Y-61500500D01*
X116026243Y-61467246D01*
X116228412Y-61401557D01*
X116417816Y-61305051D01*
X116521402Y-61229792D01*
X116589786Y-61180109D01*
X116589788Y-61180106D01*
X116589792Y-61180104D01*
X116740104Y-61029792D01*
X116740106Y-61029788D01*
X116740109Y-61029786D01*
X116865048Y-60857820D01*
X116865047Y-60857820D01*
X116865051Y-60857816D01*
X116961557Y-60668412D01*
X117027246Y-60466243D01*
X117060500Y-60256287D01*
X117060500Y-60243713D01*
X162359500Y-60243713D01*
X162359500Y-60456287D01*
X162392754Y-60666243D01*
X162455001Y-60857820D01*
X162458444Y-60868414D01*
X162554951Y-61057820D01*
X162679890Y-61229786D01*
X162830213Y-61380109D01*
X163002179Y-61505048D01*
X163002181Y-61505049D01*
X163002184Y-61505051D01*
X163191588Y-61601557D01*
X163393757Y-61667246D01*
X163603713Y-61700500D01*
X163603714Y-61700500D01*
X163816286Y-61700500D01*
X163816287Y-61700500D01*
X164026243Y-61667246D01*
X164228412Y-61601557D01*
X164417816Y-61505051D01*
X164439789Y-61489086D01*
X164589786Y-61380109D01*
X164589788Y-61380106D01*
X164589792Y-61380104D01*
X164740104Y-61229792D01*
X164740106Y-61229788D01*
X164740109Y-61229786D01*
X164865048Y-61057820D01*
X164865047Y-61057820D01*
X164865051Y-61057816D01*
X164961557Y-60868412D01*
X165027246Y-60666243D01*
X165060500Y-60456287D01*
X165060500Y-60243713D01*
X165027246Y-60033757D01*
X164961557Y-59831588D01*
X164865051Y-59642184D01*
X164865049Y-59642181D01*
X164865048Y-59642179D01*
X164740109Y-59470213D01*
X164589786Y-59319890D01*
X164417820Y-59194951D01*
X164228414Y-59098444D01*
X164228413Y-59098443D01*
X164228412Y-59098443D01*
X164026243Y-59032754D01*
X164026241Y-59032753D01*
X164026240Y-59032753D01*
X163864957Y-59007208D01*
X163816287Y-58999500D01*
X163603713Y-58999500D01*
X163555042Y-59007208D01*
X163393760Y-59032753D01*
X163191585Y-59098444D01*
X163002179Y-59194951D01*
X162830213Y-59319890D01*
X162679890Y-59470213D01*
X162554951Y-59642179D01*
X162458444Y-59831585D01*
X162392753Y-60033760D01*
X162372692Y-60160422D01*
X162359500Y-60243713D01*
X117060500Y-60243713D01*
X117060500Y-60043713D01*
X117027246Y-59833757D01*
X116961557Y-59631588D01*
X116865051Y-59442184D01*
X116865049Y-59442181D01*
X116865048Y-59442179D01*
X116740109Y-59270213D01*
X116589786Y-59119890D01*
X116417820Y-58994951D01*
X116228414Y-58898444D01*
X116228413Y-58898443D01*
X116228412Y-58898443D01*
X116026243Y-58832754D01*
X116026241Y-58832753D01*
X116026240Y-58832753D01*
X115857547Y-58806035D01*
X115816287Y-58799500D01*
X115603713Y-58799500D01*
X115562453Y-58806035D01*
X115393760Y-58832753D01*
X115191585Y-58898444D01*
X115002179Y-58994951D01*
X114830213Y-59119890D01*
X114679890Y-59270213D01*
X114554951Y-59442179D01*
X114458444Y-59631585D01*
X114392753Y-59833760D01*
X114363320Y-60019592D01*
X114359500Y-60043713D01*
X112816469Y-60043713D01*
X112817133Y-60031888D01*
X112817133Y-60031887D01*
X112828259Y-59833757D01*
X112828341Y-59832302D01*
X112829895Y-59818503D01*
X112882032Y-59511656D01*
X112885121Y-59498120D01*
X112971284Y-59199040D01*
X112975875Y-59185921D01*
X113094981Y-58898374D01*
X113101001Y-58885874D01*
X113251567Y-58613443D01*
X113258944Y-58601704D01*
X113439056Y-58347861D01*
X113447702Y-58337018D01*
X113655113Y-58104925D01*
X113664925Y-58095113D01*
X113897018Y-57887702D01*
X113907861Y-57879056D01*
X114161704Y-57698944D01*
X114173443Y-57691567D01*
X114445874Y-57541001D01*
X114458374Y-57534981D01*
X114745928Y-57415872D01*
X114759040Y-57411284D01*
X115058120Y-57325121D01*
X115071656Y-57322032D01*
X115378503Y-57269895D01*
X115392302Y-57268341D01*
X115666884Y-57252921D01*
X115706529Y-57250695D01*
X115713481Y-57250500D01*
X115775892Y-57250500D01*
X163644108Y-57250500D01*
X163706754Y-57250500D01*
X163713243Y-57250670D01*
G37*
%TD.AperFunction*%
%TD*%
%TA.AperFunction,NonConductor*%
G36*
X129231859Y-127654533D02*
G01*
X129247943Y-127654074D01*
X129264693Y-127664174D01*
X129283459Y-127669685D01*
X129293994Y-127681843D01*
X129307776Y-127690154D01*
X129316407Y-127707709D01*
X129329214Y-127722489D01*
X129331503Y-127738413D01*
X129338604Y-127752855D01*
X129336374Y-127772286D01*
X129339158Y-127791647D01*
X129332473Y-127806284D01*
X129330639Y-127822269D01*
X129318259Y-127837408D01*
X129310133Y-127855203D01*
X129296102Y-127864505D01*
X129286411Y-127876358D01*
X129254740Y-127891929D01*
X129111588Y-127938443D01*
X129111585Y-127938444D01*
X128922179Y-128034951D01*
X128750213Y-128159890D01*
X128599890Y-128310213D01*
X128474949Y-128482182D01*
X128470484Y-128490946D01*
X128422509Y-128541742D01*
X128354688Y-128558536D01*
X128288553Y-128535998D01*
X128249516Y-128490946D01*
X128245050Y-128482182D01*
X128120109Y-128310213D01*
X127969786Y-128159890D01*
X127797820Y-128034951D01*
X127608414Y-127938444D01*
X127608413Y-127938443D01*
X127608412Y-127938443D01*
X127465260Y-127891930D01*
X127407586Y-127852494D01*
X127380388Y-127788135D01*
X127392303Y-127719289D01*
X127439547Y-127667813D01*
X127503580Y-127650000D01*
X129216420Y-127650000D01*
X129231859Y-127654533D01*
G37*
%TD.AperFunction*%
%TA.AperFunction,NonConductor*%
G36*
X126743459Y-127669685D02*
G01*
X126789214Y-127722489D01*
X126799158Y-127791647D01*
X126770133Y-127855203D01*
X126714739Y-127891930D01*
X126571588Y-127938443D01*
X126571585Y-127938444D01*
X126382179Y-128034951D01*
X126210213Y-128159890D01*
X126059890Y-128310213D01*
X125934949Y-128482182D01*
X125930484Y-128490946D01*
X125882509Y-128541742D01*
X125814688Y-128558536D01*
X125748553Y-128535998D01*
X125709516Y-128490946D01*
X125705050Y-128482182D01*
X125580109Y-128310213D01*
X125429786Y-128159890D01*
X125257820Y-128034951D01*
X125068414Y-127938444D01*
X125068413Y-127938443D01*
X125068412Y-127938443D01*
X124925260Y-127891930D01*
X124867586Y-127852494D01*
X124840388Y-127788135D01*
X124852303Y-127719289D01*
X124899547Y-127667813D01*
X124963580Y-127650000D01*
X126676420Y-127650000D01*
X126743459Y-127669685D01*
G37*
%TD.AperFunction*%
%TA.AperFunction,NonConductor*%
G36*
X153996421Y-92267938D02*
G01*
X154010315Y-92283973D01*
X154070586Y-92366928D01*
X154070589Y-92366931D01*
X154115977Y-92412320D01*
X154117454Y-92415025D01*
X154120087Y-92416632D01*
X154134091Y-92445495D01*
X154149461Y-92473643D01*
X154149241Y-92476717D01*
X154150588Y-92479494D01*
X154146763Y-92511355D01*
X154144476Y-92543335D01*
X154142517Y-92546724D01*
X154142261Y-92548865D01*
X154135594Y-92558709D01*
X154123877Y-92578994D01*
X154120129Y-92583528D01*
X154070586Y-92633072D01*
X154008052Y-92719141D01*
X154005582Y-92722131D01*
X153979715Y-92739620D01*
X153954987Y-92758689D01*
X153951007Y-92759030D01*
X153947702Y-92761266D01*
X153916492Y-92761994D01*
X153885374Y-92764667D01*
X153881842Y-92762803D01*
X153877851Y-92762897D01*
X153851195Y-92746632D01*
X153823579Y-92732061D01*
X153819389Y-92727226D01*
X153818208Y-92726505D01*
X153817499Y-92725043D01*
X153809683Y-92716023D01*
X153749418Y-92633078D01*
X153749414Y-92633072D01*
X153704022Y-92587680D01*
X153670538Y-92526358D01*
X153675522Y-92456666D01*
X153704023Y-92412319D01*
X153749414Y-92366928D01*
X153809682Y-92283975D01*
X153865012Y-92241311D01*
X153934626Y-92235332D01*
X153996421Y-92267938D01*
G37*
%TD.AperFunction*%
M02*
