%TF.GenerationSoftware,KiCad,Pcbnew,9.0.0*%
%TF.CreationDate,2025-03-07T07:16:51+07:00*%
%TF.ProjectId,Driver-DRV8317,44726976-6572-42d4-9452-56383331372e,rev?*%
%TF.SameCoordinates,Original*%
%TF.FileFunction,Paste,Top*%
%TF.FilePolarity,Positive*%
%FSLAX46Y46*%
G04 Gerber Fmt 4.6, Leading zero omitted, Abs format (unit mm)*
G04 Created by KiCad (PCBNEW 9.0.0) date 2025-03-07 07:16:51*
%MOMM*%
%LPD*%
G01*
G04 APERTURE LIST*
G04 Aperture macros list*
%AMRoundRect*
0 Rectangle with rounded corners*
0 $1 Rounding radius*
0 $2 $3 $4 $5 $6 $7 $8 $9 X,Y pos of 4 corners*
0 Add a 4 corners polygon primitive as box body*
4,1,4,$2,$3,$4,$5,$6,$7,$8,$9,$2,$3,0*
0 Add four circle primitives for the rounded corners*
1,1,$1+$1,$2,$3*
1,1,$1+$1,$4,$5*
1,1,$1+$1,$6,$7*
1,1,$1+$1,$8,$9*
0 Add four rect primitives between the rounded corners*
20,1,$1+$1,$2,$3,$4,$5,0*
20,1,$1+$1,$4,$5,$6,$7,0*
20,1,$1+$1,$6,$7,$8,$9,0*
20,1,$1+$1,$8,$9,$2,$3,0*%
G04 Aperture macros list end*
%ADD10RoundRect,0.200000X-0.200000X-0.275000X0.200000X-0.275000X0.200000X0.275000X-0.200000X0.275000X0*%
%ADD11RoundRect,0.225000X-0.225000X-0.250000X0.225000X-0.250000X0.225000X0.250000X-0.225000X0.250000X0*%
%ADD12RoundRect,0.225000X0.225000X0.250000X-0.225000X0.250000X-0.225000X-0.250000X0.225000X-0.250000X0*%
%ADD13RoundRect,0.250000X1.500000X1.000000X-1.500000X1.000000X-1.500000X-1.000000X1.500000X-1.000000X0*%
%ADD14RoundRect,0.225000X-0.250000X0.225000X-0.250000X-0.225000X0.250000X-0.225000X0.250000X0.225000X0*%
%ADD15RoundRect,0.250000X0.550000X-1.500000X0.550000X1.500000X-0.550000X1.500000X-0.550000X-1.500000X0*%
%ADD16RoundRect,0.250000X1.000000X-1.500000X1.000000X1.500000X-1.000000X1.500000X-1.000000X-1.500000X0*%
%ADD17RoundRect,0.150000X-0.150000X-0.200000X0.150000X-0.200000X0.150000X0.200000X-0.150000X0.200000X0*%
%ADD18RoundRect,0.225000X0.250000X-0.225000X0.250000X0.225000X-0.250000X0.225000X-0.250000X-0.225000X0*%
%ADD19RoundRect,0.250000X-0.262500X-0.450000X0.262500X-0.450000X0.262500X0.450000X-0.262500X0.450000X0*%
%ADD20RoundRect,0.250000X-1.500000X-0.550000X1.500000X-0.550000X1.500000X0.550000X-1.500000X0.550000X0*%
%ADD21RoundRect,0.250000X1.450000X-0.400000X1.450000X0.400000X-1.450000X0.400000X-1.450000X-0.400000X0*%
%ADD22RoundRect,0.243750X0.456250X-0.243750X0.456250X0.243750X-0.456250X0.243750X-0.456250X-0.243750X0*%
%ADD23RoundRect,0.375000X-0.375000X0.625000X-0.375000X-0.625000X0.375000X-0.625000X0.375000X0.625000X0*%
%ADD24RoundRect,0.500000X-1.400000X0.500000X-1.400000X-0.500000X1.400000X-0.500000X1.400000X0.500000X0*%
%ADD25RoundRect,0.250000X0.262500X0.450000X-0.262500X0.450000X-0.262500X-0.450000X0.262500X-0.450000X0*%
%ADD26R,0.200000X0.800000*%
%ADD27R,0.800000X0.200000*%
%ADD28R,3.800000X2.800000*%
%ADD29RoundRect,0.150000X-0.150000X0.825000X-0.150000X-0.825000X0.150000X-0.825000X0.150000X0.825000X0*%
%ADD30RoundRect,0.250000X0.300000X-2.050000X0.300000X2.050000X-0.300000X2.050000X-0.300000X-2.050000X0*%
%ADD31RoundRect,0.250000X2.375000X-2.025000X2.375000X2.025000X-2.375000X2.025000X-2.375000X-2.025000X0*%
%ADD32RoundRect,0.250000X0.550000X-1.250000X0.550000X1.250000X-0.550000X1.250000X-0.550000X-1.250000X0*%
%ADD33R,4.400000X4.050000*%
%ADD34RoundRect,0.200000X0.200000X0.275000X-0.200000X0.275000X-0.200000X-0.275000X0.200000X-0.275000X0*%
%ADD35RoundRect,0.250000X0.650000X-1.000000X0.650000X1.000000X-0.650000X1.000000X-0.650000X-1.000000X0*%
G04 APERTURE END LIST*
D10*
%TO.C,R4*%
X149435000Y-123000000D03*
X151085000Y-123000000D03*
%TD*%
D11*
%TO.C,C23*%
X141985000Y-116100000D03*
X143535000Y-116100000D03*
%TD*%
D12*
%TO.C,C39*%
X158250000Y-59150000D03*
X156700000Y-59150000D03*
%TD*%
D13*
%TO.C,C1*%
X141710000Y-96350000D03*
X135210000Y-96350000D03*
%TD*%
D14*
%TO.C,C28*%
X146310000Y-65775000D03*
X146310000Y-67325000D03*
%TD*%
D11*
%TO.C,C34*%
X146260000Y-124550000D03*
X147810000Y-124550000D03*
%TD*%
D10*
%TO.C,R6*%
X143035000Y-122950000D03*
X144685000Y-122950000D03*
%TD*%
D15*
%TO.C,C11*%
X140810000Y-110400000D03*
X140810000Y-104800000D03*
%TD*%
D11*
%TO.C,C32*%
X138535000Y-121150000D03*
X140085000Y-121150000D03*
%TD*%
D10*
%TO.C,R44*%
X156985000Y-112025000D03*
X158635000Y-112025000D03*
%TD*%
D16*
%TO.C,C4*%
X134100000Y-70050000D03*
X134100000Y-63550000D03*
%TD*%
D17*
%TO.C,D3*%
X146210000Y-71550000D03*
X144810000Y-71550000D03*
%TD*%
D18*
%TO.C,C26*%
X136060000Y-108550000D03*
X136060000Y-107000000D03*
%TD*%
D19*
%TO.C,R35*%
X159597500Y-103600000D03*
X161422500Y-103600000D03*
%TD*%
D11*
%TO.C,C20*%
X130410000Y-111750000D03*
X131960000Y-111750000D03*
%TD*%
D16*
%TO.C,C2*%
X156710000Y-83800000D03*
X156710000Y-77300000D03*
%TD*%
D20*
%TO.C,C12*%
X125010000Y-106950000D03*
X130610000Y-106950000D03*
%TD*%
D10*
%TO.C,R43*%
X147485000Y-111950000D03*
X149135000Y-111950000D03*
%TD*%
D21*
%TO.C,L2*%
X149310000Y-71575000D03*
X149310000Y-67125000D03*
%TD*%
D12*
%TO.C,C31*%
X134860000Y-114050000D03*
X133310000Y-114050000D03*
%TD*%
D10*
%TO.C,R5*%
X146235000Y-123000000D03*
X147885000Y-123000000D03*
%TD*%
D22*
%TO.C,D5*%
X163660000Y-105450000D03*
X163660000Y-103575000D03*
%TD*%
D12*
%TO.C,C38*%
X159650000Y-61150000D03*
X158100000Y-61150000D03*
%TD*%
D23*
%TO.C,U3*%
X159975000Y-63950000D03*
X157675000Y-63950000D03*
D24*
X157675000Y-70250000D03*
D23*
X155375000Y-63950000D03*
%TD*%
D25*
%TO.C,R34*%
X161435000Y-105700000D03*
X159610000Y-105700000D03*
%TD*%
%TO.C,R42*%
X140322500Y-123400000D03*
X138497500Y-123400000D03*
%TD*%
D26*
%TO.C,IC3*%
X134910000Y-116750000D03*
X134510000Y-116750000D03*
X134110000Y-116750000D03*
X133710000Y-116750000D03*
X133310000Y-116750000D03*
X132910000Y-116750000D03*
X132510000Y-116750000D03*
X132110000Y-116750000D03*
X131710000Y-116750000D03*
X131310000Y-116750000D03*
D27*
X130610000Y-117350000D03*
X130610000Y-117750000D03*
X130610000Y-118150000D03*
X130610000Y-118550000D03*
X130610000Y-118950000D03*
X130610000Y-119350000D03*
X130610000Y-119750000D03*
X130610000Y-120150000D03*
D26*
X131310000Y-120750000D03*
X131710000Y-120750000D03*
X132110000Y-120750000D03*
X132510000Y-120750000D03*
X132910000Y-120750000D03*
X133310000Y-120750000D03*
X133710000Y-120750000D03*
X134110000Y-120750000D03*
X134510000Y-120750000D03*
X134910000Y-120750000D03*
D27*
X135610000Y-120150000D03*
X135610000Y-119750000D03*
X135610000Y-119350000D03*
X135610000Y-118950000D03*
X135610000Y-118550000D03*
X135610000Y-118150000D03*
X135610000Y-117750000D03*
X135610000Y-117350000D03*
D28*
X133110000Y-118750000D03*
%TD*%
D29*
%TO.C,U2*%
X144310000Y-64200000D03*
X143040000Y-64200000D03*
X141770000Y-64200000D03*
X140500000Y-64200000D03*
X140500000Y-69150000D03*
X141770000Y-69150000D03*
X143040000Y-69150000D03*
X144310000Y-69150000D03*
%TD*%
D30*
%TO.C,U1*%
X142760000Y-88930000D03*
X144460000Y-88930000D03*
X146160000Y-88930000D03*
D31*
X143385000Y-82205000D03*
X148935000Y-82205000D03*
X143385000Y-77355000D03*
X148935000Y-77355000D03*
D30*
X147860000Y-88930000D03*
X149560000Y-88930000D03*
%TD*%
D11*
%TO.C,C33*%
X149485000Y-124600000D03*
X151035000Y-124600000D03*
%TD*%
D32*
%TO.C,C5*%
X149310000Y-63550000D03*
X149310000Y-59150000D03*
%TD*%
D11*
%TO.C,C35*%
X143085000Y-124500000D03*
X144635000Y-124500000D03*
%TD*%
D18*
%TO.C,C3*%
X133160000Y-82405000D03*
X133160000Y-80855000D03*
%TD*%
D33*
%TO.C,L1*%
X158410000Y-98955000D03*
X158410000Y-89505000D03*
%TD*%
D12*
%TO.C,C22*%
X130485000Y-113950000D03*
X128935000Y-113950000D03*
%TD*%
D34*
%TO.C,R3*%
X138760000Y-86450000D03*
X137110000Y-86450000D03*
%TD*%
D35*
%TO.C,D1*%
X149560000Y-98830000D03*
X149560000Y-94830000D03*
%TD*%
M02*
