M48
; DRILL file {KiCad 9.0.0} date 2025-03-07T07:16:58+0700
; FORMAT={-:-/ absolute / inch / decimal}
; #@! TF.CreationDate,2025-03-07T07:16:58+07:00
; #@! TF.GenerationSoftware,Kicad,Pcbnew,9.0.0
; #@! TF.FileFunction,Plated,1,4,PTH
FMAT,2
INCH
; #@! TA.AperFunction,Plated,PTH,ViaDrill
T1C0.0118
; #@! TA.AperFunction,Plated,PTH,ViaDrill
T2C0.0236
; #@! TA.AperFunction,Plated,PTH,ComponentDrill
T3C0.0315
; #@! TA.AperFunction,Plated,PTH,ComponentDrill
T4C0.0394
; #@! TA.AperFunction,Plated,PTH,ComponentDrill
T5C0.0512
; #@! TA.AperFunction,Plated,PTH,ComponentDrill
T6C0.0787
; #@! TA.AperFunction,Plated,PTH,ComponentDrill
T7C0.1142
%
G90
G05
T1
X4.5004Y-4.0768
X4.5004Y-4.1161
X4.5004Y-4.1555
X4.5004Y-4.1949
X4.5004Y-4.2343
X4.5004Y-4.2736
X4.5398Y-4.0768
X4.5398Y-4.1161
X4.5398Y-4.1555
X4.5398Y-4.1949
X4.5398Y-4.2343
X4.5398Y-4.2736
X4.5791Y-4.0768
X4.5791Y-4.1161
X4.5791Y-4.1555
X4.5791Y-4.1949
X4.5791Y-4.2343
X4.5791Y-4.2736
X4.6185Y-4.0768
X4.6185Y-4.1161
X4.6185Y-4.1555
X4.6185Y-4.1949
X4.6185Y-4.2343
X4.6185Y-4.2736
X4.6579Y-4.0768
X4.6579Y-4.1161
X4.6579Y-4.1555
X4.6579Y-4.1949
X4.6579Y-4.2343
X4.6579Y-4.2736
X4.6972Y-4.0768
X4.6972Y-4.1161
X4.6972Y-4.1555
X4.6972Y-4.1949
X4.6972Y-4.2343
X4.6972Y-4.2736
X4.7366Y-4.0768
X4.7366Y-4.1161
X4.7366Y-4.1555
X4.7366Y-4.1949
X4.7366Y-4.2343
X4.7366Y-4.2736
X4.776Y-4.0768
X4.776Y-4.1161
X4.776Y-4.1555
X4.776Y-4.1949
X4.776Y-4.2343
X4.776Y-4.2736
X4.9327Y-4.8074
X4.9413Y-4.5512
X4.9721Y-4.8074
X4.9807Y-4.5512
X5.0115Y-4.7681
X5.0115Y-4.8074
X5.0201Y-4.5512
X5.0201Y-4.5906
X5.0509Y-4.7681
X5.0509Y-4.8074
X5.0516Y-4.0374
X5.0516Y-4.0768
X5.0516Y-4.1161
X5.0516Y-4.1555
X5.0516Y-4.1949
X5.0516Y-4.2343
X5.0555Y-4.6516
X5.0555Y-4.6988
X5.0594Y-4.5512
X5.0594Y-4.5906
X5.0902Y-4.7681
X5.0902Y-4.8074
X5.0909Y-4.0374
X5.0909Y-4.0768
X5.0909Y-4.1161
X5.0909Y-4.1555
X5.0988Y-4.5512
X5.0988Y-4.5906
X5.1296Y-4.7681
X5.1296Y-4.8074
X5.1303Y-4.0374
X5.1303Y-4.0768
X5.1303Y-4.1161
X5.1303Y-4.1555
X5.1382Y-4.5906
X5.1697Y-4.0374
X5.1697Y-4.0768
X5.1697Y-4.1161
X5.1697Y-4.1555
X5.1815Y-4.6358
X5.1815Y-4.6555
X5.1815Y-4.6752
X5.1815Y-4.6949
X5.1815Y-4.7146
X5.1835Y-4.7874
X5.2047Y-4.811
X5.2051Y-4.6358
X5.2051Y-4.6555
X5.2051Y-4.6752
X5.2051Y-4.6949
X5.2051Y-4.7146
X5.2087Y-4.5512
X5.2091Y-4.0374
X5.2091Y-4.0768
X5.2091Y-4.1161
X5.2091Y-4.1555
X5.272Y-4.6358
X5.272Y-4.6555
X5.272Y-4.6752
X5.272Y-4.6949
X5.272Y-4.7146
X5.2957Y-4.6358
X5.2957Y-4.6555
X5.2957Y-4.6752
X5.2957Y-4.6949
X5.2957Y-4.7146
X5.3075Y-4.5531
X5.3721Y-4.6773
X5.3862Y-4.7382
X5.3941Y-3.4941
X5.3941Y-4.7657
X5.4Y-4.5984
X5.4094Y-4.6909
X5.4252Y-4.7146
X5.4636Y-4.6778
X5.5147Y-4.8081
X5.5319Y-4.5728
X5.5624Y-4.7697
X5.5634Y-2.876
X5.5634Y-2.9154
X5.6028Y-2.876
X5.6028Y-2.9154
X5.6343Y-4.6634
X5.6421Y-2.876
X5.6421Y-2.9154
X5.65Y-4.5197
X5.6539Y-4.8091
X5.6815Y-2.876
X5.6815Y-2.9154
X5.7209Y-2.876
X5.7209Y-2.9154
X5.7602Y-2.876
X5.7602Y-2.9154
X5.7996Y-2.876
X5.7996Y-2.9154
X5.8213Y-3.3661
X5.839Y-2.876
X5.839Y-2.9154
X5.8783Y-2.876
X5.8783Y-2.9154
X5.9177Y-2.876
X5.9177Y-2.9154
X5.9492Y-2.4626
X5.9571Y-2.876
X5.9571Y-2.9154
X6.0949Y-2.6417
X6.0949Y-2.6732
X6.0949Y-2.7047
X6.1303Y-2.6417
X6.1303Y-2.6732
X6.1303Y-2.7047
X6.1657Y-2.6417
X6.1657Y-2.6732
X6.1657Y-2.7047
X6.2012Y-2.2894
X6.2524Y-2.6437
X6.2524Y-2.6752
X6.2524Y-2.7067
X6.2878Y-2.6437
X6.2878Y-2.6752
X6.2878Y-2.7067
X6.3232Y-2.6437
X6.3232Y-2.6752
X6.3232Y-2.7067
X6.3547Y-4.2283
X6.4098Y-4.8406
X6.4433Y-4.2244
T2
X4.8626Y-4.0768
X4.8626Y-4.1358
X4.8626Y-4.2854
X4.8626Y-4.3445
X4.9177Y-4.0768
X4.9177Y-4.1358
X4.9177Y-4.2854
X4.9177Y-4.3445
X4.9728Y-4.0768
X4.9728Y-4.1358
X4.9728Y-4.2854
X4.9728Y-4.3445
X6.0201Y-3.4902
X6.0201Y-3.5492
X6.0201Y-3.6083
X6.0201Y-3.6752
X6.0988Y-3.4902
X6.0988Y-3.5492
X6.0988Y-3.6083
X6.0988Y-3.6752
X6.1933Y-3.6358
X6.1933Y-3.6909
X6.272Y-3.6358
X6.272Y-3.6909
T3
X5.398Y-3.061
X5.398Y-3.161
X5.398Y-3.261
X5.7764Y-4.2421
X5.7819Y-4.5098
X5.8764Y-4.2421
X5.8819Y-4.5098
X6.1638Y-4.5128
X6.2638Y-4.5128
T4
X4.9035Y-5.0862
X4.9035Y-5.1862
X5.0035Y-5.0862
X5.0035Y-5.1862
X5.1035Y-5.0862
X5.1035Y-5.1862
X5.2035Y-5.0862
X5.2035Y-5.1862
X5.3035Y-5.0862
X5.3035Y-5.1862
X5.4035Y-5.0862
X5.4035Y-5.1862
X5.5035Y-5.0862
X5.5035Y-5.1862
X5.6035Y-5.0862
X5.6035Y-5.1862
X5.7035Y-5.0862
X5.7035Y-5.1862
X5.7807Y-4.6437
X5.8035Y-5.0862
X5.8035Y-5.1862
X5.8807Y-4.6437
X5.9035Y-5.0862
X5.9035Y-5.1862
X5.9807Y-4.6437
X6.0035Y-5.0862
X6.0035Y-5.1862
X6.1035Y-5.0862
X6.1035Y-5.1862
X6.1657Y-4.6467
X6.2657Y-4.6467
X6.3657Y-4.6467
T5
X4.6417Y-4.3996
X4.6417Y-4.5965
X4.6417Y-4.7933
T6
X4.8311Y-3.4075
X4.8311Y-3.939
T7
X5.0673Y-3.5315
X5.0673Y-3.815
T4
G00X4.7484Y-2.7303
M15
G01X4.7484Y-2.8169
M16
G05
G00X4.9256Y-2.9626
M15
G01X4.839Y-2.9626
M16
G05
G00X4.9965Y-2.7224
M15
G01X4.9965Y-2.8248
M16
G05
M30
